<svg xmlns="http://www.w3.org/2000/svg" width="20.807" height="21" viewBox="0 0 20.807 21">
  <g id="Group_16" data-name="Group 16" transform="translate(-3.23)">
    <g id="noun_notification_1824077" transform="translate(3.23 1.081)">
      <g id="Layer_19" data-name="Layer 19">
        <path id="Path_1" data-name="Path 1" d="M31.639,22.663l-.129-.174h0s-2.389-3.26-2.389-5.712h0a5.054,5.054,0,0,0-3.909-4.624,1.749,1.749,0,0,0,.024-.277,1.944,1.944,0,0,0-3.885,0,1.75,1.75,0,0,0,.024.277,5.054,5.054,0,0,0-3.909,4.624c0,2.453-2.389,5.72-2.389,5.72h0l-.129.174c-.6.818.1,1.876,1.241,1.876H30.4C31.549,24.539,32.236,23.489,31.639,22.663Z" transform="translate(-14.73 -10)" fill="#fff"/>
        <path id="Path_2" data-name="Path 2" d="M40.186,80.186A4.186,4.186,0,0,0,44.372,76H36A4.186,4.186,0,0,0,40.186,80.186Z" transform="translate(-31.622 -60.267)" fill="#fff"/>
      </g>
    </g>
  </g>
</svg>
