<svg xmlns="http://www.w3.org/2000/svg" width="23.999" height="24" viewBox="0 0 23.999 24">
  <path id="Shape" d="M12,24A12,12,0,1,1,24,12,12.013,12.013,0,0,1,12,24ZM8.185,12.872a.49.49,0,0,1,.134.02.473.473,0,0,1,.319.318,6.1,6.1,0,0,0,1.108,2.219.472.472,0,0,1,.111.3v1.337a.963.963,0,0,1-.491.812.477.477,0,0,1-.118.043,15.554,15.554,0,0,0-4.842,2.1,11.03,11.03,0,0,0,15.191,0,15.4,15.4,0,0,0-4.841-2.1.443.443,0,0,1-.117-.042.951.951,0,0,1-.492-.813V15.732a.469.469,0,0,1,.111-.3,6.1,6.1,0,0,0,1.107-2.219.466.466,0,0,1,.319-.319.479.479,0,0,1,.134-.02.469.469,0,0,1,.292.1,6.958,6.958,0,0,0,.246-1.82l-.013,0h-.034a.469.469,0,0,1-.468-.54c.125-.828.3-2.892-.8-4.171A3.813,3.813,0,0,0,12,5.309,3.81,3.81,0,0,0,8.962,6.448c-1.1,1.278-.926,3.342-.8,4.17a.469.469,0,0,1-.468.54.407.407,0,0,1-.047,0,6.925,6.925,0,0,0,.245,1.82A.471.471,0,0,1,8.185,12.872ZM16.1,13.977A6.75,6.75,0,0,1,15.086,15.9v1.137a15.8,15.8,0,0,1,5.18,2.3,11.058,11.058,0,1,0-16.533,0,15.986,15.986,0,0,1,5.181-2.3V15.9A6.77,6.77,0,0,1,7.9,13.977l-.064,0a.8.8,0,0,1-.653-.352,5.245,5.245,0,0,1-.338-3.187.616.616,0,0,1,.321-.248A5.888,5.888,0,0,1,8.249,5.834,4.7,4.7,0,0,1,12,4.369a4.7,4.7,0,0,1,3.751,1.464,5.889,5.889,0,0,1,1.086,4.36.623.623,0,0,1,.322.248,5.252,5.252,0,0,1-.338,3.186.8.8,0,0,1-.654.353l-.064,0Z" fill="#fff"/>
</svg>
