<svg xmlns="http://www.w3.org/2000/svg" width="19.556" height="19.5" viewBox="0 0 19.556 19.5">
  <g id="Group_3" data-name="Group 3" transform="translate(-0.222 -0.25)">
    <path id="Shape" d="M0,13.889a3.9,3.9,0,0,0,3.889,3.889h10a3.9,3.9,0,0,0,3.889-3.889V7.778a1.114,1.114,0,0,0-1.111-1.111h0a1.114,1.114,0,0,0-1.111,1.111v6.111a1.672,1.672,0,0,1-1.667,1.667h-10a1.672,1.672,0,0,1-1.667-1.667v-10A1.672,1.672,0,0,1,3.889,2.222H10A1.111,1.111,0,0,0,10,0H3.889A3.9,3.9,0,0,0,0,3.889Z" transform="translate(0.222 1.972)" fill="#2f94d1"/>
    <path id="Shape-2" data-name="Shape" d="M11.281,1.111a.612.612,0,0,0-.028-.222c0-.028,0-.028-.028-.056A.212.212,0,0,0,11.17.694a.1.1,0,0,0-.028-.056C11.115.583,11.087.556,11.087.5a1.592,1.592,0,0,0-.306-.306A.211.211,0,0,0,10.67.139c-.028,0-.056-.028-.083-.028C10.531.083,10.5.083,10.448.056L10.392.028C10.337.028,10.254,0,10.2,0H5.059a1.111,1.111,0,0,0,0,2.222H7.476L.309,9.389a1.132,1.132,0,0,0,.028,1.583,1.09,1.09,0,0,0,1.528,0L9.059,3.806V6.222A1.114,1.114,0,0,0,10.17,7.333h0a1.114,1.114,0,0,0,1.111-1.111Z" transform="translate(8.496 0.25)" fill="#2f94d1"/>
  </g>
</svg>
