<svg id="Group_16" data-name="Group 16" xmlns="http://www.w3.org/2000/svg" width="28" height="25.145" viewBox="0 0 28 25.145">
  <path id="Shape" d="M19.159,21.145a1.456,1.456,0,0,1-.811-.273L13.318,17.5a4.038,4.038,0,0,0-1.853-.563H1.791A1.793,1.793,0,0,1,0,15.146V1.791A1.793,1.793,0,0,1,1.791,0H22.209A1.793,1.793,0,0,1,24,1.791V15.146a1.793,1.793,0,0,1-1.791,1.791H20.817a.584.584,0,0,0-.585.59l.025,2.313a1.335,1.335,0,0,1-.354,1A1.036,1.036,0,0,1,19.159,21.145Zm3.05-19.951H1.791a.6.6,0,0,0-.6.6V15.146a.6.6,0,0,0,.6.6h9.674a5.224,5.224,0,0,1,2.518.765l5.03,3.371a.507.507,0,0,0,.049.03.553.553,0,0,0,0-.057l-.024-2.313a1.781,1.781,0,0,1,1.778-1.8h1.392a.6.6,0,0,0,.6-.6V1.791A.6.6,0,0,0,22.209,1.193ZM17.628,9.65a1.418,1.418,0,1,1,1.418-1.418A1.419,1.419,0,0,1,17.628,9.65ZM12,9.65a1.418,1.418,0,1,1,1.418-1.418A1.419,1.419,0,0,1,12,9.65Zm-5.629,0A1.418,1.418,0,1,1,7.789,8.232,1.419,1.419,0,0,1,6.371,9.65Z" transform="translate(0 4)" fill="#fff"/>
</svg>
