<?xml version="1.0" encoding="UTF-8"?>
<svg width="42px" height="42px" viewBox="0 0 42 42" version="1.1" xmlns="http://www.w3.org/2000/svg" xmlns:xlink="http://www.w3.org/1999/xlink">
    <!-- Generator: Sketch 45.2 (43514) - http://www.bohemiancoding.com/sketch -->
    <title>Shape</title>
    <desc>Created with Sketch.</desc>
    <defs>
        <linearGradient x1="50%" y1="0%" x2="50%" y2="100%" id="linearGradient-1">
            <stop stop-color="#FDE100" offset="0%"></stop>
            <stop stop-color="#3391CE" offset="29.9104609%"></stop>
            <stop stop-color="#EA5626" offset="64.839764%"></stop>
            <stop stop-color="#4FB248" offset="100%"></stop>
        </linearGradient>
    </defs>
    <g id="Page-1" stroke="none" stroke-width="1" fill="none" fill-rule="evenodd">
        <g id="Desktop-HD" transform="translate(-730.000000, -848.000000)" fill-rule="nonzero" fill="url(#linearGradient-1)">
            <path d="M771.647181,867.62211 C771.310468,867.427419 770.87829,867.542635 770.683598,867.880288 L767.443912,873.491544 L764.45582,873.491544 C764.119577,873.491544 763.809199,873.670716 763.641313,873.961813 L762.195235,876.465998 L756.591974,876.465998 L753.28645,870.741408 C753.309493,870.713192 753.334888,870.687327 753.353699,870.654408 L757.760594,863.020994 L763.098152,863.020994 L765.413289,867.031452 C765.543553,867.257652 765.781039,867.384154 766.024639,867.384154 C766.144558,867.384154 766.265887,867.353587 766.376871,867.28963 C766.714524,867.094468 766.82974,866.663231 766.635049,866.326048 L764.319912,862.31606 L767.005621,857.664625 L770.811041,857.664625 C771.200425,857.664625 771.516446,857.349074 771.516446,856.959221 C771.516446,856.569367 771.200425,856.253817 770.811041,856.253817 L767.005621,856.253817 L764.184475,851.367717 C764.016588,851.07662 763.70574,850.897447 763.369968,850.897447 L757.834896,850.897447 L756.365775,848.352819 C756.171553,848.015166 755.738905,847.89995 755.402192,848.094642 C755.064539,848.289333 754.949323,848.72104 755.144014,849.058224 L756.559526,851.509738 L753.684298,856.488951 C753.516882,856.780048 753.516882,857.138393 753.684298,857.42949 L756.522374,862.345217 L752.132409,869.949474 C752.11689,869.976279 752.107014,870.004025 752.095258,870.031771 L745.531707,870.031771 L743.137565,865.884935 L745.164897,862.372963 C745.332312,862.081866 745.332312,861.723521 745.164897,861.432424 L743.239613,858.097273 L745.116929,854.84536 L747.259006,854.84536 C747.595249,854.84536 747.905627,854.666187 748.073513,854.37509 L749.266587,852.308256 C749.434003,852.017159 749.434003,851.658814 749.266587,851.367717 L748.073513,849.300412 C747.905627,849.009316 747.594779,848.830143 747.259006,848.830143 L744.872389,848.830143 C744.536146,848.830143 744.225768,849.009316 744.057882,849.300412 L743.000246,851.132582 L740.103386,851.132582 C739.714003,851.132582 739.397982,851.448133 739.397982,851.837986 C739.397982,852.22784 739.714003,852.543391 740.103386,852.543391 L743.000246,852.543391 L743.908807,854.116912 L742.080399,857.284177 L737.979179,857.284177 C737.642937,857.284177 737.332559,857.46335 737.164673,857.754446 L735.176844,861.197759 L730.838138,861.197759 C730.448754,861.197759 730.132733,861.51331 730.132733,861.903164 C730.132733,862.293017 730.448754,862.608568 730.838138,862.608568 L735.176844,862.608568 L737.164673,866.051881 C737.332559,866.342978 737.643407,866.52215 737.979179,866.52215 L741.876302,866.52215 L744.267152,870.663813 L740.916482,876.466938 L737.089429,876.466938 L735.996993,874.575515 C735.870961,874.35731 735.638178,874.222813 735.386113,874.222813 L733.182431,874.222813 L731.347439,871.04238 C731.152748,870.704727 730.72104,870.589511 730.383857,870.784202 C730.046204,870.978894 729.930988,871.410601 730.125679,871.747784 L731.971017,874.943265 L730.888456,876.81823 C730.761954,877.036435 730.761954,877.305429 730.888456,877.523634 L732.019454,879.482776 L730.094642,882.816517 C729.89995,883.1537 730.015166,883.585407 730.352819,883.780099 C730.463803,883.844526 730.585133,883.875093 730.705051,883.875093 C730.948651,883.875093 731.185667,883.74812 731.316402,883.522391 L733.279777,880.121402 L735.386584,880.121402 C735.638648,880.121402 735.871432,879.986905 735.997464,879.7687 L737.0899,877.876806 L740.917423,877.876806 L744.361206,883.841234 C744.529092,884.132331 744.83994,884.311503 745.175713,884.311503 L752.096668,884.311503 L755.089933,889.496224 C755.220198,889.722424 755.457684,889.848926 755.701284,889.848926 C755.821202,889.848926 755.942532,889.818359 756.053516,889.753932 C756.391169,889.55924 756.506385,889.127533 756.311694,888.79035 L753.301499,883.576472 L756.592444,877.876806 L762.195705,877.876806 L763.641784,880.380991 C763.80967,880.672088 764.120518,880.851261 764.45629,880.851261 L767.176799,880.851261 L769.578935,885.012205 C769.7092,885.238404 769.946686,885.364907 770.190286,885.364907 C770.310204,885.364907 770.431534,885.334339 770.542518,885.269912 C770.880171,885.075221 770.995387,884.643514 770.800696,884.30633 L768.483678,880.293991 L770.015346,877.641672 C770.182761,877.350575 770.182761,876.992229 770.015346,876.701133 L768.617705,874.280656 L771.905358,868.586163 C772.10005,868.248039 771.984834,867.816802 771.647181,867.62211 Z M757.99855,852.778055 L762.826807,852.778055 L765.2407,856.958751 L762.826807,861.139916 L757.99855,861.139916 L755.584657,856.958751 L757.99855,852.778055 Z M745.41555,850.710751 L746.716316,850.710751 L747.366698,851.837516 L746.716786,852.963811 L745.41555,852.963811 L744.765168,851.837516 L745.41555,850.710751 Z M736.941765,861.902223 L738.52187,859.164314 L741.683962,859.164314 L743.264067,861.902223 L741.683962,864.640132 L738.52187,864.640132 L736.941765,861.902223 Z M734.97933,878.710124 L733.202652,878.710124 L732.313843,877.170932 L733.139636,875.740842 C733.168323,875.729086 733.19795,875.721091 733.225696,875.705102 C733.262847,875.68347 733.296236,875.658545 733.327744,875.63174 L734.97933,875.63174 L735.856383,877.15024 C735.856383,877.157294 735.854502,877.163408 735.854502,877.170462 C735.854502,877.177516 735.856383,877.184099 735.856383,877.190683 L734.97933,878.710124 Z M751.790993,882.429955 L745.718404,882.429955 L742.682344,877.170932 L745.718404,871.911908 L751.790993,871.911908 L754.827053,877.170932 L751.790993,882.429955 Z M763.960626,877.170932 L764.998981,875.372151 L767.076161,875.372151 L768.114516,877.170932 L767.076161,878.969713 L764.998981,878.969713 L763.960626,877.170932 Z M748.754934,873.466619 C746.712083,873.466619 745.050151,875.128552 745.050151,877.170932 C745.050151,879.213312 746.712083,880.875715 748.754934,880.875715 C750.797784,880.875715 752.459246,879.213782 752.459246,877.170932 C752.459246,875.128081 750.797314,873.466619 748.754934,873.466619 Z M748.754934,879.935176 C747.23079,879.935176 745.99069,878.695075 745.99069,877.170932 C745.99069,875.646789 747.23079,874.407158 748.754934,874.407158 C750.278607,874.407158 751.518707,875.647259 751.518707,877.170932 C751.518707,878.695075 750.278607,879.935176 748.754934,879.935176 Z M760.412443,859.841502 C762.002424,859.841502 763.295665,858.548261 763.295665,856.958751 C763.295665,855.36924 762.002424,854.075999 760.412443,854.075999 C758.822932,854.075999 757.529691,855.36924 757.529691,856.958751 C757.529691,858.548261 758.822932,859.841502 760.412443,859.841502 Z M760.412443,855.016067 C761.483247,855.016067 762.355126,855.887477 762.355126,856.95828 C762.355126,858.029084 761.483247,858.900493 760.412443,858.900493 C759.34164,858.900493 758.47023,858.029084 758.47023,856.95828 C758.47023,855.887477 759.341169,855.016067 760.412443,855.016067 Z M740.103386,860.332464 C739.23762,860.332464 738.533627,861.036457 738.533627,861.901753 C738.533627,862.767049 739.23762,863.471042 740.103386,863.471042 C740.968682,863.471042 741.672676,862.767049 741.672676,861.901753 C741.672676,861.036457 740.968682,860.332464 740.103386,860.332464 Z M740.103386,863.001243 C739.497209,863.001243 739.003896,862.5084 739.003896,861.902223 C739.003896,861.296046 739.497209,860.803203 740.103386,860.803203 C740.709564,860.803203 741.202406,861.296046 741.202406,861.902223 C741.202406,862.5084 740.709564,863.001243 740.103386,863.001243 Z" id="Shape"></path>
        </g>
    </g>
</svg>