<?xml version="1.0" encoding="UTF-8"?>
<svg width="45px" height="36px" viewBox="0 0 45 36" version="1.1" xmlns="http://www.w3.org/2000/svg" xmlns:xlink="http://www.w3.org/1999/xlink">
    <!-- Generator: Sketch 45.2 (43514) - http://www.bohemiancoding.com/sketch -->
    <title>Shape</title>
    <desc>Created with Sketch.</desc>
    <defs>
        <linearGradient x1="50%" y1="0%" x2="50%" y2="100%" id="linearGradient-1">
            <stop stop-color="#FDE100" offset="0%"></stop>
            <stop stop-color="#3391CE" offset="29.9104609%"></stop>
            <stop stop-color="#EA5626" offset="64.839764%"></stop>
            <stop stop-color="#4FB248" offset="100%"></stop>
        </linearGradient>
    </defs>
    <g id="Page-1" stroke="none" stroke-width="1" fill="none" fill-rule="evenodd">
        <g id="Desktop-HD" transform="translate(-729.000000, -385.000000)" stroke="url(#linearGradient-1)" stroke-width="0.6" fill="url(#linearGradient-1)" fill-rule="nonzero">
            <path d="M759.208759,388.259283 C754.342392,385.775408 748.817039,385.319187 743.646524,386.992 C738.47601,388.664813 734.268631,392.263897 731.784756,397.079572 C729.807795,400.982803 729.452956,405.443639 730.821621,409.600327 C732.190287,413.757015 735.029001,417.153333 738.932232,419.130295 C740.858502,420.09343 742.886155,420.600343 744.913807,420.600343 C749.171878,420.600343 753.277875,418.57269 755.761749,414.922915 C755.863132,415.227063 756.978341,416.494346 759.512906,417.305407 C761.236411,417.863012 763.669594,418.268542 766.812456,417.660246 C770.664996,416.950568 772.946105,414.568076 772.996797,411.273141 C773.148871,401.540408 767.876974,392.720119 759.208759,388.259283 Z M766.052086,394.849154 C768.181122,397.333029 766.761765,400.07036 765.747938,401.489717 C763.568212,404.531195 759.411524,406.761613 757.535945,405.899861 C757.485254,405.697096 757.434562,405.443639 757.383871,405.240874 C756.724884,403.213221 755.508292,401.489717 753.936862,400.222434 C755.863132,398.803077 756.927649,394.69708 756.57281,391.554218 C756.370045,389.881405 755.81244,388.563431 754.950688,387.650987 C756.268662,388.005826 757.586636,388.51274 758.803228,389.121035 C761.59125,390.591083 764.024434,392.517354 766.052086,394.849154 Z M745.42072,411.830745 C744.913807,411.678671 744.660351,411.222449 744.711042,410.512771 C744.761733,409.448253 745.471412,408.485118 745.77556,408.434427 L745.826251,408.434427 C745.876942,408.434427 745.978325,408.434427 746.029016,408.434427 C746.029016,409.245488 746.485238,410.259314 747.042843,410.918301 C747.296299,411.222449 747.549756,411.425215 747.853904,411.577288 C747.093534,411.830745 746.282473,411.932128 745.42072,411.830745 Z M741.720254,409.397562 C741.466798,408.94134 741.618872,408.485118 742.125785,408.079588 C742.835463,407.420601 743.899981,407.217835 744.153438,407.369909 C744.305512,407.572674 744.457585,407.77544 744.660351,407.927514 C744.711042,407.927514 744.711042,407.978205 744.761733,407.978205 C744.204129,408.586501 743.84929,409.549636 743.798598,410.411388 C743.798598,410.715536 743.798598,411.019684 743.84929,411.273141 C742.936846,410.766227 742.227168,410.157932 741.720254,409.397562 Z M745.77556,399.462064 C747.194917,399.005842 748.614273,398.955151 750.03363,399.360681 C750.996765,399.614138 751.098148,400.526581 751.098148,401.23626 C750.996765,402.503543 750.287087,403.669443 749.780174,403.9229 C749.577408,403.770826 749.374643,403.618752 749.121187,403.517369 C748.563582,403.213221 747.904595,403.061147 747.296299,403.061147 C747.34699,402.148704 746.890769,400.982803 746.231782,400.222434 C745.978325,399.968977 745.724868,399.71552 745.471412,399.563446 C745.572794,399.563446 745.674177,399.512755 745.77556,399.462064 Z M755.508292,403.618752 C756.015206,404.581887 755.40691,405.392948 754.849305,405.899861 C753.734096,406.862996 752.162666,407.217835 751.605061,406.964379 C751.55437,406.710922 751.503678,406.406774 751.402296,406.153318 C751.199531,405.545022 750.895383,404.987417 750.489852,404.531195 C751.300913,403.872208 751.9599,402.452852 752.010592,401.23626 C752.061283,400.830729 752.010592,400.47589 751.909209,400.121051 C753.429948,400.982803 754.697231,402.199395 755.508292,403.618752 Z M749.222569,410.664845 C748.766347,410.968993 748.259434,410.766227 747.803212,410.208623 C747.448373,409.803092 747.194917,409.296179 747.093534,408.890649 C747.70183,409.296179 748.512891,409.600327 749.273261,409.651018 C749.374643,409.651018 749.425334,409.651018 749.526717,409.651018 C749.729482,409.651018 749.932248,409.600327 750.135013,409.600327 C749.881556,410.005858 749.6281,410.411388 749.222569,410.664845 Z M749.323952,408.637192 C748.766347,408.586501 748.259434,408.383736 747.853904,408.18097 C748.512891,408.028896 749.273261,407.674057 749.780174,407.217835 C750.084322,406.964379 750.287087,406.660231 750.439161,406.406774 C750.439161,406.457466 750.439161,406.457466 750.489852,406.508157 C750.641926,406.964379 750.743309,407.471292 750.641926,407.927514 C750.540543,408.485118 750.084322,408.687883 749.323952,408.637192 Z M744.863116,405.595713 C744.964499,405.49433 745.319338,405.49433 745.623486,405.798478 C746.079708,406.2547 746.383855,407.01507 746.231782,407.268527 C746.029016,407.623366 745.572794,407.471292 745.268647,407.217835 C744.863116,406.812305 744.508277,406.051935 744.863116,405.595713 Z M749.577408,405.038109 C749.830865,405.545022 749.729482,406.001244 749.171878,406.508157 C748.817039,406.862996 748.360817,407.065761 747.955286,407.167144 C748.259434,406.609539 748.512891,405.950552 748.512891,405.342257 C748.563582,404.936726 748.462199,404.531195 748.360817,404.227048 C748.462199,404.277739 748.614273,404.32843 748.715656,404.379122 C749.019804,404.531195 749.476026,404.835343 749.577408,405.038109 Z M746.434547,404.176356 C746.586621,404.125665 746.688003,404.125665 746.840077,404.074974 C747.34699,404.227048 747.549756,404.632578 747.499064,405.291565 C747.448373,405.747787 747.296299,406.204009 747.144225,406.558848 C746.992151,406.102626 746.789386,405.595713 746.434547,405.240874 C746.18109,404.936726 745.876942,404.733961 745.623486,404.632578 C745.876942,404.429813 746.130399,404.277739 746.434547,404.176356 Z M743.84929,400.425199 C744.406894,400.121051 744.964499,400.273125 745.471412,400.881421 C746.130399,401.64179 746.434547,402.756999 746.282473,403.16253 C746.231782,403.16253 746.18109,403.213221 746.130399,403.213221 C745.522103,403.415987 744.964499,403.770826 744.558968,404.277739 C744.001364,403.720134 742.987537,403.314604 742.125785,403.263913 C741.821637,403.263913 741.56818,403.263913 741.365415,403.314604 C741.416106,403.263913 741.416106,403.213221 741.416106,403.16253 C741.973711,402.047321 742.835463,401.084186 743.84929,400.425199 Z M740.757119,404.936726 L740.757119,404.936726 C740.909193,404.429813 741.365415,404.176356 742.024402,404.227048 C742.936846,404.277739 743.747907,404.784652 743.950672,405.139491 L743.950672,405.139491 C743.798598,405.49433 743.747907,405.899861 743.747907,406.305392 C742.987537,406.356083 742.024402,406.710922 741.416106,407.268527 C741.213341,407.420601 741.061267,407.623366 740.909193,407.826131 C740.655737,406.913687 740.605045,405.950552 740.757119,404.936726 Z M751.148839,409.752401 C751.452987,409.194797 751.605061,408.637192 751.655752,408.028896 C751.807826,408.028896 751.9599,408.079588 752.111974,408.079588 C753.227183,408.079588 754.595849,407.471292 755.508292,406.660231 C755.913823,406.305392 756.16728,405.950552 756.370045,405.545022 L756.370045,405.545022 C756.978341,407.420601 756.978341,409.346871 756.471427,411.222449 C756.471427,411.222449 756.471427,411.222449 756.471427,411.273141 C756.116588,412.591115 754.899997,412.743189 753.987553,412.692497 C752.365431,412.591115 750.692617,411.62798 750.388469,410.86761 C750.692617,410.512771 750.946074,410.157932 751.148839,409.752401 Z M743.950672,387.955135 C745.927634,387.346839 747.904595,386.992 749.932248,386.992 C750.439161,386.992 751.503678,387.093383 751.55437,387.093383 C754.595849,387.397531 755.356218,390.08417 755.558984,391.706292 C755.913823,394.899845 754.64654,398.803077 753.024418,399.614138 C752.72027,399.411373 752.416122,399.208607 752.061283,399.056533 C751.503678,398.752385 750.895383,398.54962 750.287087,398.397546 L750.287087,398.397546 L750.287087,398.397546 C748.969113,398.042707 747.651138,398.042707 746.282473,398.296164 C746.485238,396.268511 744.863116,393.227032 742.886155,391.554218 C741.770946,390.591083 740.605045,390.08417 739.489836,390.033479 C740.858502,389.171727 742.379241,388.462048 743.950672,387.955135 Z M732.6972,397.535794 C734.015174,394.899845 735.687988,392.922884 737.208727,391.756984 C739.23638,390.236244 741.213341,391.452836 742.227168,392.314588 C744.457585,394.190167 745.674177,397.282337 745.217955,398.600311 C744.558968,398.853768 743.950672,399.157916 743.342376,399.512755 L743.342376,399.512755 L743.342376,399.512755 C742.379241,400.171742 741.56818,400.982803 740.909193,401.945938 C739.743293,400.526581 736.904579,399.563446 734.62347,399.664829 C733.305496,399.71552 732.29167,400.07036 731.480608,400.729347 C731.734065,399.664829 732.139596,398.600311 732.6972,397.535794 Z M731.024387,403.415987 C731.480608,401.23626 733.45757,400.830729 734.62347,400.729347 C737.158036,400.627964 739.844676,401.844556 740.351589,402.959765 C739.743293,404.227048 739.540528,405.545022 739.743293,406.862996 C738.07048,406.609539 735.586605,407.724748 734.116557,409.245488 C733.356187,410.005858 732.899965,410.816919 732.6972,411.678671 C732.29167,410.918301 731.987522,410.10724 731.683374,409.296179 C731.125769,407.369909 730.669547,405.0888 731.024387,403.415987 Z M733.8631,413.351485 C733.254805,412.084202 733.913792,410.86761 734.826235,409.955166 C736.448357,408.282353 739.033615,407.471292 739.946058,407.978205 C740.148824,408.637192 740.452971,409.296179 740.807811,409.853784 L740.807811,409.853784 L740.807811,409.853784 C741.111959,410.310006 741.466798,410.715536 741.92302,411.121067 C740.655737,412.03351 739.692602,414.365311 739.64191,416.24089 C739.591219,417.153333 739.793984,417.964394 740.148824,418.57269 C737.867714,417.761629 734.724853,415.176372 733.8631,413.351485 Z M742.582007,419.33306 C740.909193,418.978221 740.655737,417.457481 740.655737,416.291581 C740.706428,414.263928 741.821637,412.185584 742.784772,411.780054 C742.987537,411.932128 743.240994,412.084202 743.49445,412.185584 C744.305512,412.591115 745.217955,412.79388 746.079708,412.79388 C745.826251,414.162546 746.586621,416.190198 747.70183,417.457481 C748.208743,418.065777 748.817039,418.471307 749.374643,418.674073 C747.397682,419.637208 744.761733,419.839973 742.582007,419.33306 Z M751.402296,417.660246 C750.135013,418.369925 749.070495,417.609555 748.411508,416.849185 C747.245608,415.531211 746.738695,413.452867 747.093534,412.743189 C748.005978,412.591115 748.86773,412.185584 749.6281,411.577288 C750.337778,412.692497 752.264048,413.55425 753.88617,413.655632 C753.987553,413.655632 754.139627,413.655632 754.24101,413.655632 C754.697231,413.655632 755.102762,413.604941 755.508292,413.452867 C754.494466,415.227063 753.176492,416.697111 751.402296,417.660246 Z M766.609691,416.697111 C763.416138,417.305407 759.66498,416.64642 757.688019,415.328446 C757.079723,414.922915 756.674193,414.517385 756.420736,414.010472 C756.420736,414.010472 756.420736,413.95978 756.370045,413.95978 C756.471427,413.757015 756.57281,413.604941 756.674193,413.402176 C757.688019,411.425215 758.042858,409.194797 757.73871,407.01507 C757.941476,407.065761 758.194932,407.065761 758.397697,407.065761 C760.881572,407.065761 764.429964,404.987417 766.558999,402.047321 C767.674208,400.526581 768.181122,399.005842 768.13043,397.586485 C770.715687,401.591099 772.084353,406.305392 771.98297,411.273141 C771.881588,415.125681 768.586652,416.342272 766.609691,416.697111 Z M768.992183,401.945938 C768.738726,401.844556 768.434578,401.99663 768.383887,402.250086 C768.282504,402.503543 768.434578,402.807691 768.688035,402.858382 C768.738726,402.858382 768.738726,402.858382 768.789417,402.858382 C768.992183,402.858382 769.245639,402.756999 769.29633,402.503543 C769.397713,402.300778 769.245639,401.99663 768.992183,401.945938 Z M759.918437,407.826131 C759.66498,407.876822 759.462215,408.079588 759.462215,408.383736 C759.512906,408.637192 759.66498,408.789266 759.918437,408.839957 C759.969128,408.839957 759.969128,408.839957 760.01982,408.839957 C760.273276,408.789266 760.476041,408.586501 760.476041,408.282353 C760.476041,407.978205 760.222585,407.77544 759.918437,407.826131 Z M763.365446,406.862996 C763.11199,406.964379 763.010607,407.268527 763.11199,407.521983 C763.213373,407.674057 763.365446,407.826131 763.51752,407.826131 C763.618903,407.826131 763.669594,407.826131 763.770977,407.77544 C764.024434,407.674057 764.125816,407.369909 764.024434,407.116453 C763.923051,406.862996 763.618903,406.761613 763.365446,406.862996 Z M766.406925,405.038109 C766.20416,405.190183 766.153469,405.545022 766.356234,405.747787 C766.457617,405.84917 766.558999,405.899861 766.711073,405.899861 C766.812456,405.899861 766.96453,405.899861 767.065913,405.798478 C767.268678,405.646404 767.268678,405.291565 767.116604,405.0888 C766.913839,404.886035 766.609691,404.835343 766.406925,405.038109 Z M756.217971,400.019668 C756.065897,400.222434 756.065897,400.526581 756.268662,400.729347 C756.370045,400.780038 756.471427,400.830729 756.57281,400.830729 C756.724884,400.830729 756.876958,400.780038 756.978341,400.627964 C757.130415,400.425199 757.130415,400.121051 756.927649,399.918286 C756.724884,399.766212 756.420736,399.816903 756.217971,400.019668 Z M758.651154,394.139476 C758.600463,394.392932 758.803228,394.646389 759.107376,394.69708 L759.107376,394.69708 C759.360832,394.69708 759.614289,394.494315 759.614289,394.240858 C759.614289,393.987402 759.462215,393.733945 759.158067,393.683254 C758.955302,393.632562 758.701845,393.835328 758.651154,394.139476 Z M758.600463,391.351453 C758.701845,391.351453 758.752537,391.351453 758.853919,391.300762 C759.107376,391.199379 759.208759,390.895231 759.056685,390.641775 L759.056685,390.641775 C758.955302,390.388318 758.651154,390.286936 758.397697,390.43901 C758.144241,390.540392 758.042858,390.84454 758.194932,391.097997 C758.296315,391.250071 758.448389,391.351453 758.600463,391.351453 Z M758.144241,397.890633 C758.194932,397.890633 758.245624,397.941324 758.296315,397.941324 C758.49908,397.941324 758.701845,397.839942 758.803228,397.637176 C758.904611,397.38372 758.803228,397.079572 758.549771,396.978189 C758.296315,396.876807 757.992167,396.978189 757.890784,397.231646 L757.890784,397.231646 C757.73871,397.485103 757.890784,397.78925 758.144241,397.890633 Z M743.798598,389.982788 C743.84929,390.033479 743.950672,390.033479 744.001364,390.033479 C744.153438,390.033479 744.356203,389.932096 744.457585,389.780022 C744.609659,389.526566 744.508277,389.222418 744.25482,389.121035 C744.001364,388.968961 743.697216,389.070344 743.595833,389.323801 C743.443759,389.526566 743.545142,389.830714 743.798598,389.982788 Z M747.651138,395.913672 C747.70183,395.913672 747.70183,395.913672 747.752521,395.913672 C748.005978,395.86298 748.208743,395.609524 748.158052,395.356067 C748.10736,395.102611 747.853904,394.899845 747.600447,394.950537 C747.34699,395.001228 747.144225,395.254685 747.194917,395.508141 C747.245608,395.761598 747.448373,395.913672 747.651138,395.913672 Z M746.434547,392.568045 C746.535929,392.568045 746.637312,392.568045 746.688003,392.517354 C746.94146,392.36528 746.992151,392.061132 746.890769,391.858366 C746.738695,391.60491 746.434547,391.554218 746.231782,391.655601 C745.978325,391.807675 745.927634,392.111823 746.029016,392.314588 C746.130399,392.517354 746.282473,392.568045 746.434547,392.568045 Z M734.471396,398.296164 C734.522087,398.296164 734.572779,398.296164 734.62347,398.296164 C734.876927,398.245472 735.029001,397.941324 734.978309,397.687868 C734.927618,397.434411 734.62347,397.282337 734.370013,397.333029 L734.370013,397.333029 C734.116557,397.38372 733.964483,397.687868 734.015174,397.941324 C734.065866,398.14409 734.268631,398.296164 734.471396,398.296164 Z M740.554354,399.766212 C740.706428,399.766212 740.858502,399.664829 740.959885,399.563446 C741.111959,399.360681 741.061267,399.056533 740.858502,398.853768 C740.605045,398.701694 740.300898,398.752385 740.148824,398.955151 C739.99675,399.157916 740.047441,399.462064 740.250206,399.664829 C740.351589,399.71552 740.452971,399.766212 740.554354,399.766212 Z M737.512875,398.346855 C737.563566,398.346855 737.614258,398.346855 737.664949,398.346855 C737.867714,398.346855 738.07048,398.194781 738.121171,397.992016 C738.171862,397.738559 738.019788,397.434411 737.766332,397.38372 C737.512875,397.333029 737.259419,397.485103 737.158036,397.738559 C737.107345,398.042707 737.259419,398.296164 737.512875,398.346855 Z M736.701814,405.747787 C736.752505,405.747787 736.803197,405.747787 736.803197,405.747787 C737.056653,405.697096 737.208727,405.392948 737.158036,405.139491 C737.107345,404.886035 736.803197,404.733961 736.54974,404.784652 C736.296284,404.835343 736.14421,405.139491 736.194901,405.392948 C736.296284,405.595713 736.499049,405.747787 736.701814,405.747787 Z M733.356187,407.572674 C733.45757,407.572674 733.609644,407.521983 733.711026,407.420601 C733.913792,407.217835 733.913792,406.913687 733.711026,406.710922 C733.508261,406.508157 733.204113,406.508157 733.001348,406.710922 C732.798583,406.913687 732.798583,407.217835 733.001348,407.420601 C733.102731,407.521983 733.254805,407.572674 733.356187,407.572674 Z M737.817023,414.111854 C737.563566,414.111854 737.31011,414.31462 737.31011,414.618767 C737.31011,414.872224 737.512875,415.125681 737.766332,415.125681 L737.766332,415.125681 C738.019788,415.125681 738.273245,414.922915 738.273245,414.669459 C738.323936,414.365311 738.121171,414.111854 737.817023,414.111854 Z M739.23638,410.86761 C738.982923,410.715536 738.678775,410.766227 738.577393,411.019684 C738.425319,411.222449 738.47601,411.526597 738.729467,411.678671 C738.830849,411.729362 738.932232,411.729362 738.982923,411.729362 C739.134997,411.729362 739.287071,411.678671 739.388454,411.526597 C739.489836,411.323832 739.439145,411.019684 739.23638,410.86761 Z" id="Shape"></path>
        </g>
    </g>
</svg>