<?xml version="1.0" encoding="UTF-8"?>
<svg width="43px" height="38px" viewBox="0 0 43 38" version="1.1" xmlns="http://www.w3.org/2000/svg" xmlns:xlink="http://www.w3.org/1999/xlink">
    <!-- Generator: Sketch 45.2 (43514) - http://www.bohemiancoding.com/sketch -->
    <title>Group 4</title>
    <desc>Created with Sketch.</desc>
    <defs>
        <linearGradient x1="50%" y1="0%" x2="50%" y2="100%" id="linearGradient-1">
            <stop stop-color="#FDE100" offset="0%"></stop>
            <stop stop-color="#3391CE" offset="29.9104609%"></stop>
            <stop stop-color="#EA5626" offset="64.839764%"></stop>
            <stop stop-color="#4FB248" offset="100%"></stop>
        </linearGradient>
    </defs>
    <g id="Page-1" stroke="none" stroke-width="1" fill="none" fill-rule="evenodd">
        <g id="Desktop-HD" transform="translate(-251.000000, -827.000000)">
            <g id="Group-4" transform="translate(251.000000, 826.824378)">
                <circle id="Oval" cx="12.9552134" cy="22.1463709" r="1.06671749"></circle>
                <path d="M2.24621569,25.0147601 C2.24621569,26.6420917 3.3134031,28.0241253 4.78425145,28.499214 L4.78425145,21.5307762 C3.3134031,22.0058649 2.24621569,23.3878985 2.24621569,25.0147601 Z" id="Shape"></path>
                <circle id="Oval" cx="29.3375505" cy="22.1463709" r="1.06671749"></circle>
                <circle id="Oval" cx="21.146382" cy="4.54036317" r="2.13954394"></circle>
                <path d="M30.5381951,14.004074 L11.7550388,14.004074 C9.14980453,14.004074 7.03046713,16.1234114 7.03046713,18.7281757 L7.03046713,30.4691169 C7.03046713,33.0738813 9.14980453,35.1932187 11.7550388,35.1932187 L30.5381951,35.1932187 C33.1429595,35.1932187 35.2622969,33.0738813 35.2622969,30.4691169 L35.2622969,18.7281757 C35.2622969,16.1234114 33.1429595,14.004074 30.5381951,14.004074 Z M12.9552134,25.4593041 C11.128636,25.4593041 9.64228027,23.9729484 9.64228027,22.1463709 C9.64228027,20.3193235 11.128636,18.8329678 12.9552134,18.8329678 C14.7822609,18.8329678 16.2681466,20.3193235 16.2681466,22.1463709 C16.2686165,23.9729484 14.7822609,25.4593041 12.9552134,25.4593041 Z M24.2069683,31.1970224 L18.0862656,31.1970224 C17.4659717,31.1970224 16.9631577,30.6942084 16.9631577,30.0734446 C16.9631577,29.4536207 17.4659717,28.9508067 18.0862656,28.9508067 L24.2069683,28.9508067 C24.8267923,28.9508067 25.3296063,29.4536207 25.3296063,30.0734446 C25.3296063,30.6942084 24.8267923,31.1970224 24.2069683,31.1970224 Z M29.3375505,25.4593041 C27.5109731,25.4593041 26.0246174,23.9729484 26.0246174,22.1463709 C26.0246174,20.3193235 27.5109731,18.8329678 29.3375505,18.8329678 C31.164128,18.8329678 32.6504837,20.3193235 32.6504837,22.1463709 C32.6504837,23.9729484 31.164128,25.4593041 29.3375505,25.4593041 Z" id="Shape"></path>
                <path d="M37.5080426,21.5307762 L37.5080426,28.499214 C38.978891,28.0241253 40.0460784,26.6420917 40.0460784,25.0147601 C40.0465483,23.3878985 38.9793609,22.0058649 37.5080426,21.5307762 Z" id="Shape"></path>
                <path d="M37.5080426,19.2154824 L37.5080426,18.7281757 C37.5080426,14.8847033 34.3811976,11.7578583 30.5377252,11.7578583 L22.2694898,11.7578583 L22.2694898,8.77950788 C24.1454089,8.28186303 25.5321416,6.56994592 25.5321416,4.54036317 C25.5321416,2.12168699 23.5645883,0.154603548 21.146382,0.154603548 C18.7281757,0.154603548 16.7606224,2.12168699 16.7606224,4.54036317 C16.7606224,6.57041584 18.1473551,8.28186303 20.0232741,8.77950788 L20.0232741,11.7578583 L11.7550388,11.7578583 C7.91109646,11.7578583 4.78425145,14.8847033 4.78425145,18.7281757 L4.78425145,19.2154824 C2.06247712,19.7413224 0,22.1421416 0,25.0147601 C0,27.8916079 2.0667064,30.2938369 4.79317992,30.8168574 C4.9750388,34.4986775 8.02810644,37.4389644 11.7550388,37.4389644 L30.5381951,37.4389644 C34.2651275,37.4389644 37.3177252,34.4986775 37.500054,30.8168574 C40.2260576,30.2938369 42.292764,27.8916079 42.292764,25.0147601 C42.292764,22.1421416 40.2302869,19.7413224 37.5080426,19.2154824 Z M4.78472137,28.499214 C3.31387302,28.0241253 2.24668561,26.6420917 2.24668561,25.0147601 C2.24668561,23.3878985 3.31387302,22.0058649 4.78472137,21.5307762 L4.78472137,28.499214 Z M19.0068381,4.54036317 C19.0068381,3.36039506 19.9668838,2.40081924 21.146382,2.40081924 C22.3258802,2.40081924 23.2859259,3.36039506 23.2859259,4.54036317 C23.2859259,5.72033129 22.3258802,6.67943719 21.146382,6.67943719 C19.9668838,6.67943719 19.0068381,5.71986137 19.0068381,4.54036317 Z M35.2622969,30.4691169 C35.2622969,33.0738813 33.1429595,35.1932187 30.5381951,35.1932187 L11.7550388,35.1932187 C9.14980453,35.1932187 7.03046713,33.0738813 7.03046713,30.4691169 L7.03046713,18.7281757 C7.03046713,16.1234114 9.14980453,14.004074 11.7550388,14.004074 L30.5381951,14.004074 C33.1429595,14.004074 35.2622969,16.1234114 35.2622969,18.7281757 L35.2622969,30.4691169 L35.2622969,30.4691169 Z M37.5080426,28.499214 L37.5080426,21.5307762 C38.978891,22.0058649 40.0460784,23.3878985 40.0460784,25.0147601 C40.0465483,26.6425616 38.9793609,28.0241253 37.5080426,28.499214 Z" id="Shape" fill="url(#linearGradient-1)" fill-rule="nonzero"></path>
                <path d="M29.3375505,18.8329678 C27.5109731,18.8329678 26.0246174,20.3193235 26.0246174,22.1463709 C26.0246174,23.9729484 27.5109731,25.4593041 29.3375505,25.4593041 C31.164128,25.4593041 32.6504837,23.9729484 32.6504837,22.1463709 C32.6504837,20.3193235 31.164128,18.8329678 29.3375505,18.8329678 Z M29.3375505,23.2130884 C28.7492112,23.2130884 28.270833,22.7351802 28.270833,22.1468408 C28.270833,21.5585015 28.7492112,21.0796534 29.3375505,21.0796534 C29.9258899,21.0796534 30.4047379,21.5585015 30.4047379,22.1468408 C30.4047379,22.7347102 29.9258899,23.2130884 29.3375505,23.2130884 Z" id="Shape" fill="url(#linearGradient-1)" fill-rule="nonzero"></path>
                <path d="M12.9552134,18.8329678 C11.128636,18.8329678 9.64228027,20.3193235 9.64228027,22.1463709 C9.64228027,23.9729484 11.128636,25.4593041 12.9552134,25.4593041 C14.7822609,25.4593041 16.2681466,23.9729484 16.2681466,22.1463709 C16.2686165,20.3193235 14.7822609,18.8329678 12.9552134,18.8329678 Z M12.9552134,23.2130884 C12.3668741,23.2130884 11.888496,22.7351802 11.888496,22.1468408 C11.888496,21.5585015 12.3668741,21.0796534 12.9552134,21.0796534 C13.5435528,21.0796534 14.0224009,21.5585015 14.0224009,22.1468408 C14.0224009,22.7347102 13.5435528,23.2130884 12.9552134,23.2130884 Z" id="Shape" fill="url(#linearGradient-1)" fill-rule="nonzero"></path>
                <path d="M24.2069683,28.9508067 L18.0862656,28.9508067 C17.4659717,28.9508067 16.9631577,29.4536207 16.9631577,30.0734446 C16.9631577,30.6942084 17.4659717,31.1970224 18.0862656,31.1970224 L24.2069683,31.1970224 C24.8267923,31.1970224 25.3296063,30.6942084 25.3296063,30.0734446 C25.3296063,29.4536207 24.8267923,28.9508067 24.2069683,28.9508067 Z" id="Shape" fill="url(#linearGradient-1)" fill-rule="nonzero"></path>
            </g>
        </g>
    </g>
</svg>