<?xml version="1.0" encoding="UTF-8"?>
<svg width="39px" height="45px" viewBox="0 0 39 45" version="1.1" xmlns="http://www.w3.org/2000/svg" xmlns:xlink="http://www.w3.org/1999/xlink">
    <!-- Generator: Sketch 45.2 (43514) - http://www.bohemiancoding.com/sketch -->
    <title>Shape</title>
    <desc>Created with Sketch.</desc>
    <defs>
        <linearGradient x1="50%" y1="100%" x2="50%" y2="3.061617e-15%" id="linearGradient-1">
            <stop stop-color="#FDE100" offset="0%"></stop>
            <stop stop-color="#3391CE" offset="29.9104609%"></stop>
            <stop stop-color="#EA5626" offset="64.839764%"></stop>
            <stop stop-color="#4FB248" offset="100%"></stop>
        </linearGradient>
    </defs>
    <g id="Page-1" stroke="none" stroke-width="1" fill="none" fill-rule="evenodd">
        <g id="Desktop-HD" transform="translate(-253.000000, -381.000000)" fill-rule="nonzero" fill="url(#linearGradient-1)">
            <path d="M254.757638,401.193004 L256.428654,404.535787 C255.634892,404.960887 255.174291,405.821299 255.260688,406.717571 C255.347086,407.613844 255.96356,408.370429 256.823908,408.636078 L257.423914,413.414376 C256.339265,413.831371 255.752613,415.007635 256.072058,416.124911 C256.391502,417.242186 257.511279,417.930559 258.652426,417.711168 L261.288703,420.347444 C261.403808,421.123233 261.917634,421.781688 262.642185,422.081894 C263.366736,422.3821 264.195685,422.280003 264.825738,421.812959 L268.818027,423.526726 C269.064357,424.56585 270.009282,425.287109 271.076582,425.250676 C272.143882,425.214244 273.037424,424.430227 273.212321,423.376724 C274.399607,425.43319 276.8203,426.435578 279.11385,425.820497 C281.407401,425.205415 283.001698,423.126293 283.000668,420.751698 C283.000668,420.716448 283.000668,420.681948 283.000668,420.646697 C283.17542,420.615197 283.347172,420.575447 283.517423,420.529696 L283.573674,420.515446 C283.727426,420.472696 283.877427,420.423945 284.023678,420.370695 L284.14068,420.327944 C284.272681,420.276944 284.403182,420.222943 284.531434,420.163693 C284.585434,420.139692 284.637935,420.113442 284.690435,420.088692 C284.804436,420.032441 284.915437,419.973941 285.027938,419.91094 C285.093189,419.87419 285.15544,419.835939 285.21919,419.794689 C285.315941,419.734688 285.412692,419.675438 285.505693,419.610937 C285.580694,419.556937 285.655695,419.498436 285.730695,419.440685 C285.805696,419.382935 285.880697,419.328184 285.955698,419.266684 C286.084699,419.159433 286.2092,419.041681 286.330701,418.92693 C286.356202,418.90218 286.381702,418.87818 286.405702,418.85193 C286.532453,418.723678 286.653955,418.590927 286.769456,418.452176 C286.806956,418.407175 286.840706,418.359175 286.876707,418.313424 C286.961458,418.206173 287.044708,418.098172 287.121959,417.985671 C287.16171,417.92867 287.19696,417.86942 287.23446,417.810919 C287.302711,417.705168 287.369462,417.597917 287.431712,417.487666 C287.467713,417.422415 287.502213,417.356415 287.535963,417.289664 C287.592214,417.181663 287.645464,417.072912 287.694965,416.961161 C287.726465,416.88991 287.756466,416.818659 287.785716,416.745909 C287.830716,416.633908 287.872217,416.520906 287.910217,416.406905 C287.935717,416.331905 287.960468,416.256904 287.985218,416.181903 C288.020468,416.063402 288.049718,415.943401 288.078219,415.822649 C288.095469,415.747649 288.114219,415.672648 288.129219,415.597647 C288.15547,415.464896 288.17347,415.329895 288.19147,415.194143 C288.19972,415.128143 288.21172,415.062892 288.21772,414.996141 C288.23722,414.792889 288.24922,414.587387 288.24922,414.378885 C288.249747,413.737173 288.152635,413.099115 287.961218,412.486616 C288.255369,412.212273 288.519369,411.907289 288.748725,411.576857 C289.397587,410.77829 289.751453,409.780525 289.750735,408.751579 L289.731235,408.751579 C289.739485,408.627078 289.750735,408.502577 289.750735,408.376576 C289.751615,407.742416 289.643803,407.112796 289.431982,406.515057 C291.223378,405.462017 292.217365,403.44486 291.961007,401.382756 C291.953507,401.321255 291.942257,401.260505 291.932507,401.199004 C291.911007,401.054003 291.883007,400.911001 291.848506,400.77 C291.832756,400.703999 291.817006,400.639499 291.798256,400.574248 C291.755505,400.424247 291.705255,400.274245 291.648254,400.124244 C291.631754,400.080743 291.618254,400.035743 291.600254,399.992992 C291.523127,399.807516 291.435226,399.626706 291.337001,399.451487 C291.330251,399.438737 291.325751,399.425237 291.318251,399.413236 C291.766398,398.463516 291.999441,397.426601 292.000758,396.376456 C291.999219,396.098676 291.98169,395.821214 291.948257,395.545448 C291.937007,395.450197 291.919757,395.357196 291.904757,395.263445 C291.877006,395.088694 291.844756,394.915442 291.805006,394.74519 C291.778755,394.632689 291.750255,394.520188 291.718755,394.411437 C291.676754,394.261435 291.628004,394.121934 291.577003,393.979433 C291.535753,393.862431 291.496753,393.74468 291.449502,393.630679 C291.389502,393.489678 291.320501,393.353926 291.25225,393.217425 C291.14959,393.00981 291.036443,392.807547 290.913247,392.611419 C290.853996,392.516918 290.796246,392.420917 290.733245,392.329416 C290.649994,392.209415 290.561493,392.093914 290.470743,391.979163 C290.395742,391.880162 290.311741,391.784161 290.22849,391.68966 C290.145239,391.595159 290.058238,391.494658 289.966737,391.401657 C289.79816,391.228317 289.620933,391.063605 289.435732,390.908152 L289.376482,390.858652 C289.163261,390.686243 288.940126,390.526467 288.708225,390.380147 C288.693225,390.370397 288.680475,390.358397 288.664725,390.348646 C289.270829,388.736213 289.047381,386.929031 288.066798,385.512783 C287.086214,384.096534 285.473262,383.251418 283.750676,383.251326 C283.22809,383.250811 282.708442,383.329454 282.20941,383.484578 C281.260691,381.95142 279.590532,381.013535 277.787618,381.0015 C275.984705,380.989465 274.302174,381.904971 273.333072,383.425328 L273.357073,383.258826 L268.638026,382.583819 C268.333751,381.589318 267.384679,380.935315 266.347014,381.005089 C265.309349,381.074863 264.456377,381.850038 264.287982,382.876322 L258.952429,387.545119 C258.549055,387.196006 258.033883,387.003083 257.500415,387.001363 C256.448278,386.997762 255.53481,387.725414 255.303081,388.751722 C255.071351,389.77803 255.583545,390.827582 256.535155,391.276406 L254.682637,396.834711 C253.678289,397.093389 252.982496,398.007221 253.000335,399.044193 C253.018174,400.081165 253.744987,400.970524 254.757638,401.194504 L254.757638,401.193004 Z M256.215652,396.976462 L258.068171,391.418157 C258.159873,391.395952 258.250059,391.367895 258.338173,391.334156 L262.259212,396.376456 C261.833307,396.662872 261.518124,397.086291 261.365953,397.576468 L257.300163,398.084973 C257.081006,397.598926 256.696787,397.206204 256.215652,396.976462 L256.215652,396.976462 Z M265.750497,385.363347 L265.750497,387.139365 C264.913274,387.430645 264.327543,388.189476 264.257816,389.073175 C264.188088,389.956875 264.647563,390.798177 265.428744,391.217155 L263.361723,395.351946 L259.461685,390.335146 C259.721458,389.895596 259.811114,389.376075 259.713687,388.874882 L264.663736,384.542839 C264.932545,384.922026 265.31219,385.208659 265.750497,385.363347 Z M268.289272,390.601399 L269.725536,392.037663 C269.578751,392.337815 269.501828,392.667304 269.500534,393.001423 C269.500534,394.244076 270.507904,395.251445 271.750557,395.251445 C272.006639,395.248959 272.260369,395.202273 272.500564,395.113444 L272.500564,399.889491 C271.823875,399.63673 271.066026,399.734408 270.475544,400.150494 L265.691246,397.75872 C265.547033,397.129606 265.139088,396.592966 264.571485,396.285705 L266.992509,391.442907 C267.510813,391.324905 267.970373,391.026683 268.289272,390.601399 L268.289272,390.601399 Z M271.750557,392.251415 C272.164774,392.251415 272.500564,392.587205 272.500564,393.001423 C272.500564,393.41564 272.164774,393.75143 271.750557,393.75143 C271.336339,393.75143 271.000549,393.41564 271.000549,393.001423 C271.000549,392.587205 271.336339,392.251415 271.750557,392.251415 Z M270.11254,412.501616 C269.844295,411.746102 269.194302,411.190394 268.406273,411.042852 L266.456254,408.442576 C266.456254,408.431326 266.456254,408.418576 266.456254,408.407326 L272.036309,404.222284 C272.194476,404.20258 272.350101,404.166125 272.500564,404.113533 L272.500564,412.501616 L270.11254,412.501616 Z M269.010029,421.975711 L265.675496,420.546946 C265.723032,420.369012 265.748226,420.185851 265.750497,420.001691 C265.750335,419.850537 265.735008,419.69978 265.704747,419.551687 L267.868518,416.304904 L269.964039,421.020201 C269.555453,421.233171 269.222357,421.566791 269.010029,421.975711 L269.010029,421.975711 Z M261.711707,418.651678 L259.98144,416.92141 C260.314532,416.523055 260.498096,416.020907 260.500445,415.501646 C260.500445,415.452146 260.489195,415.405645 260.485445,415.356145 L265.937249,414.144883 C266.122363,414.566902 266.432597,414.921903 266.826008,415.161893 L264.812238,418.181423 C263.825208,417.458456 262.43951,417.668959 261.711707,418.652428 L261.711707,418.651678 Z M258.925429,413.367125 L258.325423,408.588828 C258.834184,408.383806 259.25053,408 259.496185,407.509567 L262.07546,408.538577 C262.250457,409.273458 262.785407,409.869889 263.496998,410.123488 C264.208589,410.377087 265.000173,410.25341 265.600495,409.79484 L266.781007,411.369855 C266.331532,411.665602 266.002917,412.112625 265.854748,412.629868 L259.882439,413.956631 C259.618444,413.682331 259.289167,413.4795 258.925429,413.367125 Z M263.500475,397.501467 C263.914692,397.501467 264.250482,397.837257 264.250482,398.251475 C264.250482,398.665693 263.914692,399.001482 263.500475,399.001482 C263.086257,399.001482 262.750467,398.665693 262.750467,398.251475 C262.750467,397.837257 263.086257,397.501467 263.500475,397.501467 Z M265.466244,399.323236 L269.596535,401.388006 C269.341197,402.21645 269.604035,403.117354 270.264792,403.678529 L266.133751,406.77681 C265.849731,406.345571 265.426026,406.025144 264.933739,405.869301 L264.319483,400.341746 C264.809224,400.147025 265.215072,399.786567 265.466244,399.323236 L265.466244,399.323236 Z M264.250482,407.251564 C264.6647,407.251564 265.00049,407.587354 265.00049,408.001572 C265.00049,408.415789 264.6647,408.751579 264.250482,408.751579 C263.836264,408.751579 263.500475,408.415789 263.500475,408.001572 C263.500475,407.587354 263.836264,407.251564 264.250482,407.251564 Z M268.000519,414.001631 C267.586302,414.001631 267.250512,413.665842 267.250512,413.251624 C267.250512,412.837406 267.586302,412.501616 268.000519,412.501616 C268.414737,412.501616 268.750527,412.837406 268.750527,413.251624 C268.750527,413.665842 268.414737,414.001631 268.000519,414.001631 Z M271.750557,402.75152 C271.336339,402.75152 271.000549,402.41573 271.000549,402.001512 C271.000549,401.587295 271.336339,401.251505 271.750557,401.251505 C272.164774,401.251505 272.500564,401.587295 272.500564,402.001512 C272.500564,402.41573 272.164774,402.75152 271.750557,402.75152 Z M266.500504,388.501378 C266.914722,388.501378 267.250512,388.837168 267.250512,389.251386 C267.250512,389.665603 266.914722,390.001393 266.500504,390.001393 C266.086287,390.001393 265.750497,389.665603 265.750497,389.251386 C265.750497,388.837168 266.086287,388.501378 266.500504,388.501378 Z M257.415664,399.580488 L261.413204,399.080983 C261.663627,399.702531 262.178056,400.180117 262.816468,400.383746 L263.430724,405.911301 C262.917803,406.115061 262.497664,406.500233 262.250212,406.993562 L259.675437,405.964552 C259.471529,405.138859 258.819477,404.498705 257.99017,404.310035 L256.322153,400.967252 C256.860417,400.673341 257.255385,400.172452 257.415664,399.580488 Z M257.500415,405.751549 C257.914633,405.751549 258.250422,406.087339 258.250422,406.501557 C258.250422,406.915775 257.914633,407.251564 257.500415,407.251564 C257.086197,407.251564 256.750408,406.915775 256.750408,406.501557 C256.750408,406.087339 257.086197,405.751549 257.500415,405.751549 Z M257.500415,415.501646 C257.500415,415.087429 257.836205,414.751639 258.250422,414.751639 C258.66464,414.751639 259.00043,415.087429 259.00043,415.501646 C259.00043,415.915864 258.66464,416.251654 258.250422,416.251654 C257.836205,416.251654 257.500415,415.915864 257.500415,415.501646 Z M262.750467,420.001691 C262.750467,419.587473 263.086257,419.251684 263.500475,419.251684 C263.914692,419.251684 264.250482,419.587473 264.250482,420.001691 C264.250482,420.415909 263.914692,420.751698 263.500475,420.751698 C263.086257,420.751698 262.750467,420.415909 262.750467,420.001691 Z M271.000549,423.751728 C270.586331,423.751728 270.250542,423.415938 270.250542,423.001721 C270.250542,422.587503 270.586331,422.251713 271.000549,422.251713 C271.414767,422.251713 271.750557,422.587503 271.750557,423.001721 C271.750557,423.415938 271.414767,423.751728 271.000549,423.751728 Z M271.517304,420.816949 L269.03703,415.236894 C269.537989,414.974878 269.921954,414.53388 270.11254,414.001631 L272.500564,414.001631 L272.500564,420.751698 C272.50166,420.958303 272.514933,421.164663 272.540314,421.369705 C272.253634,421.098999 271.90085,420.908382 271.517304,420.816949 L271.517304,420.816949 Z M274.000579,386.251356 C274.003332,384.482782 275.241371,382.956535 276.97134,382.589018 C278.701309,382.221501 280.452898,383.112629 281.1744,384.727341 C281.256177,384.910963 281.408238,385.054075 281.596478,385.124577 C281.784718,385.195079 281.993379,385.187069 282.17566,385.102344 C282.668525,384.871118 283.206267,384.751279 283.750676,384.751341 C284.957757,384.74501 286.093299,385.323124 286.79833,386.302929 C287.50336,387.282734 287.690732,388.543117 287.301211,389.68564 C285.118689,388.885406 282.682735,389.203467 280.778853,390.537262 C278.874971,391.871056 277.743992,394.051864 277.750616,396.376456 L279.250631,396.376456 C279.246139,394.429279 280.251249,392.618918 281.906326,391.59313 C283.561404,390.567343 285.629906,390.472735 287.371712,391.343156 C287.813715,391.564004 288.225161,391.841326 288.595724,392.168165 C288.643724,392.210915 288.690975,392.252915 288.737475,392.297166 C288.870227,392.421667 288.994728,392.553668 289.112479,392.68942 C289.16948,392.75467 289.22498,392.820671 289.278981,392.888172 C289.386982,393.023923 289.488233,393.163424 289.582734,393.308176 C289.636734,393.390677 289.686235,393.475428 289.732735,393.560178 C289.800986,393.67793 289.863986,393.797181 289.923237,393.919432 C289.962237,393.998933 290.003488,394.076933 290.038738,394.158684 C290.122687,394.354265 290.195063,394.554613 290.25549,394.75869 C290.276491,394.826191 290.291491,394.896692 290.309491,394.966442 C290.351491,395.129444 290.386492,395.294446 290.414492,395.461447 C290.425742,395.531948 290.437742,395.602449 290.446742,395.674449 C290.558444,396.483074 290.481433,397.30658 290.22174,398.080473 C289.266932,397.226677 288.031573,396.753674 286.750706,396.75146 L286.750706,398.251475 C287.99202,398.252559 289.152366,398.867834 289.849736,399.894741 C289.867737,399.920992 289.879737,399.949492 289.896987,399.975742 C289.999521,400.134765 290.090025,400.30123 290.167739,400.473747 C290.19549,400.535998 290.21874,400.600498 290.24274,400.664249 C290.300268,400.815047 290.348116,400.969362 290.385992,401.126253 C290.401742,401.191504 290.418992,401.256755 290.431742,401.322755 C290.772057,403.06537 289.828278,404.804441 288.18172,405.468797 C287.988719,405.548895 287.837884,405.70588 287.765559,405.901927 C287.693234,406.097974 287.705976,406.315305 287.800716,406.501557 C288.468055,407.800162 288.395227,409.355532 287.609464,410.586097 C286.911334,411.49522 285.753421,411.923015 284.631908,411.686166 C283.510394,411.449317 282.624332,410.58986 282.353412,409.476086 C284.846607,409.227769 286.746871,407.132066 286.750706,404.626538 L285.250691,404.626538 C285.250691,406.490518 283.739637,408.001572 281.875657,408.001572 C280.011678,408.001572 278.500624,406.490518 278.500624,404.626538 L277.000609,404.626538 C277.004459,406.902205 278.58037,408.873261 280.799396,409.377835 C280.981375,410.68045 281.724955,411.837928 282.83401,412.544976 C283.943066,413.252025 285.306228,413.437643 286.563954,413.052872 C286.687446,413.483298 286.750302,413.928844 286.750706,414.376635 C286.750706,414.541637 286.741705,414.704388 286.725955,414.86489 C286.720705,414.91964 286.709455,414.972141 286.701955,415.026142 C286.688455,415.131893 286.674955,415.237644 286.653955,415.340395 C286.641204,415.402645 286.623954,415.462646 286.608954,415.523396 C286.586454,415.616397 286.565454,415.709398 286.537703,415.799399 C286.518203,415.8639 286.492703,415.92615 286.470953,415.989901 C286.440952,416.073902 286.412452,416.158653 286.378702,416.240404 C286.352452,416.304154 286.320951,416.365655 286.291701,416.428655 C286.254951,416.503656 286.2167,416.584657 286.17995,416.660408 C286.1462,416.723408 286.104949,416.784159 286.071199,416.84641 C286.037448,416.90866 285.989448,416.987411 285.944448,417.055662 C285.899447,417.123912 285.856697,417.179413 285.812446,417.240164 C285.768196,417.300914 285.722445,417.364665 285.674445,417.424665 C285.626444,417.484666 285.569444,417.548417 285.515443,417.608417 C285.461443,417.668418 285.422442,417.714168 285.373692,417.764419 C285.312191,417.828169 285.246941,417.88892 285.18169,417.948921 C285.13669,417.990921 285.092439,418.032921 285.045939,418.072672 C284.970938,418.137172 284.895937,418.197923 284.813436,418.257924 C284.773686,418.287924 284.734686,418.318674 284.694185,418.347175 C284.602684,418.411675 284.509683,418.472426 284.413682,418.530926 L284.319931,418.587927 C284.21268,418.650178 284.101679,418.708678 283.989178,418.762679 L283.926178,418.793429 C283.800676,418.85093 283.672675,418.90393 283.542174,418.952431 L283.513673,418.962181 C283.071506,419.11938 282.609004,419.212082 282.14041,419.237433 L282.13666,419.237433 C282.049659,419.242683 281.963408,419.250934 281.875657,419.250934 C279.184905,419.247628 277.004328,417.067387 277.000609,414.376635 L275.500594,414.376635 C275.504673,417.748854 278.134271,420.534585 281.500653,420.732948 L281.500653,420.751698 C281.500653,422.822787 279.821705,424.501736 277.750616,424.501736 C275.679528,424.501736 274.000579,422.822787 274.000579,420.751698 L274.000579,386.251356 Z M272.500564,386.251356 L272.500564,390.889402 C271.94204,390.678554 271.320864,390.710361 270.786797,390.977153 L268.715276,388.905632 C268.587863,388.092815 268.025722,387.414964 267.250512,387.139365 L267.250512,385.363347 C267.856085,385.149343 268.341337,384.686744 268.584025,384.092084 L272.739066,384.68609 C272.580713,385.192746 272.500293,385.72053 272.500564,386.251356 L272.500564,386.251356 Z M266.500504,382.501319 C266.914722,382.501319 267.250512,382.837108 267.250512,383.251326 C267.250512,383.665544 266.914722,384.001333 266.500504,384.001333 C266.086287,384.001333 265.750497,383.665544 265.750497,383.251326 C265.750497,382.837108 266.086287,382.501319 266.500504,382.501319 Z M257.500415,388.501378 C257.914633,388.501378 258.250422,388.837168 258.250422,389.251386 C258.250422,389.665603 257.914633,390.001393 257.500415,390.001393 C257.086197,390.001393 256.750408,389.665603 256.750408,389.251386 C256.750408,388.837168 257.086197,388.501378 257.500415,388.501378 Z M255.250393,398.251475 C255.66461,398.251475 256.0004,398.587265 256.0004,399.001482 C256.0004,399.4157 255.66461,399.75149 255.250393,399.75149 C254.836175,399.75149 254.500385,399.4157 254.500385,399.001482 C254.500385,398.587265 254.836175,398.251475 255.250393,398.251475 Z" id="Shape" transform="translate(272.500465, 403.500000) rotate(-180.000000) translate(-272.500465, -403.500000) "></path>
        </g>
    </g>
</svg>