<svg id="Layer_1" data-name="Layer 1" xmlns="http://www.w3.org/2000/svg"
    xmlns:xlink="http://www.w3.org/1999/xlink" viewBox="0 0 351.73 235.57">
    <defs>
        <style>
            .cls-1,.cls-10,.cls-28,.cls-29,.cls-30,.cls-31,.cls-46,.cls-47,.cls-48,.cls-9{fill:none;}.cls-2{clip-path:url(#clip-path);}.cls-3{fill:#fff;}.cls-4{fill:#16467b;}.cls-5{fill:#144270;}.cls-6{fill:#0a1827;}.cls-7{fill:#191919;}.cls-8{fill:#dbdddd;}.cls-10,.cls-29,.cls-9{stroke:#010101;}.cls-10,.cls-28,.cls-29,.cls-30,.cls-31,.cls-41,.cls-42,.cls-46,.cls-47,.cls-48,.cls-9{stroke-miterlimit:10;}.cls-9{stroke-width:0.33px;}.cls-10{stroke-width:0.25px;}.cls-11{fill:#3194d1;}.cls-12{fill:#e64d3c;}.cls-13{fill:#3d8e42;}.cls-14{fill:#21518d;}.cls-15{isolation:isolate;font-size:4.36px;font-family:OpenSans-Semibold,
            Open
            Sans;font-weight:600;}.cls-15,.cls-18{fill:#010101;}.cls-16{fill:#f29d1f;}.cls-17{opacity:0.1;}.cls-19{fill:#f9aa85;}.cls-20{fill:#d8d9d8;}.cls-21{fill:#1c1c1c;}.cls-22{fill:#2a7faa;}.cls-23{fill:#f0efef;}.cls-24{fill:#cc8269;}.cls-25{fill:#d3886a;}.cls-26{fill:#e9e8e8;}.cls-27{fill:#1d3766;}.cls-28,.cls-42,.cls-47{stroke:#fff;}.cls-28,.cls-30,.cls-31,.cls-46,.cls-47,.cls-48{stroke-linecap:round;}.cls-28{stroke-width:1.82px;}.cls-29{stroke-width:0.15px;}.cls-30,.cls-48{stroke:#f29d1f;}.cls-30,.cls-31{stroke-width:0.46px;}.cls-31{stroke:#3d8e42;}.cls-32{fill:#70abdc;}.cls-33{fill:#598ac8;}.cls-34{fill:#2472b9;}.cls-35{fill:#28276f;}.cls-36{fill:#2c3089;}.cls-37{fill:#f8a07c;}.cls-38{fill:#995023;}.cls-39{fill:#1abcbc;}.cls-40{fill:#17488c;}.cls-41{fill:#121212;}.cls-41,.cls-46{stroke:#3194d1;stroke-width:1.12px;}.cls-42{fill:#13244b;stroke-width:0.22px;}.cls-43{fill:#f9c243;}.cls-44{fill:#d73a31;}.cls-45{fill:#55b64c;}.cls-47,.cls-48{stroke-width:1.91px;}</style>
        <clipPath id="clip-path" transform="translate(-4.14 -7.91)">
            <polygon class="cls-1"
                points="69.08 63.97 69.72 44.68 174.56 6.52 173.93 25.82 69.08 63.97" />
        </clipPath>
    </defs>
    <path class="cls-4"
        d="M207.32,47.2a1.78,1.78,0,0,1,.85-1.12L215.3,42a5.58,5.58,0,0,1,4.26-.3L352,85.56a5.6,5.6,0,0,1,3.82,5.3v6l-10.06,5v-6a5.57,5.57,0,0,0-3.82-5.3L210.33,47c-.29-.08-.88-.27-1.45-.47C208.08,46.25,207.32,47.2,207.32,47.2Z"
        transform="translate(-4.14 -7.91)" />
    <path class="cls-5"
        d="M207.31,56v-8.7a1,1,0,0,1,1-1,.84.84,0,0,1,.27,0l135.71,45a2.17,2.17,0,0,1,1.48,2.06v8.42Z"
        transform="translate(-4.14 -7.91)" />
    <path class="cls-6"
        d="M345.79,101.88v93l-3.87,1.58v4.76a5.1,5.1,0,0,0,1.4.15,14.6,14.6,0,0,0,2-.29l7-2.76a5.6,5.6,0,0,0,3.54-5.2V96.88Z"
        transform="translate(-4.14 -7.91)" />
    <path class="cls-7"
        d="M207.31,56v91.69a4.4,4.4,0,0,0,2.86,4.13l131.75,49.34a3,3,0,0,0,3.75-2,2.72,2.72,0,0,0,.12-.8V101.88Z"
        transform="translate(-4.14 -7.91)" />
    <path class="cls-8"
        d="M211.63,61.88v84a4.12,4.12,0,0,0,2.68,3.87L337.85,196a2.76,2.76,0,0,0,3.49-1.74,2.62,2.62,0,0,0,.15-.88V105Z"
        transform="translate(-4.14 -7.91)" />
    <polygon class="cls-9"
        points="247.16 129.15 223.99 121.42 224.65 72.47 247.82 80.21 247.16 129.15" />
    <line class="cls-9" x1="220.79" y1="113.37" x2="224.09" y2="114.47" />
    <line class="cls-9" x1="220.89" y1="106.15" x2="224.18" y2="107.25" />
    <line class="cls-9" x1="220.99" y1="98.93" x2="224.28" y2="100.03" />
    <line class="cls-9" x1="221.09" y1="91.71" x2="224.38" y2="92.81" />
    <line class="cls-9" x1="221.18" y1="84.49" x2="224.48" y2="85.58" />
    <line class="cls-9" x1="221.28" y1="77.26" x2="224.57" y2="78.36" />
    <line class="cls-10" x1="224.5" y1="83.48" x2="247.67" y2="91.21" />
    <path class="cls-11"
        d="M232,102.88h0a1.54,1.54,0,0,1-.93-1.43l.17-12.37c0-.62.43-1,1-.81h0a1.56,1.56,0,0,1,.92,1.44L233,102.07C233,102.72,232.54,103.09,232,102.88Z"
        transform="translate(-4.14 -7.91)" />
    <path class="cls-12"
        d="M243.51,131.25h0a1.56,1.56,0,0,1-.92-1.44l.17-12.36c0-.62.43-1,1-.81h0a1.55,1.55,0,0,1,.93,1.43l-.18,12.37C244.45,131.06,244,131.42,243.51,131.25Z"
        transform="translate(-4.14 -7.91)" />
    <path class="cls-12"
        d="M243.75,113.74h0a1.54,1.54,0,0,1-.93-1.43L243,99.94c0-.62.44-1,.95-.81h0a1.56,1.56,0,0,1,.92,1.44l-.11,12.36A.78.78,0,0,1,243.75,113.74Z"
        transform="translate(-4.14 -7.91)" />
    <path class="cls-12"
        d="M244,96.88h0a1.54,1.54,0,0,1-.92-1.44V93c0-.62.44-1,1-.81h0a1.58,1.58,0,0,1,.92,1.44v2.43C244.92,96.69,244.5,97.05,244,96.88Z"
        transform="translate(-4.14 -7.91)" />
    <path class="cls-13"
        d="M235.75,99.13h0a1.58,1.58,0,0,1-.93-1.44l.1-7.35c0-.63.44-1,1-.82h0a1.59,1.59,0,0,1,.93,1.44l-.11,7.36A.72.72,0,0,1,235.75,99.13Z"
        transform="translate(-4.14 -7.91)" />
    <path class="cls-14"
        d="M247.56,124.73h0a1.55,1.55,0,0,1-.93-1.44l.4-28.92c0-.62.42-1,1-.81h0A1.59,1.59,0,0,1,249,95l-.44,28.88C248.5,124.54,248.07,124.88,247.56,124.73Z"
        transform="translate(-4.14 -7.91)" />
    <ellipse class="cls-13" cx="235.96" cy="89.31" rx="0.84" ry="1.18"
        transform="translate(-19.95 97.55) rotate(-24.4)" />
    <ellipse class="cls-11" cx="232.25" cy="88.44" rx="0.84" ry="1.18"
        transform="translate(-19.93 95.93) rotate(-24.4)" />
    <ellipse class="cls-11" cx="232.06" cy="102.84" rx="0.84" ry="1.18"
        transform="translate(-25.89 97.14) rotate(-24.4)" />
    <ellipse class="cls-11" cx="232.27" cy="103.63" rx="0.84" ry="1.18"
        transform="translate(-26.2 97.3) rotate(-24.4)" />
    <ellipse class="cls-11" cx="232.06" cy="104.14" rx="0.84" ry="1.18"
        transform="translate(-26.43 97.26) rotate(-24.4)" />
    <ellipse class="cls-11" cx="232.31" cy="105.22" rx="0.84" ry="1.18"
        transform="translate(-26.85 97.46) rotate(-24.4)" />
    <ellipse class="cls-12" cx="243.76" cy="113.32" rx="0.84" ry="1.18"
        transform="translate(-29.18 102.91) rotate(-24.4)" />
    <ellipse class="cls-12" cx="243.98" cy="96.91" rx="0.84" ry="1.18"
        transform="translate(-22.38 101.54) rotate(-24.4)" />
    <text class="cls-15" transform="matrix(0.83, 0.28, -0.01, 1, 211.25, 111.79)">0.15</text>
    <text class="cls-15" transform="matrix(0.83, 0.28, -0.01, 1, 211.34, 104.84)">0.20</text>
    <text class="cls-15" transform="matrix(0.83, 0.28, -0.01, 1, 211.43, 98.1)">0.25</text>
    <text class="cls-15" transform="matrix(0.83, 0.28, -0.01, 1, 211.53, 90.94)">0.30</text>
    <text class="cls-15" transform="matrix(0.83, 0.28, -0.01, 1, 211.63, 83.18)">0.35</text>
    <text class="cls-15" transform="matrix(0.83, 0.28, -0.01, 1, 211.73, 76.02)">0.40</text>
    <polygon class="cls-9"
        points="289.43 143.27 266.26 135.53 266.92 86.59 290.09 94.32 289.43 143.27" />
    <line class="cls-9" x1="263.06" y1="127.48" x2="266.36" y2="128.58" />
    <line class="cls-9" x1="263.16" y1="120.26" x2="266.45" y2="121.36" />
    <line class="cls-9" x1="263.26" y1="113.04" x2="266.55" y2="114.14" />
    <line class="cls-9" x1="263.36" y1="105.82" x2="266.65" y2="106.92" />
    <line class="cls-9" x1="263.45" y1="98.6" x2="266.75" y2="99.7" />
    <line class="cls-9" x1="263.55" y1="91.38" x2="266.84" y2="92.48" />
    <line class="cls-10" x1="266.68" y1="104.88" x2="289.84" y2="112.62" />
    <path class="cls-11"
        d="M274.2,123.88h0a1.54,1.54,0,0,1-.92-1.44l.17-12.36c0-.62.43-1,.95-.81h0a1.56,1.56,0,0,1,.92,1.44l-.16,12.36A.76.76,0,0,1,274.2,123.88Z"
        transform="translate(-4.14 -7.91)" />
    <path class="cls-12"
        d="M290,146.79h0a1.58,1.58,0,0,1-.92-1.44l.16-12.36c0-.62.44-1,1-.82h0a1.55,1.55,0,0,1,.92,1.44L291,146C291,146.6,290.57,147,290,146.79Z"
        transform="translate(-4.14 -7.91)" />
    <path class="cls-12"
        d="M290.29,129.28h0a1.55,1.55,0,0,1-.93-1.44l.17-12.36c0-.62.43-1,1-.81h0a1.55,1.55,0,0,1,.92,1.43l-.16,12.37C291.23,129.09,290.79,129.45,290.29,129.28Z"
        transform="translate(-4.14 -7.91)" />
    <path class="cls-13"
        d="M278,113.24h0a1.54,1.54,0,0,1-.93-1.43l.1-7.36c0-.62.44-1,.95-.81h0a1.59,1.59,0,0,1,.93,1.44l-.1,7.35C279,113.05,278.54,113.42,278,113.24Z"
        transform="translate(-4.14 -7.91)" />
    <ellipse class="cls-13" cx="278.24" cy="103.56" rx="0.84" ry="1.18"
        transform="translate(-22.07 116.28) rotate(-24.4)" />
    <ellipse class="cls-11" cx="274.87" cy="109.36" rx="0.84" ry="1.18"
        transform="translate(-24.76 115.41) rotate(-24.4)" />
    <ellipse class="cls-11" cx="273.54" cy="106.3" rx="0.84" ry="1.18"
        transform="translate(-23.62 114.59) rotate(-24.4)" />
    <ellipse class="cls-13" cx="277.97" cy="112.81" rx="0.84" ry="1.18"
        transform="translate(-25.91 117) rotate(-24.4)" />
    <ellipse class="cls-13" cx="278.04" cy="113.85" rx="0.84" ry="1.18"
        transform="translate(-26.33 117.12) rotate(-24.4)" />
    <ellipse class="cls-13" cx="278.03" cy="114.94" rx="0.84" ry="1.18"
        transform="translate(-26.79 117.21) rotate(-24.4)" />
    <ellipse class="cls-12" cx="290.29" cy="128.86" rx="0.84" ry="1.18"
        transform="translate(-31.44 123.52) rotate(-24.4)" />
    <ellipse class="cls-16" cx="284.23" cy="143.82" rx="0.84" ry="1.18"
        transform="translate(-38.16 122.35) rotate(-24.4)" />
    <ellipse class="cls-16" cx="285.14" cy="142.64" rx="0.84" ry="1.18"
        transform="translate(-37.59 122.62) rotate(-24.4)" />
    <ellipse class="cls-16" cx="285.66" cy="139.48" rx="0.84" ry="1.18"
        transform="translate(-36.24 122.55) rotate(-24.4)" />
    <ellipse class="cls-12" cx="290.5" cy="113.01" rx="0.84" ry="1.18"
        transform="translate(-24.88 122.19) rotate(-24.4)" />
    <ellipse class="cls-12" cx="290.52" cy="111.67" rx="0.84" ry="1.18"
        transform="translate(-24.32 122.08) rotate(-24.4)" />
    <ellipse class="cls-12" cx="290.54" cy="110.31" rx="0.84" ry="1.18"
        transform="translate(-23.75 121.97) rotate(-24.4)" />
    <ellipse class="cls-12" cx="290.55" cy="108.97" rx="0.84" ry="1.18"
        transform="translate(-23.2 121.85) rotate(-24.4)" />
    <text class="cls-15" transform="matrix(0.83, 0.28, -0.01, 1, 253.94, 126.05)">0.15</text>
    <text class="cls-15" transform="matrix(0.83, 0.28, -0.01, 1, 254.03, 119.1)">0.20</text>
    <text class="cls-15" transform="matrix(0.83, 0.28, -0.01, 1, 254.12, 112.35)">0.25</text>
    <text class="cls-15" transform="matrix(0.83, 0.28, -0.01, 1, 254.22, 105.2)">0.30</text>
    <text class="cls-15" transform="matrix(0.83, 0.28, -0.01, 1, 254.33, 97.43)">0.35</text>
    <text class="cls-15" transform="matrix(0.83, 0.28, -0.01, 1, 254.42, 90.28)">0.40</text>
    <polygon class="cls-9"
        points="331.56 157.34 308.39 149.6 309.05 100.66 332.22 108.39 331.56 157.34" />
    <line class="cls-9" x1="305.19" y1="141.55" x2="308.49" y2="142.65" />
    <line class="cls-9" x1="305.29" y1="134.33" x2="308.58" y2="135.43" />
    <line class="cls-9" x1="305.39" y1="127.11" x2="308.68" y2="128.21" />
    <line class="cls-9" x1="305.48" y1="119.89" x2="308.78" y2="120.99" />
    <line class="cls-9" x1="305.58" y1="112.67" x2="308.88" y2="113.77" />
    <line class="cls-9" x1="305.68" y1="105.45" x2="308.97" y2="106.55" />
    <line class="cls-10" x1="308.95" y1="107.84" x2="332.12" y2="115.58" />
    <path class="cls-11"
        d="M316.54,122.21h0a1.58,1.58,0,0,1-.93-1.44l.06-4.66c0-.62.44-1,1-.81h0a1.57,1.57,0,0,1,.93,1.44l-.06,4.66C317.48,122,317.06,122.38,316.54,122.21Z"
        transform="translate(-4.14 -7.91)" />
    <path class="cls-12"
        d="M332.17,160.88h0a1.58,1.58,0,0,1-.92-1.44l.16-12.37c0-.62.44-1,.95-.81h0a1.55,1.55,0,0,1,.93,1.44l-.17,12.36C333.11,160.66,332.75,161,332.17,160.88Z"
        transform="translate(-4.14 -7.91)" />
    <path class="cls-12"
        d="M332.45,140.72h0a1.54,1.54,0,0,1-.92-1.44v-2.11c0-.62.42-1,1-.81h0a1.55,1.55,0,0,1,.92,1.43v2.12C333.39,140.53,333,140.88,332.45,140.72Z"
        transform="translate(-4.14 -7.91)" />
    <path class="cls-16"
        d="M324.92,122h0a1.55,1.55,0,0,1-.93-1.44v-2.11c0-.62.44-1,1-.81h0a1.57,1.57,0,0,1,.93,1.43v2.11C325.85,121.88,325.42,122.21,324.92,122Z"
        transform="translate(-4.14 -7.91)" />
    <path class="cls-13"
        d="M320.23,121.31h0a1.55,1.55,0,0,1-.92-1.44V117c0-.62.44-1,.95-.81h0a1.59,1.59,0,0,1,.93,1.44v2.86C321.17,121.12,320.75,121.48,320.23,121.31Z"
        transform="translate(-4.14 -7.91)" />
    <ellipse class="cls-12" cx="332.29" cy="146.39" rx="0.84" ry="1.18"
        transform="translate(-34.93 142.44) rotate(-24.4)" />
    <ellipse class="cls-12" cx="332.69" cy="145.34" rx="0.84" ry="1.18"
        transform="translate(-34.46 142.51) rotate(-24.4)" />
    <ellipse class="cls-12" cx="332.36" cy="144.23" rx="0.84" ry="1.18"
        transform="translate(-34.03 142.27) rotate(-24.4)" />
    <ellipse class="cls-12" cx="332.47" cy="141" rx="0.84" ry="1.18"
        transform="translate(-32.69 142.03) rotate(-24.4)" />
    <ellipse class="cls-16" cx="322.87" cy="115.64" rx="0.84" ry="1.18"
        transform="translate(-23.07 135.8) rotate(-24.4)" />
    <ellipse class="cls-16" cx="324.86" cy="122" rx="0.84" ry="1.18"
        transform="translate(-25.52 137.19) rotate(-24.4)" />
    <ellipse class="cls-13" cx="320.1" cy="122.02" rx="0.84" ry="1.18"
        transform="translate(-25.95 135.22) rotate(-24.4)" />
    <ellipse class="cls-13" cx="320.48" cy="121.05" rx="0.84" ry="1.18"
        transform="translate(-25.52 135.3) rotate(-24.4)" />
    <ellipse class="cls-11" cx="316.52" cy="116.34" rx="0.84" ry="1.18"
        transform="translate(-23.92 133.24) rotate(-24.4)" />
    <ellipse class="cls-11" cx="316.91" cy="115.37" rx="0.84" ry="1.18"
        transform="translate(-23.49 133.31) rotate(-24.4)" />
    <text class="cls-15" transform="matrix(0.83, 0.28, -0.01, 1, 295.73, 140)">0.15</text>
    <text class="cls-15" transform="matrix(0.83, 0.28, -0.01, 1, 295.82, 133.05)">0.20</text>
    <text class="cls-15" transform="matrix(0.83, 0.28, -0.01, 1, 295.91, 126.31)">0.25</text>
    <text class="cls-15" transform="matrix(0.83, 0.28, -0.01, 1, 296.01, 119.16)">0.30</text>
    <text class="cls-15" transform="matrix(0.83, 0.28, -0.01, 1, 296.11, 111.39)">0.35</text>
    <text class="cls-15" transform="matrix(0.83, 0.28, -0.01, 1, 296.21, 104.24)">0.40</text>
    <g class="cls-17">
        <path class="cls-18"
            d="M223.26,199.82c-8.16,4.71-8.2,12.35-.09,17.06s21.3,4.72,29.46,0,8.2-12.35.1-17.06S231.44,195.11,223.26,199.82Z"
            transform="translate(-4.14 -7.91)" />
    </g>
    <path class="cls-19"
        d="M233.56,169.81s1.64,2.61,3.3,2.28,1.89-.67,1.18-1.12-2.56-1.72-2.21-1.84,1.15.06,1-.28-2.43-.79-2.43-.79l-1.63.79Z"
        transform="translate(-4.14 -7.91)" />
    <path class="cls-20"
        d="M232.48,151.32s.31-2.94-2.52-3c-3-.06-2.33,6.2-2.33,6.2s.15,5.41.68,7.1c.72,2.23,4.7,8,4.7,8a3.58,3.58,0,0,0,2.28-1.67s-3.13-5.46-3.41-7.54C231.57,158.17,232.54,151.81,232.48,151.32Z"
        transform="translate(-4.14 -7.91)" />
    <path class="cls-20"
        d="M233,169.64s-4-5.78-4.7-8c-.53-1.69-.68-7.1-.68-7.1s-1.07-6,2.32-6.31a1.71,1.71,0,0,1,1.93.92c-2.19.13-2.4,1.59-2.21,4.83.24,3.53-.23,4.52,0,7.53s3.39,6,3.86,6.65c.33.47,1.09-.1,1.58-.54.13.22.2.36.2.36A3.55,3.55,0,0,1,233,169.64Z"
        transform="translate(-4.14 -7.91)" />
    <path class="cls-21"
        d="M232.53,204.88c.1,0,5.29-.15,4.13,1.79a2.86,2.86,0,0,1-2.56,1.5c-.78,0-2.21-.43-2.55-.2s-2.11,1.45-3.12.22a1.91,1.91,0,0,1-.21-1.42C228.35,206.27,232,204.73,232.53,204.88Z"
        transform="translate(-4.14 -7.91)" />
    <path class="cls-21"
        d="M236.66,206.63a2.86,2.86,0,0,1-2.56,1.5c-.78,0-2.21-.43-2.55-.2s-2.11,1.45-3.12.22a1.47,1.47,0,0,1-.24-.7c.7,1,2.43.76,2.91.41a2.72,2.72,0,0,1,2-.44,3.8,3.8,0,0,0,2.89-.74,1.26,1.26,0,0,0,.34-1.26.77.77,0,0,1,.45,1A.94.94,0,0,1,236.66,206.63Z"
        transform="translate(-4.14 -7.91)" />
    <path class="cls-22"
        d="M230,163.16s-4.39,6.48-1.2,15.81c.69,2,2.05,6.35,1.6,8.48-.55,2.55-1.35,1.83-1.93,10.28-.51,7.45-.42,5.84-.6,8.86,0,.86,3.12,1.76,3.6.43,2.09-5.85,5-18.09,4.41-24.85s-1-13.07-1-13.07A49.54,49.54,0,0,0,230,163.16Z"
        transform="translate(-4.14 -7.91)" />
    <path class="cls-21"
        d="M242.33,208.33c.11,0,5.48-1.19,4.59,1a3.13,3.13,0,0,1-2.41,2.06c-.79.17-2.35,0-2.68.28s-2,1.92-3.19.84a2,2,0,0,1-.45-1.44C238.25,210.62,241.75,208.33,242.33,208.33Z"
        transform="translate(-4.14 -7.91)" />
    <path class="cls-21"
        d="M246.92,209.38a3.13,3.13,0,0,1-2.41,2.06c-.79.17-2.35,0-2.68.28s-2,1.92-3.19.84a1.41,1.41,0,0,1-.36-.68c.89.94,2.64.31,3.08-.14a2.91,2.91,0,0,1,2-.85,4,4,0,0,0,2.87-1.34,1.29,1.29,0,0,0,.15-1.37.82.82,0,0,1,.64.95A.77.77,0,0,1,246.92,209.38Z"
        transform="translate(-4.14 -7.91)" />
    <path class="cls-11"
        d="M231.44,169.35s-3.56,3.79,2.81,13.37c0,0,3.08,6.82,3,9-.14,2.61-1.18,2.85-.15,11.39.9,7.41.53,7.57,1.1,8.19s3.63,0,3.73-1.3c.57-7.25,1.7-17.91,1-24.66-.76-7.75-1.31-14.12-1.31-14.12S233.75,170.88,231.44,169.35Z"
        transform="translate(-4.14 -7.91)" />
    <path class="cls-23"
        d="M242.16,155s.79-3.3-4.58-5.47-8.73-2.22-8.89.88,1.12,7.27,1.28,8.67c.11,1.11-.39,1.93-1.4,6.89a31.69,31.69,0,0,0-1.15,7.24,38.54,38.54,0,0,0,.93,7.86c.32,1.73,2.41.7,7.78,1.2,1.51.14,7.31,3.21,6.73-.4C241.1,170.73,241.42,158.69,242.16,155Z"
        transform="translate(-4.14 -7.91)" />
    <path class="cls-24"
        d="M237.14,145.93s-.76,2.29.34,3.81c.61.82-5.32,2.1-4.73-.31a5.66,5.66,0,0,0-1.8-5.31Z"
        transform="translate(-4.14 -7.91)" />
    <path class="cls-24"
        d="M236.89,147.59a9.72,9.72,0,0,1-2.3-.83l-.1.05-.55.14-.21.08s.31,2.48,3.47,2.19A4.76,4.76,0,0,1,236.89,147.59Z"
        transform="translate(-4.14 -7.91)" />
    <path class="cls-25"
        d="M237.2,136.48a44.6,44.6,0,0,1,2.27,4.21c1.14,2.34,1.32,5-.15,6.25-.71.58-5.63,1.73-7.85-4C230,139.29,232.51,134.49,237.2,136.48Z"
        transform="translate(-4.14 -7.91)" />
    <path class="cls-18"
        d="M238.23,136.6c.6.52,1.72,2.09.2,2.75-2.18,1-.51,3.82-1.23,4.39-.41.32-.4-.25-1.48-1-.43-.31-1-.11-1.08,1.12s1.78,3,1.24,3.41-3.88-.59-4.51-1.19c-1.56-1.5-3.57-5.27-.77-8.71C233,134.44,237.2,135.71,238.23,136.6Z"
        transform="translate(-4.14 -7.91)" />
    <path class="cls-25"
        d="M254.38,152a3.66,3.66,0,0,0,1.15-1.32,4.78,4.78,0,0,0,.54-2.06c0-.55.33-1.07-.32-1.3s-1.25.86-1.33,1.7-1.42,1.53-1.69,2.11S254,152.23,254.38,152Z"
        transform="translate(-4.14 -7.91)" />
    <path class="cls-25"
        d="M254.11,150.6a20.67,20.67,0,0,0,.14-2.22c.08-.54-.52-.07-.74.61s-.59,1.5-.87,2.23C253.19,151,253.6,151.19,254.11,150.6Z"
        transform="translate(-4.14 -7.91)" />
    <path class="cls-26"
        d="M237.83,154.17a2.09,2.09,0,0,1,.95-2.8,2.16,2.16,0,0,1,1.2-.2c1.56,0,6,4.93,8.54,4.79,1.25-.07,3.2-4.33,4-5.4.19,1,1.23,1.31,2.12,1.55-.83,2.11-2.87,7.77-5.4,7.86C245,160.18,239.64,158.09,237.83,154.17Z"
        transform="translate(-4.14 -7.91)" />
    <path class="cls-4"
        d="M155.69,65.32a1.89,1.89,0,0,0-.86-1.13L147.55,60a5.74,5.74,0,0,0-4.36-.3L8.05,104.46a5.69,5.69,0,0,0-3.9,5.42V116l10.26,5.13V115a5.7,5.7,0,0,1,3.9-5.41l134.3-44.48c.3-.09.9-.28,1.48-.48C154.89,64.36,155.69,65.32,155.69,65.32Z"
        transform="translate(-4.14 -7.91)" />
    <path class="cls-5"
        d="M155.75,74.34V65.46a1,1,0,0,0-1-1,.93.93,0,0,0-.29,0L15.93,110.39a2.2,2.2,0,0,0-1.52,2.11v8.65Z"
        transform="translate(-4.14 -7.91)" />
    <path class="cls-6"
        d="M14.41,121.15V216l4,1.61v4.85a5,5,0,0,1-1.44.16,14.6,14.6,0,0,1-2-.29l-7.22-2.83a5.7,5.7,0,0,1-3.61-5.3V116Z"
        transform="translate(-4.14 -7.91)" />
    <path class="cls-27"
        d="M155.75,74.34v93.54a4.53,4.53,0,0,1-2.92,4.21L18.37,222.42a3,3,0,0,1-3.83-1.83,2.73,2.73,0,0,1-.17-1V121.15Z"
        transform="translate(-4.14 -7.91)" />
    <line class="cls-28" x1="28.02" y1="116.36" x2="105.38" y2="89.59" />
    <line class="cls-28" x1="28.18" y1="125.45" x2="105.54" y2="98.68" />
    <line class="cls-28" x1="28.33" y1="134.54" x2="105.69" y2="107.77" />
    <line class="cls-28" x1="28.49" y1="143.63" x2="105.85" y2="116.86" />
    <line class="cls-28" x1="28.65" y1="152.72" x2="106.01" y2="125.95" />
    <polygon class="cls-3" points="70.19 185.92 29.46 200.01 28.81 162.18 69.53 148.09 70.19 185.92" />
    <line class="cls-28" x1="76.28" y1="145.75" x2="106.17" y2="135.41" />
    <line class="cls-28" x1="76.44" y1="155.21" x2="106.33" y2="144.87" />
    <line class="cls-28" x1="76.61" y1="164.67" x2="106.5" y2="154.33" />
    <line class="cls-28" x1="76.77" y1="174.13" x2="106.66" y2="163.78" />
    <line class="cls-28" x1="76.93" y1="183.59" x2="106.82" y2="173.24" />
    <polygon class="cls-29"
        points="63.78 181.92 35.66 191.65 35.22 166.11 63.33 156.38 63.78 181.92" />
    <path class="cls-30" d="M40.93,175.54c.15,8.29,3.69,21,24.21,13.86"
        transform="translate(-4.14 -7.91)" />
    <path class="cls-31" d="M41.53,175c.14,8.29,14,17.4,24.22,13.86"
        transform="translate(-4.14 -7.91)" />
    <ellipse class="cls-16" cx="41.32" cy="176.68" rx="0.91" ry="0.65"
        transform="translate(-139.27 126.51) rotate(-63.37)" />
    <ellipse class="cls-13" cx="41.99" cy="174.8" rx="0.91" ry="0.65"
        transform="translate(-137.22 126.07) rotate(-63.37)" />
    <ellipse class="cls-13" cx="43.25" cy="178.52" rx="0.91" ry="0.65"
        transform="translate(-139.85 129.25) rotate(-63.37)" />
    <ellipse class="cls-13" cx="43.54" cy="180.88" rx="0.91" ry="0.65"
        transform="translate(-141.8 130.81) rotate(-63.37)" />
    <ellipse class="cls-13" cx="45.15" cy="182.67" rx="0.91" ry="0.65"
        transform="translate(-142.52 133.25) rotate(-63.37)" />
    <ellipse class="cls-13" cx="47.99" cy="185.43" rx="0.91" ry="0.65"
        transform="translate(-143.42 137.31) rotate(-63.37)" />
    <ellipse class="cls-13" cx="51.93" cy="187.55" rx="0.91" ry="0.65"
        transform="translate(-143.13 142) rotate(-63.37)" />
    <ellipse class="cls-13" cx="54.06" cy="186.81" rx="0.91" ry="0.65"
        transform="translate(-141.3 143.5) rotate(-63.37)" />
    <ellipse class="cls-13" cx="57.05" cy="188.66" rx="0.91" ry="0.65"
        transform="translate(-141.3 147.19) rotate(-63.37)" />
    <ellipse class="cls-13" cx="61.38" cy="188.84" rx="0.91" ry="0.65"
        transform="translate(-139.08 151.15) rotate(-63.37)" />
    <ellipse class="cls-13" cx="65.55" cy="188.4" rx="0.91" ry="0.65"
        transform="translate(-136.38 154.64) rotate(-63.37)" />
    <ellipse class="cls-16" cx="45.22" cy="187.22" rx="0.91" ry="0.65"
        transform="translate(-146.54 135.82) rotate(-63.37)" />
    <ellipse class="cls-16" cx="42.16" cy="183.71" rx="0.91" ry="0.65"
        transform="translate(-145.1 131.14) rotate(-63.37)" />
    <ellipse class="cls-16" cx="46.94" cy="189.29" rx="0.91" ry="0.65"
        transform="translate(-147.44 138.49) rotate(-63.37)" />
    <ellipse class="cls-16" cx="49.83" cy="191.8" rx="0.91" ry="0.65"
        transform="translate(-148.09 142.46) rotate(-63.37)" />
    <ellipse class="cls-16" cx="51.79" cy="191.12" rx="0.91" ry="0.65"
        transform="translate(-146.4 143.84) rotate(-63.37)" />
    <ellipse class="cls-16" cx="53.64" cy="191.52" rx="0.91" ry="0.65"
        transform="translate(-145.74 145.71) rotate(-63.37)" />
    <ellipse class="cls-16" cx="58.28" cy="191.41" rx="0.91" ry="0.65"
        transform="translate(-143.08 149.8) rotate(-63.37)" />
    <ellipse class="cls-16" cx="64.66" cy="189.54" rx="0.91" ry="0.65"
        transform="translate(-137.89 154.47) rotate(-63.37)" />
    <line class="cls-29" x1="35.64" y1="190.27" x2="33.82" y2="190.9" />
    <line class="cls-29" x1="35.56" y1="185.95" x2="33.75" y2="186.58" />
    <line class="cls-29" x1="35.49" y1="181.63" x2="33.67" y2="182.26" />
    <line class="cls-29" x1="35.41" y1="177.31" x2="33.6" y2="177.94" />
    <line class="cls-29" x1="35.34" y1="172.99" x2="33.52" y2="173.62" />
    <line class="cls-29" x1="35.26" y1="168.66" x2="33.45" y2="169.29" />
    <line class="cls-29" x1="60.74" y1="182.97" x2="60.78" y2="185.09" />
    <line class="cls-29" x1="56.03" y1="184.6" x2="56.07" y2="186.72" />
    <line class="cls-29" x1="51.32" y1="186.23" x2="51.36" y2="188.35" />
    <line class="cls-29" x1="46.62" y1="187.86" x2="46.65" y2="189.98" />
    <line class="cls-29" x1="41.91" y1="189.49" x2="41.94" y2="191.61" />
    <line class="cls-29" x1="37.2" y1="191.12" x2="37.24" y2="193.24" />
    <path class="cls-18"
        d="M36.47,199.35a1.32,1.32,0,0,1-.06.39.43.43,0,0,1-.21.19c-.1,0-.17,0-.21-.05a.44.44,0,0,1-.08-.33.86.86,0,0,1,.06-.39.33.33,0,0,1,.21-.19.16.16,0,0,1,.21.05A.62.62,0,0,1,36.47,199.35Zm-.39.14a.49.49,0,0,0,0,.24,0,0,0,0,0,.07,0h0a.22.22,0,0,0,.09-.1v-.26a1,1,0,0,0,0-.24.07.07,0,0,0-.09,0,.1.1,0,0,0-.08.1.57.57,0,0,0,0,.26Z"
        transform="translate(-4.14 -7.91)" />
    <path class="cls-18"
        d="M36.58,199.69a.14.14,0,0,1,0-.09.13.13,0,0,1,.07,0,.06.06,0,0,1,.08,0v.16l-.07,0h-.07S36.58,199.73,36.58,199.69Z"
        transform="translate(-4.14 -7.91)" />
    <path class="cls-18"
        d="M37.43,199a1.32,1.32,0,0,1-.06.39.43.43,0,0,1-.21.19.18.18,0,0,1-.21,0,.56.56,0,0,1-.08-.33.86.86,0,0,1,.06-.39.33.33,0,0,1,.21-.19.16.16,0,0,1,.21.05A.54.54,0,0,1,37.43,199Zm-.39.14a.45.45,0,0,0,0,.23.05.05,0,0,0,.06.05h0a.28.28,0,0,0,.09-.11v-.25a1,1,0,0,0,0-.24s0-.06-.09,0a.1.1,0,0,0-.08.1.81.81,0,0,0,0,.22Z"
        transform="translate(-4.14 -7.91)" />
    <path class="cls-18"
        d="M41.75,202.41a.86.86,0,0,1-.06.39.39.39,0,0,1-.21.19.18.18,0,0,1-.21-.05.51.51,0,0,1-.07-.34.66.66,0,0,1,.06-.39.33.33,0,0,1,.21-.19.18.18,0,0,1,.21.06A.62.62,0,0,1,41.75,202.41Zm-.39.14a.89.89,0,0,0,0,.23s0,.06.08.05h0a.14.14,0,0,0,.09-.11,1,1,0,0,0,0-.25v-.24a.08.08,0,0,0-.09,0,.14.14,0,0,0-.09.11,2.25,2.25,0,0,1,0,.26Z"
        transform="translate(-4.14 -7.91)" />
    <path class="cls-18"
        d="M46.11,200.77a.21.21,0,0,1,.19,0,.32.32,0,0,1,.07.19.65.65,0,0,1-.08.27.56.56,0,0,1-.45.19v-.18h.22a.2.2,0,0,0,.15-.2c0-.09-.06-.12-.16-.08h-.19v-.49l.43-.15v.17l-.29.1v.19h.11Z"
        transform="translate(-4.14 -7.91)" />
    <path class="cls-18" d="M50.69,199.78l-.17.06v-.73l-.06.09-.09.12-.09-.09.26-.33h.14Z"
        transform="translate(-4.14 -7.91)" />
    <path class="cls-18"
        d="M51.46,199.05a1,1,0,0,1-.06.38.36.36,0,0,1-.21.19.17.17,0,0,1-.21,0,.59.59,0,0,1-.08-.34.75.75,0,0,1,.07-.39.31.31,0,0,1,.2-.19.21.21,0,0,1,.22.05A.94.94,0,0,1,51.46,199.05Zm-.39.13a.49.49,0,0,0,0,.24.06.06,0,0,0,.08,0,.14.14,0,0,0,.09-.11,1,1,0,0,0,0-.25,1,1,0,0,0,0-.24s0-.06-.09,0a.15.15,0,0,0-.08.11.76.76,0,0,0,0,.3Z"
        transform="translate(-4.14 -7.91)" />
    <path class="cls-18" d="M55.43,198.14l-.17.06v-.64l-.1.12-.08-.09.25-.33.14,0Z"
        transform="translate(-4.14 -7.91)" />
    <path class="cls-18"
        d="M55.92,197.37a.21.21,0,0,1,.19,0,.24.24,0,0,1,.08.19.5.5,0,0,1-.08.27.46.46,0,0,1-.23.16.41.41,0,0,1-.22,0v-.11h.21a.2.2,0,0,0,.15-.2c0-.09-.05-.12-.16-.08h-.15v-.49l.44-.15v.17l-.29.1v.19h0Z"
        transform="translate(-4.14 -7.91)" />
    <path class="cls-18"
        d="M60.28,196.47l-.56.19v-.14l.2-.3A.72.72,0,0,1,60,196v-.24a.06.06,0,0,0-.08,0l-.09.06-.08.1,0-.07a.36.36,0,0,1,.08-.12l.09-.07h.24a.24.24,0,0,1,.09.06.24.24,0,0,1,0,.12V196l-.06.13a1.64,1.64,0,0,1-.14.22l-.11.15h0l.36-.12Z"
        transform="translate(-4.14 -7.91)" />
    <path class="cls-18"
        d="M60.91,195.78a1.21,1.21,0,0,1-.06.38.45.45,0,0,1-.21.2.2.2,0,0,1-.22-.05.66.66,0,0,1-.08-.34,1.27,1.27,0,0,1,.06-.39.48.48,0,0,1,.21-.19.2.2,0,0,1,.22.05A.66.66,0,0,1,60.91,195.78Zm-.39.13a.49.49,0,0,0,0,.24s0,.06.08,0a.2.2,0,0,0,.09-.11,1,1,0,0,0,0-.25,1,1,0,0,0,0-.24.08.08,0,0,0-.09,0,.12.12,0,0,0-.08.11.81.81,0,0,0,0,.22Z"
        transform="translate(-4.14 -7.91)" />
    <path class="cls-18"
        d="M65,194.82l-.56.19v-.13l.2-.31a.52.52,0,0,0,.11-.19.14.14,0,0,0,0-.09.11.11,0,0,0,0-.08.09.09,0,0,0,0-.07h0l-.09.05-.09.11-.09-.1.1-.12.08-.06.1-.05h.14A.24.24,0,0,1,65,194a.24.24,0,0,1,0,.12.29.29,0,0,1,0,.13v.14l-.15.22-.1.15h0l.35-.13Z"
        transform="translate(-4.14 -7.91)" />
    <path class="cls-18"
        d="M65.39,194.1a.15.15,0,0,1,.18,0,.43.43,0,0,1,.08.18.39.39,0,0,1-.08.27.46.46,0,0,1-.24.17.37.37,0,0,1-.21,0v-.17h.21a.19.19,0,0,0,.16-.2c0-.1-.06-.13-.17-.09h-.19v-.49l.43-.15v.26l-.28.1v.18h0Z"
        transform="translate(-4.14 -7.91)" />
    <path class="cls-18"
        d="M36.39,195a.86.86,0,0,1-.06.39.36.36,0,0,1-.21.19.18.18,0,0,1-.21,0,.56.56,0,0,1-.08-.33.75.75,0,0,1,.07-.39.31.31,0,0,1,.21-.19.16.16,0,0,1,.21.05A.72.72,0,0,1,36.39,195Zm-.39.14a.49.49,0,0,0,0,.24s0,.06.08,0a.15.15,0,0,0,.09-.1,1.13,1.13,0,0,0,0-.26v-.24h-.09a.14.14,0,0,0-.08.1,1.13,1.13,0,0,0,0,.26Z"
        transform="translate(-4.14 -7.91)" />
    <path class="cls-18"
        d="M36.5,195.36a.14.14,0,0,1,0-.09s0,0,.07-.05,0,0,.07,0v.16l-.07.05H36.5A.14.14,0,0,0,36.5,195.36Z"
        transform="translate(-4.14 -7.91)" />
    <path class="cls-18"
        d="M37.37,195.16l-.56.19v-.14l.2-.3.12-.19v-.24h-.08l-.09.06-.09.1-.09-.09.1-.12.08-.07h.1a.17.17,0,0,1,.14,0,.24.24,0,0,1,.09.06.24.24,0,0,1,0,.12v.27l-.14.21-.11.15h0l.35-.12Z"
        transform="translate(-4.14 -7.91)" />
    <path class="cls-18"
        d="M36.32,190.69a1.32,1.32,0,0,1-.06.39.43.43,0,0,1-.21.19c-.1,0-.17,0-.21-.05a.52.52,0,0,1-.09-.34.86.86,0,0,1,.06-.39.34.34,0,0,1,.2-.19.16.16,0,0,1,.21,0A.59.59,0,0,1,36.32,190.69Zm-.39.14a.49.49,0,0,0,0,.24s0,.06.08,0a.22.22,0,0,0,.09-.1,1.13,1.13,0,0,0,0-.26,1,1,0,0,0,0-.24.07.07,0,0,0-.09,0,.32.32,0,0,0-.08.1.81.81,0,0,0,0,.31Z"
        transform="translate(-4.14 -7.91)" />
    <path class="cls-18"
        d="M36.43,191a.14.14,0,0,1,0-.09.13.13,0,0,1,.07-.05.06.06,0,0,1,.08,0v.16l-.07,0h-.07A.06.06,0,0,1,36.43,191Z"
        transform="translate(-4.14 -7.91)" />
    <path class="cls-18"
        d="M37.31,190.63h-.1v.25l-.17.06v-.19l-.29.13v-.14l.33-.73h.17v.59h.08Zm-.27-.07v-.36h0l0,.12-.14.31Z"
        transform="translate(-4.14 -7.91)" />
    <path class="cls-18"
        d="M36.24,186.36a.86.86,0,0,1-.06.39.36.36,0,0,1-.21.19.17.17,0,0,1-.22-.06.56.56,0,0,1-.08-.33.74.74,0,0,1,.07-.39.31.31,0,0,1,.2-.19.17.17,0,0,1,.21,0A.54.54,0,0,1,36.24,186.36Zm-.39.14a.49.49,0,0,0,0,.24s0,.06.08,0a.11.11,0,0,0,.08-.1.57.57,0,0,0,0-.26v-.24a.06.06,0,0,0-.08,0,.13.13,0,0,0-.09.1.76.76,0,0,0,0,.26Z"
        transform="translate(-4.14 -7.91)" />
    <path class="cls-18"
        d="M36.35,186.7a.14.14,0,0,1,0-.09s0,0,.07-.05,0,0,.07,0v.16h-.14S36.36,186.74,36.35,186.7Z"
        transform="translate(-4.14 -7.91)" />
    <path class="cls-18"
        d="M36.64,186.3a.79.79,0,0,1,.1-.45.48.48,0,0,1,.3-.24h.1v.16H37a.25.25,0,0,0-.14.08.2.2,0,0,0-.08.12.28.28,0,0,0,0,.18h0A.23.23,0,0,1,37,186a.15.15,0,0,1,.16,0,.24.24,0,0,1,.06.2.41.41,0,0,1-.07.26.36.36,0,0,1-.2.16.19.19,0,0,1-.15,0,.35.35,0,0,1-.11-.1A1.42,1.42,0,0,1,36.64,186.3Zm.3.15a.27.27,0,0,0,.08-.07.29.29,0,0,0,0-.13.17.17,0,0,0,0-.1.06.06,0,0,0-.08,0,.11.11,0,0,0-.09.07.17.17,0,0,0,0,.1.24.24,0,0,0,0,.12A.09.09,0,0,0,36.94,186.45Z"
        transform="translate(-4.14 -7.91)" />
    <path class="cls-18"
        d="M36.17,182a1.32,1.32,0,0,1-.06.39.43.43,0,0,1-.21.19c-.09,0-.17,0-.21-.05a.44.44,0,0,1-.08-.33.86.86,0,0,1,.06-.39.33.33,0,0,1,.21-.19.15.15,0,0,1,.2,0A.63.63,0,0,1,36.17,182Zm-.39.14a.49.49,0,0,0,0,.24s0,.06.08,0a.16.16,0,0,0,.08-.1.57.57,0,0,0,0-.26.49.49,0,0,0,0-.24.06.06,0,0,0-.08,0,.32.32,0,0,0-.08.1.57.57,0,0,0,0,.26Z"
        transform="translate(-4.14 -7.91)" />
    <path class="cls-18"
        d="M36.28,182.37a.14.14,0,0,1,0-.09h.07a.06.06,0,0,1,.08,0v.16l-.07.05h-.07A.09.09,0,0,1,36.28,182.37Z"
        transform="translate(-4.14 -7.91)" />
    <path class="cls-18"
        d="M36.83,181.32a.23.23,0,0,1,.2,0,.24.24,0,0,1,.07.14v.14a.69.69,0,0,1-.11.13s.11,0,.12.08a.13.13,0,0,1,0,.12.27.27,0,0,1-.07.21.52.52,0,0,1-.19.14.26.26,0,0,1-.21,0,.13.13,0,0,1-.08-.15.22.22,0,0,1,0-.16.33.33,0,0,1,.11-.15.26.26,0,0,1-.1-.07.13.13,0,0,1,0-.12.21.21,0,0,1,.07-.18A.41.41,0,0,1,36.83,181.32Zm-.11.74v.07a.07.07,0,0,0,.09,0,.14.14,0,0,0,.1-.06.14.14,0,0,0,0-.09,0,0,0,0,0,0-.07h-.1a.25.25,0,0,0-.06.15Zm.11-.6-.07,0v.14h.09l.07-.09v-.07a.06.06,0,0,0,0-.06Z"
        transform="translate(-4.14 -7.91)" />
    <path class="cls-18" d="M36,178.22l-.17.06v-.73l-.06.08-.09.12-.08-.09.25-.33.14-.05Z"
        transform="translate(-4.14 -7.91)" />
    <path class="cls-18" d="M36.21,178a.08.08,0,0,1,0-.09s0,0,.07,0,0,0,.07,0v.16l-.07.05h-.07Z"
        transform="translate(-4.14 -7.91)" />
    <path class="cls-18"
        d="M37.05,177.37a.86.86,0,0,1-.06.39.36.36,0,0,1-.21.19.18.18,0,0,1-.21,0,.49.49,0,0,1-.07-.33.66.66,0,0,1,.06-.39.29.29,0,0,1,.21-.19.16.16,0,0,1,.21,0A.62.62,0,0,1,37.05,177.37Zm-.39.14a1,1,0,0,0,0,.24.07.07,0,0,0,.09,0,.16.16,0,0,0,.08-.1,1.13,1.13,0,0,0,0-.26.93.93,0,0,1,0-.24c0-.07,0-.06-.09,0a.13.13,0,0,0-.09.1A.76.76,0,0,0,36.66,177.51Z"
        transform="translate(-4.14 -7.91)" />
    <g class="cls-17">
        <path class="cls-18"
            d="M93.39,222.88c-8.17,4.72-8.22,12.36-.09,17.07s21.28,4.71,29.45,0,8.21-12.35.1-17.06S101.55,218.15,93.39,222.88Z"
            transform="translate(-4.14 -7.91)" />
    </g>
    <path class="cls-32"
        d="M111.75,228.7c-.09,0-5.11-.14-4,1.6a2.82,2.82,0,0,0,2.47,1.34c.75,0,2.11-.38,2.46-.18s2,1.3,3,.2a1.67,1.67,0,0,0,.2-1.27C115.75,230,112.31,228.6,111.75,228.7Z"
        transform="translate(-4.14 -7.91)" />
    <path class="cls-33"
        d="M107.75,230.3a2.82,2.82,0,0,0,2.47,1.34c.75,0,2.11-.38,2.46-.18s2,1.3,3,.2a1.54,1.54,0,0,0,.23-.63c-.68.93-2.34.68-2.8.37a2.77,2.77,0,0,0-1.94-.4,3.83,3.83,0,0,1-2.79-.66,1,1,0,0,1-.32-1.13A.7.7,0,0,0,107.75,230.3Z"
        transform="translate(-4.14 -7.91)" />
    <path class="cls-32"
        d="M104.57,232c-3.59-.47-7.35.11-6,2a3.77,3.77,0,0,0,3.13,1.4c1,0,2.7-.45,3.13-.23s2.56,1.34,3.81.16a2.47,2.47,0,0,0,.49-1.72C109,233.08,105.28,232.05,104.57,232Z"
        transform="translate(-4.14 -7.91)" />
    <path class="cls-19"
        d="M109.61,194.64s-1.58,2.79-.48,4.28,1.53,1.55,1.6.66.33-3.29.61-3,.5,1.14.77.91-.45-2.75-.45-2.75l-1.52-1.25Z"
        transform="translate(-4.14 -7.91)" />
    <path class="cls-34"
        d="M111.6,176.19a2.86,2.86,0,0,1,2.25-3.36l.29,0c3.22-.44,2.88,6.11,2.88,6.11s.17,5.6-.31,7.4c-.64,2.4-4.57,8.87-4.57,8.87s-1.93-.21-2.58-1.44c0,0,3-6,3.23-8.21C113,183.15,111.56,176.71,111.6,176.19Z"
        transform="translate(-4.14 -7.91)" />
    <path class="cls-35"
        d="M115,191.06s3.12,5.25.33,12.52c0,0-2.14,6.14-1.67,8.2.57,2.46,1.4,1.77,2,9.92.53,7.2.5,6.07.37,8.72,0,.84-3.42,1.55-4-.56-1.39-5.39-4.75-16.66-4.12-23.18s1-12.63,1-12.63A19.49,19.49,0,0,0,115,191.06Z"
        transform="translate(-4.14 -7.91)" />
    <path class="cls-36"
        d="M110.64,195.12s3.14,4.67-1.1,10.86c0,0-3.18,7-2.75,9.28s1.23,2.21,2.06,9.57c.53,4.69.86,5.87.49,8.89-.14,1.11-4.44,1.22-4.69-.35-.87-5.47-5-17.24-4.34-23.77s1.92-13.86,1.92-13.86S107.81,196.69,110.64,195.12Z"
        transform="translate(-4.14 -7.91)" />
    <path class="cls-11"
        d="M102.16,179.27s-.74-3.46,5.06-5.54,9.36-2,9.44,1.23-1.43,7.55-1.64,9a12.8,12.8,0,0,0,.7,7.29c1.39,3.32,2,6.49-7.14,7-1.61.09-7.58.06-6.73-3.66A46.35,46.35,0,0,0,102.16,179.27Z"
        transform="translate(-4.14 -7.91)" />
    <path class="cls-19"
        d="M107.53,170s.61,2.46-.59,4c-.64.8,1.92,1.64,4,.58,0,0,.2-4.19,1.73-5.65Z"
        transform="translate(-4.14 -7.91)" />
    <path class="cls-37"
        d="M107.67,171.79a10,10,0,0,0,2.33-.68l.08.07.48.67.27-.39s-.47,2.55-3.55,2A5.65,5.65,0,0,0,107.67,171.79Z"
        transform="translate(-4.14 -7.91)" />
    <path class="cls-33"
        d="M98.61,233.88a3.77,3.77,0,0,0,3.13,1.4c1,0,2.7-.45,3.13-.23s2.56,1.34,3.81.16a2,2,0,0,0,.41-.82c-.87,1-3.09.9-3.68.59a4,4,0,0,0-2.45-.4,5.52,5.52,0,0,1-3.54-.67,1.6,1.6,0,0,1-.59-1.51.94.94,0,0,0-.38,1.28A1.56,1.56,0,0,0,98.61,233.88Z"
        transform="translate(-4.14 -7.91)" />
    <path class="cls-19"
        d="M107.47,160.2a5.65,5.65,0,0,0-2.85,4.2c-.45,2.92-1.37,5.45.08,6.71s6.86,1,8.63-2.77S112.86,158.5,107.47,160.2Z"
        transform="translate(-4.14 -7.91)" />
    <path class="cls-38"
        d="M110.64,170.8s-.7,5,1.72,8.42a5.45,5.45,0,0,1,1.22,4.35c-.19.89,3.87-2.76,2.11-6.9a19.52,19.52,0,0,0-3.49-5.87Z"
        transform="translate(-4.14 -7.91)" />
    <path class="cls-38"
        d="M104,164a2,2,0,0,0,1.25,1.82c1.33.54,2.89.48,3,1.37s.47,3.41,1.61,4.18c1.48,1,1.62-.15,2.23-.83a7.82,7.82,0,0,0,1.27-8.14,4.43,4.43,0,0,0-4.75-2.47S104.14,160.47,104,164Z"
        transform="translate(-4.14 -7.91)" />
    <path class="cls-19"
        d="M109.42,169.38c-.65.62-1.51.76-1.92.3s-.23-1.33.41-2,1.51-.77,1.92-.31S110.06,168.75,109.42,169.38Z"
        transform="translate(-4.14 -7.91)" />
    <path class="cls-39"
        d="M110.55,170.51s2-1.25,2.32-.24c.26.76-1.82,1.75-2.53,1.56S110.17,170.72,110.55,170.51Z"
        transform="translate(-4.14 -7.91)" />
    <path class="cls-19"
        d="M85,174s-2.47-2.06-2-3.84.89-2,1.28-1.18,1.47,3,1.63,2.59.06-1.24.4-1.12.55,2.73.55,2.73l-1,1.7Z"
        transform="translate(-4.14 -7.91)" />
    <path class="cls-32"
        d="M103.66,177a2.67,2.67,0,0,1,2.79,2.54,2.9,2.9,0,0,1,0,.51c-.26,3.28-6.54,1.94-6.54,1.94s-5.49-.69-7.14-1.44c-2.2-1-7.65-5.9-7.65-5.9s.6-1.89,1.94-2.34c0,0,5.21,4,7.29,4.46C96.6,177.31,103.16,176.88,103.66,177Z"
        transform="translate(-4.14 -7.91)" />
    <path class="cls-40"
        d="M126.58,93.82l47.73-15.46,2.86-.82.3-.09h0c1-.24,7.47,3.21,8,3.67a1.61,1.61,0,0,1,.51,1.24L179,83.3l2.5,68.8-49.42,14.84,1.33,6.34a1.93,1.93,0,0,1-1.42-.06c-.6-.24-3.78-2.22-5.38-3.26a2.11,2.11,0,0,1-1.06-1.8l-.07-4.43-1.07-67.08A3.17,3.17,0,0,1,126.58,93.82Z"
        transform="translate(-4.14 -7.91)" />
    <path class="cls-41"
        d="M133.47,173.29,185,156.59a3.23,3.23,0,0,0,2.14-2.89L186,82.37a1.56,1.56,0,0,0-2.21-1.48l-51.55,16.7a3.22,3.22,0,0,0-2.15,2.89l1.15,71.33a1.55,1.55,0,0,0,2.2,1.48Z"
        transform="translate(-4.14 -7.91)" />
    <path class="cls-42"
        d="M144.36,148.71l-7.56,2.42c-.62.21-1.14-.22-1.14-.95l-.06-8.73a1.79,1.79,0,0,1,1.13-1.68l7.55-2.42c.63-.2,1.14.23,1.15,1l.06,8.74A1.85,1.85,0,0,1,144.36,148.71Z"
        transform="translate(-4.14 -7.91)" />
    <ellipse class="cls-43" cx="140.16" cy="143.2" rx="0.17" ry="0.12"
        transform="translate(-55.59 193.9) rotate(-62.62)" />
    <ellipse class="cls-43" cx="139.8" cy="143.53" rx="0.17" ry="0.12"
        transform="translate(-56.08 193.75) rotate(-62.62)" />
    <ellipse class="cls-44" cx="139.48" cy="143.91" rx="0.17" ry="0.12"
        transform="translate(-56.59 193.67) rotate(-62.62)" />
    <ellipse class="cls-11" cx="139.15" cy="143.72" rx="0.17" ry="0.12"
        transform="translate(-56.6 193.28) rotate(-62.62)" />
    <ellipse class="cls-43" cx="138.84" cy="143.54" rx="0.17" ry="0.12"
        transform="translate(-56.6 192.9) rotate(-62.62)" />
    <ellipse class="cls-43" cx="138.52" cy="143.34" rx="0.17" ry="0.12"
        transform="translate(-56.6 192.51) rotate(-62.62)" />
    <ellipse class="cls-11" cx="138.19" cy="143.15" rx="0.17" ry="0.12"
        transform="translate(-56.61 192.12) rotate(-62.62)" />
    <ellipse class="cls-44" cx="138.25" cy="142.66" rx="0.17" ry="0.12"
        transform="translate(-56.14 191.91) rotate(-62.62)" />
    <ellipse class="cls-43" cx="138.13" cy="142.26" rx="0.17" ry="0.12"
        transform="translate(-55.85 191.58) rotate(-62.62)" />
    <ellipse class="cls-43" cx="137.85" cy="142.02" rx="0.17" ry="0.12"
        transform="translate(-55.79 191.2) rotate(-62.62)" />
    <ellipse class="cls-43" cx="137.47" cy="141.98" rx="0.17" ry="0.12"
        transform="translate(-55.97 190.85) rotate(-62.62)" />
    <ellipse class="cls-43" cx="137.07" cy="142.2" rx="0.17" ry="0.12"
        transform="translate(-56.37 190.61) rotate(-62.62)" />
    <ellipse class="cls-43" cx="136.75" cy="142.58" rx="0.17" ry="0.12"
        transform="translate(-56.89 190.53) rotate(-62.62)" />
    <ellipse class="cls-43" cx="136.58" cy="143.06" rx="0.17" ry="0.12"
        transform="translate(-57.4 190.64) rotate(-62.62)" />
    <ellipse class="cls-43" cx="136.6" cy="143.52" rx="0.17" ry="0.12"
        transform="translate(-57.79 190.91) rotate(-62.62)" />
    <ellipse class="cls-43" cx="136.82" cy="143.86" rx="0.17" ry="0.12"
        transform="translate(-57.98 191.28) rotate(-62.62)" />
    <ellipse class="cls-43" cx="137.15" cy="143.98" rx="0.17" ry="0.12"
        transform="translate(-57.91 191.65) rotate(-62.62)" />
    <ellipse class="cls-43" cx="137.56" cy="143.89" rx="0.17" ry="0.12"
        transform="translate(-57.61 191.96) rotate(-62.62)" />
    <ellipse class="cls-43" cx="137.95" cy="143.6" rx="0.17" ry="0.12"
        transform="translate(-57.14 192.14) rotate(-62.62)" />
    <ellipse class="cls-11" cx="138.26" cy="143.79" rx="0.17" ry="0.12"
        transform="translate(-57.14 192.53) rotate(-62.62)" />
    <ellipse class="cls-11" cx="138.59" cy="143.98" rx="0.17" ry="0.12"
        transform="translate(-57.14 192.92) rotate(-62.62)" />
    <ellipse class="cls-43" cx="138.91" cy="144.17" rx="0.17" ry="0.12"
        transform="translate(-57.13 193.3) rotate(-62.62)" />
    <ellipse class="cls-11" cx="139.22" cy="144.36" rx="0.17" ry="0.12"
        transform="translate(-57.13 193.69) rotate(-62.62)" />
    <ellipse class="cls-43" cx="139.06" cy="144.85" rx="0.17" ry="0.12"
        transform="translate(-57.65 193.81) rotate(-62.62)" />
    <ellipse class="cls-43" cx="138.98" cy="145.33" rx="0.17" ry="0.12"
        transform="translate(-58.12 193.99) rotate(-62.62)" />
    <ellipse class="cls-43" cx="138.98" cy="145.81" rx="0.17" ry="0.12"
        transform="translate(-58.54 194.25) rotate(-62.62)" />
    <ellipse class="cls-44" cx="139.05" cy="146.24" rx="0.17" ry="0.12"
        transform="translate(-58.89 194.55) rotate(-62.62)" />
    <ellipse class="cls-43" cx="138.69" cy="146.56" rx="0.17" ry="0.12"
        transform="translate(-59.37 194.4) rotate(-62.62)" />
    <ellipse class="cls-44" cx="138.28" cy="146.57" rx="0.17" ry="0.12"
        transform="translate(-59.6 194.05) rotate(-62.62)" />
    <ellipse class="cls-43" cx="137.93" cy="146.87" rx="0.17" ry="0.12"
        transform="translate(-60.06 193.89) rotate(-62.62)" />
    <ellipse class="cls-43" cx="137.8" cy="147.35" rx="0.17" ry="0.12"
        transform="translate(-60.55 194.04) rotate(-62.62)" />
    <ellipse class="cls-43" cx="137.97" cy="147.71" rx="0.17" ry="0.12"
        transform="translate(-60.77 194.39) rotate(-62.62)" />
    <ellipse class="cls-43" cx="138.35" cy="147.73" rx="0.17" ry="0.12"
        transform="translate(-60.59 194.74) rotate(-62.62)" />
    <ellipse class="cls-43" cx="138.71" cy="147.43" rx="0.17" ry="0.12"
        transform="translate(-60.13 194.89) rotate(-62.62)" />
    <ellipse class="cls-11" cx="138.87" cy="146.92" rx="0.17" ry="0.12"
        transform="translate(-59.59 194.76) rotate(-62.62)" />
    <ellipse class="cls-45" cx="139.24" cy="146.6" rx="0.17" ry="0.12"
        transform="translate(-59.11 194.91) rotate(-62.62)" />
    <ellipse class="cls-43" cx="139.51" cy="146.88" rx="0.17" ry="0.12"
        transform="translate(-59.21 195.3) rotate(-62.62)" />
    <ellipse class="cls-43" cx="139.82" cy="147.06" rx="0.17" ry="0.12"
        transform="translate(-59.2 195.68) rotate(-62.62)" />
    <ellipse class="cls-43" cx="140.18" cy="147.16" rx="0.17" ry="0.12"
        transform="translate(-59.1 196.05) rotate(-62.62)" />
    <ellipse class="cls-43" cx="140.59" cy="147.13" rx="0.17" ry="0.12"
        transform="translate(-58.85 196.39) rotate(-62.62)" />
    <ellipse class="cls-43" cx="140.99" cy="147" rx="0.17" ry="0.12"
        transform="translate(-58.52 196.68) rotate(-62.62)" />
    <ellipse class="cls-43" cx="141.39" cy="146.77" rx="0.17" ry="0.12"
        transform="translate(-58.1 196.91) rotate(-62.62)" />
    <ellipse class="cls-43" cx="141.75" cy="146.45" rx="0.17" ry="0.12"
        transform="translate(-57.62 197.06) rotate(-62.62)" />
    <ellipse class="cls-43" cx="142.07" cy="146.06" rx="0.17" ry="0.12"
        transform="translate(-57.1 197.13) rotate(-62.62)" />
    <ellipse class="cls-43" cx="142.32" cy="145.61" rx="0.17" ry="0.12"
        transform="translate(-56.57 197.11) rotate(-62.62)" />
    <ellipse class="cls-11" cx="142.69" cy="145.7" rx="0.17" ry="0.12"
        transform="translate(-56.45 197.5) rotate(-62.62)" />
    <ellipse class="cls-43" cx="143.06" cy="145.79" rx="0.17" ry="0.12"
        transform="translate(-56.32 197.87) rotate(-62.62)" />
    <ellipse class="cls-11" cx="143.42" cy="145.88" rx="0.17" ry="0.12"
        transform="translate(-56.2 198.24) rotate(-62.62)" />
    <ellipse class="cls-44" cx="143.59" cy="146.26" rx="0.17" ry="0.12"
        transform="translate(-56.46 198.59) rotate(-62.62)" />
    <ellipse class="cls-43" cx="143.95" cy="146.35" rx="0.17" ry="0.12"
        transform="translate(-56.34 198.96) rotate(-62.62)" />
    <ellipse class="cls-43" cx="144.32" cy="146.08" rx="0.17" ry="0.12"
        transform="translate(-55.9 199.15) rotate(-62.62)" />
    <ellipse class="cls-43" cx="144.5" cy="145.62" rx="0.17" ry="0.12"
        transform="translate(-55.4 199.05) rotate(-62.62)" />
    <ellipse class="cls-43" cx="144.36" cy="145.22" rx="0.17" ry="0.12"
        transform="translate(-55.12 198.71) rotate(-62.62)" />
    <ellipse class="cls-43" cx="144" cy="145.14" rx="0.17" ry="0.12"
        transform="translate(-55.23 198.35) rotate(-62.62)" />
    <ellipse class="cls-43" cx="143.6" cy="145.39" rx="0.17" ry="0.12"
        transform="translate(-55.68 198.13) rotate(-62.62)" />
    <ellipse class="cls-11" cx="143.24" cy="145.32" rx="0.17" ry="0.12"
        transform="translate(-55.81 197.77) rotate(-62.62)" />
    <ellipse class="cls-43" cx="142.87" cy="145.22" rx="0.17" ry="0.12"
        transform="translate(-55.93 197.39) rotate(-62.62)" />
    <ellipse class="cls-11" cx="142.49" cy="145.13" rx="0.17" ry="0.12"
        transform="translate(-56.05 197.01) rotate(-62.62)" />
    <ellipse class="cls-43" cx="142.58" cy="144.65" rx="0.17" ry="0.12"
        transform="translate(-55.57 196.83) rotate(-62.62)" />
    <ellipse class="cls-43" cx="142.57" cy="144.18" rx="0.17" ry="0.12"
        transform="translate(-55.16 196.56) rotate(-62.62)" />
    <ellipse class="cls-43" cx="142.47" cy="143.75" rx="0.17" ry="0.12"
        transform="translate(-54.83 196.25) rotate(-62.62)" />
    <ellipse class="cls-45" cx="142.3" cy="143.37" rx="0.17" ry="0.12"
        transform="translate(-54.59 195.89) rotate(-62.62)" />
    <ellipse class="cls-44" cx="142.63" cy="142.98" rx="0.17" ry="0.12"
        transform="translate(-54.06 195.97) rotate(-62.62)" />
    <ellipse class="cls-44" cx="143.02" cy="143" rx="0.17" ry="0.12"
        transform="translate(-53.87 196.32) rotate(-62.62)" />
    <ellipse class="cls-43" cx="143.41" cy="142.8" rx="0.17" ry="0.12"
        transform="translate(-53.48 196.57) rotate(-62.62)" />
    <ellipse class="cls-43" cx="143.72" cy="142.42" rx="0.17" ry="0.12"
        transform="translate(-52.97 196.63) rotate(-62.62)" />
    <ellipse class="cls-43" cx="143.87" cy="141.94" rx="0.17" ry="0.12"
        transform="translate(-52.47 196.5) rotate(-62.62)" />
    <ellipse class="cls-43" cx="143.81" cy="141.5" rx="0.17" ry="0.12"
        transform="translate(-52.11 196.21) rotate(-62.62)" />
    <ellipse class="cls-43" cx="143.56" cy="141.21" rx="0.17" ry="0.12"
        transform="translate(-51.99 195.83) rotate(-62.62)" />
    <ellipse class="cls-43" cx="143.18" cy="141.16" rx="0.17" ry="0.12"
        transform="translate(-52.15 195.47) rotate(-62.62)" />
    <ellipse class="cls-43" cx="142.78" cy="141.37" rx="0.17" ry="0.12"
        transform="translate(-52.55 195.23) rotate(-62.62)" />
    <ellipse class="cls-43" cx="142.46" cy="141.75" rx="0.17" ry="0.12"
        transform="translate(-53.06 195.16) rotate(-62.62)" />
    <ellipse class="cls-43" cx="142.33" cy="142.23" rx="0.17" ry="0.12"
        transform="translate(-53.56 195.29) rotate(-62.62)" />
    <ellipse class="cls-45" cx="142.36" cy="142.69" rx="0.17" ry="0.12"
        transform="translate(-53.95 195.58) rotate(-62.62)" />
    <ellipse class="cls-44" cx="142.05" cy="143.09" rx="0.17" ry="0.12"
        transform="translate(-54.47 195.52) rotate(-62.62)" />
    <ellipse class="cls-43" cx="141.72" cy="142.9" rx="0.17" ry="0.12"
        transform="translate(-54.48 195.12) rotate(-62.62)" />
    <ellipse class="cls-43" cx="141.35" cy="142.82" rx="0.17" ry="0.12"
        transform="translate(-54.61 194.75) rotate(-62.62)" />
    <path class="cls-42"
        d="M144.67,164.11l-7.56,2.41c-.62.21-1.14-.22-1.14-1l-.06-8.73a1.79,1.79,0,0,1,1.13-1.68l7.55-2.42c.63-.2,1.14.23,1.15.95l.06,8.74A1.87,1.87,0,0,1,144.67,164.11Z"
        transform="translate(-4.14 -7.91)" />
    <path class="cls-46" d="M138.32,162.48c3.7-1.27,1.18-3.6,5.15-5"
        transform="translate(-4.14 -7.91)" />
    <path class="cls-11"
        d="M141.94,102.19a1.94,1.94,0,0,1-.27,1.2,1.76,1.76,0,0,1-.92.69l-.67.22-.14-2.88.74-.25a.93.93,0,0,1,.9.08A1.18,1.18,0,0,1,141.94,102.19Zm-.41.15c0-.69-.32-1-.85-.77l-.34.11.1,2.09.28-.09A1.15,1.15,0,0,0,141.53,102.34Z"
        transform="translate(-4.14 -7.91)" />
    <path class="cls-11"
        d="M143.89,103l-1.36.45-.14-2.88,1.35-.45v.4l-1,.32v.78l.9-.3v.4l-.9.29V103l1-.32Z"
        transform="translate(-4.14 -7.91)" />
    <path class="cls-11"
        d="M145.75,101.63a1.11,1.11,0,0,1-.2.68,1.21,1.21,0,0,1-.62.43,1.29,1.29,0,0,1-.67.07v-.45a2,2,0,0,0,.35,0l.35-.06a.8.8,0,0,0,.33-.22.64.64,0,0,0,.1-.33.37.37,0,0,0-.12-.24,1.13,1.13,0,0,0-.43-.13.78.78,0,0,1-.48-.21.64.64,0,0,1-.16-.45.89.89,0,0,1,.19-.63,1,1,0,0,1,.56-.4,1.16,1.16,0,0,1,.69,0l-.11.42a1.1,1.1,0,0,0-.57,0,.53.53,0,0,0-.29.19.41.41,0,0,0-.08.3.31.31,0,0,0,0,.18.26.26,0,0,0,.14.11l.33.08a2,2,0,0,1,.4.11.61.61,0,0,1,.19.2A.83.83,0,0,1,145.75,101.63Z"
        transform="translate(-4.14 -7.91)" />
    <path class="cls-11" d="M146.25,102.26l-.15-2.88.39-.13.15,2.89Z"
        transform="translate(-4.14 -7.91)" />
    <path class="cls-11"
        d="M148.16,100l.88-.29.08,1.45a3.45,3.45,0,0,1-.41.25,3.93,3.93,0,0,1-.43.18.81.81,0,0,1-.86-.11,1.42,1.42,0,0,1-.34-1,1.94,1.94,0,0,1,.27-1.2,1.6,1.6,0,0,1,.9-.69,1.42,1.42,0,0,1,.71-.06l-.11.44a1,1,0,0,0-.59,0,1,1,0,0,0-.59.49,1.51,1.51,0,0,0-.19.86,1,1,0,0,0,.24.74.55.55,0,0,0,.59.09,2.22,2.22,0,0,0,.41-.2v-.74l-.5.16Z"
        transform="translate(-4.14 -7.91)" />
    <path class="cls-11"
        d="M151.67,100.47l-.47.15-1.28-1.9h0v.13a2.81,2.81,0,0,0,.05.66l.08,1.5-.36.11-.14-2.88.47-.16,1.29,1.9h0v-.33a3.23,3.23,0,0,1,0-.44l-.09-1.51.36-.12Z"
        transform="translate(-4.14 -7.91)" />
    <path class="cls-11"
        d="M155.05,97.88a2,2,0,0,1-.27,1.2,1.82,1.82,0,0,1-.93.69l-.67.22L153,97.11l.71-.23a.91.91,0,0,1,.89.08A1.2,1.2,0,0,1,155.05,97.88Zm-.41.15c0-.69-.33-1-.86-.77l-.34.11.11,2.1.28-.1a1.18,1.18,0,0,0,.81-1.36Z"
        transform="translate(-4.14 -7.91)" />
    <path class="cls-11"
        d="M157,98.71l-1.35.45-.15-2.88,1.35-.45v.4l-1,.32v.78l.9-.3v.4l-.9.3v.9l1-.32Z"
        transform="translate(-4.14 -7.91)" />
    <path class="cls-11" d="M158.33,98.27l-.39.13-.12-2.48-.71.23v-.4l1.8-.6v.41l-.7.23Z"
        transform="translate(-4.14 -7.91)" />
    <path class="cls-11"
        d="M160.88,97.43l-.28-.72-.91.3-.19.88-.42.13.75-3.19.42-.14,1,2.6Zm-.4-1.1-.26-.71a1,1,0,0,1-.08-.22l-.08-.23c0,.19-.06.38-.1.57l-.18.82Z"
        transform="translate(-4.14 -7.91)" />
    <path class="cls-11" d="M161.61,97.19l-.14-2.89.39-.13.14,2.89Z"
        transform="translate(-4.14 -7.91)" />
    <path class="cls-11" d="M162.63,96.88,162.49,94l.39-.13.12,2.48,1-.34v.41Z"
        transform="translate(-4.14 -7.91)" />
    <path class="cls-11"
        d="M165.75,95a1.11,1.11,0,0,1-.2.68,1.21,1.21,0,0,1-.62.43,1.29,1.29,0,0,1-.67.07v-.45a1,1,0,0,0,.35,0,1.12,1.12,0,0,0,.35-.06.67.67,0,0,0,.33-.22.6.6,0,0,0,.1-.32.35.35,0,0,0-.12-.24,1.13,1.13,0,0,0-.43-.13.78.78,0,0,1-.48-.21.69.69,0,0,1-.16-.45.92.92,0,0,1,.19-.64,1.06,1.06,0,0,1,.56-.39,1.34,1.34,0,0,1,.69,0l-.11.43a1.1,1.1,0,0,0-.57,0,.61.61,0,0,0-.29.2.41.41,0,0,0-.08.3.22.22,0,0,0,0,.17.26.26,0,0,0,.14.11,1.14,1.14,0,0,0,.33.08,1.52,1.52,0,0,1,.4.12.61.61,0,0,1,.19.2A.92.92,0,0,1,165.75,95Z"
        transform="translate(-4.14 -7.91)" />
    <path class="cls-11"
        d="M136.31,103a.28.28,0,0,1,0-.18.21.21,0,0,1,.13-.11.17.17,0,0,1,.14,0,.24.24,0,0,0,.06.14.54.54,0,0,1,0,.18.28.28,0,0,1-.14.1.12.12,0,0,1-.14,0A.15.15,0,0,1,136.31,103Zm.47,2.23-.34.11-.1-1.86.33-.11Z"
        transform="translate(-4.14 -7.91)" />
    <path class="cls-11"
        d="M136.17,106.49a1.58,1.58,0,0,1-.86-.26,2.11,2.11,0,0,1-.81-1.62,3.08,3.08,0,0,1,1.86-3,1.63,1.63,0,0,1,1.42.17,2.07,2.07,0,0,1,.8,1.63,3.1,3.1,0,0,1-1.85,3A2.1,2.1,0,0,1,136.17,106.49Zm.75-4.52a1.05,1.05,0,0,0-.4.07,2.58,2.58,0,0,0-1.54,2.55,1.52,1.52,0,0,0,.6,1.26,1.07,1.07,0,0,0,1,.11,2.61,2.61,0,0,0,1.54-2.55h0a1.61,1.61,0,0,0-.6-1.26A1.08,1.08,0,0,0,136.92,102Z"
        transform="translate(-4.14 -7.91)" />
    <line class="cls-47" x1="131" y1="104.37" x2="171.69" y2="91.65" />
    <line class="cls-47" x1="131.28" y1="120.2" x2="171.97" y2="107.48" />
    <line class="cls-47" x1="131.37" y1="125.47" x2="150.18" y2="119.6" />
    <line class="cls-47" x1="131.09" y1="109.64" x2="158.4" y2="101.11" />
    <line class="cls-48" x1="131.18" y1="114.73" x2="149.27" y2="109.08" />
    <line class="cls-48" x1="153.79" y1="107.86" x2="171.87" y2="102.2" />
    <line class="cls-47" x1="144.43" y1="133.1" x2="177.61" y2="122.24" />
    <line class="cls-47" x1="144.59" y1="137.87" x2="168.51" y2="130.03" />
    <line class="cls-47" x1="144.52" y1="148.02" x2="177.7" y2="137.15" />
    <line class="cls-47" x1="144.68" y1="152.78" x2="168.6" y2="144.95" />
</svg>