<svg id="Layer_1" data-name="Layer 1" xmlns="http://www.w3.org/2000/svg" xmlns:xlink="http://www.w3.org/1999/xlink" viewBox="0 0 291.79 272.79"><defs><style>.cls-1,.cls-10,.cls-18,.cls-19,.cls-20,.cls-27,.cls-3,.cls-30,.cls-32,.cls-41,.cls-65,.cls-66,.cls-67,.cls-68{fill:none;}.cls-2{fill:#3273ba;}.cls-12,.cls-13,.cls-14,.cls-15,.cls-16,.cls-17,.cls-2,.cls-33{opacity:0.5;}.cls-10,.cls-12,.cls-13,.cls-14,.cls-15,.cls-16,.cls-17,.cls-18,.cls-19,.cls-2,.cls-20,.cls-27,.cls-3{isolation:isolate;}.cls-10,.cls-18,.cls-19,.cls-20,.cls-27,.cls-3,.cls-30,.cls-32{stroke:#fff;}.cls-10,.cls-18,.cls-19,.cls-20,.cls-27,.cls-3,.cls-66,.cls-67,.cls-68{stroke-linecap:round;}.cls-10,.cls-18,.cls-19,.cls-20,.cls-27,.cls-29,.cls-3,.cls-30,.cls-41,.cls-64,.cls-65,.cls-66,.cls-67,.cls-68{stroke-miterlimit:10;}.cls-10,.cls-3{stroke-width:1.47px;}.cls-18,.cls-3,.cls-48{opacity:0.3;}.cls-4{clip-path:url(#clip-path);}.cls-5{fill:#fff;}.cls-6{fill:#16467b;}.cls-7{fill:#144270;}.cls-8{fill:#0a1827;}.cls-9{fill:#1d3766;}.cls-10,.cls-19,.cls-20,.cls-27{opacity:0.1;}.cls-11{clip-path:url(#clip-path-2);}.cls-12{fill:url(#linear-gradient);}.cls-13{fill:url(#linear-gradient-2);}.cls-14{fill:url(#linear-gradient-3);}.cls-15{fill:url(#linear-gradient-4);}.cls-16{fill:url(#linear-gradient-5);}.cls-17{fill:url(#linear-gradient-6);}.cls-18{stroke-width:1.59px;}.cls-19{stroke-width:1.77px;}.cls-20{stroke-width:2.18px;}.cls-21{fill:#d73a31;}.cls-22{fill:#55b64c;}.cls-23{fill:#f9c243;}.cls-24{fill:#3194d1;}.cls-25{fill:#17488c;}.cls-26,.cls-29,.cls-64{fill:#13244b;}.cls-27{stroke-width:2.56px;}.cls-28{fill:#1660ad;}.cls-29,.cls-68{stroke:#55b64c;}.cls-29{stroke-width:0.75px;}.cls-30{stroke-width:0.96px;}.cls-31{fill:#8392a0;}.cls-32{stroke-miterlimit:10;stroke-width:0.99px;}.cls-34{opacity:0.75;}.cls-35{opacity:0.4;}.cls-36{fill:url(#linear-gradient-7);}.cls-37{fill:url(#linear-gradient-8);}.cls-38{fill:url(#linear-gradient-9);}.cls-39{fill:url(#linear-gradient-10);}.cls-40{fill:#010101;}.cls-41{stroke:#bfdde9;stroke-width:0.41px;}.cls-42{fill:url(#linear-gradient-11);}.cls-43{fill:url(#linear-gradient-12);}.cls-44{fill:url(#linear-gradient-13);}.cls-45{fill:url(#linear-gradient-14);}.cls-46{fill:url(#linear-gradient-15);}.cls-47{fill:url(#linear-gradient-16);}.cls-49{fill:#607180;}.cls-50{fill:#936126;}.cls-51{opacity:0.15;}.cls-52{fill:#d03938;}.cls-53{fill:url(#linear-gradient-17);}.cls-54{fill:#140f15;}.cls-55{fill:url(#linear-gradient-18);}.cls-56{fill:url(#linear-gradient-19);}.cls-57{fill:url(#linear-gradient-20);}.cls-58{fill:#28276f;}.cls-59{fill:#2c3089;}.cls-60{fill:#fac9ca;}.cls-61{opacity:0.25;}.cls-62{fill:#bd2426;}.cls-63{fill:#10375b;}.cls-64,.cls-65{stroke:#3194d1;}.cls-64{stroke-width:0.66px;}.cls-65{stroke-width:0.67px;}.cls-66{stroke:#f18472;}.cls-66,.cls-67,.cls-68{stroke-width:1.97px;}.cls-67{stroke:#d3d3d3;}.cls-69{fill:#c0bfbf;}</style><clipPath id="clip-path" transform="translate(2.19 4.97)"><polygon class="cls-1" points="56.61 68.91 57.29 48.31 143.99 16.76 143.31 37.36 56.61 68.91"/></clipPath><clipPath id="clip-path-2" transform="translate(2.19 4.97)"><path class="cls-1" d="M210.93,53.88V169.71a5.57,5.57,0,0,1-3.62,5.22L40.87,237.26a3.72,3.72,0,0,1-4.71-2.37,3.87,3.87,0,0,1-.19-1.17V111.85Z"/></clipPath><linearGradient id="linear-gradient" x1="6923.35" y1="-6773.4" x2="6936.78" y2="-6675.43" gradientTransform="translate(-9535.98 -23.1) rotate(45)" gradientUnits="userSpaceOnUse"><stop offset="0" stop-color="#d73a31"/><stop offset="0.09" stop-color="#dc4b47" stop-opacity="0.9"/><stop offset="0.54" stop-color="#eeaba9" stop-opacity="0.42"/><stop offset="0.85" stop-color="#f8e6e6" stop-opacity="0.12"/><stop offset="1" stop-color="#fff" stop-opacity="0"/></linearGradient><linearGradient id="linear-gradient-2" x1="-10668.33" y1="107.87" x2="-10654.94" y2="205.52" gradientTransform="translate(-10526.51 256.97) rotate(180)" gradientUnits="userSpaceOnUse"><stop offset="0" stop-color="#97cb93"/><stop offset="0.04" stop-color="#9cce98" stop-opacity="0.95"/><stop offset="0.52" stop-color="#d1e8cf" stop-opacity="0.44"/><stop offset="0.85" stop-color="#f3f9f3" stop-opacity="0.12"/><stop offset="1" stop-color="#fff" stop-opacity="0"/></linearGradient><linearGradient id="linear-gradient-3" x1="-7875.38" y1="-6606.35" x2="-7862" y2="-6508.7" gradientTransform="translate(-10185.88 242.37) rotate(139.46)" xlink:href="#linear-gradient-2"/><linearGradient id="linear-gradient-4" x1="-9789.74" y1="4734.63" x2="-9776.36" y2="4832.28" gradientTransform="translate(-10729.54 65.6) rotate(-153.95)" gradientUnits="userSpaceOnUse"><stop offset="0" stop-color="#3194d1"/><stop offset="0.06" stop-color="#3e9bd6" stop-opacity="0.93"/><stop offset="0.53" stop-color="#a5d0ea" stop-opacity="0.43"/><stop offset="0.85" stop-color="#e7f3fa" stop-opacity="0.12"/><stop offset="1" stop-color="#fff" stop-opacity="0"/></linearGradient><linearGradient id="linear-gradient-5" x1="4650.46" y1="9568.17" x2="4663.9" y2="9666.22" gradientTransform="translate(-10458.55 -569.52) rotate(-60.11)" gradientUnits="userSpaceOnUse"><stop offset="0" stop-color="#f9c243"/><stop offset="0.2" stop-color="#fad06f" stop-opacity="0.78"/><stop offset="0.6" stop-color="#fce8bb" stop-opacity="0.36"/><stop offset="0.87" stop-color="#fff9ec" stop-opacity="0.1"/><stop offset="1" stop-color="#fff" stop-opacity="0"/></linearGradient><linearGradient id="linear-gradient-6" x1="8895.83" y1="5180.06" x2="8909.22" y2="5277.76" gradientTransform="translate(-10093.03 -689.57) rotate(-25.54)" xlink:href="#linear-gradient-5"/><linearGradient id="linear-gradient-7" x1="-5450.43" y1="-116.36" x2="-5450.25" y2="-116.13" gradientTransform="matrix(9.91, 11.42, -18.43, 6.14, 51972.15, 63166.14)" gradientUnits="userSpaceOnUse"><stop offset="0" stop-color="#feed8c"/><stop offset="0.48" stop-color="#fbd047"/><stop offset="1" stop-color="#fbaf41"/></linearGradient><linearGradient id="linear-gradient-8" x1="-5453.03" y1="-116.14" x2="-5452.86" y2="-115.88" gradientTransform="matrix(14.18, -5.24, -0.76, 19.41, 77362.57, -26092.99)" gradientUnits="userSpaceOnUse"><stop offset="0" stop-color="#68b0e1"/><stop offset="0.45" stop-color="#439cd6"/><stop offset="1" stop-color="#1873b0"/></linearGradient><linearGradient id="linear-gradient-9" x1="-5455.22" y1="-116.16" x2="-5455.04" y2="-115.91" gradientTransform="matrix(14.18, -5.24, -0.76, 19.41, 77408.91, -26110.09)" gradientUnits="userSpaceOnUse"><stop offset="0" stop-color="#ed5d58"/><stop offset="0.45" stop-color="#d43731"/><stop offset="1" stop-color="#a81f23"/></linearGradient><linearGradient id="linear-gradient-10" x1="-5457.41" y1="-116.21" x2="-5457.22" y2="-115.97" gradientTransform="matrix(14.18, -5.24, -0.76, 19.41, 77455.24, -26127.2)" gradientUnits="userSpaceOnUse"><stop offset="0" stop-color="#7ec577"/><stop offset="0.5" stop-color="#55b64c"/><stop offset="1" stop-color="#278e44"/></linearGradient><linearGradient id="linear-gradient-11" x1="-5195.17" y1="-50.42" x2="-5194.97" y2="-50.18" gradientTransform="matrix(8.51, -3.14, -0.46, 11.64, 44320.56, -15527.48)" xlink:href="#linear-gradient-10"/><linearGradient id="linear-gradient-12" x1="-5194.33" y1="-50.44" x2="-5194.15" y2="-50.19" gradientTransform="matrix(8.51, -3.14, -0.46, 11.64, 44311.08, -15523.98)" xlink:href="#linear-gradient-9"/><linearGradient id="linear-gradient-13" x1="-5190.56" y1="-50.45" x2="-5190.39" y2="-50.2" gradientTransform="matrix(8.51, -3.14, -0.46, 11.64, 44264.85, -15506.91)" xlink:href="#linear-gradient-8"/><linearGradient id="linear-gradient-14" x1="-5188.25" y1="-49.22" x2="-5188.06" y2="-49" gradientTransform="matrix(5.94, 6.85, -11.05, 3.68, 30380.98, 35936.24)" xlink:href="#linear-gradient-7"/><linearGradient id="linear-gradient-15" x1="-5187.6" y1="-50.45" x2="-5187.43" y2="-50.2" gradientTransform="matrix(8.51, -3.14, -0.46, 11.64, 44228.41, -15493.46)" xlink:href="#linear-gradient-8"/><linearGradient id="linear-gradient-16" x1="-5191.38" y1="-50.44" x2="-5191.2" y2="-50.19" gradientTransform="matrix(8.51, -3.14, -0.46, 11.64, 44274.68, -15510.54)" xlink:href="#linear-gradient-9"/><linearGradient id="linear-gradient-17" x1="133.72" y1="82.1" x2="134.2" y2="82.1" gradientTransform="matrix(1, 0, 0, -1, 0, 252)" gradientUnits="userSpaceOnUse"><stop offset="0.01" stop-color="#ebe9ef"/><stop offset="0.99" stop-color="#e5e4ec"/></linearGradient><linearGradient id="linear-gradient-18" x1="154.48" y1="16.18" x2="161.74" y2="16.18" xlink:href="#linear-gradient-17"/><linearGradient id="linear-gradient-19" x1="150.81" y1="11" x2="157.91" y2="11" xlink:href="#linear-gradient-17"/><linearGradient id="linear-gradient-20" x1="160.95" y1="59.64" x2="164.59" y2="59.64" xlink:href="#linear-gradient-17"/></defs><ellipse class="cls-2" cx="161.15" cy="8.84" rx="6.06" ry="5.24" transform="translate(29.84 104.51) rotate(-37.33)"/><path class="cls-3" d="M164.36,6.21a5.3,5.3,0,0,0-4.18-1.12" transform="translate(2.19 4.97)"/><g class="cls-4"><path class="cls-5" d="M60.45,63.78l.43-13,2-.72q5-1.81,4.76,4.65T62.05,63.2l-1.59.58M62.78,46.6l-5.49,2-.66,20,5-1.8a14.24,14.24,0,0,0,9.89-13.69q.17-4.65-2.12-6.38c-1.52-1.16-3.71-1.21-6.57-.17" transform="translate(2.19 4.97)"/><polyline class="cls-5" points="87.68 43.31 77.6 46.97 76.95 67.01 87.02 63.34 87.13 59.84 80.77 62.15 80.94 56.98 86.85 54.83 86.97 51.35 81.05 53.5 81.2 49.1 87.56 46.78 87.68 43.31"/><path class="cls-5" d="M94.19,34.88A9.55,9.55,0,0,0,89.79,38a8,8,0,0,0-1.74,4.75,5,5,0,0,0,.4,2.3,3.54,3.54,0,0,0,1.22,1.38A6.34,6.34,0,0,0,92,47.2a15.26,15.26,0,0,1,2.22.53,1.89,1.89,0,0,1,.81.58,1.43,1.43,0,0,1,.25.94,2.75,2.75,0,0,1-.7,1.83,4.42,4.42,0,0,1-1.89,1.22,8.1,8.1,0,0,1-2.23.44,13.71,13.71,0,0,1-3-.18l-.13,4a9.17,9.17,0,0,0,4.91-.6,10.63,10.63,0,0,0,4.79-3.29,8,8,0,0,0,1.85-4.9,4.3,4.3,0,0,0-.8-3,5.72,5.72,0,0,0-3.27-1.48,13.13,13.13,0,0,1-2.31-.54,1.57,1.57,0,0,1-.7-.55,1.61,1.61,0,0,1-.19-.89,2.85,2.85,0,0,1,.61-1.68A3.53,3.53,0,0,1,94,38.5a7.34,7.34,0,0,1,1.79-.39,12.5,12.5,0,0,1,2.29.07l1.3-3.74a12.78,12.78,0,0,0-2.55-.1,9.63,9.63,0,0,0-2.59.58" transform="translate(2.19 4.97)"/><polyline class="cls-5" points="108.52 35.72 104.81 37.07 104.15 57.11 107.86 55.76 108.52 35.72"/><path class="cls-5" d="M119.1,25.81A13.92,13.92,0,0,0,112.29,31a15.26,15.26,0,0,0-2.66,8.45c-.11,3.32.5,5.63,1.83,6.9s3.32,1.42,6,.46a25.29,25.29,0,0,0,3-1.36,26.37,26.37,0,0,0,3.2-2L124.05,33l-7,2.51L116.93,39l3.32-1.21L120.11,42a13.56,13.56,0,0,1-2.37,1.13c-1.48.54-2.59.37-3.33-.49s-1.07-2.38-1-4.56a10.71,10.71,0,0,1,1.61-5.5,7.57,7.57,0,0,1,3.91-3.25,7.07,7.07,0,0,1,3.94-.35l1.35-3.85a10.78,10.78,0,0,0-5.15.65" transform="translate(2.19 4.97)"/><path class="cls-5" d="M144,17.05l-3.34,1.21-.31,9.49V33.2h-.08L133.14,21l-4.67,1.7-.66,20,3.31-1.16.31-9.43V26.43h.11l7.11,12.39,4.71-1.72.66-20" transform="translate(2.19 4.97)"/></g><path class="cls-6" d="M211.37,42.87a2.26,2.26,0,0,0-1.07-1.37l-9-5.17a7,7,0,0,0-5.38-.38L28.81,91.26A7.05,7.05,0,0,0,24,98v7.61l12.68,6.34v-7.61a7.07,7.07,0,0,1,4.82-6.68l166.07-55c.38-.11,1.11-.35,1.83-.59C210.4,41.67,211.37,42.87,211.37,42.87Z" transform="translate(2.19 4.97)"/><path class="cls-7" d="M211.38,54V43a1.23,1.23,0,0,0-1.22-1.23,1.34,1.34,0,0,0-.4.06L38.56,98.59a2.74,2.74,0,0,0-1.89,2.61v10.7Z" transform="translate(2.19 4.97)"/><path class="cls-8" d="M36.67,111.9V229.14l4.9,2v6a6.28,6.28,0,0,1-1.78.2,19,19,0,0,1-2.48-.37l-8.86-3.47A7.08,7.08,0,0,1,24,226.94V105.56Z" transform="translate(2.19 4.97)"/><path class="cls-9" d="M211.38,54V169.68a5.56,5.56,0,0,1-3.61,5.21L41.57,237.12a3.7,3.7,0,0,1-4.7-2.32,3.78,3.78,0,0,1-.2-1.2V111.9Z" transform="translate(2.19 4.97)"/><ellipse class="cls-2" cx="202.38" cy="81.2" rx="6.06" ry="5.24" transform="translate(-5.6 144.33) rotate(-37.33)"/><path class="cls-10" d="M205.59,78.56a5.26,5.26,0,0,0-4.17-1.12" transform="translate(2.19 4.97)"/><g class="cls-11"><polyline class="cls-12" points="81.34 249.07 155.41 127.58 154.36 126.66 57.75 231.72"/><polyline class="cls-13" points="107.21 4.49 144.13 141.88 145.63 141.68 136.15 0"/><polyline class="cls-14" points="0 80.58 116.94 161.58 117.91 160.53 19.19 58.47"/><polyline class="cls-15" points="184.18 5.38 157.1 144.87 157.91 145.41 212.11 14.16"/><polyline class="cls-16" points="291.79 193.76 154.93 154.81 154.11 156.35 281.36 221.12"/><polyline class="cls-17" points="229.82 256.2 136.9 148.36 135.75 149.22 205.69 272.79"/></g><ellipse class="cls-2" cx="15.65" cy="105.34" rx="6.57" ry="5.68" transform="translate(-58.48 36.04) rotate(-37.33)"/><path class="cls-18" d="M19.13,102.5a5.64,5.64,0,0,0-4.52-1.21" transform="translate(2.19 4.97)"/><ellipse class="cls-2" cx="75.48" cy="203.65" rx="7.34" ry="6.35" transform="translate(-105.85 92.46) rotate(-37.33)"/><path class="cls-19" d="M79.37,200.5a6.37,6.37,0,0,0-5.06-1.36" transform="translate(2.19 4.97)"/><ellipse class="cls-2" cx="161.4" cy="96.69" rx="9.03" ry="7.81" transform="translate(-23.38 122.65) rotate(-37.33)"/><path class="cls-20" d="M166.19,92.76A7.8,7.8,0,0,0,160,91.1" transform="translate(2.19 4.97)"/><ellipse class="cls-2" cx="44.47" cy="184.47" rx="7.34" ry="6.35" transform="translate(-100.56 69.72) rotate(-37.33)"/><path class="cls-19" d="M48.36,181.27a6.36,6.36,0,0,0-5-1.35" transform="translate(2.19 4.97)"/><ellipse class="cls-2" cx="166.59" cy="58.18" rx="6.06" ry="5.24" transform="translate(1.03 117.9) rotate(-37.33)"/><path class="cls-10" d="M169.79,55.5a5.26,5.26,0,0,0-4.17-1.12" transform="translate(2.19 4.97)"/><ellipse class="cls-21" cx="127.22" cy="103.53" rx="3.53" ry="2.25" transform="translate(-33.26 129.57) rotate(-46.52)"/><ellipse class="cls-22" cx="127" cy="111.76" rx="3.53" ry="2.25" transform="translate(-39.29 131.98) rotate(-46.52)"/><ellipse class="cls-23" cx="126.79" cy="119.97" rx="3.53" ry="2.25" transform="translate(-45.32 134.39) rotate(-46.52)"/><ellipse class="cls-21" cx="126.57" cy="128.2" rx="3.53" ry="2.25" transform="translate(-51.36 136.79) rotate(-46.52)"/><ellipse class="cls-23" cx="118.67" cy="135.39" rx="3.53" ry="2.25" transform="translate(-59.04 133.31) rotate(-46.52)"/><ellipse class="cls-23" cx="113.09" cy="143.98" rx="3.53" ry="2.25" transform="translate(-67.01 131.93) rotate(-46.52)"/><ellipse class="cls-23" cx="110.94" cy="152.71" rx="3.53" ry="2.25" transform="translate(-74.02 133.1) rotate(-46.52)"/><ellipse class="cls-23" cx="112.67" cy="159.88" rx="3.53" ry="2.25" transform="translate(-78.68 136.59) rotate(-46.52)"/><ellipse class="cls-23" cx="117.92" cy="164.04" rx="3.53" ry="2.25" transform="translate(-80.06 141.7) rotate(-46.52)"/><ellipse class="cls-21" cx="125.61" cy="164.86" rx="3.53" ry="2.25" transform="translate(-78.26 147.53) rotate(-46.52)"/><ellipse class="cls-21" cx="125.4" cy="173.08" rx="3.53" ry="2.25" transform="translate(-84.29 149.94) rotate(-46.52)"/><ellipse class="cls-23" cx="122.92" cy="182.57" rx="3.53" ry="2.25" transform="translate(-91.95 151.1) rotate(-46.52)"/><ellipse class="cls-23" cx="129.44" cy="184.37" rx="3.53" ry="2.25" transform="translate(-91.22 156.4) rotate(-46.52)"/><ellipse class="cls-23" cx="136.2" cy="177.15" rx="3.53" ry="2.25" transform="translate(-83.88 159.05) rotate(-46.52)"/><ellipse class="cls-22" cx="134.17" cy="169.49" rx="3.53" ry="2.25" transform="translate(-78.95 155.19) rotate(-46.52)"/><ellipse class="cls-22" cx="134.39" cy="161.27" rx="3.53" ry="2.25" transform="translate(-72.92 152.78) rotate(-46.52)"/><ellipse class="cls-23" cx="142.28" cy="154.09" rx="3.53" ry="2.25" transform="translate(-65.25 156.27) rotate(-46.52)"/><ellipse class="cls-23" cx="147.87" cy="145.5" rx="3.53" ry="2.25" transform="translate(-57.27 157.65) rotate(-46.52)"/><ellipse class="cls-23" cx="150.02" cy="136.75" rx="3.53" ry="2.25" transform="translate(-50.25 156.48) rotate(-46.52)"/><ellipse class="cls-23" cx="148.29" cy="129.6" rx="3.53" ry="2.25" transform="translate(-45.6 152.99) rotate(-46.52)"/><ellipse class="cls-23" cx="143.04" cy="125.44" rx="3.53" ry="2.25" transform="translate(-44.22 147.88) rotate(-46.52)"/><ellipse class="cls-24" cx="135.34" cy="124.62" rx="3.53" ry="2.25" transform="translate(-46.03 142.04) rotate(-46.52)"/><ellipse class="cls-24" cx="135.56" cy="116.4" rx="3.53" ry="2.25" transform="translate(-39.99 139.64) rotate(-46.52)"/><ellipse class="cls-21" cx="135.77" cy="108.17" rx="3.53" ry="2.25" transform="translate(-33.96 137.22) rotate(-46.52)"/><ellipse class="cls-24" cx="135.99" cy="99.94" rx="3.53" ry="2.25" transform="translate(-27.92 134.82) rotate(-46.52)"/><path class="cls-25" d="M200.24,52.56l-20.36,6.77a3.35,3.35,0,0,0-2.06,3L178,78c0,.77.36,2.2.94,2.43,0,0,3.47,1.48,3.59,1.52a1.94,1.94,0,0,0,.33.07s-1-.58-1-1.28v-.81L196,75.09l0,5.72,4-7.08,5.51-1.88L205.36,55a7.15,7.15,0,0,1,1.21-.22,1.5,1.5,0,0,1,1.4.55,1.2,1.2,0,0,0-.38-.56c-.34-.34-3.79-2.25-3.79-2.25A5,5,0,0,0,200.24,52.56Z" transform="translate(2.19 4.97)"/><path class="cls-25" d="M207.91,55.32l.1.18A.81.81,0,0,0,207.91,55.32Z" transform="translate(2.19 4.97)"/><path class="cls-26" d="M206.35,54.59l-23.11,7.85a2.57,2.57,0,0,0-1.59,2.35l.15,15.9A1.2,1.2,0,0,0,183.44,82l15.61-5.29v5.26l3.8-6.57,3.68-1.25a2.58,2.58,0,0,0,1.6-2.35L208,55.84a1.18,1.18,0,0,0-1-1.32A1.16,1.16,0,0,0,206.35,54.59Z" transform="translate(2.19 4.97)"/><polygon class="cls-25" points="198.17 85.82 201.25 86.89 201.2 81.63 198.14 82.67 198.17 85.82"/><ellipse class="cls-5" cx="202.33" cy="66.21" rx="2.24" ry="1.63" transform="translate(25.03 185.65) rotate(-50.65)"/><ellipse class="cls-5" cx="195.96" cy="68.28" rx="2.24" ry="1.63" transform="translate(21.09 181.49) rotate(-50.65)"/><ellipse class="cls-5" cx="189.59" cy="70.35" rx="2.24" ry="1.63" transform="translate(17.16 177.32) rotate(-50.65)"/><ellipse class="cls-2" cx="68.89" cy="138.92" rx="10.58" ry="9.15" transform="translate(-67.94 75.2) rotate(-37.33)"/><path class="cls-27" d="M74.49,134.32a9.15,9.15,0,0,0-7.28-1.94" transform="translate(2.19 4.97)"/><path class="cls-25" d="M236.29,59.91c-.07-5.28-3-9.38-7.14-10.81l.62-.47s-3.2-.08-3.78-.07h-.07a8.65,8.65,0,0,0-1.24.06l-.48.06a8.39,8.39,0,0,0-2.15.55,9.63,9.63,0,0,0-1,.42H221a11.6,11.6,0,0,0-1.25.68,13.84,13.84,0,0,0-1.19.81l-.14.1h0A15.56,15.56,0,0,0,212.5,63.5c.07,5.32,3.05,9.45,7.25,10.84h.12a9.75,9.75,0,0,0,2,.42h.29a30.18,30.18,0,0,0,3.06,0,9.44,9.44,0,0,0,2.6-.09,12.82,12.82,0,0,0,2.27-.58,13.15,13.15,0,0,0,2.44-1.2l-2.48-.47A15.47,15.47,0,0,0,236.29,59.91Z" transform="translate(2.19 4.97)"/><ellipse class="cls-26" cx="227.69" cy="61.8" rx="13.51" ry="11.52" transform="translate(76.36 245.91) rotate(-64.59)"/><path class="cls-5" d="M226.42,64.64V63.9a3.12,3.12,0,0,1,.35-1.5A5.35,5.35,0,0,1,228,61a5.91,5.91,0,0,0,1-1,1.41,1.41,0,0,0,.31-.88.51.51,0,0,0-.33-.5,1.37,1.37,0,0,0-.85,0,8.44,8.44,0,0,0-3,1.63l-1.2-2A11.25,11.25,0,0,1,228.38,56a4.25,4.25,0,0,1,3,.13,2.12,2.12,0,0,1,1.09,2A3.85,3.85,0,0,1,232,60a7,7,0,0,1-1.55,1.8,10,10,0,0,0-1.13,1.12,1.26,1.26,0,0,0-.22.7v.43Zm-.37,3.09a2.08,2.08,0,0,1,.45-1.33,2.49,2.49,0,0,1,1.36-.75,1.66,1.66,0,0,1,1.31.12,1.25,1.25,0,0,1,.46,1.11,1.92,1.92,0,0,1-.48,1.32,2.35,2.35,0,0,1-1.29.74,1.76,1.76,0,0,1-1.33-.11A1.23,1.23,0,0,1,226.05,67.73Z" transform="translate(2.19 4.97)"/><ellipse class="cls-2" cx="171.45" cy="174.66" rx="10.58" ry="9.15" transform="translate(-68.6 144.71) rotate(-37.33)"/><path class="cls-27" d="M177.05,170.05a9.18,9.18,0,0,0-7.28-2" transform="translate(2.19 4.97)"/><path class="cls-28" d="M61.76,105l2.27-.76L66.5,104l-6.32-3.37a3.35,3.35,0,0,0-1.83,0L30.1,110a2.48,2.48,0,0,0-1.59,2.24L28.65,142a1.25,1.25,0,0,0,.72,1.19c2.18,1,6.09,3.1,6.48,3.22a3.57,3.57,0,0,0,1.42-.07l-1.39-5.08,26-8.62Z" transform="translate(2.19 4.97)"/><path class="cls-29" d="M64.5,137.28l-25.9,8.59a2.65,2.65,0,0,1-3.48-1.39,2.61,2.61,0,0,1-.2-1.32l-.12-25.27a5.72,5.72,0,0,1,3.65-5.14l25.89-8.59a2.65,2.65,0,0,1,3.49,1.4,2.58,2.58,0,0,1,.2,1.31l.12,25.27A5.72,5.72,0,0,1,64.5,137.28Z" transform="translate(2.19 4.97)"/><ellipse class="cls-5" cx="50.84" cy="114.41" rx="0.99" ry="0.63" transform="translate(-64.97 77.55) rotate(-46.52)"/><ellipse class="cls-5" cx="50.79" cy="116.73" rx="0.99" ry="0.63" transform="translate(-66.67 78.23) rotate(-46.52)"/><ellipse class="cls-5" cx="50.72" cy="119.04" rx="0.99" ry="0.63" transform="translate(-68.37 78.9) rotate(-46.52)"/><ellipse class="cls-5" cx="50.66" cy="121.35" rx="0.99" ry="0.63" transform="translate(-70.07 79.58) rotate(-46.52)"/><ellipse class="cls-5" cx="48.43" cy="123.38" rx="0.99" ry="0.63" transform="translate(-72.23 78.6) rotate(-46.52)"/><ellipse class="cls-5" cx="46.86" cy="125.79" rx="0.99" ry="0.63" transform="translate(-74.47 78.21) rotate(-46.52)"/><ellipse class="cls-5" cx="46.26" cy="128.25" rx="0.99" ry="0.63" transform="translate(-76.44 78.54) rotate(-46.52)"/><ellipse class="cls-5" cx="46.75" cy="130.27" rx="0.99" ry="0.63" transform="translate(-77.76 79.52) rotate(-46.52)"/><ellipse class="cls-5" cx="48.23" cy="131.44" rx="0.99" ry="0.63" transform="translate(-78.14 80.96) rotate(-46.52)"/><ellipse class="cls-5" cx="50.4" cy="131.66" rx="0.99" ry="0.63" transform="translate(-77.63 82.6) rotate(-46.52)"/><ellipse class="cls-5" cx="50.33" cy="133.98" rx="0.99" ry="0.63" transform="translate(-79.33 83.28) rotate(-46.52)"/><ellipse class="cls-5" cx="49.64" cy="136.65" rx="0.99" ry="0.63" transform="translate(-81.49 83.61) rotate(-46.52)"/><ellipse class="cls-5" cx="51.47" cy="137.17" rx="0.99" ry="0.63" transform="translate(-81.29 85.1) rotate(-46.52)"/><ellipse class="cls-5" cx="53.36" cy="135.12" rx="0.99" ry="0.63" transform="translate(-79.21 85.84) rotate(-46.52)"/><ellipse class="cls-5" cx="52.79" cy="132.98" rx="0.99" ry="0.63" transform="translate(-77.84 84.75) rotate(-46.52)"/><ellipse class="cls-5" cx="52.86" cy="130.66" rx="0.99" ry="0.63" transform="translate(-76.14 84.08) rotate(-46.52)"/><ellipse class="cls-5" cx="55.09" cy="128.64" rx="0.99" ry="0.63" transform="translate(-73.97 85.06) rotate(-46.52)"/><ellipse class="cls-5" cx="56.65" cy="126.22" rx="0.99" ry="0.63" transform="translate(-71.73 85.44) rotate(-46.52)"/><ellipse class="cls-5" cx="57.25" cy="123.76" rx="0.99" ry="0.63" transform="translate(-69.76 85.11) rotate(-46.52)"/><ellipse class="cls-5" cx="56.77" cy="121.75" rx="0.99" ry="0.63" transform="translate(-68.45 84.14) rotate(-46.52)"/><ellipse class="cls-5" cx="55.29" cy="120.58" rx="0.99" ry="0.63" transform="translate(-68.06 82.7) rotate(-46.52)"/><ellipse class="cls-5" cx="53.12" cy="120.35" rx="0.99" ry="0.63" transform="translate(-68.57 81.05) rotate(-46.52)"/><ellipse class="cls-5" cx="53.18" cy="118.03" rx="0.99" ry="0.63" transform="translate(-66.87 80.37) rotate(-46.52)"/><ellipse class="cls-5" cx="53.25" cy="115.72" rx="0.99" ry="0.63" transform="translate(-65.17 79.7) rotate(-46.52)"/><ellipse class="cls-5" cx="53.32" cy="113.41" rx="0.99" ry="0.63" transform="translate(-63.47 79.03) rotate(-46.52)"/><path class="cls-25" d="M182.78,178.7l4.26-1.52a5,5,0,0,0-.54-2c-.35-.54-3.11-1.92-5.52-3.07a1.87,1.87,0,0,0-1.56-.28l-16.84,6a2.94,2.94,0,0,0-1.87,2.53V198a1.41,1.41,0,0,0,.85,1.26,50.51,50.51,0,0,0,5.26,3,6.76,6.76,0,0,0,2-.33v-4.23l13.94-5Z" transform="translate(2.19 4.97)"/><path class="cls-26" d="M183.16,196.75l-14.32,5.11c-2.13.76-3.87-.36-3.87-2.49V185.05a6.12,6.12,0,0,1,3.87-5.26l14.32-5.1c2.14-.76,3.88.35,3.88,2.49V191.5A6,6,0,0,1,183.16,196.75Z" transform="translate(2.19 4.97)"/><ellipse class="cls-5" cx="170.85" cy="190.1" rx="3.12" ry="2.19" transform="translate(-82.4 203.98) rotate(-50.05)"/><ellipse class="cls-5" cx="181.16" cy="186.42" rx="3.12" ry="2.19" transform="translate(-75.89 210.56) rotate(-50.05)"/><path class="cls-30" d="M179.23,191.14a8,8,0,0,1-3.23,2.28,4.27,4.27,0,0,1-3.29,0" transform="translate(2.19 4.97)"/><path class="cls-30" d="M172.78,185.34a7.86,7.86,0,0,1,3.22-2.27,4.39,4.39,0,0,1,3.23,0" transform="translate(2.19 4.97)"/><polygon class="cls-5" points="181.73 187.02 181.93 187.83 182.14 188.63 181.27 188.68 180.41 188.72 181.07 187.87 181.73 187.02"/><polygon class="cls-5" points="174.08 197.81 174.96 197.73 175.83 197.66 175.19 198.52 174.55 199.39 174.32 198.6 174.08 197.81"/><path class="cls-25" d="M79.36,213.21l3.78-1.29s-.8-1.76-1.07-2.29-2.34-1.68-5.48-3.12a4.17,4.17,0,0,0-2.87,0l-38.32,13A2.81,2.81,0,0,0,33.62,222v18.94c0,.78.55,1,1.14,1.36,2.63,1.58,5.57,3.28,6.16,3.28a5.61,5.61,0,0,0,1.85-.43l-.26-3,36.84-12.58Z" transform="translate(2.19 4.97)"/><path class="cls-26" d="M79.26,232.75,42.57,245.28a2.78,2.78,0,0,1-3.68-1.35,2.82,2.82,0,0,1-.24-1.43V227.28a6.14,6.14,0,0,1,3.91-5.45l36.69-12.54a2.78,2.78,0,0,1,3.68,1.38,2.81,2.81,0,0,1,.24,1.4v15.22A6.15,6.15,0,0,1,79.26,232.75Z" transform="translate(2.19 4.97)"/><path class="cls-31" d="M79.26,232.75,60.87,239V215.59l18.39-6.29a2.78,2.78,0,0,1,3.68,1.38,2.81,2.81,0,0,1,.24,1.4V227.3A6.15,6.15,0,0,1,79.26,232.75Z" transform="translate(2.19 4.97)"/><ellipse class="cls-5" cx="72" cy="223.48" rx="2.32" ry="1.66" transform="translate(-148.98 155.49) rotate(-54.04)"/><ellipse class="cls-32" cx="72" cy="223.48" rx="4.93" ry="3.53" transform="translate(-148.98 155.49) rotate(-54.04)"/><ellipse class="cls-32" cx="72" cy="223.48" rx="7.73" ry="5.54" transform="translate(-148.98 155.49) rotate(-54.04)"/><path class="cls-5" d="M55.14,221.32c-.15-.68-1.53,2.18-3.38,3.51-1.34,1-5.83,3.28-7.06,6.95-1.51,4.55.07,7.47.84,8.6a.3.3,0,0,0,.39.1h0a.62.62,0,0,0,.4-.79,8.92,8.92,0,0,1-1-4.24c.27-2.45,2.86-4.29,4-5.11,0,0-2.84,3-3.51,4.74-.07.19,0,.36.19.35a8.65,8.65,0,0,0,5.3-2A11.83,11.83,0,0,0,55.14,221.32Z" transform="translate(2.19 4.97)"/><polygon class="cls-5" points="71.02 217.82 74.18 220.05 77.32 215.67 71.02 217.82"/><path class="cls-25" d="M152.31,183.39c-.42-.64-2.74-1.64-4.91-2.52a4,4,0,0,0-2.69-.32L91.38,200.27a7.38,7.38,0,0,0-4,5.94s-.7,19-.7,20.07c0,.73,4.32,3.38,4.73,3.56.7.31,2.44-.38,2.44-.38L93,225.05l54.57-20.14.68-17.42,4.49-1.74A3.59,3.59,0,0,0,152.31,183.39Z" transform="translate(2.19 4.97)"/><path class="cls-26" d="M148.79,209.16l-55,20.31c-1.77.65-3.14-.78-3-3.22l.65-16.41c.09-2.43,1.61-4.94,3.39-5.59l55-20.31c1.78-.66,3.14.78,3,3.21l-.65,16.42C152.05,206,150.57,208.5,148.79,209.16Z" transform="translate(2.19 4.97)"/><g id="Group_482-2" data-name="Group 482-2"><g id="Group_39" data-name="Group 39"><g id="Group_38" data-name="Group 38"><g id="Group_37" data-name="Group 37"><path id="Path_982-6" data-name="Path 982-6" class="cls-5" d="M134.93,199.3l.1-2.51,1.45.7Z" transform="translate(2.19 4.97)"/><path id="Path_983-6" data-name="Path 983-6" class="cls-5" d="M138.25,195.6l-.1,2.51-1.45-.7Z" transform="translate(2.19 4.97)"/></g><g id="Group_499" data-name="Group 499"><path id="Path_982-7" data-name="Path 982-7" class="cls-5" d="M134.93,199.3l.1-2.51,1.45.7Z" transform="translate(2.19 4.97)"/><path id="Path_983-7" data-name="Path 983-7" class="cls-5" d="M138.25,195.6l-.1,2.51-1.45-.7Z" transform="translate(2.19 4.97)"/></g><g id="Group_501" data-name="Group 501" class="cls-33"><path id="Path_982-8" data-name="Path 982-8" class="cls-5" d="M120.6,204.59l.1-2.51,1.45.7Z" transform="translate(2.19 4.97)"/><path id="Path_983-8" data-name="Path 983-8" class="cls-5" d="M123.92,200.89l-.1,2.51-1.45-.7Z" transform="translate(2.19 4.97)"/></g><g id="Group_502" data-name="Group 502" class="cls-34"><path id="Path_982-9" data-name="Path 982-9" class="cls-5" d="M106.2,209.91l.09-2.52,1.45.71Z" transform="translate(2.19 4.97)"/><path id="Path_983-9" data-name="Path 983-9" class="cls-5" d="M109.51,206.21l-.09,2.51L108,208Z" transform="translate(2.19 4.97)"/></g><g id="Group_503" data-name="Group 503" class="cls-35"><path id="Path_982-10" data-name="Path 982-10" class="cls-5" d="M106.2,209.91l.09-2.52,1.45.71Z" transform="translate(2.19 4.97)"/><path id="Path_983-10" data-name="Path 983-10" class="cls-5" d="M109.51,206.21l-.09,2.51L108,208Z" transform="translate(2.19 4.97)"/></g></g></g></g><ellipse id="Ellipse_60-2" data-name="Ellipse 60-2" class="cls-36" cx="101.02" cy="210.4" rx="3.24" ry="2.01" transform="translate(-129.32 235.54) rotate(-69.31)"/><path id="Path_1611-2" data-name="Path 1611-2" class="cls-37" d="M115.48,202.08c1.21-.44,2.15.54,2.08,2.2a4.38,4.38,0,0,1-2.32,3.81c-1.21.45-2.14-.53-2.07-2.19a4.41,4.41,0,0,1,2.31-3.82Z" transform="translate(2.19 4.97)"/><path id="Path_1612-2" data-name="Path 1612-2" class="cls-38" d="M129.84,196.78c1.21-.44,2.14.54,2.07,2.2a4.39,4.39,0,0,1-2.31,3.82c-1.21.44-2.15-.54-2.08-2.2a4.42,4.42,0,0,1,2.32-3.82Z" transform="translate(2.19 4.97)"/><path id="Path_1613-2" data-name="Path 1613-2" class="cls-39" d="M144.19,191.5c1.21-.45,2.14.53,2.07,2.19A4.4,4.4,0,0,1,144,197.5c-1.21.45-2.14-.54-2.08-2.2a4.41,4.41,0,0,1,2.32-3.81Z" transform="translate(2.19 4.97)"/><g id="Group_485" data-name="Group 485"><path id="Path_984" data-name="Path 984" class="cls-40" d="M100.8,208.79l.49-.18.84,3.1-.5.18-.17-.64-1,.38-.24.79-.5.19Zm.21.83-.38,1.31.67-.25Z" transform="translate(2.19 4.97)"/></g><g id="Group_486" data-name="Group 486"><path id="Path_985" data-name="Path 985" class="cls-40" d="M114.54,203.72l.51-.22-.09,2.24a1.27,1.27,0,0,0,0,.39.28.28,0,0,0,.11.15.26.26,0,0,0,.21,0,.5.5,0,0,0,.22-.16.6.6,0,0,0,.13-.25,2,2,0,0,0,.06-.48l.08-2.15.48-.18-.08,2.06a3.64,3.64,0,0,1-.07.74,1.77,1.77,0,0,1-.18.45,1.33,1.33,0,0,1-.29.38,1.1,1.1,0,0,1-.37.23.55.55,0,0,1-.47,0,.51.51,0,0,1-.27-.32,3,3,0,0,1-.06-.85Z" transform="translate(2.19 4.97)"/></g><g id="Group_487" data-name="Group 487"><path id="Path_986" data-name="Path 986" class="cls-40" d="M130.87,198.25l-.36.58a.62.62,0,0,0-.73-.19,1.34,1.34,0,0,0-.63.57,1.78,1.78,0,0,0-.29.92,1,1,0,0,0,.23.75.54.54,0,0,0,.63.11.94.94,0,0,0,.43-.3,1.71,1.71,0,0,0,.29-.55l-.73.27v-.62l1.27-.47v.18a2.42,2.42,0,0,1-.21.92,2.37,2.37,0,0,1-.46.78,1.56,1.56,0,0,1-.65.45.92.92,0,0,1-.69,0,.9.9,0,0,1-.47-.49,2.28,2.28,0,0,1-.14-.86,2.92,2.92,0,0,1,.38-1.32,2,2,0,0,1,1-1,1.07,1.07,0,0,1,.61-.06A.83.83,0,0,1,130.87,198.25Z" transform="translate(2.19 4.97)"/></g><g id="Group_488" data-name="Group 488"><path id="Path_987" data-name="Path 987" class="cls-40" d="M145.32,193l-.36.56a.64.64,0,0,0-.75-.21,1.69,1.69,0,0,0-.9,1.46h0a1.58,1.58,0,0,0,.08.57.57.57,0,0,0,.3.31.56.56,0,0,0,.44,0,1,1,0,0,0,.38-.25,2.55,2.55,0,0,0,.4-.53l.31.34a3.2,3.2,0,0,1-.55.72,1.64,1.64,0,0,1-.58.35.81.81,0,0,1-.94-.15,1.54,1.54,0,0,1-.32-1.17,3.12,3.12,0,0,1,.2-1,2.65,2.65,0,0,1,.52-.83,1.8,1.8,0,0,1,.69-.5.91.91,0,0,1,1.08.29Z" transform="translate(2.19 4.97)"/></g><path id="Path_1610" data-name="Path 1610" class="cls-41" d="M125.74,209.23c-.07,1.66-1,3.33-2.09,3.73L120,214.32c-1.09.4-1.91-.62-1.85-2.28h0c.07-1.66,1-3.33,2.09-3.74l3.68-1.35C125,206.55,125.8,207.57,125.74,209.23Z" transform="translate(2.19 4.97)"/><g id="Group_489" data-name="Group 489"><path id="Path_1614-2" data-name="Path 1614-2" class="cls-42" d="M137.73,203.1c.73-.27,1.29.32,1.25,1.31a2.62,2.62,0,0,1-1.39,2.29c-.73.27-1.29-.32-1.25-1.31h0A2.65,2.65,0,0,1,137.73,203.1Z" transform="translate(2.19 4.97)"/><path id="Path_1615-2" data-name="Path 1615-2" class="cls-43" d="M134.8,204.18c.72-.27,1.28.32,1.24,1.32a2.62,2.62,0,0,1-1.39,2.29c-.72.26-1.28-.33-1.24-1.32h0A2.65,2.65,0,0,1,134.8,204.18Z" transform="translate(2.19 4.97)"/><path id="Path_1616-2" data-name="Path 1616-2" class="cls-44" d="M120.47,209.5c.73-.27,1.29.32,1.25,1.31a2.62,2.62,0,0,1-1.39,2.29c-.73.27-1.28-.32-1.25-1.31h0A2.67,2.67,0,0,1,120.47,209.5Z" transform="translate(2.19 4.97)"/><ellipse id="Ellipse_61-2" data-name="Ellipse 61-2" class="cls-45" cx="106.06" cy="216.58" rx="1.94" ry="1.2" transform="translate(-131.84 244.25) rotate(-69.31)"/><path id="Path_1617-2" data-name="Path 1617-2" class="cls-46" d="M109.19,213.63c.73-.27,1.28.32,1.24,1.32a2.64,2.64,0,0,1-1.38,2.29c-.73.27-1.29-.32-1.25-1.32h0A2.67,2.67,0,0,1,109.19,213.63Z" transform="translate(2.19 4.97)"/><path id="Path_1618-2" data-name="Path 1618-2" class="cls-47" d="M123.52,208.34c.73-.27,1.29.32,1.25,1.32a2.62,2.62,0,0,1-1.39,2.29c-.73.27-1.29-.32-1.25-1.32h0A2.67,2.67,0,0,1,123.52,208.34Z" transform="translate(2.19 4.97)"/></g><g class="cls-48"><ellipse class="cls-49" cx="160.34" cy="242.72" rx="15.51" ry="8.96"/></g><path class="cls-50" d="M134.64,173.88l-1.65.78-.66.32a4.57,4.57,0,0,0-.79-2,7.7,7.7,0,0,1-.86-4.08c.19-.8.46-2.34.8-2.49h.18a2.72,2.72,0,0,1,.9,0s.86,1.43.94,1.62a24.58,24.58,0,0,1,.2,2.52v0l.12-1.57s.21-.49.34-.44a4.54,4.54,0,0,1,.39,1.14,7.71,7.71,0,0,1,0,1.92A10.48,10.48,0,0,0,134.64,173.88Z" transform="translate(2.19 4.97)"/><g class="cls-51"><path class="cls-52" d="M133,174.66l-.66.32a4.57,4.57,0,0,0-.79-2,7.7,7.7,0,0,1-.86-4.08c.19-.8.46-2.34.8-2.49h.18a8.34,8.34,0,0,0-.34,3.4C131.55,171.58,132.52,173.05,133,174.66Z" transform="translate(2.19 4.97)"/></g><path class="cls-53" d="M133.9,171.21l-.18-.61.12-1.57s.21-.49.34-.44A4.7,4.7,0,0,1,133.9,171.21Z" transform="translate(2.19 4.97)"/><path class="cls-54" d="M163.88,237c.08.48-1.21,1-2.14,1h-.32a33.65,33.65,0,0,1-6.81-3.15c-.3-.43,0-1.21,0-1.21l5.6.88,1.17.13,1.83.2A20.55,20.55,0,0,1,163.88,237Z" transform="translate(2.19 4.97)"/><path class="cls-55" d="M161.74,238h-.32a33.65,33.65,0,0,1-6.81-3.15c-.3-.43,0-1.21,0-1.21l5.6.88,1.17.13A15.08,15.08,0,0,0,161.74,238Z" transform="translate(2.19 4.97)"/><path class="cls-54" d="M159.1,243a1.67,1.67,0,0,1-1.19.62,4.47,4.47,0,0,1-1.78-.13,14.52,14.52,0,0,1-5-2.31,4.24,4.24,0,0,1-.2-2.7c.33-.49,2.2,1.43,4.21,1.32l1.11,0,1.92.09A12.16,12.16,0,0,1,159.1,243Z" transform="translate(2.19 4.97)"/><path class="cls-56" d="M157.91,243.59a4.47,4.47,0,0,1-1.78-.13,14.52,14.52,0,0,1-5-2.31,4.24,4.24,0,0,1-.2-2.7c.33-.49,2.2,1.43,4.21,1.32l1.11,0v1A12.67,12.67,0,0,0,157.91,243.59Z" transform="translate(2.19 4.97)"/><path class="cls-21" d="M166.69,194.25a15.52,15.52,0,0,1-4,8.87L161.54,201l-.58-1.08s2.63-3.66,2.51-5.33a55.61,55.61,0,0,0-2-7.28l.42-3.49.43-3.58S165.05,182.78,166.69,194.25Z" transform="translate(2.19 4.97)"/><path class="cls-57" d="M161.53,201l-.58-1.08s2.63-3.66,2.51-5.33a55.61,55.61,0,0,0-2-7.28l.42-3.49A92.55,92.55,0,0,1,164.6,193C164.74,194.57,163.75,197.21,161.53,201Z" transform="translate(2.19 4.97)"/><path class="cls-58" d="M162.34,198.8a13.83,13.83,0,0,1,.29,11.45s-2,5.61-1.52,7.48c.52,2.26,1.28,1.62,1.83,9.07.49,6.58.46,5.54.34,8,0,.77-3.11,1.42-3.61-.51-1.26-4.92-4.33-15.22-3.76-21.18s.91-11.53.91-11.53A17.6,17.6,0,0,0,162.34,198.8Z" transform="translate(2.19 4.97)"/><path class="cls-59" d="M159.42,205.44s2.86,4.27-1,9.92c0,0-2.91,6.35-2.51,8.48s1.12,2,1.88,8.75c.48,4.28.78,5.36.44,8.12-.13,1-4,1.11-4.28-.32-.79-5-4.53-15.75-4-21.71S151.71,206,151.71,206,156.83,206.88,159.42,205.44Z" transform="translate(2.19 4.97)"/><path class="cls-21" d="M163.27,209.62c2.11-4.72.92-5.5-1.19-11.55s.3-5.85,1-11.49-.8-6.39-.8-6.39c-3.73-.73-14.12,5.81-14.12,5.81a36.64,36.64,0,0,0-.61,4.31v.63a6.13,6.13,0,0,0,.11,1.05,4.3,4.3,0,0,0,1.32,2.56c.3.1.05,2.82.63,6.08a51.89,51.89,0,0,1,0,5.85c0,2.21.15,4.62.26,6.46a1.42,1.42,0,0,0,1.49,1.33,1.61,1.61,0,0,0,.38-.08C155.35,213,162.91,210.41,163.27,209.62Z" transform="translate(2.19 4.97)"/><path class="cls-21" d="M150.85,190a1.78,1.78,0,0,1-1.51,2,4.37,4.37,0,0,1-1.69,0,11.48,11.48,0,0,1-3.54-1.28c-2.3-1.31-8.2-5-8.2-5s-3.55-7.82-4-9.34a1.3,1.3,0,0,1-.14-.61,3.31,3.31,0,0,1,.85-2,3.67,3.67,0,0,1,.92-.79c.8-.46,1.48-.32,1.7.28,0,0,2.14,6.94,3.62,9.17l9.34,3.61A4.14,4.14,0,0,1,150.85,190Z" transform="translate(2.19 4.97)"/><path class="cls-60" d="M149.32,172.62s.08,6.17,1.39,7.74.93-6.35.93-6.35Z" transform="translate(2.19 4.97)"/><path class="cls-50" d="M149.32,172.62s.08,6.17,1.39,7.74.93-6.35.93-6.35Z" transform="translate(2.19 4.97)"/><path class="cls-54" d="M158.05,184.3c-1,.82-4.3.33-5.28-.19a.35.35,0,0,0-.12-.07c-.86-.24-2.88,1-2.88,1-.54-1.69.82-7.69.48-8.75a16,16,0,0,1-1-4.73c0-1.3,1.65-2,2.54-2.26.27-.08.52-.18.78-.28a8.14,8.14,0,0,1,3.37-.11h.48c3.75.4,3.5,4.32,3.34,6.56-.06.81-.07,1.7-.06,2.51a14.05,14.05,0,0,0,.62,3.7,2.61,2.61,0,0,0,.08.36C160.52,182.86,159.12,183.5,158.05,184.3Z" transform="translate(2.19 4.97)"/><g class="cls-61"><path class="cls-62" d="M154.05,173.4c.67,3.29-.66,8.61-1.25,10.71a.24.24,0,0,0-.12-.07c-1-.23-2.88,1-2.88,1-.54-1.69.82-7.69.48-8.75a16,16,0,0,1-1-4.73c0-1.3,1.65-2,2.54-2.26.27-.08.52-.18.78-.28a8.14,8.14,0,0,1,3.37-.11A3.79,3.79,0,0,0,154.05,173.4Z" transform="translate(2.19 4.97)"/></g><path class="cls-25" d="M187.72,96.36a3,3,0,0,1,1.79-2.74L232.4,78.21h0c.86-.23,1.25.07,2.19.64,0,0,4.35,2.63,4.83,3.09a1.72,1.72,0,0,1,.44,1.22L234,84l1.9,67.31L194,165.2l1.11,6.22a1.44,1.44,0,0,1-1.2-.08,42.35,42.35,0,0,1-4.54-3.59,2.25,2.25,0,0,1-.88-1.78l-.06-4h0Z" transform="translate(2.19 4.97)"/><path class="cls-63" d="M192.53,104.5l-4.75-3,.7,64.53a2.42,2.42,0,0,0,1,1.93s3.83,3.14,4.41,3.4a2.71,2.71,0,0,0,.79.16Z" transform="translate(2.19 4.97)"/><path class="cls-64" d="M195.1,171.42l43.69-15.67a3.06,3.06,0,0,0,1.82-2.8l-.75-69.77c0-1.18-.85-1.84-1.86-1.48L194.3,97.37a3.1,3.1,0,0,0-1.82,2.8l.75,69.77C193.24,171.12,194.05,171.78,195.1,171.42Z" transform="translate(2.19 4.97)"/><line class="cls-65" x1="234.92" y1="95.34" x2="237.44" y2="97.33"/><line class="cls-65" x1="234.95" y1="98.23" x2="237.41" y2="94.44"/><line class="cls-66" x1="199.26" y1="168.89" x2="209.86" y2="165.09"/><line class="cls-67" x1="213.27" y1="163.86" x2="237.88" y2="155.04"/><line class="cls-66" x1="198.89" y1="134.65" x2="214.83" y2="128.94"/><line class="cls-67" x1="218.59" y1="127.59" x2="237.52" y2="120.8"/><line class="cls-67" x1="199.09" y1="163.24" x2="237.82" y2="149.35"/><line class="cls-66" x1="198.83" y1="128.97" x2="209.43" y2="125.17"/><line class="cls-67" x1="212.85" y1="123.94" x2="237.45" y2="115.12"/><line class="cls-67" x1="198.66" y1="123.32" x2="237.39" y2="109.43"/><line class="cls-68" x1="199.14" y1="157.39" x2="216.8" y2="151.05"/><line class="cls-67" x1="220.9" y1="149.58" x2="237.76" y2="143.54"/><line class="cls-68" x1="198.71" y1="117.6" x2="216.37" y2="111.27"/><line class="cls-67" x1="220.47" y1="109.8" x2="237.33" y2="103.75"/><line class="cls-68" x1="198.96" y1="140.33" x2="208.35" y2="136.97"/><line class="cls-67" x1="211.72" y1="135.76" x2="237.58" y2="126.48"/><line class="cls-67" x1="198.96" y1="151.74" x2="237.7" y2="137.85"/><line class="cls-67" x1="198.9" y1="146.06" x2="237.64" y2="132.17"/><path class="cls-5" d="M196.61,104.66l.74-.28v1.26a2.54,2.54,0,0,1-.34.23,1.46,1.46,0,0,1-.36.16.62.62,0,0,1-.71-.07,1.22,1.22,0,0,1-.28-.86,1.93,1.93,0,0,1,.25-1,1.41,1.41,0,0,1,.75-.63,1.36,1.36,0,0,1,.6-.07l-.11.39a.82.82,0,0,0-.49,0,.92.92,0,0,0-.49.44,1.5,1.5,0,0,0-.17.75.94.94,0,0,0,.19.63.42.42,0,0,0,.49.06,1.76,1.76,0,0,0,.37-.17v-.65l-.42.16Z" transform="translate(2.19 4.97)"/><path class="cls-5" d="M199.05,105.14l-1.13.42-.08-2.5,1.13-.42V103l-.8.3V104l.75-.28V104l-.76.28v.78l.8-.3Z" transform="translate(2.19 4.97)"/><path class="cls-5" d="M201.1,104.36l-.4.15-1-1.62h0v2l-.29.11-.09-2.5.4-.14,1.05,1.61h0v-2l.3-.12Z" transform="translate(2.19 4.97)"/><path class="cls-5" d="M202.76,103.74l-1.13.42-.08-2.49,1.13-.42v.34l-.81.3v.68l.75-.28v.34l-.75.28v.79l.81-.3Z" transform="translate(2.19 4.97)"/><path class="cls-5" d="M203.48,102.5v1l-.33.12-.08-2.49.56-.21a.66.66,0,0,1,.58,0,.52.52,0,0,1,.21.47,1,1,0,0,1-.37.81l.6.9-.37.13-.51-.82Zm0-.33.23-.09a.64.64,0,0,0,.33-.23.54.54,0,0,0,.09-.35c0-.14,0-.23-.12-.26a.5.5,0,0,0-.34,0l-.21.08Z" transform="translate(2.19 4.97)"/><path class="cls-5" d="M206.22,102.5l-.22-.62-.77.28-.17.77-.34.13.66-2.79.36-.13.83,2.23Zm-.32-.94-.21-.61a.4.4,0,0,0-.06-.2l-.06-.19a2.66,2.66,0,0,1-.09.5l-.16.71Z" transform="translate(2.19 4.97)"/><path class="cls-5" d="M206.83,102.23l-.08-2.5.33-.12.07,2.15.84-.32v.35Z" transform="translate(2.19 4.97)"/><path class="cls-69" d="M214.15,99.5l-.33.12V98.5l-.92.34V100l-.33.12-.08-2.5.32-.12v1l.92-.34v-1l.33-.12Z" transform="translate(2.19 4.97)"/><path class="cls-69" d="M215.8,98.89l-1.13.42-.08-2.49,1.13-.42v.34l-.8.3v.68l.75-.28v.34l-.75.28v.79l.8-.3Z" transform="translate(2.19 4.97)"/><path class="cls-69" d="M216.23,98.73l-.08-2.49.33-.12.07,2.14.85-.31v.35Z" transform="translate(2.19 4.97)"/><path class="cls-69" d="M219.05,95.94a1.07,1.07,0,0,1-.19.67,1.16,1.16,0,0,1-.57.43l-.21.07v.94l-.33.12-.08-2.5.57-.21a.71.71,0,0,1,.57,0A.55.55,0,0,1,219.05,95.94Zm-1,.83.17-.06a.79.79,0,0,0,.37-.25.56.56,0,0,0,.1-.38.32.32,0,0,0-.11-.29.5.5,0,0,0-.34,0l-.22.08Z" transform="translate(2.19 4.97)"/><path class="cls-69" d="M223.51,96l-.09-2.49.33-.13.07,2.15.85-.31v.34Z" transform="translate(2.19 4.97)"/><path class="cls-69" d="M226.26,95l-.22-.62-.76.28-.18.77-.34.12.66-2.78.36-.13.83,2.23Zm-.32-.94-.21-.61-.06-.2-.06-.19a2.66,2.66,0,0,1-.09.5l-.16.71Z" transform="translate(2.19 4.97)"/><path class="cls-69" d="M226.79,92.28l.6-.22A1,1,0,0,1,228,92a.43.43,0,0,1,.2.41.74.74,0,0,1-.08.39.55.55,0,0,1-.26.28h0a.32.32,0,0,1,.31.08.52.52,0,0,1,.11.36,1,1,0,0,1-.17.6,1,1,0,0,1-.51.38l-.72.27Zm.36.91.32-.11a.66.66,0,0,0,.29-.2.44.44,0,0,0,.09-.31c0-.11,0-.19-.11-.21a.47.47,0,0,0-.33,0l-.28.1Zm0,.33v.79l.35-.12a.65.65,0,0,0,.3-.22.53.53,0,0,0,.1-.35c0-.13,0-.21-.12-.25a.47.47,0,0,0-.33,0Z" transform="translate(2.19 4.97)"/><path class="cls-69" d="M229.85,93a1,1,0,0,1-.17.59,1.15,1.15,0,0,1-.53.39,1,1,0,0,1-.56.07v-.38a.71.71,0,0,0,.29,0,.72.72,0,0,0,.29-.06.53.53,0,0,0,.29-.19.43.43,0,0,0,.08-.29.22.22,0,0,0-.09-.2.75.75,0,0,0-.36-.1.5.5,0,0,1-.52-.47v-.09a.86.86,0,0,1,.16-.56,1.1,1.1,0,0,1,1.05-.41l-.1.37a1,1,0,0,0-.48,0,.48.48,0,0,0-.23.17.5.5,0,0,0-.08.26.43.43,0,0,0,0,.16.31.31,0,0,0,.11.09l.28.06a.9.9,0,0,1,.33.09.44.44,0,0,1,.16.17A.64.64,0,0,1,229.85,93Z" transform="translate(2.19 4.97)"/><ellipse class="cls-2" cx="185.52" cy="130.85" rx="7.34" ry="6.35" transform="translate(-39.16 144.27) rotate(-37.33)"/><path class="cls-19" d="M189.41,127.66a6.42,6.42,0,0,0-5.06-1.35" transform="translate(2.19 4.97)"/></svg>