<?xml version="1.0" encoding="utf-8"?>
<!-- Generator: Adobe Illustrator 24.2.1, SVG Export Plug-In . SVG Version: 6.00 Build 0)  -->
<svg version="1.1" id="Layer_1" xmlns="http://www.w3.org/2000/svg" xmlns:xlink="http://www.w3.org/1999/xlink" x="0px" y="0px"
	 viewBox="0 0 200 200" style="enable-background:new 0 0 200 200;" xml:space="preserve">
<style type="text/css">
	.st0{fill:#FFFFFF;}
	.st1{clip-path:url(#SVGID_2_);fill:url(#SVGID_3_);}
</style>
<circle class="st0" cx="100" cy="100" r="100"/>
<g>
	<defs>
		<path id="SVGID_1_" d="M71.1,49c-12.3,0-22.2,10-22.2,22.3v57.3c0,12.3,10,22.3,22.2,22.3h57.7c12.3,0,22.2-10,22.2-22.3V71.3
			c0-12.3-10-22.3-22.2-22.3H71.1z"/>
	</defs>
	<clipPath id="SVGID_2_">
		<use xlink:href="#SVGID_1_"  style="overflow:visible;"/>
	</clipPath>
	
		<radialGradient id="SVGID_3_" cx="-258.5708" cy="460.9646" r="0.1593" gradientTransform="matrix(209.9023 -611.7883 -611.7883 -209.9023 336365.9375 -61282.3555)" gradientUnits="userSpaceOnUse">
		<stop  offset="0" style="stop-color:#FFD676"/>
		<stop  offset="0.2463" style="stop-color:#F2A454"/>
		<stop  offset="0.3793" style="stop-color:#F05C3C"/>
		<stop  offset="0.6995" style="stop-color:#C22F86"/>
		<stop  offset="0.9568" style="stop-color:#6666AD"/>
		<stop  offset="0.9852" style="stop-color:#5C6CB2"/>
		<stop  offset="1" style="stop-color:#5C6CB2"/>
	</radialGradient>
	<polygon class="st1" points="17.6,140.3 59.7,17.6 182.4,59.7 140.3,182.4 	"/>
</g>
<g id="XMLID_35_">
	<path id="XMLID_38_" class="st0" d="M115.7,63.1H84.3C72.5,63.1,63,72.7,63,84.5v31.3c0,11.8,9.6,21.4,21.4,21.4h31.3
		c11.8,0,21.4-9.6,21.4-21.4V84.5C137,72.7,127.5,63.1,115.7,63.1z M130.2,116.3c0,7.8-6.4,14.2-14.2,14.2H84
		c-7.8,0-14.2-6.4-14.2-14.2v-32c0-7.8,6.4-14.2,14.2-14.2h32c7.8,0,14.2,6.4,14.2,14.2V116.3z"/>
	<path id="XMLID_41_" class="st0" d="M100,81.1c-10.6,0-19.2,8.6-19.2,19.2s8.6,19.2,19.2,19.2s19.2-8.6,19.2-19.2
		S110.6,81.1,100,81.1z M100,112.8c-6.9,0-12.5-5.6-12.5-12.5s5.6-12.5,12.5-12.5s12.5,5.6,12.5,12.5
		C112.5,107.2,106.9,112.8,100,112.8z"/>
	<circle id="XMLID_42_" class="st0" cx="119.9" cy="80.4" r="4.5"/>
</g>
</svg>
