<svg xmlns="http://www.w3.org/2000/svg" width="12.543" height="17.355" viewBox="0 0 12.543 17.355">
    <path id="prefix__noun_Lock_1768436" d="M207.241 81.632a.291.291 0 0 0 0-.042 1.591 1.591 0 0 0-1.41-1.56 3 3 0 0 0-.378-.01h-.271V78a7.3 7.3 0 0 0-.087-1.376 4.111 4.111 0 0 0-1.441-2.39 4.439 4.439 0 0 0-1.4-.771 4.086 4.086 0 0 0-1.447-.194 4.158 4.158 0 0 0-2.333.824 4.634 4.634 0 0 0-.973 1 4.121 4.121 0 0 0-.544 1.107 4.893 4.893 0 0 0-.2 1.532v2.285h-.457a1.6 1.6 0 0 0-1.358.741 2.878 2.878 0 0 0-.237 1.6v6.6a1.666 1.666 0 0 0 .425 1.159 1.607 1.607 0 0 0 1.2.5h9.184a1.983 1.983 0 0 0 .637-.079 1.6 1.6 0 0 0 1.1-1.507v-7.4zm-4.994 3.644a1.319 1.319 0 0 1-.68 1.1v1.068a.593.593 0 1 1-1.186 0v-1.075a1.269 1.269 0 0 1-.5-.473 1.3 1.3 0 0 1 .134-1.487 1.269 1.269 0 0 1 1.378-.368 1.3 1.3 0 0 1 .856 1.18v.024a.051.051 0 0 1-.002.031zm1.353-6.956v1.7h-5.259v-2.338a5.617 5.617 0 0 1 .02-.577 3.457 3.457 0 0 1 .182-.658 3.517 3.517 0 0 1 .342-.583l-.057.071.125-.16-.067.089a3.471 3.471 0 0 1 .475-.474c-.03.022-.059.043-.089.067l.16-.125-.071.057a2.636 2.636 0 0 1 1.965-.526 3.639 3.639 0 0 1 .676.184 3.519 3.519 0 0 1 .583.342c-.024-.02-.045-.038-.069-.055l.16.125-.089-.067a3.616 3.616 0 0 1 .476.476l-.067-.089.125.16-.057-.071a2.618 2.618 0 0 1 .522 1.236c.041.396.014.815.014 1.216z" transform="translate(-194.7 -73.264)" style="fill:#fff;opacity:.5"/>
</svg>