<?xml version="1.0" encoding="UTF-8"?>
<svg width="101px" height="32px" viewBox="0 0 101 32" version="1.1" xmlns="http://www.w3.org/2000/svg" xmlns:xlink="http://www.w3.org/1999/xlink">
    <!-- Generator: Sketch 45.2 (43514) - http://www.bohemiancoding.com/sketch -->
    <title>Group 12</title>
    <desc>Created with Sketch.</desc>
    <defs></defs>
    <g id="Page-1" stroke="none" stroke-width="1" fill="none" fill-rule="evenodd">
        <g id="Home" transform="translate(-795.000000, -760.000000)" stroke="#FFFFFF" stroke-width="2.01276608" fill="#FFFFFF">
            <g id="Group-13" transform="translate(250.000000, 711.000000)">
                <g id="Group-12" transform="translate(546.000000, 51.000000)">
                    <path d="M0.1233857,26.6639873 C1.35859214,26.6639873 5.06423011,26.6639873 5.06423011,26.6639873 L5.06423011,11.4664635 L21.3278468,26.6792124 L21.3278468,1.49819209 L16.7575681,1.49819209 L16.7575681,16.2871819 L0.581293989,1.40083316 C0.581293989,1.40083316 0.581293989,20.1027516 0.581293989,26.5678301" id="path2470"></path>
                    <path d="M48.2953377,14.1658813 C48.2953377,19.1410594 44.2258699,23.1788852 39.2117043,23.1788852 C34.1975387,23.1788852 30.1280709,19.1410594 30.1280709,14.1658813 C30.1280709,9.19070311 34.1975387,5.15287736 39.2117043,5.15287736 C44.2258699,5.15287736 48.2953377,9.19070311 48.2953377,14.1658813 Z M52.4877839,14.0503299 C52.4877839,21.3855285 46.4879276,27.3387331 39.0952474,27.3387331 C31.7025673,27.3387331 25.702711,21.3855285 25.702711,14.0503299 C25.702711,6.71513137 31.7025673,0.761926732 39.0952474,0.761926732 C46.4879276,0.761926732 52.4877839,6.71513137 52.4877839,14.0503299 Z" id="path2476" stroke-linecap="round"></path>
                    <polygon id="path5393" points="52.8371544 1.68633739 58.0777121 1.68633739 65.0651224 15.8991513 71.8196191 1.68633739 77.5260041 1.68633739 65.2980361 27.2231818"></polygon>
                    <polygon id="path5395" points="97.5565804 26.6454252 92.3160226 26.6454252 85.3286123 12.4326113 78.5741157 26.6454252 72.8677306 26.6454252 85.0956986 1.10858073"></polygon>
                </g>
            </g>
        </g>
    </g>
</svg>