<?xml version="1.0" encoding="UTF-8"?>
<svg width="214px" height="19px" viewBox="0 0 214 19" version="1.1" xmlns="http://www.w3.org/2000/svg" xmlns:xlink="http://www.w3.org/1999/xlink">
    <!-- Generator: Sketch 45.2 (43514) - http://www.bohemiancoding.com/sketch -->
    <title>The_Wall_Street_Journal</title>
    <desc>Created with Sketch.</desc>
    <defs></defs>
    <g id="Page-1" stroke="none" stroke-width="1" fill="none" fill-rule="evenodd">
        <g id="Landing" transform="translate(-977.000000, -767.000000)">
            <g id="Group-13" transform="translate(250.000000, 711.000000)">
                <g id="The_Wall_Street_Journal" transform="translate(727.000000, 46.000000)">
                    <path d="M212.609852,26.27625 C211.988729,26.27625 211.471075,26.808125 211.471075,27.525925 C211.471075,28.243125 211.988729,28.775 212.609852,28.775 C213.230671,28.775 213.748629,28.243125 213.748629,27.525925 C213.748629,26.808125 213.230671,26.27625 212.609852,26.27625 L212.609852,26.27625 Z M171.404809,28.695 L176.632776,28.695 L176.632776,28.21655 L176.063996,28.08375 C175.546038,27.950625 175.312622,27.658425 175.312622,26.91405 L175.312622,19.6853 L176.52961,19.6853 C177.280071,19.6853 177.668387,19.87125 177.719818,21.4925 L177.84946,24.894375 C177.952929,27.950625 178.807164,28.80155 180.25696,28.80155 C181.732014,28.80155 182.12033,27.764675 182.12033,26.303125 L182.12033,25.691575 L181.5762,25.691575 L181.5762,26.143125 C181.5762,27.127175 181.447472,27.8178 181.084718,27.8178 C180.748441,27.8178 180.72227,27.552175 180.644667,26.329675 L180.489767,23.990925 C180.282523,20.854675 179.894206,19.765 177.642216,19.339375 C179.790737,18.755 181.110586,17.133425 181.110586,14.82125 C181.110586,11.8178 178.807164,10.3825 176.607213,10.3825 L167.781539,10.3825 L167.781539,10.86125 L168.27302,10.967175 C169.204858,11.18 169.23103,11.685 169.23103,13.838125 L169.23103,24.415925 C169.23103,26.78155 168.58343,27.92405 167.107767,27.92405 C165.788527,27.92405 165.063629,27.259675 165.063629,24.68155 L165.063629,12.1103 C165.063629,11.365925 165.296132,11.15375 165.86552,11.020625 L166.564551,10.86125 L166.564551,10.3825 L161.155512,10.3825 L161.155512,10.86125 L161.724292,11.020625 C162.24225,11.18 162.423322,11.3928 162.423322,12.136875 L162.423322,24.495625 C162.423322,27.28625 164.002454,28.8278 166.40965,28.8278 C168.816542,28.8278 170.006749,27.28625 170.006749,24.415925 L170.006749,12.880925 C170.006749,11.445925 170.292204,10.940925 171.430373,10.940925 C172.336342,10.940925 172.724963,11.26 172.724963,12.136875 L172.724963,26.91405 C172.724963,27.658425 172.492156,27.92405 171.974198,28.057175 L171.404809,28.21655 L171.404809,28.695 L171.404809,28.695 Z M206.13903,12.136875 C206.13903,11.3928 206.372446,11.15375 206.889491,11.047175 L207.588521,10.8875 L207.588521,10.3825 L202.205046,10.3825 L202.205046,10.86125 L202.774434,11.020625 C203.292392,11.18 203.524895,11.3928 203.524895,12.136875 L203.524895,27.020925 C203.524895,27.738125 203.240657,28.136875 202.437548,28.136875 C201.506015,28.136875 201.376374,27.8178 201.040401,26.25 L197.72754,10.329675 L196.691928,10.329675 L193.534881,25.744675 C193.171823,27.472175 192.990751,27.87125 192.291721,28.08375 L191.85167,28.21655 L191.85167,28.695 L195.553151,28.695 L195.553151,28.21655 L195.00963,28.1103 C194.232998,27.950625 194.026362,27.525925 194.414679,25.505625 L196.278049,15.645 L198.322491,26.0903 C198.633205,27.6053 198.607642,27.8978 197.494428,28.1103 L196.950907,28.21655 L196.950907,28.695 L210.668575,28.695 L210.668575,22.6353 L210.176789,22.6353 C209.918114,25.42595 209.374898,28.057175 207.174642,28.057175 L206.13903,28.057175 L206.13903,12.136875 L206.13903,12.136875 Z M198.063817,23.751575 L198.063817,23.03405 L194.569579,23.03405 L194.466414,23.751575 L198.063817,23.751575 Z M183.621251,12.455925 L183.621251,25.16 C183.621251,27.07375 183.621251,27.9775 182.689718,28.136875 L182.2238,28.21655 L182.2238,28.695 L186.028143,28.695 L186.028143,28.21655 C184.372016,27.9775 184.372016,27.3928 184.372016,25.319675 L184.372016,13.253425 L183.750893,12.668425 L190.092073,28.695 L191.178811,28.695 L191.178811,13.9178 C191.178811,11.73845 191.178811,11.26 192.214423,10.967175 L192.576871,10.86125 L192.576871,10.3825 L188.668146,10.3825 L188.668146,10.86125 L189.108197,10.967175 C190.42835,11.20655 190.42835,11.73845 190.42835,13.758125 L190.42835,23.007175 L190.687329,22.9275 L185.873242,10.3825 L182.171761,10.3825 L182.171761,10.86125 L182.534209,10.967175 C182.948697,11.1003 183.181505,11.57875 183.621251,12.455925 L183.621251,12.455925 Z M175.312622,11.020625 L176.348538,11.020625 C177.383541,11.020625 178.341246,11.71155 178.341246,15.166875 C178.341246,18.70155 177.616957,19.047175 176.167466,19.047175 L175.312622,19.047175 L175.312622,11.020625 Z M158.075458,19.36625 C158.075458,27.046875 157.454334,28.136875 156.108009,28.136875 C154.762292,28.136875 154.167036,27.046875 154.167036,19.41905 C154.167036,12.030625 154.814332,10.967175 156.108009,10.967175 C157.454334,10.967175 158.075458,12.030625 158.075458,19.36625 L158.075458,19.36625 Z M160.896837,19.525625 C160.896837,14.44905 159.317705,10.25 156.108009,10.25 C152.873055,10.25 151.345657,14.44905 151.345657,19.525625 C151.345657,24.62875 152.924485,28.8278 156.108009,28.8278 C159.395307,28.8278 160.896837,24.62875 160.896837,19.525625 L160.896837,19.525625 Z M149.819172,12.136875 C149.819172,11.3928 150.000245,11.15375 150.51729,11.020625 L151.086678,10.86125 L151.086678,10.3825 L145.729374,10.3825 L145.729374,10.86125 L146.376061,11.020625 C146.893714,11.15375 147.178865,11.339675 147.178865,12.1103 L147.178865,24.894375 C147.178865,26.675 147.023356,28.1103 145.729374,28.1103 C144.901007,28.1103 144.279883,27.445625 144.306055,26.9675 C144.383049,26.143125 145.729374,26.196875 145.832844,24.8675 C145.910447,23.910925 145.314886,23.512175 144.77167,23.4328 C143.96917,23.32625 142.986206,24.017175 142.95973,25.399375 C142.933558,27.18 144.072639,28.80155 146.013916,28.80155 C148.162437,28.80155 149.819172,27.313125 149.819172,24.46875 L149.819172,12.136875 L149.819172,12.136875 Z M63.3707196,12.136875 C63.3707196,11.3928 63.6038311,11.15375 64.1214846,11.047175 L64.8202105,10.8875 L64.8202105,10.3825 L59.4367349,10.3825 L59.4367349,10.86125 L60.0061234,11.020625 C60.523777,11.18 60.7568885,11.3928 60.7568885,12.136875 L60.7568885,27.020925 C60.7568885,27.738125 60.4717378,28.136875 59.6695421,28.136875 C58.7377048,28.136875 58.5825,27.8178 58.246223,26.25 L54.9330575,10.329675 L53.8980546,10.329675 L50.7400939,25.744675 C50.3779494,27.472175 50.1965728,27.87125 49.497847,28.08375 L49.0577958,28.21655 L49.0577958,28.695 L52.7589733,28.695 L52.7589733,28.21655 L52.2154522,28.1103 C51.439124,27.950625 51.23188,27.525925 51.6201962,25.505625 L53.4838709,15.591875 L55.5286177,26.0903 C55.8131598,27.6053 55.8131598,27.8978 54.7002503,28.1103 L54.1567292,28.21655 L54.1567292,28.695 L67.9005688,28.695 L67.9005688,22.6353 L67.4087827,22.6353 C67.1498038,25.42595 66.6062827,28.057175 64.4063311,28.057175 L63.3707196,28.057175 L63.3707196,12.136875 Z M135.427733,11.020625 L135.997426,11.020625 C137.602426,11.020625 138.145947,13.65155 138.327019,16.4425 L138.818501,16.4425 L138.818501,10.3825 L129.423134,10.3825 L129.423134,16.4425 L129.91492,16.4425 C130.096297,13.65155 130.639818,11.020625 132.244514,11.020625 L132.813902,11.020625 L132.813902,26.91405 C132.813902,27.658425 132.581095,27.92405 132.063441,28.057175 L131.390583,28.21655 L131.390583,28.695 L136.981303,28.695 L136.981303,28.21655 L136.178498,28.030625 C135.686712,27.8978 135.427733,27.738125 135.427733,26.91405 L135.427733,11.020625 Z M123.599608,19.49875 L124.401803,19.525625 C125.566752,19.552175 125.902725,20.004075 126.136445,22.90125 L126.627927,22.90125 L126.627927,15.5125 L126.136445,15.5125 C125.851294,17.824675 125.54058,18.8078 124.427975,18.834675 L123.599608,18.86125 L123.599608,11.020625 L125.38568,11.020625 C127.378692,11.020625 127.818743,13.59875 128.103285,16.4425 L128.595071,16.4425 L128.595071,10.3825 L119.665623,10.3825 L119.665623,10.86125 L120.235011,11.020625 C120.829963,11.18 120.985472,11.5525 120.985472,12.163425 L120.985472,26.91405 C120.985472,27.658425 120.752969,27.92405 120.235011,28.057175 L119.665623,28.21655 L119.665623,28.695 L128.853746,28.695 L128.853746,22.6353 L128.36196,22.6353 C128.051246,25.399375 127.714969,28.057175 125.38568,28.057175 L123.599608,28.057175 L123.599608,19.49875 L123.599608,19.49875 Z M113.841792,19.49875 L114.644292,19.525625 C115.808936,19.552175 116.145518,20.004075 116.378325,22.90125 L116.870111,22.90125 L116.870111,15.5125 L116.378325,15.5125 C116.093783,17.824675 115.783069,18.8078 114.670464,18.834675 L113.841792,18.86125 L113.841792,11.020625 L115.627864,11.020625 C117.620876,11.020625 118.060927,13.65155 118.345469,16.4425 L118.837255,16.4425 L118.837255,10.3825 L109.649133,10.3825 L109.649133,10.86125 L110.477196,11.020625 C111.072452,11.18 111.227961,11.5525 111.227961,12.163425 L111.227961,26.91405 C111.227961,27.658425 110.994849,27.92405 110.477196,28.057175 L109.907807,28.21655 L109.907807,28.695 L119.09593,28.695 L119.09593,22.6353 L118.604448,22.6353 C118.293734,25.399375 117.957153,28.057175 115.627864,28.057175 L113.841792,28.057175 L113.841792,19.49875 L113.841792,19.49875 Z M103.204178,11.020625 L103.980811,11.020625 C105.015813,11.020625 105.973518,11.71155 105.973518,15.166875 C105.973518,18.648425 105.249229,19.047175 103.799738,19.047175 L103.204178,19.047175 L103.204178,11.020625 Z M99.2957565,28.695 L104.524332,28.695 L104.524332,28.21655 L103.954639,28.08375 C103.436985,27.950625 103.204178,27.658425 103.204178,26.91405 L103.204178,19.6853 L104.161883,19.6853 C104.912344,19.6853 105.30066,20.004075 105.352395,21.4925 L105.481732,24.894375 C105.585506,27.950625 106.439437,28.80155 107.888928,28.80155 C109.364286,28.80155 109.752298,27.764675 109.752298,26.303125 L109.752298,25.691575 L109.208777,25.691575 L109.208777,26.143125 C109.208777,27.127175 109.079744,27.8178 108.717295,27.8178 C108.380714,27.8178 108.354542,27.552175 108.277244,26.3297 L108.121735,23.990925 C107.914795,20.775 107.500611,19.765 105.274792,19.339375 C107.423009,18.755 108.742858,17.133425 108.742858,14.82125 C108.742858,11.8178 106.439437,10.3825 104.239485,10.3825 L99.2957565,10.3825 L99.2957565,10.86125 L99.8651451,11.020625 C100.383103,11.18 100.615606,11.3928 100.615606,12.136875 L100.615606,26.91405 C100.615606,27.658425 100.383103,27.92405 99.8651451,28.057175 L99.2957565,28.21655 L99.2957565,28.695 L99.2957565,28.695 Z M95.3359044,11.020625 L95.9052929,11.020625 C97.5099886,11.020625 98.0535097,13.65155 98.2348862,16.4425 L98.726368,16.4425 L98.726368,10.3825 L89.3310011,10.3825 L89.3310011,16.4425 L89.8227873,16.4425 C90.0038595,13.65155 90.5476849,11.020625 92.1523805,11.020625 L92.7217691,11.020625 L92.7217691,26.91405 C92.7217691,27.658425 92.4886576,27.92405 91.9713083,28.057175 L91.2981456,28.21655 L91.2981456,28.695 L96.7592235,28.695 L96.7592235,28.21655 L96.0863652,28.057175 C95.4135068,27.8978 95.3359044,27.36625 95.3359044,26.91405 L95.3359044,11.020625 Z M89.3568686,23.9375 C89.3568686,18.48905 83.5336462,17.05375 83.5336462,13.09375 C83.5336462,12.243425 83.8440557,10.967175 85.1380375,10.967175 C87.0017122,10.967175 87.700438,13.439375 88.0111519,16.4425 L88.502938,16.4425 L88.502938,10.3825 L88.1922241,10.3825 C88.0628868,10.967175 87.8297753,11.233425 87.4938026,11.233425 C86.8982423,11.233425 86.5875284,10.27655 85.1642093,10.27655 C82.9639534,10.27655 81.4627275,12.163425 81.4627275,14.6353 C81.4627275,19.126875 87.2865586,21.01375 87.2865586,25.16 C87.2865586,27.046875 86.4320193,28.1103 85.2676792,28.1103 C83.5336462,28.1103 82.3945648,26.010925 82.0841553,22.6353 L81.5923692,22.6353 L81.5923692,28.695 L81.9027787,28.695 C82.1617577,27.8178 82.4980347,27.738125 82.7825768,27.738125 C83.2746672,27.738125 83.7923208,28.80155 85.2932423,28.80155 C87.5969681,28.80155 89.3568686,26.755 89.3568686,23.9375 L89.3568686,23.9375 Z M72.403942,12.136875 C72.403942,11.3928 72.6367491,11.15375 73.1544027,11.047175 L73.8534329,10.8875 L73.8534329,10.3825 L68.4699573,10.3825 L68.4699573,10.86125 L69.0393458,11.020625 C69.5566951,11.18 69.7898066,11.3928 69.7898066,12.136875 L69.7898066,26.91405 C69.7898066,27.658425 69.5566951,27.92405 69.0393458,28.057175 L68.4699573,28.21655 L68.4699573,28.695 L76.9334869,28.695 L76.9334869,22.6353 L76.4413965,22.6353 C76.1830262,25.42595 75.6392008,28.057175 73.4392491,28.057175 L72.403942,28.057175 L72.403942,12.136875 Z M55.2693345,23.751575 L55.2693345,23.03405 L51.7757053,23.03405 L51.6719312,23.751575 L55.2693345,23.751575 Z M40.3094198,28.748125 L41.3705944,28.748125 L43.7774858,15.671875 L43.4153413,15.671875 L46.0553441,28.748125 L46.9871815,28.748125 L50.1451422,13.333125 C50.4814192,11.71155 50.6624915,11.15375 51.2839192,10.99375 L51.7757053,10.86125 L51.7757053,10.3825 L48.1259585,10.3825 L48.1259585,10.86125 L48.6697838,10.967175 C49.4461121,11.126875 49.6271843,11.6053 49.2650398,13.571875 L47.2202929,23.910925 L47.5310068,23.910925 L45.4600882,13.01405 C45.2528441,11.977175 45.1238111,11.126875 45.9780461,10.967175 L46.5471303,10.86125 L46.5471303,10.3825 L41.551971,10.3825 L41.551971,10.86125 L41.888248,10.940925 C42.4062059,11.073425 42.4838083,11.3928 42.690748,12.4028 L43.4929437,16.3628 L43.3377389,13.970625 L41.551971,23.6453 L41.7847782,23.6453 L39.6882964,13.01405 C39.4551849,11.924375 39.3775825,11.1003 40.2056456,10.940925 L40.5945705,10.86125 L40.5945705,10.3825 L35.4953328,10.3825 L35.4953328,10.86125 L35.9871189,10.99375 C36.4527332,11.126875 36.7120165,11.365925 37.0227304,12.8278 L40.3094198,28.748125 L40.3094198,28.748125 Z M26.4882821,19.49875 L27.2904778,19.525625 C28.4551223,19.552175 28.7917036,20.004075 29.0245108,22.90125 L29.5162969,22.90125 L29.5162969,15.5125 L29.0245108,15.5125 C28.7399687,17.824675 28.4295592,18.8078 27.3163453,18.834675 L26.4882821,18.86125 L26.4882821,11.020625 L28.2740501,11.020625 C30.2667577,11.020625 30.7071132,13.65155 30.9916553,16.4425 L31.4834414,16.4425 L31.4834414,10.3825 L22.5539932,10.3825 L22.5539932,10.86125 L23.123686,11.020625 C23.7186377,11.18 23.8741468,11.5525 23.8741468,12.163425 L23.8741468,26.91405 C23.8741468,27.658425 23.6410353,27.92405 23.123686,28.057175 L22.5539932,28.21655 L22.5539932,28.695 L31.7424204,28.695 L31.7424204,22.6353 L31.2503299,22.6353 C30.9402247,25.399375 30.6036433,28.057175 28.2740501,28.057175 L26.4882821,28.057175 L26.4882821,19.49875 L26.4882821,19.49875 Z M10.2079096,28.695 L15.5137827,28.695 L15.5137827,28.21655 L14.9188311,28.08375 C14.4526081,27.9775 14.1421985,27.658425 14.1421985,26.91405 L14.1421985,19.65875 L18.0503157,19.65875 L18.0503157,26.91405 C18.0503157,27.658425 17.7399061,27.9775 17.2739875,28.08375 L16.6787315,28.21655 L16.6787315,28.695 L21.9846047,28.695 L21.9846047,28.21655 L21.4152162,28.057175 C20.8978669,27.92405 20.6644511,27.63155 20.6644511,26.8878 L20.6644511,12.136875 C20.6644511,11.3928 20.8978669,11.15375 21.4152162,11.020625 L21.9846047,10.86125 L21.9846047,10.3825 L16.6787315,10.3825 L16.6787315,10.86125 L17.2739875,11.020625 C17.7140387,11.15375 18.0503157,11.339675 18.0503157,12.1103 L18.0503157,18.940925 L14.1421985,18.940925 L14.1421985,12.1103 C14.1421985,11.365925 14.4270449,11.15375 14.9188311,11.020625 L15.5137827,10.86125 L15.5137827,10.3825 L10.2079096,10.3825 L10.2079096,10.86125 L10.7772981,11.020625 C11.295256,11.18 11.5280631,11.3928 11.5280631,12.136875 L11.5280631,26.91405 C11.5280631,27.658425 11.295256,27.92405 10.7772981,28.057175 L10.2079096,28.21655 L10.2079096,28.695 Z M6.24775313,11.020625 L6.81775028,11.020625 C8.42214164,11.020625 8.96566268,13.65155 9.14673493,16.4425 L9.63852105,16.4425 L9.63852105,10.3825 L0.243458476,10.3825 L0.243458476,16.4425 L0.735244596,16.4425 C0.916316837,13.65155 1.45983788,11.020625 3.06422924,11.020625 L3.63361775,11.020625 L3.63361775,26.91405 C3.63361775,27.658425 3.4011149,27.92405 2.883157,28.057175 L2.21029863,28.21655 L2.21029863,28.695 L7.8010182,28.695 L7.8010182,28.21655 L6.99882253,28.030625 C6.50703641,27.8978 6.24775313,27.738125 6.24775313,26.91405 L6.24775313,11.020625 Z" id="path38205" fill="#FFFFFF" fill-rule="nonzero"></path>
                    <rect id="Rectangle-5" fill-opacity="0" fill="#D8D8D8" x="0" y="0.12109375" width="214" height="28.8789063"></rect>
                </g>
            </g>
        </g>
    </g>
</svg>