<?xml version="1.0" encoding="UTF-8"?>
<svg width="226px" height="30px" viewBox="0 0 226 30" version="1.1" xmlns="http://www.w3.org/2000/svg" xmlns:xlink="http://www.w3.org/1999/xlink">
    <!-- Generator: Sketch 45.2 (43514) - http://www.bohemiancoding.com/sketch -->
    <title>Group 11</title>
    <desc>Created with Sketch.</desc>
    <defs></defs>
    <g id="Page-1" stroke="none" stroke-width="1" fill="none" fill-rule="evenodd">
        <g id="Home" transform="translate(-250.000000, -761.000000)" fill-rule="nonzero" fill="#FFFFFF">
            <g id="Group-13" transform="translate(250.000000, 711.000000)">
                <g id="Group-11" transform="translate(0.000000, 50.000000)">
                    <path d="M17.3225985,3.37366204 C17.3225985,0.982416667 15.0461464,0.290972222 13.149103,0.377402778 L13.149103,0.751708333 C14.2873291,0.778930556 15.1628876,1.15505093 15.1628876,1.90289074 C15.1628876,2.42269907 14.7837087,3.08410833 13.6452529,3.08410833 C12.7405091,3.08410833 10.9893921,2.565525 9.58849849,2.10456204 C8.04167848,1.5859787 6.58241432,1.09620556 5.35663243,1.09620556 C2.96343921,1.09620556 1.15395165,2.85485185 1.15395165,5.01439074 C1.15395165,6.77303704 2.49647468,7.40563611 3.05099506,7.63734259 L3.22610676,7.34924074 C2.87588336,7.11739815 2.52565996,6.85946759 2.52565996,6.16802315 C2.52565996,5.64821481 2.99262449,4.81271944 4.21840639,4.81271944 C5.32744715,4.81271944 6.78671131,5.30249259 8.71294,5.84988611 C10.3765011,6.31084907 12.215174,6.74300185 13.2074736,6.85946759 L13.2074736,10.6035667 L11.3396155,12.1317315 L11.3396155,12.2760093 L13.2074736,13.8893796 L13.2074736,19.0464028 C12.2443593,19.5937963 11.1353185,19.7378472 10.1722042,19.7378472 C8.39190188,19.7378472 6.69915546,19.2768843 5.35663243,17.8075648 L10.3765011,15.4163194 L10.3765011,7.1477963 L4.21840639,9.8559537 C4.86048262,8.24258333 6.14463508,7.17660648 7.45797282,6.39873148 L7.37064677,6.11062963 C3.72248638,7.09017593 0.395364094,10.4021222 0.395364094,14.4943935 C0.395364094,19.392125 4.42293317,23.0209833 9.00502263,23.0209833 C13.9665208,23.0209833 17.1185314,19.1904537 17.0601608,15.1282176 L16.768308,15.1009954 C16.0386759,16.6567454 14.9880057,18.1260648 13.6162974,18.9039398 L13.6162974,13.8909676 L15.6008966,12.3352176 L15.57332,12.1623565 L13.617906,10.6053815 L13.617906,6.86128241 C15.4273936,6.86128241 17.324437,5.65125463 17.324437,3.37525 L17.3225985,3.37366204 Z M6.66997017,16.7703981 L5.18152073,17.4906528 C4.33514752,16.3958657 3.78062714,14.9265463 3.78062714,12.8810231 C3.78062714,12.0455278 3.86795318,11.0071361 4.13085054,10.2881065 L6.69915546,9.16450926 L6.66997017,16.7703981 Z M19.6574212,19.4497454 L18.0230453,20.6609528 L18.2275721,20.8900731 L19.0155748,20.3426796 L21.7589914,22.8191759 L25.4363371,20.3991204 L25.2612254,20.1400556 L24.298111,20.7450694 L23.1015144,19.5650315 L23.1015144,11.2676981 L24.093814,10.5462639 L26.1951544,12.2172546 L26.1951544,19.5650315 C26.1951544,24.1446713 25.1736695,24.8937361 23.0723291,25.6439806 L23.0723291,25.9620269 C26.5453778,26.1049435 29.6682031,24.9524907 29.6682031,19.0763926 L29.6682031,11.1812222 L30.7772439,10.3156917 L30.5727171,10.0575343 L29.6096028,10.8054194 L26.6035186,8.24131296 L23.1012846,10.8342296 L23.1012846,0.867085185 L22.8383873,0.867085185 L18.4897801,3.7481037 L18.4897801,4.00762222 C18.9273295,4.26804815 19.6571914,4.43954815 19.6571914,5.88146389 L19.6574212,19.4497454 Z M42.0717187,18.153287 L39.0656345,20.4581019 L35.9428092,18.0368213 L35.9428092,16.596312 L41.7506806,12.7657824 L41.7506806,12.5915602 L38.8613375,8.21241204 L32.5281311,11.5555731 L32.5281311,19.5060046 L31.2731639,20.4579204 L31.4776907,20.7160778 L32.6159167,19.822962 L36.7602269,22.7915907 L42.3054307,18.470063 L42.0717187,18.153287 Z M35.9428092,16.1653843 L35.9428092,10.2304861 L36.147336,10.0862083 L38.832382,14.2636852 L35.9428092,16.1653843 Z M65.5354914,2.278875 C65.5354914,1.90411574 65.4477057,1.58743056 65.3020091,1.15645741 L65.0101563,1.15645741 C64.6309774,2.16481389 64.1637831,2.71102778 62.9671864,2.71102778 C61.9165163,2.71102778 61.0993283,2.07838333 60.6615491,1.61624074 C60.6615491,1.64346296 57.1593151,5.62085648 57.1593151,5.62085648 L57.4511679,5.88128241 L58.4434676,4.75768519 C59.2022849,5.33388889 59.7555643,5.88128241 61.4495517,5.90886759 L61.4495517,15.9924324 L54.2699721,3.71811389 C53.7154517,2.79618796 52.7815226,1.41329907 51.0595909,1.41329907 C49.1333622,1.41329907 47.3530599,3.05665926 47.5865422,5.82243704 L47.9367656,5.82243704 C48.0245513,5.07337222 48.4037301,4.26668704 49.2501034,4.26668704 C49.9213649,4.26668704 50.5342558,4.89933148 50.8552939,5.47671481 L50.8552939,9.42371019 C48.6372124,9.42371019 47.1779482,10.4320667 47.1779482,12.2171185 C47.1779482,13.1402241 47.6449128,14.6947944 49.1917328,14.9840759 L49.2193094,14.72365 C49.0147826,14.5222056 48.8093366,14.2926315 48.8093366,13.8893796 C48.8093366,13.2267454 49.3054864,12.7945926 50.2102302,12.7945926 C50.3563864,12.7945926 50.7647506,12.8218148 50.8523065,12.852213 L50.8523065,17.9804259 C48.2548163,18.0076481 46.2410317,19.4197102 46.2410317,21.8409907 C46.2410317,24.1458056 48.2548163,25.2405926 50.3561566,25.1241269 L50.3837333,24.8373861 C49.0703955,24.6931083 48.3699487,24.0883213 48.3699487,23.2528259 C48.3699487,22.2156593 49.1287661,21.6694907 50.0918805,21.6694907 C51.0841801,21.6694907 51.9597386,22.2745046 52.5726295,22.9659491 L56.1040488,19.0765741 L55.812196,18.8161481 L54.9074522,19.8245046 C53.5649292,18.6444667 52.8061118,18.2111343 51.2592918,17.9818324 L51.2592918,5.85033981 L61.1531028,22.8783843 L61.8535496,22.8783843 L61.8535496,5.90796019 C63.751788,5.79408056 65.5320902,4.38224537 65.5320902,2.27910185 L65.5354914,2.278875 Z M74.3786322,18.153287 L71.372548,20.4592815 L68.2497227,18.0380463 L68.2497227,16.597537 L74.0575941,12.766962 L74.0575941,12.5927398 L71.168251,8.21359167 L64.8350446,11.5567528 L64.8350446,19.5071843 L63.5800774,20.4591 L63.7846042,20.7172574 L64.9228302,19.8241417 L69.0671404,22.7928157 L74.6123442,18.471288 L74.378862,18.1532417 L74.3786322,18.153287 Z M68.2497227,16.1653843 L68.2497227,10.2304861 L68.4542495,10.0862083 L71.1392955,14.2636852 L68.2497227,16.1653843 Z M94.4568523,9.53904167 L93.5521085,10.2016759 L91.2172996,8.24258333 L88.5030683,10.6638185 L89.612109,11.6998056 L89.612109,20.8326343 L86.6352102,18.9599722 L86.6352102,11.5269444 L87.5983245,10.8643102 L84.7381668,8.24135833 L82.082306,10.6626389 L83.1913467,11.6985806 L83.1913467,20.3716713 L82.8121679,20.6007917 L80.2146777,18.78575 L80.2146777,11.4979528 C80.2146777,9.82696204 79.3974897,9.33718889 78.3176343,8.67455463 C77.4128905,8.12716111 77.0042965,7.66619815 77.0042965,6.83070278 C77.0042965,6.13925833 77.7047433,5.73591574 78.0549667,5.53424444 C78.0273901,5.50702222 78.0273901,5.24614259 78.0273901,5.24614259 C77.093461,5.21892037 74.4959708,6.22568889 74.4376002,8.56049352 C74.4100236,9.7705213 74.9921206,10.287925 75.6050116,10.8653083 C76.2179025,11.4403324 76.7724229,11.9889056 76.7724229,12.9960824 L76.7724229,19.9969574 L75.4590851,21.0053139 L75.6636119,21.2657398 L76.8602085,20.3438139 L80.099775,22.8503 L83.1642297,20.8047769 L86.5497226,22.8503 L93.0580407,19.1049759 L93.0580407,10.9793241 L94.6632175,9.82691667 L94.4586907,9.53881481 L94.4568523,9.53904167 Z M117.192188,2.88388889 L115.966406,3.97867593 L113.222989,1.61501574 L109.224606,4.55487963 L109.224606,1.78910185 L108.816012,1.78910185 L108.903338,21.408838 C108.494744,21.3512176 107.473259,21.1207361 106.53933,20.9778194 L106.452004,4.58359907 C106.452004,3.3735713 105.576445,1.70258056 103.387549,1.70258056 C101.140282,1.70258056 99.681018,3.40238148 99.681018,5.10218241 L100.031241,5.10218241 C100.147982,4.38192778 100.527391,3.7481037 101.257023,3.7481037 C102.015841,3.7481037 102.657917,4.20906667 102.657917,5.82243704 L102.657917,10.5473074 C100.41065,10.6335111 99.1264976,11.8725759 99.1264976,13.3995157 C99.1264976,14.3502519 99.5645066,15.8195713 101.140282,15.8771917 L101.198653,15.5890898 C100.673318,15.3599694 100.556576,15.0416963 100.556576,14.7535944 C100.556576,14.063375 101.227838,13.7752731 102.161767,13.7752731 L102.599316,13.7752731 L102.599316,21.2659213 C100.819014,21.8709352 100.001826,23.1673935 100.001826,24.636713 C100.001826,26.6534259 101.636202,28.1803657 104.029395,28.1803657 C105.722142,28.1803657 107.181406,27.8922639 108.728226,27.5465417 C109.983193,27.2870231 111.500828,26.9991481 112.23046,26.9991481 C113.164389,26.9991481 113.572983,27.4310741 113.572983,28.0939352 C113.572983,28.9282056 113.193344,29.2463426 112.697424,29.3903935 L112.755795,29.6784954 C114.76958,29.3041898 115.936991,28.1215204 115.936991,26.3365139 C115.936991,24.492662 114.156689,23.397875 112.172089,23.397875 C111.150604,23.397875 109.13682,23.7150139 107.619185,24.0616889 C105.926439,24.435087 104.204507,24.6079028 103.679172,24.6079028 C102.832799,24.6079028 101.782129,24.2045602 101.782129,23.080963 C101.782129,22.0726065 102.628502,21.2659213 104.729842,21.2659213 C105.868068,21.2659213 107.152221,21.4387824 108.553114,21.7544694 C110.041564,22.0725157 111.354901,22.4759491 112.639054,22.4759491 C114.419356,22.4759491 116.024547,21.842125 116.024547,19.2780185 L116.024547,4.35311759 L117.454626,3.14191019 L117.192188,2.88388889 Z M112.172319,10.3457269 C111.851051,10.6914491 111.325946,11.0371713 110.713055,11.0371713 C110.041793,11.0371713 109.545644,10.6338287 109.224606,10.3457269 L109.224606,4.95822222 L110.479573,4.12272685 L112.172319,5.64966667 L112.172319,10.3457269 Z M112.172319,13.947 C111.880466,13.6602593 111.355131,13.3419861 110.713055,13.3419861 C110.070979,13.3419861 109.487273,13.7153843 109.224606,13.947 L109.224606,10.7778796 C109.487503,11.007 110.070979,11.4104787 110.713055,11.4104787 C111.355131,11.4104787 111.880466,11.0661176 112.172319,10.7778796 L112.172319,13.947 Z M112.172319,19.5937963 C112.172319,20.5733426 111.501058,21.5228537 110.216905,21.5228537 C110.012378,21.5228537 109.428903,21.4956315 109.224606,21.4665944 L109.224606,14.3792889 C109.516458,14.118863 110.041793,13.715475 110.713055,13.715475 C111.325946,13.715475 111.822096,14.0625583 112.172319,14.3792889 L112.172319,19.5937963 Z M128.924672,11.0071361 L124.955473,8.21254815 L119.001675,11.5845648 L119.001675,19.4785556 L117.775894,20.4581019 L117.951005,20.7162593 L118.91412,19.9395639 L122.854133,22.7917722 L128.924672,19.1328787 L128.924672,11.0071361 Z M122.416354,18.6430602 L122.416354,10.0000046 L125.509994,12.1895787 L125.509994,20.8326343 L122.416354,18.6430602 Z M140.62797,8.53068519 C140.62797,8.55790741 140.394488,8.53068519 140.394488,8.53068519 C140.07322,8.81742593 139.664856,9.01923333 139.314633,9.01923333 C138.847668,9.01923333 138.234777,8.73249259 137.942924,8.35782407 L137.709442,8.35782407 L135.637287,10.6037935 L133.506761,8.35782407 L129.887786,10.834275 L130.062898,11.1210157 L131.026012,10.4884167 L132.280979,11.8136852 L132.280979,19.4483843 L130.646603,20.6595917 L130.85113,20.888712 L131.639133,20.3413185 L134.586846,22.8178148 L138.410119,20.3113287 L138.235007,20.0518102 L137.155151,20.6856343 L135.725072,19.4167611 L135.725072,10.9177565 C136.337963,11.5816157 137.067596,12.1578194 137.913969,12.1578194 C139.548345,12.1601787 140.453088,10.3739472 140.6282,8.53014074 L140.62797,8.53068519 Z M155.366538,20.1411898 L151.193043,22.8493472 L145.531098,14.407963 L149.529482,8.27257315 L149.792379,8.24535093 C150.259344,8.70631389 151.076531,9.19608704 151.835349,9.19608704 C152.681722,9.19608704 153.265428,8.73512407 153.615651,8.24535093 C153.615651,8.24535093 153.849133,8.27257315 153.849133,8.24535093 C153.703437,10.6942167 152.039646,12.0771056 150.784679,12.0771056 C149.500526,12.0771056 148.887635,11.5009019 148.216374,11.0975593 L147.837195,11.6449528 L153.966104,20.6049204 L155.191886,19.8558556 L155.366538,20.1411898 Z M141.882937,19.4497454 L140.248562,20.6609528 L140.452629,20.8900731 L141.240631,20.3426796 L143.984048,22.8191759 L147.661394,20.3991204 L147.456867,20.1400556 L146.522938,20.7450694 L145.326341,19.5650315 L145.326341,0.867221296 L145.063444,0.867221296 L140.627281,3.77705 L140.627281,4.03656852 C141.06483,4.29563333 141.882248,4.41087407 141.882248,5.88042037 L141.882937,19.4497454 Z M175.707486,3.37366204 C175.707486,0.982416667 173.431034,0.290972222 171.53399,0.377402778 L171.53399,0.751708333 C172.672216,0.778930556 173.547775,1.15505093 173.547775,1.90289074 C173.547775,2.42269907 173.168596,3.08410833 172.03014,3.08410833 C171.125396,3.08410833 169.374279,2.565525 167.973386,2.10456204 C166.426566,1.5859787 164.967301,1.09620556 163.74152,1.09620556 C161.348326,1.09620556 159.538839,2.85485185 159.538839,5.01439074 C159.538839,6.77303704 160.881362,7.40563611 161.435882,7.63734259 L161.610994,7.34924074 C161.26077,7.11875926 160.910547,6.86064722 160.910547,6.16920278 C160.910547,5.64943981 161.377512,4.81394444 162.603294,4.81394444 C163.712334,4.81394444 165.171598,5.30371759 167.097827,5.85111111 C168.761388,6.31207407 170.600061,6.74422685 171.592361,6.86064722 L171.592361,10.6047917 L169.724503,12.1329111 L169.724503,12.2771889 L171.592361,13.8905593 L171.592361,19.0475824 C170.629246,19.5949759 169.520206,19.7390269 168.557091,19.7390269 C166.776789,19.7390269 165.084043,19.2780639 163.74152,17.8087444 L168.761388,15.4174991 L168.761388,7.1477963 L162.603294,9.85713333 C163.24537,8.24258333 164.529522,7.17778611 165.84286,6.39873148 L165.755534,6.11062963 C162.107374,7.09017593 158.780251,10.4033472 158.780251,14.4943935 C158.780251,19.392125 162.80782,23.0209833 167.38991,23.0209833 C172.351408,23.0209833 175.503418,19.1904537 175.445048,15.1282176 L175.153195,15.1009954 C174.423563,16.6567454 173.372893,18.1260648 172.001185,18.9039398 L172.001185,13.8909676 L173.985784,12.3352176 L173.958207,12.1623565 L172.002793,10.6053815 L172.002793,6.86128241 C173.812281,6.86128241 175.709324,5.65125463 175.709324,3.37525 L175.707486,3.37366204 Z M165.054857,16.7703981 L163.566408,17.4906528 C162.720035,16.3958657 162.165514,14.9265463 162.165514,12.8810231 C162.165514,12.0455278 162.25284,11.0071361 162.515738,10.2881065 L165.084043,9.16450926 L165.056466,16.7703981 L165.054857,16.7703981 Z M179.910166,2.24883981 L179.735055,2.22161759 L177.283491,4.26714074 L177.283491,4.44000185 L179.355646,6.74481667 L179.560173,6.74481667 L182.011737,4.7281037 L181.98416,4.58382593 L179.912005,2.2490213 L179.910166,2.24883981 Z M183.645883,20.1411898 L182.711954,20.7462037 L181.515357,19.5661657 L181.515357,11.2088074 L182.682768,10.3445019 L182.449286,10.0577611 L181.544542,10.7480259 L179.414017,8.24153981 L175.911783,10.662775 L176.116309,10.9799139 L176.991868,10.4025306 L178.071723,11.7277991 L178.071723,19.5641694 L176.495718,20.744162 L176.67083,20.9746435 L177.488018,20.3984398 L180.173064,22.8184954 L183.850409,20.3984398 L183.645883,20.1411898 Z M204.075581,19.996912 L203.200022,20.5731157 L201.886685,19.3918981 L201.886685,11.1809954 L203.141652,10.2590694 L202.937125,9.99864352 L201.85727,10.8053287 L199.055482,8.24122222 L195.436507,10.7765185 L192.663905,8.24122222 L189.103301,10.7477083 L186.914405,8.24122222 L183.412171,10.6624574 L183.587282,10.9795963 L184.462841,10.402213 L185.659437,11.6986713 L185.659437,19.5350417 L184.696323,20.4857778 L187.49811,22.8181778 L190.212342,20.3981222 L189.103301,19.3621806 L189.103301,11.1812676 L190.153971,10.4898231 L192.051014,12.2172546 L192.051014,19.5362213 L191.117085,20.4869574 L193.948058,22.8194028 L196.603919,20.3993472 L195.494878,19.3633602 L195.494878,11.1224676 L196.428807,10.5174537 L198.442591,12.2172546 L198.442591,19.4198009 L197.625404,20.2552963 L200.485561,22.8194028 L204.250463,20.2852861 L204.075581,19.996912 Z M214.728209,18.1530602 L211.722125,20.4590546 L208.5993,18.0378194 L208.5993,16.5973102 L214.407171,12.7667352 L214.407171,12.592513 L211.517828,8.21336481 L205.184622,11.5565259 L205.184622,19.7674287 L209.416488,22.7913185 L214.961692,18.4697907 L214.728209,18.1530602 Z M208.5993,16.1651574 L208.5993,10.2302593 L208.803827,10.0859815 L211.488873,14.2634583 L208.5993,16.1651574 Z M225.935358,15.0367509 L223.57135,13.2793296 C225.147355,11.9252509 225.760246,10.1089843 225.760246,8.8713713 C225.760246,8.69851019 225.73267,8.38159815 225.701876,8.0934963 L225.410023,8.0934963 C225.176541,8.72732037 224.709576,9.27471389 223.746462,9.27471389 C222.812533,9.27471389 222.141271,8.75613056 221.557566,8.12108148 L216.041547,11.0897556 L216.041547,15.4977139 L218.084517,17.0822741 C216.012362,18.8973157 215.632953,20.1649639 215.632953,21.0868898 C215.632953,22.2969176 216.187473,23.1624028 217.238144,23.5645657 L217.38384,23.3041398 C217.121402,23.0750194 216.88769,22.9293806 216.88769,22.3822139 C216.88769,21.9788713 217.38384,21.4026676 218.317769,21.4026676 C219.514366,21.4026676 220.243998,22.2093528 220.623407,22.6415056 C220.623407,22.6142833 225.935128,19.5011954 225.935128,19.5011954 L225.935358,15.0367509 Z M224.62202,11.4054426 C223.804832,12.8459519 221.907789,14.2588759 220.857119,15.0655611 L219.514596,14.0283944 L219.514596,9.73567685 C220.039931,10.8880843 221.324083,11.8676306 222.724977,11.8676306 C223.542165,11.8676306 223.979944,11.7224454 224.62202,11.4054426 L224.62202,11.4054426 Z M222.462309,21.0292694 C221.849418,19.6751907 220.419339,18.6956444 218.960075,18.6956444 C218.609852,18.6956444 217.588367,18.6956444 216.654438,19.2730278 C217.208958,18.3499222 218.843334,16.6213111 220.944675,15.3836528 L222.462309,16.5360602 L222.462309,21.0292694 Z" id="path3698"></path>
                </g>
            </g>
        </g>
    </g>
</svg>