<?xml version="1.0" encoding="UTF-8"?>
<svg width="152px" height="31px" viewBox="0 0 152 31" version="1.1" xmlns="http://www.w3.org/2000/svg" xmlns:xlink="http://www.w3.org/1999/xlink">
    <!-- Generator: Sketch 45.2 (43514) - http://www.bohemiancoding.com/sketch -->
    <title>Wired_logo</title>
    <desc>Created with Sketch.</desc>
    <defs></defs>
    <g id="Page-1" stroke="none" stroke-width="1" fill="none" fill-rule="evenodd">
        <g id="Home" transform="translate(-566.000000, -760.000000)" fill-rule="nonzero">
            <g id="Group-13" transform="translate(250.000000, 711.000000)">
                <g id="Wired_logo" transform="translate(316.000000, 49.000000)">
                    <path d="M0,0 L30.4189526,0 C30.4189526,10.3320732 30.4189526,20.6679268 30.4189526,31 L0,31 L0,0 L0,0 Z M2.2401995,4.8654878 C3.59720698,11.167561 4.81396509,17.5036585 6.12169576,23.8170732 C6.36049875,24.5731707 6.21266833,25.5712195 6.94802993,26.0778049 C8.27471322,26.2895122 9.63551122,26.2365854 10.9735661,26.1458537 C11.7013466,26.1685366 11.8757107,25.3141463 12.0083791,24.7659756 C12.9218953,20.2709756 13.9150125,15.7910976 14.8247382,11.2960976 C14.8967581,10.8802439 15.0256359,10.4757317 15.2227431,10.1014634 C16.3561097,14.9253659 17.2923691,19.7908537 18.3461347,24.629878 C18.4901746,25.1440244 18.5204988,25.7791463 19.0284289,26.0929268 C20.476409,26.2668293 21.9622943,26.2819512 23.4064838,26.0815854 C23.9257855,25.7753659 23.9523192,25.1440244 24.0849875,24.6223171 C25.4230424,18.0404878 26.6701247,11.4321951 28.08399,4.8654878 C26.8065835,4.87304878 25.5329676,4.86926829 24.2593516,4.86926829 C23.2434913,10.5967073 22.4285287,16.3619512 21.3065337,22.0704878 C20.0442893,17.2276829 19.1990025,12.2676829 18.0997506,7.3795122 C17.8495761,6.54402439 17.9632918,5.32670732 17.045985,4.90329268 C15.92399,4.8352439 14.794414,4.83146341 13.672419,4.90329268 C13.035611,4.95621951 12.8915711,5.70853659 12.7664838,6.20756098 C11.7506234,11.0541463 10.6854863,15.8893902 9.69236908,20.7359756 C9.59002494,21.1858537 9.43840399,21.6168293 9.26783042,22.0440244 C8.24817955,16.3317073 7.28159601,10.6042683 6.40219451,4.86926829 C5.01486284,4.8654878 3.62753117,4.87304878 2.2401995,4.8654878 Z" id="Shape" fill="#021E46"></path>
                    <path d="M30.4189526,0 L60.553616,0 C60.553616,10.3320732 60.553616,20.6679268 60.553616,31 L30.4189526,31 C30.4189526,20.6679268 30.4189526,10.3320732 30.4189526,0 L30.4189526,0 Z M38.1364589,4.66134146 C38.1212968,5.93158537 38.1212968,7.19804878 38.1364589,8.46829268 C39.8687282,8.47963415 41.6009975,8.47207317 43.3332668,8.47207317 C43.3256858,13.1560976 43.3256858,17.8439024 43.3332668,22.5279268 C41.6009975,22.5279268 39.8687282,22.5203659 38.1364589,22.5317073 C38.1212968,23.8019512 38.1212968,25.0684146 38.1402494,26.3386585 C43.037606,26.35 47.9349626,26.35 52.8323192,26.3386585 C52.8512718,25.0721951 52.8474813,23.8019512 52.8399002,22.5354878 C51.1038404,22.5203659 49.3715711,22.5279268 47.6393017,22.5279268 C47.6468828,17.8439024 47.6468828,13.1560976 47.6393017,8.47207317 C49.3715711,8.47207317 51.1038404,8.47963415 52.8361097,8.46829268 C52.8512718,7.19804878 52.8512718,5.92780488 52.8323192,4.66134146 C47.9349626,4.65 43.037606,4.65 38.1364589,4.66134146 Z" id="Shape" fill="#FFFFFF"></path>
                    <path d="M60.553616,0 L90.9725686,0 C90.9725686,10.3320732 90.9725686,20.6679268 90.9725686,31 L60.553616,31 C60.553616,20.6679268 60.553616,10.3320732 60.553616,0 L60.553616,0 Z M67.4258354,4.86926829 C67.4258354,11.9576829 67.4258354,19.0423171 67.4258354,26.1307317 C68.8283292,26.1307317 70.2346135,26.1307317 71.6408978,26.1307317 C71.6408978,23.3596341 71.6408978,20.5847561 71.6408978,17.8136585 C73.9265835,17.8212195 76.2122693,17.8023171 78.4979551,17.817439 C79.3318703,17.7380488 80.3249875,18.3315854 80.3060349,19.2464634 C80.4121696,21.545 80.6092768,23.8359756 80.7533167,26.1307317 C82.0913716,26.1307317 83.4256359,26.1307317 84.7636908,26.1345122 C84.3846384,23.5335366 84.8508728,20.8456098 84.1155112,18.297561 C83.7364589,16.9630488 82.2581546,16.6643902 81.1058354,16.3317073 C81.9624938,15.8780488 83.0617456,15.8364634 83.6833915,15.0047561 C84.5855362,13.8630488 84.6499751,12.3395122 84.6537656,10.9482927 C84.6386035,9.32268293 84.6765087,7.5345122 83.6416958,6.1697561 C82.8153616,5.03560976 81.2688279,4.86926829 79.9724688,4.86926829 C75.7915212,4.8654878 71.606783,4.86926829 67.4258354,4.86926829 Z" id="Shape" fill="#021E46"></path>
                    <path d="M90.9725686,0 L121.201995,0 C121.201995,10.3320732 121.201995,20.6679268 121.201995,31 L90.9725686,31 C90.9725686,20.6679268 90.9725686,10.3320732 90.9725686,0 L90.9725686,0 Z M96.4081796,4.66512195 C96.3930175,5.92780488 96.3930175,7.19426829 96.4005985,8.45695122 C97.367182,8.47585366 98.3337656,8.47585366 99.3003491,8.46829268 C99.3193017,13.1560976 99.3193017,17.8439024 99.3003491,22.5317073 C98.3337656,22.5241463 97.3709726,22.5241463 96.404389,22.5354878 C96.3930175,23.8019512 96.3892269,25.0684146 96.4081796,26.334878 C102.503342,26.3537805 108.594713,26.3537805 114.689875,26.334878 C114.7202,23.8284146 114.701247,21.3219512 114.701247,18.8154878 C113.378354,18.8041463 112.055461,18.8041463 110.732569,18.8192683 C110.728778,20.0554878 110.728778,21.2917073 110.732569,22.5279268 C108.321796,22.5317073 105.911022,22.5128049 103.500249,22.5392683 C103.462344,20.6830488 103.488878,18.8230488 103.481297,16.9668293 C105.376559,16.9668293 107.27182,16.9668293 109.167082,16.9668293 C109.167082,15.7608537 109.167082,14.554878 109.167082,13.3489024 C107.27182,13.3489024 105.376559,13.3489024 103.481297,13.3489024 C103.481297,11.7232927 103.477506,10.0976829 103.485087,8.47207317 C105.835212,8.47585366 108.181546,8.47585366 110.531671,8.47207317 C110.52409,9.55329268 110.52409,10.6345122 110.52788,11.7195122 C111.82803,11.7195122 113.12818,11.7195122 114.428329,11.7195122 C114.424539,9.36804878 114.43212,7.01658537 114.424539,4.66512195 C108.416559,4.64621951 102.412369,4.64621951 96.4081796,4.66512195 Z" id="Shape" fill="#FFFFFF"></path>
                    <path d="M121.201995,0 L152,0 L152,31 L121.201995,31 C121.201995,20.6679268 121.201995,10.3320732 121.201995,0 L121.201995,0 Z M128.074214,4.86926829 C128.074214,11.9576829 128.074214,19.0423171 128.074214,26.1307317 C131.618354,26.1231707 135.158703,26.1458537 138.702843,26.1193902 C140.886185,26.0778049 143.429626,25.6732927 144.744938,23.722561 C146.2801,21.2728049 146.048878,18.274878 146.318005,15.5113415 C146.045087,12.7440244 146.287681,9.7347561 144.744938,7.27743902 C143.520599,5.45146341 141.178055,4.97134146 139.1198,4.89573171 C135.439202,4.8352439 131.754813,4.88439024 128.074214,4.86926829 Z" id="Shape" fill="#021E46"></path>
                    <path d="M38.1364589,4.66134146 C43.037606,4.65 47.9349626,4.65 52.8323192,4.66134146 C52.8512718,5.92780488 52.8512718,7.19804878 52.8361097,8.46829268 C51.1038404,8.47963415 49.3715711,8.47207317 47.6393017,8.47207317 C47.6468828,13.1560976 47.6468828,17.8439024 47.6393017,22.5279268 C49.3715711,22.5279268 51.1038404,22.5203659 52.8399002,22.5354878 C52.8474813,23.8019512 52.8512718,25.0721951 52.8323192,26.3386585 C47.9349626,26.35 43.037606,26.35 38.1402494,26.3386585 C38.1212968,25.0684146 38.1212968,23.8019512 38.1364589,22.5317073 C39.8687282,22.5203659 41.6009975,22.5279268 43.3332668,22.5279268 C43.3256858,17.8439024 43.3256858,13.1560976 43.3332668,8.47207317 C41.6009975,8.47207317 39.8687282,8.47963415 38.1364589,8.46829268 C38.1212968,7.19804878 38.1212968,5.93158537 38.1364589,4.66134146 Z" id="Shape" fill="#021E46"></path>
                    <path d="M96.4081796,4.66512195 C102.412369,4.64621951 108.416559,4.64621951 114.424539,4.66512195 C114.43212,7.01658537 114.424539,9.36804878 114.428329,11.7195122 C113.12818,11.7195122 111.82803,11.7195122 110.52788,11.7195122 C110.52409,10.6345122 110.52409,9.55329268 110.531671,8.47207317 C108.181546,8.47585366 105.835212,8.47585366 103.485087,8.47207317 C103.477506,10.0976829 103.481297,11.7232927 103.481297,13.3489024 C105.376559,13.3489024 107.27182,13.3489024 109.167082,13.3489024 C109.167082,14.554878 109.167082,15.7608537 109.167082,16.9668293 C107.27182,16.9668293 105.376559,16.9668293 103.481297,16.9668293 C103.488878,18.8230488 103.462344,20.6830488 103.500249,22.5392683 C105.911022,22.5128049 108.321796,22.5317073 110.732569,22.5279268 C110.728778,21.2917073 110.728778,20.0554878 110.732569,18.8192683 C112.055461,18.8041463 113.378354,18.8041463 114.701247,18.8154878 C114.701247,21.3219512 114.7202,23.8284146 114.689875,26.334878 C108.594713,26.3537805 102.503342,26.3537805 96.4081796,26.334878 C96.3892269,25.0684146 96.3930175,23.8019512 96.404389,22.5354878 C97.3709726,22.5241463 98.3337656,22.5241463 99.3003491,22.5317073 C99.3193017,17.8439024 99.3193017,13.1560976 99.3003491,8.46829268 C98.3337656,8.47585366 97.367182,8.47585366 96.4005985,8.45695122 C96.3930175,7.19426829 96.3930175,5.92780488 96.4081796,4.66512195 Z" id="Shape" fill="#021E46"></path>
                    <path d="M2.2401995,4.8654878 C3.62753117,4.87304878 5.01486284,4.8654878 6.40219451,4.86926829 C7.28159601,10.6042683 8.24817955,16.3317073 9.26783042,22.0440244 C9.43840399,21.6168293 9.59002494,21.1858537 9.69236908,20.7359756 C10.6854863,15.8893902 11.7506234,11.0541463 12.7664838,6.20756098 C12.8915711,5.70853659 13.035611,4.95621951 13.672419,4.90329268 C14.794414,4.83146341 15.92399,4.8352439 17.045985,4.90329268 C17.9632918,5.32670732 17.8495761,6.54402439 18.0997506,7.3795122 C19.1990025,12.2676829 20.0442893,17.2276829 21.3065337,22.0704878 C22.4285287,16.3619512 23.2434913,10.5967073 24.2593516,4.86926829 C25.5329676,4.86926829 26.8065835,4.87304878 28.08399,4.8654878 C26.6701247,11.4321951 25.4230424,18.0404878 24.0849875,24.6223171 C23.9523192,25.1440244 23.9257855,25.7753659 23.4064838,26.0815854 C21.9622943,26.2819512 20.476409,26.2668293 19.0284289,26.0929268 C18.5204988,25.7791463 18.4901746,25.1440244 18.3461347,24.629878 C17.2923691,19.7908537 16.3561097,14.9253659 15.2227431,10.1014634 C15.0256359,10.4757317 14.8967581,10.8802439 14.8247382,11.2960976 C13.9150125,15.7910976 12.9218953,20.2709756 12.0083791,24.7659756 C11.8757107,25.3141463 11.7013466,26.1685366 10.9735661,26.1458537 C9.63551122,26.2365854 8.27471322,26.2895122 6.94802993,26.0778049 C6.21266833,25.5712195 6.36049875,24.5731707 6.12169576,23.8170732 C4.81396509,17.5036585 3.59720698,11.167561 2.2401995,4.8654878 Z" id="Shape" fill="#FFFFFF"></path>
                    <path d="M67.4258354,4.86926829 C71.606783,4.86926829 75.7915212,4.8654878 79.9724688,4.86926829 C81.2688279,4.86926829 82.8153616,5.03560976 83.6416958,6.1697561 C84.6765087,7.5345122 84.6386035,9.32268293 84.6537656,10.9482927 C84.6499751,12.3395122 84.5855362,13.8630488 83.6833915,15.0047561 C83.0617456,15.8364634 81.9624938,15.8780488 81.1058354,16.3317073 C82.2581546,16.6643902 83.7364589,16.9630488 84.1155112,18.297561 C84.8508728,20.8456098 84.3846384,23.5335366 84.7636908,26.1345122 C83.4256359,26.1307317 82.0913716,26.1307317 80.7533167,26.1307317 C80.6092768,23.8359756 80.4121696,21.545 80.3060349,19.2464634 C80.3249875,18.3315854 79.3318703,17.7380488 78.4979551,17.817439 C76.2122693,17.8023171 73.9265835,17.8212195 71.6408978,17.8136585 C71.6408978,20.5847561 71.6408978,23.3596341 71.6408978,26.1307317 C70.2346135,26.1307317 68.8283292,26.1307317 67.4258354,26.1307317 C67.4258354,19.0423171 67.4258354,11.9576829 67.4258354,4.86926829 L67.4258354,4.86926829 Z M71.6408978,8.36243902 C71.6408978,10.4152439 71.6408978,12.4680488 71.6408978,14.5208537 C74.161596,14.4868293 76.6898753,14.5964634 79.206783,14.4679268 C80.56,14.3885366 80.5789526,12.7667073 80.63202,11.7535366 C80.5903242,10.6382927 80.798803,9.15634146 79.756409,8.41914634 C77.0575561,8.27926829 74.3473317,8.40402439 71.6408978,8.36243902 Z" id="Shape" fill="#FFFFFF"></path>
                    <path d="M128.074214,4.86926829 C131.754813,4.88439024 135.439202,4.8352439 139.1198,4.89573171 C141.178055,4.97134146 143.520599,5.45146341 144.744938,7.27743902 C146.287681,9.7347561 146.045087,12.7440244 146.318005,15.5113415 C146.048878,18.274878 146.2801,21.2728049 144.744938,23.722561 C143.429626,25.6732927 140.886185,26.0778049 138.702843,26.1193902 C135.158703,26.1458537 131.618354,26.1231707 128.074214,26.1307317 C128.074214,19.0423171 128.074214,11.9576829 128.074214,4.86926829 L128.074214,4.86926829 Z M132.289277,8.36243902 C132.289277,13.1220732 132.289277,17.8779268 132.289277,22.637561 C134.446085,22.6337805 136.602893,22.6413415 138.763491,22.6413415 C139.798304,22.6602439 141.052968,22.3880488 141.538155,21.3597561 C142.262145,19.7681707 142.08399,17.9762195 142.144638,16.2787805 C142.065037,14.1541463 142.368279,11.9387805 141.65187,9.89731707 C141.329676,8.85390244 140.165985,8.35865854 139.146334,8.37 C136.860648,8.34731707 134.574963,8.37378049 132.289277,8.36243902 Z" id="Shape" fill="#FFFFFF"></path>
                    <path d="M71.6408978,8.36243902 C74.3473317,8.40402439 77.0575561,8.27926829 79.756409,8.41914634 C80.798803,9.15634146 80.5903242,10.6382927 80.63202,11.7535366 C80.5789526,12.7667073 80.56,14.3885366 79.206783,14.4679268 C76.6898753,14.5964634 74.161596,14.4868293 71.6408978,14.5208537 C71.6408978,12.4680488 71.6408978,10.4152439 71.6408978,8.36243902 Z" id="Shape" fill="#021E46"></path>
                    <path d="M132.289277,8.36243902 C134.574963,8.37378049 136.860648,8.34731707 139.146334,8.37 C140.165985,8.35865854 141.329676,8.85390244 141.65187,9.89731707 C142.368279,11.9387805 142.065037,14.1541463 142.144638,16.2787805 C142.08399,17.9762195 142.262145,19.7681707 141.538155,21.3597561 C141.052968,22.3880488 139.798304,22.6602439 138.763491,22.6413415 C136.602893,22.6413415 134.446085,22.6337805 132.289277,22.637561 C132.289277,17.8779268 132.289277,13.1220732 132.289277,8.36243902 Z" id="Shape" fill="#021E46"></path>
                </g>
            </g>
        </g>
    </g>
</svg>