<?xml version="1.0" encoding="UTF-8"?>
<svg width="67px" height="32px" viewBox="0 0 67 32" version="1.1" xmlns="http://www.w3.org/2000/svg" xmlns:xlink="http://www.w3.org/1999/xlink">
    <!-- Generator: Sketch 45.2 (43514) - http://www.bohemiancoding.com/sketch -->
    <title>logo_CNN</title>
    <desc>Created with Sketch.</desc>
    <defs></defs>
    <g id="Page-1" stroke="none" stroke-width="1" fill="none" fill-rule="evenodd">
        <g id="Landing" transform="translate(-787.000000, -700.000000)" fill-rule="nonzero" fill="#FFFFFF">
            <g id="logo_CNN" transform="translate(787.000000, 700.000000)">
                <path d="M5.06797834,15.5391469 C5.06797834,21.2361915 9.70279165,25.8710048 15.3998311,25.8710048 L25.0503694,25.8710048 C25.6564424,25.8710048 26.1264779,25.2949121 26.1264779,24.7987845 L26.1264779,5.86556698 C26.1264779,4.66951782 27.0995853,3.69613989 28.2953499,3.69613989 C29.0624528,3.69613989 29.7773574,4.10287198 30.1604938,4.75808324 C30.2085243,4.84054795 33.1303413,9.87792531 36.2234517,15.2115413 C39.1788619,20.3080586 42.2353272,25.5781052 42.2833577,25.6608325 C42.4380002,25.9245862 42.7403411,26.0947779 43.0540694,26.0947779 C43.5510293,26.0947779 43.9555431,25.6905456 43.9555431,25.1933001 L43.9555431,5.86556698 C43.9555431,4.66951782 44.9280956,3.69613989 46.1244191,3.69613989 C46.89152,3.69613989 47.6064246,4.10287198 47.9892815,4.75808324 C48.0378709,4.84054795 50.9571849,9.87792531 54.0483592,15.2118218 C57.0009869,20.3072283 60.0546777,25.5758754 60.103818,25.6608325 C60.2584605,25.9245862 60.5608014,26.0947779 60.8745297,26.0947779 C61.3714978,26.0947779 61.7754485,25.6905456 61.7754485,25.1933001 L61.7754485,0.135207373 L57.9715972,0.135207373 L57.9715972,15.0510685 C57.9715972,15.0510685 51.0793461,3.18806585 50.8561258,2.80659931 C49.8499821,1.08665795 47.9420833,0 45.9114765,0 C42.7306265,0 40.1511369,2.58060721 40.1511369,5.76117448 L40.1511369,15.0510688 C40.1511369,15.0510688 33.2591591,3.18806617 33.0356675,2.80659962 C32.0295198,1.08665795 30.121625,0 28.0910142,0 C24.9101682,0 22.3306746,2.58060721 22.3306746,5.76117448 L22.3306746,21.0262992 C22.3326167,21.5818447 21.9150569,22.066034 21.3070377,22.0671438 L15.440644,22.0671438 C11.8355724,22.0671438 8.91292401,19.1445026 8.91292401,15.5391474 C8.91292401,11.9338014 11.8355724,9.01115103 15.440644,9.01115103 L20.3544775,9.01115103 L20.3544775,5.20729721 L15.3998311,5.20729721 C9.70279165,5.20729721 5.06797834,9.84211052 5.06797834,15.5391469" id="Shape"></path>
                <path d="M63.0436261,0.135088765 L63.0436261,25.1934612 C63.0436261,26.3897807 62.0710695,27.362888 60.87475,27.362888 C60.1076492,27.362888 59.3927404,26.9561547 59.0096021,26.3012147 C58.9615797,26.2187587 56.0417069,21.1811024 52.9510915,15.8474854 C49.9979048,10.7523501 46.9450464,5.48314306 46.8950697,5.39846747 C46.7409861,5.13472044 46.4380862,4.96424978 46.124362,4.96424978 C45.627398,4.96424978 45.2234391,5.36848257 45.2234391,5.86544858 L45.2234391,25.1934617 C45.2234391,26.3897812 44.2503358,27.3628885 43.0542897,27.3628885 C42.2871889,27.3628885 41.5728391,26.9561552 41.1891459,26.3012152 C41.1411194,26.2187592 38.2193044,21.1813742 35.126188,15.8474859 C32.1705023,10.7512409 29.1143145,5.48120351 29.0660025,5.39846798 C28.9113619,5.13472095 28.609019,4.96425029 28.2952948,4.96425029 C27.7983288,4.96425029 27.3943719,5.36848308 27.3943719,5.86544909 L27.3943719,24.7989385 C27.3943719,26.0455182 26.2991095,27.1391159 25.0505938,27.1391159 L15.4000504,27.1391159 C9.00393187,27.1391159 3.79996909,21.935707 3.79996909,15.5390295 C3.79996909,9.14291099 9.00393238,3.93923178 15.4000504,3.93923178 L20.3544204,3.93923178 L20.3544204,0.135088765 L15.4044946,0.135088765 C6.89697029,0.135088765 0,7.03151242 0,15.5390286 C0,24.0468329 6.89697029,30.9435273 15.4044946,30.9435273 L25.1474871,30.9435273 C28.8383451,30.9454674 31.2118323,28.7829807 31.2068383,24.7942189 L31.2068383,16.0079584 C31.2068383,16.0079584 38.1482297,27.9553582 38.3225831,28.2526989 C39.3287267,29.972362 41.2366256,31.0590196 43.2672323,31.0590196 C46.4483598,31.0590196 49.0272986,28.4784203 49.0272986,25.2981231 L49.0272986,16.0079584 C49.0272986,16.0079584 55.9195498,27.8712334 56.1427659,28.2526989 C57.149187,29.972362 59.0570859,31.0590196 61.0876926,31.0590196 C64.2685427,31.0590196 66.8477589,28.4784203 66.8477589,25.2981231 L66.8477589,0.135088765 L63.0436261,0.135088765 Z" id="Shape"></path>
            </g>
        </g>
    </g>
</svg>