<svg xmlns="http://www.w3.org/2000/svg" width="22.176" height="22.176" viewBox="0 0 22.176 22.176">
    <defs>
        <style>
            .prefix__cls-3{fill:#fff}
        </style>
    </defs>
    <g id="prefix__noun_User_2905476" style="opacity:.5">
        <path id="prefix__Path_1" d="M76.726 225h6.032a3.874 3.874 0 0 1 3.785 3.016 8.635 8.635 0 0 1-6.8 3.312A8.518 8.518 0 0 1 73 228.016 3.808 3.808 0 0 1 76.726 225z" data-name="Path 1" transform="translate(-68.683 -211.695)" style="fill-rule:evenodd;fill:#fff"/>
        <ellipse id="prefix__Ellipse_1" cx="3.808" cy="3.618" class="prefix__cls-3" data-name="Ellipse 1" rx="3.808" ry="3.618" transform="translate(7.324 4.95)"/>
        <path id="prefix__Path_2" d="M11.058 0A11.088 11.088 0 1 1 0 11.058 11.092 11.092 0 0 1 11.058 0zm0 1.478a9.58 9.58 0 1 0 9.58 9.58 9.616 9.616 0 0 0-9.58-9.58z" class="prefix__cls-3" data-name="Path 2"/>
    </g>
</svg>