<svg id="Layer_1" data-name="Layer 1" xmlns="http://www.w3.org/2000/svg" xmlns:xlink="http://www.w3.org/1999/xlink" viewBox="0 0 203.5 267.41"><defs><style>.cls-1,.cls-10,.cls-11{fill:none;}.cls-2{clip-path:url(#clip-path);}.cls-3{fill:#fff;}.cls-4{fill:#16467b;}.cls-5{fill:#144270;}.cls-6{fill:#0a1827;}.cls-7{fill:#11274b;}.cls-8{fill:#3d8e42;}.cls-9{fill:#55b64c;}.cls-10,.cls-11{stroke:#fff;stroke-linecap:round;}.cls-10,.cls-11,.cls-41{stroke-miterlimit:10;}.cls-10{stroke-width:3.1px;}.cls-11{stroke-width:0.26px;}.cls-12{fill:#f9c243;}.cls-13{fill:#3194d1;}.cls-14{fill:#d73a31;}.cls-15{fill:#f4b137;}.cls-16{fill:#eba230;}.cls-17{fill:#f6bc47;}.cls-18{fill:#6d6e6e;}.cls-19{opacity:0.3;}.cls-20{fill:#607180;}.cls-21{fill:#f9aa85;}.cls-22{fill:#e64d3c;}.cls-23{fill:#1c1c1c;}.cls-24{fill:#2a7faa;}.cls-25{fill:#cc826e;}.cls-26{fill:#d88b73;}.cls-27{fill:#010101;}.cls-28{clip-path:url(#clip-path-2);}.cls-29{fill:#70abdc;}.cls-30{fill:#598ac8;}.cls-31{fill:#2472b9;}.cls-32{fill:#28276f;}.cls-33{fill:#2c3089;}.cls-34{fill:#f8a07c;}.cls-35{fill:#995023;}.cls-36{fill:#1abcbc;}.cls-37{fill:#1d3766;}.cls-38{clip-path:url(#clip-path-3);}.cls-39{clip-path:url(#clip-path-4);}.cls-40{clip-path:url(#clip-path-5);}.cls-41{fill:#0e2045;stroke:#3194d1;}</style><clipPath id="clip-path" transform="translate(-23.25 -6.49)"><polygon class="cls-1" points="107.74 28.03 107.02 6.1 172.8 30.04 173.52 51.98 107.74 28.03"/></clipPath><clipPath id="clip-path-2" transform="translate(-23.25 -6.49)"><polygon class="cls-1" points="162.15 198.59 179.94 206.33 174.72 211.72 156.45 203.78 162.15 198.59"/></clipPath><clipPath id="clip-path-3" transform="translate(-23.25 -6.49)"><polygon class="cls-1" points="34.63 72.57 34.47 67.54 40.16 69.61 40.32 74.64 34.63 72.57"/></clipPath><clipPath id="clip-path-4" transform="translate(-23.25 -6.49)"><polygon class="cls-1" points="71.85 86.54 71.68 81.5 87.29 87.18 87.46 92.22 71.85 86.54"/></clipPath><clipPath id="clip-path-5" transform="translate(-23.25 -6.49)"><polygon class="cls-1" points="109.54 101.18 109.33 94.86 140.92 106.36 141.13 112.67 109.54 101.18"/></clipPath></defs><g class="cls-2"><path class="cls-3" d="M124,12.6l-4-1.45-3.1,11.4a35.65,35.65,0,0,0-.81,4.34,16.15,16.15,0,0,0-.45-2.22c-.24-1.08-.47-2-.69-2.83L111,7.94l-4-1.45,7,23.6,4.3,1.56,5.62-19" transform="translate(-23.25 -6.49)"/><path class="cls-3" d="M134.9,34.19a6.55,6.55,0,0,1-3.59-3.1A12.85,12.85,0,0,1,130,25.28q-.12-3.57,1-5c.76-.92,1.92-1.1,3.49-.53,3.13,1.14,4.77,4.12,4.92,8.91s-1.33,6.62-4.48,5.48M134.31,16q-4.27-1.56-6.48.42t-2,7.28a17.33,17.33,0,0,0,2.56,9,13,13,0,0,0,6.66,5.23c2.85,1,5,.89,6.47-.45s2.14-3.78,2-7.3a17.22,17.22,0,0,0-2.54-9A13,13,0,0,0,134.33,16" transform="translate(-23.25 -6.49)"/><polyline class="cls-3" points="136 18.95 121.95 13.84 122.07 17.6 127.12 19.44 127.7 36.99 131.65 38.42 131.07 20.88 136.12 22.72 136 18.95"/><polyline class="cls-3" points="149.56 23.89 138.85 20 139.55 41.3 150.26 45.2 150.14 41.47 143.37 39.01 143.19 33.51 149.49 35.8 149.37 32.1 143.07 29.81 142.92 25.13 149.69 27.59 149.56 23.89"/></g><path class="cls-4" d="M23.64,23.88a2.5,2.5,0,0,1,1.16-1.52l9.75-5.61a7.62,7.62,0,0,1,5.83-.42l181.15,60a7.64,7.64,0,0,1,5.22,7.25v8.24L213,98.7V90.45a7.62,7.62,0,0,0-5.22-7.24l-180-59.63c-.41-.12-1.2-.38-2-.64C24.7,22.58,23.64,23.88,23.64,23.88Z" transform="translate(-23.25 -6.49)"/><path class="cls-5" d="M23.59,35.94V24.06a1.33,1.33,0,0,1,1.33-1.33,1.25,1.25,0,0,1,.43.07L210.93,84.28a3,3,0,0,1,2,2.83v11.6Z" transform="translate(-23.25 -6.49)"/><path class="cls-6" d="M213,98.71V225.79L207.7,228v6.5a6.9,6.9,0,0,0,1.92.21,19,19,0,0,0,2.69-.4l9.61-3.78a7.62,7.62,0,0,0,4.83-7.11V91.83Z" transform="translate(-23.25 -6.49)"/><path class="cls-7" d="M23.59,35.94v125.4A6,6,0,0,0,27.5,167l180.16,67.46a4,4,0,0,0,5.08-2.48,4.09,4.09,0,0,0,.22-1.34V98.71Z" transform="translate(-23.25 -6.49)"/><path class="cls-3" d="M32.81,52.53a1.55,1.55,0,0,1-.36,1.11.93.93,0,0,1-1,.08,1.75,1.75,0,0,1-1-.77,2.51,2.51,0,0,1-.32-1.34,1.45,1.45,0,0,1,.36-1.11.93.93,0,0,1,1-.08,1.79,1.79,0,0,1,1,.77A2.51,2.51,0,0,1,32.81,52.53Zm-2-.71a2.05,2.05,0,0,0,.16.88.89.89,0,0,0,.52.45c.46.17.7-.11.71-.83S32,51.15,31.53,51a.46.46,0,0,0-.53.09A1.21,1.21,0,0,0,30.81,51.82Z" transform="translate(-23.25 -6.49)"/><path class="cls-3" d="M34.45,54.77a1,1,0,0,1-.57-.51h0v1.37l-.57-.2.07-3.53.46.16.07.35h0a.46.46,0,0,1,.6-.15,1,1,0,0,1,.57.54,2.16,2.16,0,0,1,.2,1,2.06,2.06,0,0,1-.11.65.58.58,0,0,1-.29.34A.54.54,0,0,1,34.45,54.77Zm-.13-2.06H34a.72.72,0,0,0-.11.47v.07a1.54,1.54,0,0,0,.09.6.52.52,0,0,0,.32.28c.25.09.39-.11.4-.6a1.44,1.44,0,0,0-.09-.58A.45.45,0,0,0,34.32,52.71Z" transform="translate(-23.25 -6.49)"/><path class="cls-3" d="M36.67,55.56a1.48,1.48,0,0,1-.78-.61,1.7,1.7,0,0,1-.27-1,1.14,1.14,0,0,1,.28-.86.67.67,0,0,1,.73-.08,1.24,1.24,0,0,1,.69.54,1.5,1.5,0,0,1,.23.9v.33L36.2,54.3a.87.87,0,0,0,.13.5.69.69,0,0,0,.38.29,1.55,1.55,0,0,0,.36.08h.35v.52a.86.86,0,0,1-.32,0A1.64,1.64,0,0,1,36.67,55.56Zm0-2.1a.26.26,0,0,0-.29,0,.52.52,0,0,0-.12.34l.8.28a.88.88,0,0,0-.11-.42.57.57,0,0,0-.36-.2Z" transform="translate(-23.25 -6.49)"/><path class="cls-3" d="M39.92,56.66l-.57-.2V55a.89.89,0,0,0-.08-.43.39.39,0,0,0-.25-.22.33.33,0,0,0-.35.06,1.2,1.2,0,0,0-.12.59v1.15L38,56V53.53l.44.15.07.34h0a.44.44,0,0,1,.27-.17.81.81,0,0,1,.38,0,1,1,0,0,1,.55.43,1.17,1.17,0,0,1,.18.73Z" transform="translate(-23.25 -6.49)"/><path class="cls-3" d="M42.17,54.23l.59.21-1,2.88-.63-.23-.87-3.53.58.2.48,2.1a3.1,3.1,0,0,1,.08.42l.06.33a3.78,3.78,0,0,1,.13-.67Z" transform="translate(-23.25 -6.49)"/><path class="cls-3" d="M44.33,58.22l-.11-.37h0a.6.6,0,0,1-.3.19.9.9,0,0,1-.4,0,1,1,0,0,1-.47-.37,1.1,1.1,0,0,1-.17-.64c0-.26.09-.43.25-.49a1.05,1.05,0,0,1,.7,0l.37.11v-.1a.47.47,0,0,0-.32-.49,1.18,1.18,0,0,0-.59,0l-.18-.52a1.37,1.37,0,0,1,.8.06,1.3,1.3,0,0,1,.64.44,1.24,1.24,0,0,1,.22.74v1.63ZM44.18,57,44,57a.48.48,0,0,0-.37,0,.24.24,0,0,0-.13.25.38.38,0,0,0,.27.38.31.31,0,0,0,.32,0,.4.4,0,0,0,.13-.31Z" transform="translate(-23.25 -6.49)"/><path class="cls-3" d="M46.16,58.94a1.46,1.46,0,0,1-1-1.6,1.14,1.14,0,0,1,.28-.86.72.72,0,0,1,.77-.06,1.69,1.69,0,0,1,.65.4l-.18.45-.25-.19A1,1,0,0,0,46.2,57c-.3-.11-.45.09-.46.58s.13.77.43.88a.81.81,0,0,0,.31.06.89.89,0,0,0,.28-.07v.53a.66.66,0,0,1-.28,0A1.71,1.71,0,0,1,46.16,58.94Z" transform="translate(-23.25 -6.49)"/><path class="cls-3" d="M48.13,59.61a1.46,1.46,0,0,1-1-1.6,1.14,1.14,0,0,1,.28-.86.72.72,0,0,1,.77-.06,1.74,1.74,0,0,1,.65.39l-.18.46c-.09-.07-.17-.14-.25-.19a1,1,0,0,0-.23-.13c-.3-.1-.45.09-.46.59s.14.77.43.88a.81.81,0,0,0,.31,0,.67.67,0,0,0,.28-.06v.57a.66.66,0,0,1-.28,0A1.75,1.75,0,0,1,48.13,59.61Z" transform="translate(-23.25 -6.49)"/><path class="cls-3" d="M49.29,56.87c0-.22.1-.29.31-.22a.41.41,0,0,1,.31.44.27.27,0,0,1-.09.21.24.24,0,0,1-.23,0A.4.4,0,0,1,49.29,56.87Zm.53,3.29-.57-.2V57.51l.57.2Z" transform="translate(-23.25 -6.49)"/><path class="cls-3" d="M52.35,61.06l-.57-.2V59.42a1,1,0,0,0-.07-.42.49.49,0,0,0-.26-.23.29.29,0,0,0-.35.07,1.17,1.17,0,0,0-.12.58v1.16l-.57-.2.05-2.46.43.16.07.34h0a.37.37,0,0,1,.26-.18.86.86,0,0,1,.39,0,1,1,0,0,1,.55.42,1.27,1.27,0,0,1,.17.74Z" transform="translate(-23.25 -6.49)"/><path class="cls-3" d="M53.89,61.65A1.59,1.59,0,0,1,53.1,61a1.85,1.85,0,0,1-.26-1,1.13,1.13,0,0,1,.28-.86.67.67,0,0,1,.73-.08,1.34,1.34,0,0,1,.68.54,1.62,1.62,0,0,1,.24.91v.32l-1.35-.47a1,1,0,0,0,.14.49.68.68,0,0,0,.37.3,1.55,1.55,0,0,0,.36.08,1,1,0,0,0,.35,0v.52a.91.91,0,0,1-.33,0A2.07,2.07,0,0,1,53.89,61.65Zm0-2.1a.28.28,0,0,0-.28,0,.56.56,0,0,0-.13.35l.8.28a.77.77,0,0,0-.1-.42.48.48,0,0,0-.34-.21Z" transform="translate(-23.25 -6.49)"/><path class="cls-3" d="M55.16,59.94a.38.38,0,0,1,.09-.25.28.28,0,0,1,.25,0,.43.43,0,0,1,.24.18.61.61,0,0,1,.08.3.29.29,0,0,1-.09.25.26.26,0,0,1-.24,0,.51.51,0,0,1-.25-.18A.61.61,0,0,1,55.16,59.94Zm0,1.81a.27.27,0,0,1,.09-.24.23.23,0,0,1,.25,0,.38.38,0,0,1,.23.18.48.48,0,0,1,.08.31.3.3,0,0,1-.09.24.21.21,0,0,1-.24,0,.43.43,0,0,1-.24-.18.48.48,0,0,1-.11-.34Z" transform="translate(-23.25 -6.49)"/><path class="cls-3" d="M58.15,63.83l-.9-.33.07-3.91.91.32v.46l-.42-.15-.06,3,.42.15Z" transform="translate(-23.25 -6.49)"/><path class="cls-3" d="M59.21,62.24v1.23l-.58-.2.06-3.21.79.28a1.8,1.8,0,0,1,.82.53,1.26,1.26,0,0,1,.26.82.86.86,0,0,1-.14.46.65.65,0,0,1-.39.21L60.81,64l-.64-.23-.63-1.46Zm0-.55.19.07a.55.55,0,0,0,.4,0,.28.28,0,0,0,.14-.29.5.5,0,0,0-.13-.37.82.82,0,0,0-.41-.24l-.18-.07Z" transform="translate(-23.25 -6.49)"/><path class="cls-3" d="M63,63.59a1.08,1.08,0,0,1-.28.84.72.72,0,0,1-.76.07,1.42,1.42,0,0,1-.53-.34,1.57,1.57,0,0,1-.34-.57,2,2,0,0,1-.11-.72,1.08,1.08,0,0,1,.28-.84A.74.74,0,0,1,62,62a1.33,1.33,0,0,1,.53.35,1.53,1.53,0,0,1,.34.56A2,2,0,0,1,63,63.59Zm-1.44-.51a1.15,1.15,0,0,0,.09.58A.59.59,0,0,0,62,64c.15,0,.26,0,.33-.07a.94.94,0,0,0,.11-.52,1.41,1.41,0,0,0-.09-.58.57.57,0,0,0-.33-.3c-.15,0-.26,0-.33.07a.9.9,0,0,0-.09.51Z" transform="translate(-23.25 -6.49)"/><path class="cls-3" d="M65,65.51l-.08-.34h0a.39.39,0,0,1-.26.17.86.86,0,0,1-.39,0,1,1,0,0,1-.55-.43,1.25,1.25,0,0,1-.17-.73v-1.6l.57.2v1.43a1.05,1.05,0,0,0,.07.43.44.44,0,0,0,.26.22.28.28,0,0,0,.35-.06,1.2,1.2,0,0,0,.12-.59V63.06l.57.2v2.46Z" transform="translate(-23.25 -6.49)"/><path class="cls-3" d="M67.91,66.56l-.57-.2V64.92a1,1,0,0,0-.07-.42.49.49,0,0,0-.26-.23c-.16,0-.28,0-.35.07a1.17,1.17,0,0,0-.12.58v1.16l-.57-.2V63.42l.43.16.07.34h0a.4.4,0,0,1,.26-.18.86.86,0,0,1,.39,0,1,1,0,0,1,.55.43,1.25,1.25,0,0,1,.17.73Z" transform="translate(-23.25 -6.49)"/><path class="cls-3" d="M69.16,67.05a1,1,0,0,1-.57-.55,2,2,0,0,1-.19-1,1.26,1.26,0,0,1,.23-.86.48.48,0,0,1,.59-.13,1,1,0,0,1,.6.57h0a4.34,4.34,0,0,1,0-.51v-.78l.57.2-.06,3.41-.44-.15-.1-.36h0A.46.46,0,0,1,69.16,67.05Zm.21-.47a.33.33,0,0,0,.33,0,.87.87,0,0,0,.12-.47V66a1.4,1.4,0,0,0-.1-.61.59.59,0,0,0-.33-.29.24.24,0,0,0-.3.09,1,1,0,0,0-.12.51,1.27,1.27,0,0,0,.1.58.51.51,0,0,0,.3.26Z" transform="translate(-23.25 -6.49)"/><path class="cls-3" d="M73.69,68.6l-1.92-.68v-.47l.7-.57a2.41,2.41,0,0,0,.41-.37A.6.6,0,0,0,73,66.3a.49.49,0,0,0,0-.24.62.62,0,0,0-.09-.32.48.48,0,0,0-.55-.18,1.27,1.27,0,0,0-.32.13l-.3-.54A1.35,1.35,0,0,1,72.1,65a1.41,1.41,0,0,1,.29,0,1.37,1.37,0,0,1,.35.08,1.29,1.29,0,0,1,.45.27,1.25,1.25,0,0,1,.3.42,1.19,1.19,0,0,1,0,.88,1.85,1.85,0,0,1-.21.33,3.9,3.9,0,0,1-.51.4l-.35.27h0l1.19.42Z" transform="translate(-23.25 -6.49)"/><path class="cls-3" d="M73.9,68.94l.42.14v-3l-.42-.15v-.46l.91.32-.07,3.92-.91-.32Z" transform="translate(-23.25 -6.49)"/><path class="cls-3" d="M78.72,68.73a1.3,1.3,0,0,1-.41,1.08,1.17,1.17,0,0,1-1.12,0l-.77-.27.06-3.21.85.3a2,2,0,0,1,1,.78A2.3,2.3,0,0,1,78.72,68.73Zm-.61-.19a1.2,1.2,0,0,0-.76-1.31L77,67.12v2.09l.25.09C77.81,69.49,78.1,69.24,78.11,68.54Z" transform="translate(-23.25 -6.49)"/><path class="cls-3" d="M80.15,70.94a1.55,1.55,0,0,1-.78-.6,1.86,1.86,0,0,1-.27-1,1.14,1.14,0,0,1,.28-.86.69.69,0,0,1,.74-.08,1.29,1.29,0,0,1,.68.54,1.5,1.5,0,0,1,.23.9v.33l-1.35-.48a1,1,0,0,0,.13.5.69.69,0,0,0,.38.29,1.17,1.17,0,0,0,.36.08h.35v.52a.86.86,0,0,1-.32,0A2.16,2.16,0,0,1,80.15,70.94Zm0-2.09a.26.26,0,0,0-.29,0,.52.52,0,0,0-.12.34l.8.28a.87.87,0,0,0-.1-.42.56.56,0,0,0-.33-.21Z" transform="translate(-23.25 -6.49)"/><path class="cls-3" d="M82.94,71.14a.5.5,0,0,1-.23.5.87.87,0,0,1-.67,0,2.32,2.32,0,0,1-.39-.18,1.61,1.61,0,0,1-.3-.21V70.7a2.42,2.42,0,0,0,.36.27,1.16,1.16,0,0,0,.35.18c.2.08.31,0,.31-.1a.33.33,0,0,0,0-.14,1.07,1.07,0,0,0-.14-.16,1.55,1.55,0,0,0-.27-.24,2.89,2.89,0,0,1-.35-.35.86.86,0,0,1-.2-.63.45.45,0,0,1,.22-.43.94.94,0,0,1,.62,0,2.12,2.12,0,0,1,.73.45L82.8,70l-.29-.24a1.51,1.51,0,0,0-.28-.15c-.17-.06-.25,0-.25.08a.24.24,0,0,0,.07.18,3.73,3.73,0,0,0,.36.32,1.93,1.93,0,0,1,.35.35,1.05,1.05,0,0,1,.17.29A.92.92,0,0,1,82.94,71.14Z" transform="translate(-23.25 -6.49)"/><path class="cls-3" d="M83.41,68.94c0-.22.11-.29.32-.22a.43.43,0,0,1,.3.44.22.22,0,0,1-.16.25.22.22,0,0,1-.16,0A.41.41,0,0,1,83.41,68.94Zm.54,3.3-.57-.2V69.58l.57.2Z" transform="translate(-23.25 -6.49)"/><path class="cls-3" d="M86.41,70.63v.31h-.32a1.1,1.1,0,0,1,.08.4.6.6,0,0,1-.25.54.82.82,0,0,1-.65,0h-.19A.16.16,0,0,0,85,72c0,.09.1.18.31.25l.36.13a1,1,0,0,1,.52.36.91.91,0,0,1,.17.57.57.57,0,0,1-.32.56,1.28,1.28,0,0,1-.88-.07,1.69,1.69,0,0,1-.67-.42.89.89,0,0,1-.22-.58.41.41,0,0,1,.12-.33.49.49,0,0,1,.35-.09,1,1,0,0,1-.15-.2.46.46,0,0,1-.06-.23.24.24,0,0,1,.08-.21.37.37,0,0,1,.2-.12,1,1,0,0,1-.26-.36,1.09,1.09,0,0,1-.08-.47.6.6,0,0,1,.23-.54.72.72,0,0,1,.64,0l.21.09.15.08Zm-1.66,2.23a.32.32,0,0,0,.1.26.8.8,0,0,0,.32.19,1,1,0,0,0,.48.07.19.19,0,0,0,.18-.21.29.29,0,0,0-.1-.23.92.92,0,0,0-.31-.16l-.3-.11a.3.3,0,0,0-.26,0c-.08,0-.11.09-.11.19ZM85,70.94a.8.8,0,0,0,.07.34.4.4,0,0,0,.24.2.2.2,0,0,0,.23,0,.43.43,0,0,0,.08-.29c0-.3-.09-.48-.3-.56s-.32,0-.32.31Z" transform="translate(-23.25 -6.49)"/><path class="cls-3" d="M88.64,73.94l-.57-.2V72.3a.88.88,0,0,0-.08-.42.43.43,0,0,0-.25-.23c-.16,0-.28,0-.35.07a1.17,1.17,0,0,0-.12.58v1.16l-.57-.2,0-2.46.43.16.07.34h0a.42.42,0,0,1,.27-.18.81.81,0,0,1,.38,0,1,1,0,0,1,.55.42,1.2,1.2,0,0,1,.18.74Z" transform="translate(-23.25 -6.49)"/><path class="cls-3" d="M92.15,73.94a1.13,1.13,0,0,1-.29.84.7.7,0,0,1-.76.07,1.31,1.31,0,0,1-.52-.34,1.47,1.47,0,0,1-.35-.57,2,2,0,0,1-.11-.72,1.12,1.12,0,0,1,.28-.84.74.74,0,0,1,.76-.07,1.33,1.33,0,0,1,.53.35,1.43,1.43,0,0,1,.35.56A2,2,0,0,1,92.15,73.94Zm-1.45-.51a1.44,1.44,0,0,0,.09.58.59.59,0,0,0,.33.31c.15,0,.26,0,.33-.07a.94.94,0,0,0,.11-.52,1.15,1.15,0,0,0-.09-.58.53.53,0,0,0-.32-.3c-.16,0-.27,0-.34.07a1,1,0,0,0-.11.46Z" transform="translate(-23.25 -6.49)"/><path class="cls-3" d="M93.79,73.74l-.5-.17v2l-.57-.2v-2l-.31-.11v-.37l.31-.06V72.7c0-.28.06-.47.18-.55a.64.64,0,0,1,.57,0,1.78,1.78,0,0,1,.52.29l-.15.44a2,2,0,0,0-.32-.18h-.18a.31.31,0,0,0,0,.19v.16l.5.17Z" transform="translate(-23.25 -6.49)"/><path class="cls-3" d="M96,76.54a1.51,1.51,0,0,1-.78-.6,1.77,1.77,0,0,1-.27-1,1.14,1.14,0,0,1,.28-.86A.67.67,0,0,1,96,74a1.24,1.24,0,0,1,.69.54,1.5,1.5,0,0,1,.23.9v.33l-1.34-.48a.87.87,0,0,0,.13.5.69.69,0,0,0,.38.29,1.11,1.11,0,0,0,.36.08,2,2,0,0,0,.35,0v.52a.86.86,0,0,1-.32,0A2.25,2.25,0,0,1,96,76.54Zm0-2.09a.26.26,0,0,0-.29,0,.52.52,0,0,0-.12.34l.8.28a.88.88,0,0,0-.11-.42.48.48,0,0,0-.32-.2Z" transform="translate(-23.25 -6.49)"/><path class="cls-3" d="M98.46,75.54l1.08.39v1.66a2.09,2.09,0,0,1-.5,0,4.27,4.27,0,0,1-.48-.13,1.7,1.7,0,0,1-.93-.76,2.41,2.41,0,0,1-.31-1.34,1.36,1.36,0,0,1,.4-1.08,1.06,1.06,0,0,1,1.06-.06,2.56,2.56,0,0,1,.81.48l-.2.48a1.94,1.94,0,0,0-.62-.4.55.55,0,0,0-.61.09,1,1,0,0,0-.24.71,1.7,1.7,0,0,0,.17.86,1,1,0,0,0,.52.47A1.53,1.53,0,0,0,99,77v-.67l-.51-.18Z" transform="translate(-23.25 -6.49)"/><path class="cls-3" d="M102.09,76.42a.78.78,0,0,1-.29.7.91.91,0,0,1-.79,0l-.25-.09v1.15l-.58-.21.06-3.21.87.31a1.53,1.53,0,0,1,.75.52A1.3,1.3,0,0,1,102.09,76.42Zm-1.32,0,.19.06a.47.47,0,0,0,.4,0,.32.32,0,0,0,.14-.31.63.63,0,0,0-.1-.4.7.7,0,0,0-.35-.23l-.26-.1Z" transform="translate(-23.25 -6.49)"/><path class="cls-3" d="M103.14,79l-.57-.2V75.6l1.57.56v.55l-1-.35v.83l.93.33v.55l-.93-.33Z" transform="translate(-23.25 -6.49)"/><path class="cls-3" d="M107.49,80.55l-.57-.2V78.92a1.05,1.05,0,0,0-.07-.43.39.39,0,0,0-.24-.21.25.25,0,0,0-.32.07,1.32,1.32,0,0,0-.11.59v1.15l-.57-.2V77.44l.44.15.07.34h0a.45.45,0,0,1,.25-.18.77.77,0,0,1,.37,0,1,1,0,0,1,.63.58h0a.45.45,0,0,1,.25-.18.77.77,0,0,1,.37,0,1,1,0,0,1,.54.4,1.4,1.4,0,0,1,.16.75v1.6l-.58-.2V79.27a.91.91,0,0,0-.07-.43.39.39,0,0,0-.24-.21.25.25,0,0,0-.31.06,1,1,0,0,0-.12.52Z" transform="translate(-23.25 -6.49)"/><path class="cls-3" d="M110,80.21v1.23l-.58-.2.06-3.21.79.28a1.8,1.8,0,0,1,.82.53,1.26,1.26,0,0,1,.26.82.8.8,0,0,1-.14.45.62.62,0,0,1-.39.22l.78,1.68-.64-.23-.63-1.46Zm0-.55.19.06a.55.55,0,0,0,.4,0,.28.28,0,0,0,.14-.29.5.5,0,0,0-.13-.37.91.91,0,0,0-.41-.25l-.18-.06Z" transform="translate(-23.25 -6.49)"/><path class="cls-3" d="M114.38,83l-.73-.26-1.15-2.85h0v2.44l-.51-.18.05-3.21.74.26L113.92,82h0V79.6l.52.18Z" transform="translate(-23.25 -6.49)"/><path class="cls-3" d="M116.75,83.82l-.19-.83-1-.35-.21.69-.62-.22,1-2.88.71.25.91,3.56Zm-.32-1.45c-.17-.76-.26-1.18-.29-1.28a.64.64,0,0,1,0-.24,8.79,8.79,0,0,1-.38,1.27Z" transform="translate(-23.25 -6.49)"/><path class="cls-3" d="M119.87,84.94l-.61-2.75h0v2.49l-.52-.18.06-3.21.79.28.6,2.68h0l.73-2.22.79.28-.06,3.21-.54-.19v-2.5h0l-.75,2.27Z" transform="translate(-23.25 -6.49)"/><path class="cls-3" d="M124.2,85.22a1.09,1.09,0,0,1-.29.84.7.7,0,0,1-.75.08,1.58,1.58,0,0,1-.53-.35,1.47,1.47,0,0,1-.35-.57,2.51,2.51,0,0,1-.11-.72,1.13,1.13,0,0,1,.29-.84.7.7,0,0,1,.76-.06,1.31,1.31,0,0,1,.52.34,1.43,1.43,0,0,1,.35.56A2,2,0,0,1,124.2,85.22Zm-1.44-.51a1.2,1.2,0,0,0,.09.59.55.55,0,0,0,.33.3c.15,0,.26,0,.33-.07a1,1,0,0,0,.11-.52,1.44,1.44,0,0,0-.09-.58.6.6,0,0,0-.33-.3c-.15,0-.26,0-.33.07A.83.83,0,0,0,122.76,84.71Z" transform="translate(-23.25 -6.49)"/><path class="cls-3" d="M125.22,86.82l-.57-.2.06-3.42.57.21Z" transform="translate(-23.25 -6.49)"/><path class="cls-3" d="M126.77,87.41a1.54,1.54,0,0,1-.79-.61,1.86,1.86,0,0,1-.27-1,1.19,1.19,0,0,1,.29-.86.67.67,0,0,1,.73-.08,1.29,1.29,0,0,1,.68.54,1.67,1.67,0,0,1,.24.9v.33l-1.35-.48a1,1,0,0,0,.14.5.7.7,0,0,0,.37.29,1.55,1.55,0,0,0,.36.08,2,2,0,0,0,.35,0v.52a.86.86,0,0,1-.32,0A1.64,1.64,0,0,1,126.77,87.41Zm0-2.1a.24.24,0,0,0-.28,0,.51.51,0,0,0-.13.34l.8.28a.87.87,0,0,0-.1-.42.66.66,0,0,0-.34-.2Z" transform="translate(-23.25 -6.49)"/><path class="cls-3" d="M128.93,88.18a1.47,1.47,0,0,1-1-1.61,1.14,1.14,0,0,1,.28-.86.72.72,0,0,1,.77-.06,1.91,1.91,0,0,1,.65.4l-.18.46-.25-.2a1,1,0,0,0-.23-.12c-.3-.1-.45.09-.46.59s.14.77.43.87a.81.81,0,0,0,.31.06.67.67,0,0,0,.28-.06v.57a.66.66,0,0,1-.28,0A1.17,1.17,0,0,1,128.93,88.18Z" transform="translate(-23.25 -6.49)"/><path class="cls-3" d="M131.59,89.05l-.08-.34h0a.39.39,0,0,1-.26.17.65.65,0,0,1-.39,0,1.07,1.07,0,0,1-.55-.43,1.25,1.25,0,0,1-.17-.73v-1.6l.57.2v1.44a.88.88,0,0,0,.08.42.43.43,0,0,0,.25.23c.16,0,.28,0,.35-.07a1.17,1.17,0,0,0,.12-.58V86.6l.57.2v2.46Z" transform="translate(-23.25 -6.49)"/><path class="cls-3" d="M133.14,89.62l-.57-.2.06-3.42.58.21Z" transform="translate(-23.25 -6.49)"/><path class="cls-3" d="M134.69,90.21a1.57,1.57,0,0,1-.79-.6,1.85,1.85,0,0,1-.26-1,1.13,1.13,0,0,1,.28-.86.67.67,0,0,1,.73-.08,1.18,1.18,0,0,1,.68.54,1.58,1.58,0,0,1,.24.9v.33L134.22,89a1,1,0,0,0,.14.5.7.7,0,0,0,.37.29,1.55,1.55,0,0,0,.36.08,2.16,2.16,0,0,0,.36,0v.52a.91.91,0,0,1-.33,0A2.16,2.16,0,0,1,134.69,90.21Zm0-2.09a.26.26,0,0,0-.29,0,.55.55,0,0,0-.13.34l.8.28a.87.87,0,0,0-.1-.42.57.57,0,0,0-.32-.2Z" transform="translate(-23.25 -6.49)"/><path class="cls-3" d="M137.48,90.42a.53.53,0,0,1-.24.5.87.87,0,0,1-.67,0,2.32,2.32,0,0,1-.39-.18l-.3-.21v-.59l.36.27a1.16,1.16,0,0,0,.35.18c.21.08.31,0,.31-.1a.33.33,0,0,0,0-.14.54.54,0,0,0-.14-.16,2,2,0,0,0-.26-.24,1.93,1.93,0,0,1-.35-.35.75.75,0,0,1-.16-.29,1,1,0,0,1,0-.34.47.47,0,0,1,.23-.43.91.91,0,0,1,.61,0,2.12,2.12,0,0,1,.73.45l-.18.43-.29-.24a1.51,1.51,0,0,0-.28-.15c-.16-.06-.25,0-.25.07a.27.27,0,0,0,.08.19l.35.32a3,3,0,0,1,.36.35,1,1,0,0,1,.16.29A1.16,1.16,0,0,1,137.48,90.42Z" transform="translate(-23.25 -6.49)"/><path class="cls-8" d="M166.75,92.49a2.12,2.12,0,0,0-1.31.19,33.5,33.5,0,0,0-3.9,1.91,4.48,4.48,0,0,0-.62,1.26L164.45,97l-.77,3.87,37.72,12.49-.58,3.7a4.4,4.4,0,0,0,1.77-.08,11.21,11.21,0,0,0,2.59-2,2,2,0,0,0,.67-1.38c.08-.81.08-4.29,0-5.64s-.92-1.94-2.21-2.35Z" transform="translate(-23.25 -6.49)"/><path class="cls-9" d="M200.25,116.86l-36.42-12.92c-1.71-.61-3.08-1.47-3.08-4.34V96.84a2.16,2.16,0,0,1,3.1-2.14l36.42,12.94c2.39.77,3.08.75,3.08,4.33v2.75C203.35,117.26,202,117.46,200.25,116.86Z" transform="translate(-23.25 -6.49)"/><line class="cls-10" x1="9.26" y1="103.72" x2="29.34" y2="110.82"/><line class="cls-10" x1="9.22" y1="120.74" x2="29.3" y2="127.84"/><line class="cls-10" x1="9.19" y1="131.78" x2="29.27" y2="138.88"/><line class="cls-10" x1="9.17" y1="142.82" x2="29.24" y2="149.92"/><line class="cls-10" x1="46.82" y1="117.42" x2="67.13" y2="125.08"/><line class="cls-10" x1="46.78" y1="134.44" x2="79.79" y2="146.9"/><line class="cls-10" x1="46.76" y1="145.48" x2="64.25" y2="152.08"/><line class="cls-10" x1="46.73" y1="156.52" x2="74.3" y2="166.93"/><line class="cls-11" x1="7.31" y1="110.66" x2="181.35" y2="176.34"/><path class="cls-12" d="M111.12,140.94l-.35-1.19-1.37-.51-.35.92-.62-.23,1.35-3.31.63.24,1.33,4.31Zm-.51-1.78-.33-1.16a3.12,3.12,0,0,0-.1-.37l-.09-.36a5,5,0,0,1-.19.63l-.33.86Z" transform="translate(-23.25 -6.49)"/><path class="cls-13" d="M115,138.63v2.46a1.2,1.2,0,0,1-.17.67.66.66,0,0,1-.49.3,1.46,1.46,0,0,1-.77-.12,2.15,2.15,0,0,1-1-.76,2,2,0,0,1-.36-1.17v-2.45l.59.23v2.4a1.32,1.32,0,0,0,.21.77,1.21,1.21,0,0,0,.63.46c.55.21.83,0,.83-.61v-2.4Z" transform="translate(-23.25 -6.49)"/><path class="cls-14" d="M117.4,141.27l1.32.5v1.9a4.2,4.2,0,0,1-.62-.07,4.75,4.75,0,0,1-.64-.2,2.43,2.43,0,0,1-1.25-1,2.94,2.94,0,0,1-.44-1.61,1.39,1.39,0,0,1,.5-1.25,1.5,1.5,0,0,1,1.37,0,3.55,3.55,0,0,1,1.06.63l-.21.44a3,3,0,0,0-.87-.54.86.86,0,0,0-.9,0,1.1,1.1,0,0,0-.34.92,2.18,2.18,0,0,0,.3,1.17,1.72,1.72,0,0,0,.86.69,3.2,3.2,0,0,0,.61.15v-1l-.74-.28Z" transform="translate(-23.25 -6.49)"/><path class="cls-14" d="M121,142.64l1.31.5V145a3.18,3.18,0,0,1-.62-.07,4.75,4.75,0,0,1-.64-.2,2.38,2.38,0,0,1-1.25-1,2.86,2.86,0,0,1-.44-1.61,1.38,1.38,0,0,1,.5-1.24,1.5,1.5,0,0,1,1.37,0,3.67,3.67,0,0,1,1.06.63l-.21.44a3,3,0,0,0-.87-.54.92.92,0,0,0-.91,0,1.1,1.1,0,0,0-.33.92,2.18,2.18,0,0,0,.3,1.17,1.63,1.63,0,0,0,.86.69,3.1,3.1,0,0,0,.6.15v-1l-.74-.28Z" transform="translate(-23.25 -6.49)"/><path class="cls-14" d="M124.67,144l1.32.5v1.91a4.2,4.2,0,0,1-.62-.08,4.84,4.84,0,0,1-.65-.19,2.56,2.56,0,0,1-1.25-1,2.84,2.84,0,0,1-.43-1.6,1.38,1.38,0,0,1,.5-1.25,1.48,1.48,0,0,1,1.36,0,3.55,3.55,0,0,1,1.06.63l-.2.43a3,3,0,0,0-.87-.54.92.92,0,0,0-.91,0,1.1,1.1,0,0,0-.33.92,2.08,2.08,0,0,0,.29,1.17,1.65,1.65,0,0,0,.87.69,3.1,3.1,0,0,0,.6.15v-1l-.74-.28Z" transform="translate(-23.25 -6.49)"/><path class="cls-13" d="M129.66,144.15v2.46a1.2,1.2,0,0,1-.17.67.66.66,0,0,1-.49.3,1.46,1.46,0,0,1-.77-.12,2.15,2.15,0,0,1-1-.76,1.89,1.89,0,0,1-.36-1.17v-2.45l.59.23v2.4a1.32,1.32,0,0,0,.21.77,1.21,1.21,0,0,0,.63.46c.55.21.82,0,.83-.61v-2.39Z" transform="translate(-23.25 -6.49)"/><path class="cls-14" d="M132,146.79l1.31.5v1.9a3.18,3.18,0,0,1-.62-.07,4.75,4.75,0,0,1-.64-.2,2.43,2.43,0,0,1-1.25-1,2.86,2.86,0,0,1-.44-1.61,1.39,1.39,0,0,1,.5-1.25,1.5,1.5,0,0,1,1.37,0,3.55,3.55,0,0,1,1.06.63l-.21.44a3,3,0,0,0-.87-.54.86.86,0,0,0-.9,0,1.09,1.09,0,0,0-.34.92,2.18,2.18,0,0,0,.3,1.17,1.63,1.63,0,0,0,.86.69,3.2,3.2,0,0,0,.61.15v-1l-.74-.28Z" transform="translate(-23.25 -6.49)"/><path class="cls-14" d="M135.67,148.16l1.31.5v1.9a3.18,3.18,0,0,1-.62-.07,4.88,4.88,0,0,1-.65-.2,2.56,2.56,0,0,1-1.25-1,2.85,2.85,0,0,1-.43-1.61,1.38,1.38,0,0,1,.5-1.24,1.5,1.5,0,0,1,1.37,0,4.07,4.07,0,0,1,1.06.63l-.21.44a3,3,0,0,0-.87-.54.92.92,0,0,0-.91,0,1.1,1.1,0,0,0-.33.92,2.18,2.18,0,0,0,.3,1.17,1.63,1.63,0,0,0,.86.69,3.1,3.1,0,0,0,.6.15v-1l-.75-.28Z" transform="translate(-23.25 -6.49)"/><path class="cls-9" d="M139.36,148.3a.7.7,0,0,0-.79.08,1.25,1.25,0,0,0-.29.93,2.27,2.27,0,0,0,.27,1.17,1.55,1.55,0,0,0,.81.66,3.17,3.17,0,0,0,.44.12h.44v.53a2.67,2.67,0,0,1-2.16-1.15,2.91,2.91,0,0,1-.42-1.6,1.92,1.92,0,0,1,.21-1,.89.89,0,0,1,.59-.46,1.67,1.67,0,0,1,.91.11,3.05,3.05,0,0,1,1,.62l-.21.44a3.57,3.57,0,0,0-.38-.3A1.5,1.5,0,0,0,139.36,148.3Z" transform="translate(-23.25 -6.49)"/><path class="cls-13" d="M143.82,149.5v2.44a1.13,1.13,0,0,1-.18.67.66.66,0,0,1-.49.3,1.69,1.69,0,0,1-.77-.12,2.15,2.15,0,0,1-1-.76,2,2,0,0,1-.37-1.17v-2.45l.58.22V151a1.44,1.44,0,0,0,.2.78,1.38,1.38,0,0,0,.63.46c.55.21.83,0,.83-.61v-2.4Z" transform="translate(-23.25 -6.49)"/><path class="cls-13" d="M147.59,150.94v2.46a1.12,1.12,0,0,1-.17.67.66.66,0,0,1-.49.3,1.46,1.46,0,0,1-.77-.12,2.15,2.15,0,0,1-1-.76,1.9,1.9,0,0,1-.37-1.17v-2.45l.59.23v2.4a1.17,1.17,0,0,0,.83,1.23c.55.21.83,0,.83-.61v-2.4Z" transform="translate(-23.25 -6.49)"/><path class="cls-14" d="M149.91,153.54l1.32.5v1.9a4.2,4.2,0,0,1-.62-.07,4.75,4.75,0,0,1-.64-.2,2.43,2.43,0,0,1-1.25-1,2.94,2.94,0,0,1-.44-1.61,1.46,1.46,0,0,1,.5-1.25,1.5,1.5,0,0,1,1.37,0,3.55,3.55,0,0,1,1.06.63l-.2.44a3,3,0,0,0-.87-.54.88.88,0,0,0-.91,0,1.1,1.1,0,0,0-.33.92,2.08,2.08,0,0,0,.29,1.17,1.72,1.72,0,0,0,.86.69,3.2,3.2,0,0,0,.61.15v-1l-.74-.28Z" transform="translate(-23.25 -6.49)"/><path class="cls-14" d="M153.59,154.94l1.32.5v1.9a3.18,3.18,0,0,1-.62-.07,4.75,4.75,0,0,1-.64-.2,2.43,2.43,0,0,1-1.25-1,2.86,2.86,0,0,1-.44-1.61,1.38,1.38,0,0,1,.5-1.24,1.5,1.5,0,0,1,1.37,0,3.55,3.55,0,0,1,1.06.63l-.21.44a3,3,0,0,0-.87-.54.9.9,0,0,0-.9,0,1.09,1.09,0,0,0-.34.92,2.18,2.18,0,0,0,.3,1.17,1.68,1.68,0,0,0,.86.69,3.2,3.2,0,0,0,.61.15v-1l-.74-.28Z" transform="translate(-23.25 -6.49)"/><path class="cls-14" d="M157.19,156.28l1.31.5v1.91a4.2,4.2,0,0,1-.62-.08,4.71,4.71,0,0,1-.64-.19,2.54,2.54,0,0,1-1.26-1,2.84,2.84,0,0,1-.43-1.6,1.39,1.39,0,0,1,.5-1.25,1.5,1.5,0,0,1,1.37,0,3.67,3.67,0,0,1,1.06.63l-.21.43a3,3,0,0,0-.87-.54.92.92,0,0,0-.91,0,1.1,1.1,0,0,0-.33.92,2.09,2.09,0,0,0,.3,1.17,1.63,1.63,0,0,0,.86.69,3.1,3.1,0,0,0,.6.15v-1l-.74-.28Z" transform="translate(-23.25 -6.49)"/><path class="cls-12" d="M161.59,160l-.35-1.19-1.37-.51-.35.92-.62-.23,1.35-3.31.64.24,1.33,4.32Zm-.5-1.78-.34-1.16a1.91,1.91,0,0,0-.1-.37,2.24,2.24,0,0,1-.08-.36,4.61,4.61,0,0,1-.2.63l-.32.87Z" transform="translate(-23.25 -6.49)"/><path class="cls-13" d="M165.48,157.67v2.46a1.06,1.06,0,0,1-.17.67.66.66,0,0,1-.49.3,1.46,1.46,0,0,1-.77-.12,2.15,2.15,0,0,1-1-.76,1.9,1.9,0,0,1-.37-1.17V156.6l.59.23v2.4a1.17,1.17,0,0,0,.83,1.23c.55.21.83,0,.83-.61v-2.4Z" transform="translate(-23.25 -6.49)"/><path class="cls-14" d="M167.85,160.31l1.32.5v1.9a3.18,3.18,0,0,1-.62-.07,4.75,4.75,0,0,1-.64-.2,2.43,2.43,0,0,1-1.25-1,2.94,2.94,0,0,1-.44-1.61,1.46,1.46,0,0,1,.5-1.25,1.5,1.5,0,0,1,1.37,0,3.55,3.55,0,0,1,1.06.63l-.2.44a3,3,0,0,0-.87-.54.88.88,0,0,0-.91,0,1.1,1.1,0,0,0-.33.92,2.08,2.08,0,0,0,.29,1.17,1.68,1.68,0,0,0,.86.69,3.2,3.2,0,0,0,.61.15v-1l-.74-.28Z" transform="translate(-23.25 -6.49)"/><path class="cls-14" d="M171.49,161.68l1.32.5v1.9a3.18,3.18,0,0,1-.62-.07,3.65,3.65,0,0,1-.64-.2,2.43,2.43,0,0,1-1.25-1,2.94,2.94,0,0,1-.44-1.61,1.38,1.38,0,0,1,.5-1.24,1.5,1.5,0,0,1,1.37,0,3.81,3.81,0,0,1,1.06.63l-.21.44a3,3,0,0,0-.87-.54.9.9,0,0,0-.9,0,1.1,1.1,0,0,0-.34.92,2.18,2.18,0,0,0,.3,1.17,1.68,1.68,0,0,0,.86.69,3.2,3.2,0,0,0,.61.15v-1l-.74-.28Z" transform="translate(-23.25 -6.49)"/><path class="cls-14" d="M175.13,163.05l1.31.5v1.91a3.19,3.19,0,0,1-.62-.08,4.71,4.71,0,0,1-.64-.19,2.54,2.54,0,0,1-1.26-1,2.84,2.84,0,0,1-.43-1.6,1.39,1.39,0,0,1,.5-1.25,1.5,1.5,0,0,1,1.37,0,3.67,3.67,0,0,1,1.06.63l-.21.44a2.73,2.73,0,0,0-.87-.55.92.92,0,0,0-.91,0,1.13,1.13,0,0,0-.33.92,2.09,2.09,0,0,0,.3,1.17,1.63,1.63,0,0,0,.86.69,4.44,4.44,0,0,0,.6.16v-1l-.74-.28Z" transform="translate(-23.25 -6.49)"/><path class="cls-13" d="M180.11,163.2v2.45a1.2,1.2,0,0,1-.17.67.66.66,0,0,1-.49.3,1.46,1.46,0,0,1-.77-.12,2.15,2.15,0,0,1-1-.76,2,2,0,0,1-.36-1.17v-2.44l.59.22v2.4a1.19,1.19,0,0,0,.84,1.23c.55.21.83,0,.83-.61v-2.43Z" transform="translate(-23.25 -6.49)"/><path class="cls-9" d="M182.59,164.59a.73.73,0,0,0-.79.08,1.28,1.28,0,0,0-.29.94,2.25,2.25,0,0,0,.27,1.16,1.55,1.55,0,0,0,.81.66,1.69,1.69,0,0,0,.44.12h.44v.53a2.86,2.86,0,0,1-1-.19,2.4,2.4,0,0,1-1.2-1,3,3,0,0,1-.42-1.61,1.92,1.92,0,0,1,.21-1,.9.9,0,0,1,.59-.45,1.5,1.5,0,0,1,.91.1,3.26,3.26,0,0,1,1,.63l-.21.44c-.12-.11-.25-.21-.38-.31A1.64,1.64,0,0,0,182.59,164.59Z" transform="translate(-23.25 -6.49)"/><path class="cls-9" d="M185.72,165.79a.71.71,0,0,0-.8.08,1.28,1.28,0,0,0-.29.94,2.13,2.13,0,0,0,.28,1.16,1.49,1.49,0,0,0,.8.66,1.69,1.69,0,0,0,.44.12h.44v.54a2.66,2.66,0,0,1-1-.2,2.3,2.3,0,0,1-1.21-1,2.9,2.9,0,0,1-.41-1.6,2,2,0,0,1,.2-1,.91.91,0,0,1,.6-.46,1.63,1.63,0,0,1,.9.11,3.26,3.26,0,0,1,1,.63l-.22.43c-.12-.1-.24-.2-.38-.3A1.42,1.42,0,0,0,185.72,165.79Z" transform="translate(-23.25 -6.49)"/><path class="cls-9" d="M188.89,167a.7.7,0,0,0-.79.08,1.28,1.28,0,0,0-.29.94,2.36,2.36,0,0,0,.27,1.16,1.55,1.55,0,0,0,.81.66,1.69,1.69,0,0,0,.44.12h.44v.53a2.47,2.47,0,0,1-1-.19,2.31,2.31,0,0,1-1.2-1,2.91,2.91,0,0,1-.42-1.6,1.92,1.92,0,0,1,.21-1,.89.89,0,0,1,.59-.46,1.67,1.67,0,0,1,.91.11,3.05,3.05,0,0,1,1,.62l-.21.44c-.12-.1-.25-.21-.38-.3A1.66,1.66,0,0,0,188.89,167Z" transform="translate(-23.25 -6.49)"/><path class="cls-12" d="M192.76,171.77l-.36-1.19-1.37-.52-.35.93-.61-.24,1.34-3.3.64.24,1.33,4.31Zm-.51-1.78-.33-1.16c0-.12-.07-.24-.1-.37a2.37,2.37,0,0,1-.09-.36,5.1,5.1,0,0,1-.2.63l-.32.86Z" transform="translate(-23.25 -6.49)"/><path class="cls-13" d="M196.66,169.44v2.5a1.13,1.13,0,0,1-.18.67.66.66,0,0,1-.49.3,1.69,1.69,0,0,1-.77-.12,2.15,2.15,0,0,1-1-.76,1.9,1.9,0,0,1-.37-1.17v-2.45l.58.22V171a1.17,1.17,0,0,0,.83,1.23c.55.21.83,0,.83-.61v-2.4Z" transform="translate(-23.25 -6.49)"/><path class="cls-13" d="M200.38,170.85v2.45a1.06,1.06,0,0,1-.17.67.66.66,0,0,1-.49.3,1.46,1.46,0,0,1-.77-.12,2.15,2.15,0,0,1-1-.76,1.9,1.9,0,0,1-.37-1.17v-2.44l.59.22v2.4a1.17,1.17,0,0,0,.83,1.23c.55.21.83,0,.83-.61v-2.4Z" transform="translate(-23.25 -6.49)"/><path class="cls-14" d="M202.75,173.48l1.32.5v1.9a3.18,3.18,0,0,1-.62-.07,4.75,4.75,0,0,1-.64-.2,2.43,2.43,0,0,1-1.25-1,2.94,2.94,0,0,1-.44-1.61,1.4,1.4,0,0,1,.5-1.25,1.5,1.5,0,0,1,1.37,0,3.55,3.55,0,0,1,1.06.63l-.2.44a3,3,0,0,0-.87-.54.92.92,0,0,0-.91,0,1.13,1.13,0,0,0-.34.92,2.18,2.18,0,0,0,.3,1.17,1.68,1.68,0,0,0,.86.69,3.2,3.2,0,0,0,.61.15v-1l-.74-.28Z" transform="translate(-23.25 -6.49)"/><path class="cls-12" d="M111.08,157.94l-.35-1.19-1.37-.51-.35.92-.62-.23,1.35-3.31.63.24,1.33,4.32Zm-.51-1.78-.33-1.16a3.12,3.12,0,0,0-.1-.37l-.09-.36a5,5,0,0,1-.19.63l-.33.87Z" transform="translate(-23.25 -6.49)"/><path class="cls-13" d="M115,155.66v2.45a1.25,1.25,0,0,1-.17.68.75.75,0,0,1-.49.3,1.69,1.69,0,0,1-.77-.12,2.24,2.24,0,0,1-1-.77,2,2,0,0,1-.36-1.17v-2.44l.59.22v2.4a1.32,1.32,0,0,0,.21.77,1.17,1.17,0,0,0,.63.46c.55.21.83,0,.83-.61v-2.39Z" transform="translate(-23.25 -6.49)"/><path class="cls-14" d="M117.36,158.29l1.32.5v1.9a3.18,3.18,0,0,1-.62-.07,4.75,4.75,0,0,1-.64-.2,2.43,2.43,0,0,1-1.25-1,2.94,2.94,0,0,1-.44-1.61,1.38,1.38,0,0,1,.5-1.24,1.5,1.5,0,0,1,1.37,0,3.81,3.81,0,0,1,1.06.63l-.21.44a3,3,0,0,0-.87-.54.9.9,0,0,0-.9,0,1.1,1.1,0,0,0-.34.92,2.18,2.18,0,0,0,.3,1.17,1.68,1.68,0,0,0,.86.69,3.2,3.2,0,0,0,.61.15v-1l-.74-.28Z" transform="translate(-23.25 -6.49)"/><path class="cls-14" d="M121,159.66l1.31.5v1.91a4.2,4.2,0,0,1-.62-.08,4.71,4.71,0,0,1-.64-.19,2.52,2.52,0,0,1-1.25-1,2.82,2.82,0,0,1-.44-1.6,1.39,1.39,0,0,1,.5-1.25,1.5,1.5,0,0,1,1.37,0,3.67,3.67,0,0,1,1.06.63l-.21.43a3,3,0,0,0-.87-.54.9.9,0,0,0-.9,0,1.09,1.09,0,0,0-.34.92,2.09,2.09,0,0,0,.3,1.17,1.63,1.63,0,0,0,.86.69,4.21,4.21,0,0,0,.61.16v-1l-.74-.28Z" transform="translate(-23.25 -6.49)"/><path class="cls-14" d="M124.59,161l1.32.49v1.91a2.57,2.57,0,0,1-.62-.08,4.84,4.84,0,0,1-.65-.19,2.56,2.56,0,0,1-1.25-1,2.85,2.85,0,0,1-.43-1.61,1.38,1.38,0,0,1,.5-1.25,1.48,1.48,0,0,1,1.36,0,3.55,3.55,0,0,1,1.06.63l-.2.44a3,3,0,0,0-.87-.54.92.92,0,0,0-.91,0,1.1,1.1,0,0,0-.33.92,2.08,2.08,0,0,0,.29,1.17,1.67,1.67,0,0,0,.87.68,2.41,2.41,0,0,0,.6.16v-1l-.74-.28Z" transform="translate(-23.25 -6.49)"/><path class="cls-13" d="M129.59,161.18v2.45a1.25,1.25,0,0,1-.17.68.75.75,0,0,1-.49.3,1.69,1.69,0,0,1-.77-.12,2.24,2.24,0,0,1-1-.77,1.89,1.89,0,0,1-.36-1.17v-2.44l.59.22v2.4a1.32,1.32,0,0,0,.21.77,1.17,1.17,0,0,0,.63.46c.55.21.82,0,.83-.61v-2.41Z" transform="translate(-23.25 -6.49)"/><path class="cls-9" d="M132.05,162.57a.73.73,0,0,0-.79.08,1.24,1.24,0,0,0-.29.94,2.25,2.25,0,0,0,.27,1.16,1.59,1.59,0,0,0,.8.67,2.18,2.18,0,0,0,.44.11h.45v.53a2.65,2.65,0,0,1-1-.19,2.4,2.4,0,0,1-1.2-1,3,3,0,0,1-.42-1.61,1.92,1.92,0,0,1,.21-1,.87.87,0,0,1,.59-.45,1.58,1.58,0,0,1,.91.1,3.26,3.26,0,0,1,1,.63l-.21.44a4.08,4.08,0,0,0-.39-.31A2.24,2.24,0,0,0,132.05,162.57Z" transform="translate(-23.25 -6.49)"/><path class="cls-9" d="M135.23,163.77a.75.75,0,0,0-.8.08,1.28,1.28,0,0,0-.29.94,2.13,2.13,0,0,0,.28,1.16,1.49,1.49,0,0,0,.8.66,1.69,1.69,0,0,0,.44.12l.44.05v.53a2.86,2.86,0,0,1-1-.19,2.42,2.42,0,0,1-1.21-1,3,3,0,0,1-.42-1.61,2.14,2.14,0,0,1,.21-1,.9.9,0,0,1,.59-.45,1.58,1.58,0,0,1,.91.1,3.26,3.26,0,0,1,1,.63l-.21.44c-.12-.11-.25-.21-.38-.31A2.28,2.28,0,0,0,135.23,163.77Z" transform="translate(-23.25 -6.49)"/><path class="cls-14" d="M138.34,166.21l1.31.49v1.91a4.2,4.2,0,0,1-.62-.07,4.75,4.75,0,0,1-.64-.2,2.43,2.43,0,0,1-1.25-1,2.86,2.86,0,0,1-.44-1.61,1.39,1.39,0,0,1,.5-1.25,1.5,1.5,0,0,1,1.37,0,3.67,3.67,0,0,1,1.06.63l-.21.44a3,3,0,0,0-.87-.54.9.9,0,0,0-.9,0,1.09,1.09,0,0,0-.34.92,2.18,2.18,0,0,0,.3,1.17,1.76,1.76,0,0,0,.86.69,3.2,3.2,0,0,0,.61.15v-1l-.74-.28Z" transform="translate(-23.25 -6.49)"/><path class="cls-14" d="M142,167.58l1.31.5v1.86a3.18,3.18,0,0,1-.62-.07,4.88,4.88,0,0,1-.65-.2,2.56,2.56,0,0,1-1.25-1,2.85,2.85,0,0,1-.43-1.61,1.38,1.38,0,0,1,.5-1.24,1.48,1.48,0,0,1,1.36,0,3.73,3.73,0,0,1,1.07.63l-.21.44a3,3,0,0,0-.87-.54.92.92,0,0,0-.91,0,1.1,1.1,0,0,0-.33.92,2.18,2.18,0,0,0,.3,1.17,1.63,1.63,0,0,0,.86.69,3.1,3.1,0,0,0,.6.15v-1L142,168Z" transform="translate(-23.25 -6.49)"/><path class="cls-14" d="M145.59,168.94l1.32.5v1.91a3.66,3.66,0,0,1-1.26-.28,2.43,2.43,0,0,1-1.25-1,2.93,2.93,0,0,1-.44-1.6,1.39,1.39,0,0,1,.5-1.25,1.5,1.5,0,0,1,1.37,0,3.55,3.55,0,0,1,1.06.63l-.2.43a3,3,0,0,0-.87-.54.92.92,0,0,0-.91,0,1.13,1.13,0,0,0-.34.92,2.09,2.09,0,0,0,.3,1.17,1.68,1.68,0,0,0,.86.69,3.2,3.2,0,0,0,.61.15v-1l-.74-.28Z" transform="translate(-23.25 -6.49)"/><path class="cls-13" d="M150.59,169.09v2.46a1.2,1.2,0,0,1-.17.67.68.68,0,0,1-.5.3,1.46,1.46,0,0,1-.77-.12,2.15,2.15,0,0,1-1-.76,1.9,1.9,0,0,1-.37-1.17V168l.59.23v2.4a1.17,1.17,0,0,0,.83,1.23c.56.21.83,0,.83-.61v-2.4Z" transform="translate(-23.25 -6.49)"/><path class="cls-12" d="M153.72,174.07l-.36-1.19-1.36-.51-.36.92-.61-.23,1.34-3.31.64.24,1.33,4.32Zm-.51-1.78-.33-1.16a2.64,2.64,0,0,0-.1-.36,2.22,2.22,0,0,1-.09-.37,4.61,4.61,0,0,1-.2.63l-.32.87Z" transform="translate(-23.25 -6.49)"/><path class="cls-13" d="M157.59,171.75v2.45a1.25,1.25,0,0,1-.17.68.77.77,0,0,1-.5.3,1.69,1.69,0,0,1-.77-.12,2.24,2.24,0,0,1-1-.77,1.9,1.9,0,0,1-.37-1.17v-2.44l.59.22v2.4a1.39,1.39,0,0,0,.2.77,1.25,1.25,0,0,0,.63.46c.56.21.83,0,.83-.61v-2.39Z" transform="translate(-23.25 -6.49)"/><path class="cls-13" d="M161.34,173.15v2.46a1.21,1.21,0,0,1-.18.67.66.66,0,0,1-.49.3,1.69,1.69,0,0,1-.77-.12,2.17,2.17,0,0,1-1-.77,1.87,1.87,0,0,1-.37-1.16v-2.45l.58.22v2.4a1.24,1.24,0,0,0,.2.77,1.33,1.33,0,0,0,.63.47c.55.2.83,0,.83-.61v-2.39Z" transform="translate(-23.25 -6.49)"/><path class="cls-9" d="M163.78,174.55a.71.71,0,0,0-.8.08,1.28,1.28,0,0,0-.29.94,2.13,2.13,0,0,0,.28,1.16,1.49,1.49,0,0,0,.8.66,1.69,1.69,0,0,0,.44.12h.44V178a2.67,2.67,0,0,1-2.16-1.15,2.91,2.91,0,0,1-.42-1.6,1.92,1.92,0,0,1,.21-1,.91.91,0,0,1,.59-.46,1.67,1.67,0,0,1,.91.11,3.05,3.05,0,0,1,1,.62l-.21.44a3.57,3.57,0,0,0-.38-.3A1.56,1.56,0,0,0,163.78,174.55Z" transform="translate(-23.25 -6.49)"/><path class="cls-9" d="M167,175.75a.7.7,0,0,0-.79.08,1.21,1.21,0,0,0-.29.93,2.14,2.14,0,0,0,.27,1.16,1.59,1.59,0,0,0,.8.67,2.18,2.18,0,0,0,.44.11,3.44,3.44,0,0,0,.45.05v.53a2.65,2.65,0,0,1-1-.19,2.4,2.4,0,0,1-1.2-1,2.91,2.91,0,0,1-.42-1.6,1.92,1.92,0,0,1,.21-1A.82.82,0,0,1,166,175a1.58,1.58,0,0,1,.91.1,3.26,3.26,0,0,1,1,.63l-.21.44a4.08,4.08,0,0,0-.39-.31A1.66,1.66,0,0,0,167,175.75Z" transform="translate(-23.25 -6.49)"/><path class="cls-14" d="M170.06,178.18l1.32.5v1.9a3.18,3.18,0,0,1-.62-.07,4.75,4.75,0,0,1-.64-.2,2.43,2.43,0,0,1-1.25-1,2.94,2.94,0,0,1-.44-1.61,1.43,1.43,0,0,1,.5-1.24,1.5,1.5,0,0,1,1.37,0,3.55,3.55,0,0,1,1.06.63l-.2.44a3,3,0,0,0-.87-.54.92.92,0,0,0-.91,0,1.1,1.1,0,0,0-.33.92,2.08,2.08,0,0,0,.29,1.17,1.68,1.68,0,0,0,.86.69,3.2,3.2,0,0,0,.61.15v-1l-.74-.28Z" transform="translate(-23.25 -6.49)"/><path class="cls-14" d="M173.7,179.55l1.32.5v1.89a4.2,4.2,0,0,1-.62-.08,3.65,3.65,0,0,1-.64-.2,2.43,2.43,0,0,1-1.25-1,2.93,2.93,0,0,1-.44-1.6,1.39,1.39,0,0,1,.5-1.25,1.5,1.5,0,0,1,1.37,0,3.55,3.55,0,0,1,1.06.63l-.21.43a3,3,0,0,0-.87-.54.9.9,0,0,0-.9,0,1.1,1.1,0,0,0-.34.92,2.09,2.09,0,0,0,.3,1.17,1.68,1.68,0,0,0,.86.69,3.2,3.2,0,0,0,.61.15v-1l-.74-.28Z" transform="translate(-23.25 -6.49)"/><path class="cls-12" d="M178.09,183.27l-.36-1.19-1.36-.51-.36.92-.61-.23,1.34-3.31.64.24,1.33,4.31Zm-.51-1.78-.33-1.16c0-.12-.07-.24-.1-.37a2.37,2.37,0,0,1-.09-.36,4.61,4.61,0,0,1-.2.63l-.32.86Z" transform="translate(-23.25 -6.49)"/><path class="cls-14" d="M180.65,182.18l1.31.49v1.91a3.19,3.19,0,0,1-.62-.08,4.71,4.71,0,0,1-.64-.19,2.48,2.48,0,0,1-1.25-1,2.82,2.82,0,0,1-.44-1.6,1.39,1.39,0,0,1,.5-1.25,1.5,1.5,0,0,1,1.37,0,3.55,3.55,0,0,1,1.06.63l-.21.44a2.71,2.71,0,0,0-.87-.54.86.86,0,0,0-.9,0,1.07,1.07,0,0,0-.34.91,2.23,2.23,0,0,0,.3,1.18,1.65,1.65,0,0,0,.86.68,2.61,2.61,0,0,0,.61.16v-1l-.74-.28Z" transform="translate(-23.25 -6.49)"/><path class="cls-13" d="M185.59,182.32v2.45a1.15,1.15,0,0,1-.17.68.75.75,0,0,1-.49.3,1.69,1.69,0,0,1-.77-.12,2.17,2.17,0,0,1-1-.77,1.9,1.9,0,0,1-.37-1.17v-2.44l.58.22v2.4a1.39,1.39,0,0,0,.2.77,1.25,1.25,0,0,0,.63.46c.55.21.83,0,.83-.61V182.1Z" transform="translate(-23.25 -6.49)"/><path class="cls-9" d="M188.07,183.71a.75.75,0,0,0-.8.08,1.28,1.28,0,0,0-.29.94,2.13,2.13,0,0,0,.28,1.16,1.49,1.49,0,0,0,.8.66,1.69,1.69,0,0,0,.44.12l.44.05v.53a2.56,2.56,0,0,1-.95-.19,2.42,2.42,0,0,1-1.21-1,3,3,0,0,1-.42-1.61,2.14,2.14,0,0,1,.21-1,.9.9,0,0,1,.59-.45,1.58,1.58,0,0,1,.91.1,3.26,3.26,0,0,1,1,.63l-.21.44c-.12-.11-.25-.21-.38-.31A2.86,2.86,0,0,0,188.07,183.71Z" transform="translate(-23.25 -6.49)"/><path class="cls-9" d="M191.24,184.94a.7.7,0,0,0-.79.08,1.24,1.24,0,0,0-.29.94,2.14,2.14,0,0,0,.27,1.16,1.49,1.49,0,0,0,.8.66,1.69,1.69,0,0,0,.44.12h.45v.54a2.86,2.86,0,0,1-1-.19,2.4,2.4,0,0,1-1.2-1,3,3,0,0,1-.42-1.61,1.92,1.92,0,0,1,.21-1,.87.87,0,0,1,.59-.45,1.58,1.58,0,0,1,.91.1,3.26,3.26,0,0,1,1,.63l-.21.43-.39-.3A1.58,1.58,0,0,0,191.24,184.94Z" transform="translate(-23.25 -6.49)"/><path class="cls-12" d="M195.1,189.69l-.35-1.19-1.37-.51-.35.92-.62-.23,1.35-3.31.64.24,1.33,4.32Zm-.51-1.75-.34-1.16a1.91,1.91,0,0,0-.1-.37l-.09-.36a5,5,0,0,1-.19.63l-.33.87Z" transform="translate(-23.25 -6.49)"/><path class="cls-14" d="M197.66,188.6l1.32.49V191a2.57,2.57,0,0,1-.62-.08,3.72,3.72,0,0,1-.65-.19,2.56,2.56,0,0,1-1.25-1,2.85,2.85,0,0,1-.43-1.61,1.38,1.38,0,0,1,.5-1.25,1.48,1.48,0,0,1,1.36,0,3.55,3.55,0,0,1,1.06.63l-.2.44a3,3,0,0,0-.87-.54.92.92,0,0,0-.91,0,1.1,1.1,0,0,0-.33.92,2.08,2.08,0,0,0,.29,1.17,1.67,1.67,0,0,0,.87.68,2.41,2.41,0,0,0,.6.16v-1l-.74-.28Z" transform="translate(-23.25 -6.49)"/><path class="cls-14" d="M201.3,189.94l1.32.5v1.9a3.18,3.18,0,0,1-.62-.07,4.75,4.75,0,0,1-.64-.2,2.43,2.43,0,0,1-1.25-1,2.94,2.94,0,0,1-.44-1.61,1.38,1.38,0,0,1,.5-1.24,1.45,1.45,0,0,1,1.37,0,3.55,3.55,0,0,1,1.06.63l-.2.44a3.07,3.07,0,0,0-.88-.54.9.9,0,0,0-.9,0,1.1,1.1,0,0,0-.34.92,2.18,2.18,0,0,0,.3,1.17,1.68,1.68,0,0,0,.86.69,3.2,3.2,0,0,0,.61.15v-1l-.74-.28Z" transform="translate(-23.25 -6.49)"/><path class="cls-12" d="M111.06,169l-.36-1.19-1.37-.52-.35.92-.61-.23,1.34-3.31.64.24,1.33,4.32Zm-.51-1.79-.33-1.16a2.64,2.64,0,0,0-.1-.36,2.37,2.37,0,0,1-.09-.36,4.48,4.48,0,0,1-.2.62l-.32.87Z" transform="translate(-23.25 -6.49)"/><path class="cls-13" d="M115,166.67v2.46a1.13,1.13,0,0,1-.18.67.66.66,0,0,1-.49.3,1.69,1.69,0,0,1-.77-.12,2.17,2.17,0,0,1-1-.77,1.87,1.87,0,0,1-.37-1.16V165.6l.58.22v2.4a1.39,1.39,0,0,0,.2.77,1.33,1.33,0,0,0,.63.47c.55.2.83,0,.83-.61v-2.4Z" transform="translate(-23.25 -6.49)"/><path class="cls-14" d="M117.33,169.3l1.32.5v1.91a4.2,4.2,0,0,1-.62-.08,4.84,4.84,0,0,1-.65-.19,2.56,2.56,0,0,1-1.25-1,2.84,2.84,0,0,1-.43-1.6,1.38,1.38,0,0,1,.5-1.25,1.48,1.48,0,0,1,1.36,0,3.73,3.73,0,0,1,1.07.63l-.21.43a3,3,0,0,0-.87-.54.92.92,0,0,0-.91,0,1.1,1.1,0,0,0-.33.92,2.28,2.28,0,0,0,.29,1.17,1.65,1.65,0,0,0,.87.69,3.1,3.1,0,0,0,.6.15v-1l-.74-.28Z" transform="translate(-23.25 -6.49)"/><path class="cls-14" d="M121,170.68l1.32.49v1.91a3.19,3.19,0,0,1-.62-.08,4.71,4.71,0,0,1-.64-.19,2.48,2.48,0,0,1-1.25-1,2.93,2.93,0,0,1-.44-1.6,1.39,1.39,0,0,1,.5-1.25,1.5,1.5,0,0,1,1.37,0,3.55,3.55,0,0,1,1.06.63l-.2.44a3,3,0,0,0-.87-.54.88.88,0,0,0-.91,0,1.11,1.11,0,0,0-.34.91,2.23,2.23,0,0,0,.3,1.18,1.8,1.8,0,0,0,.86.68,2.61,2.61,0,0,0,.61.16v-1l-.74-.28Z" transform="translate(-23.25 -6.49)"/><path class="cls-14" d="M124.59,172.05l1.31.5v1.9a4.2,4.2,0,0,1-.62-.07,4.75,4.75,0,0,1-.64-.2,2.43,2.43,0,0,1-1.25-1,2.86,2.86,0,0,1-.44-1.61,1.39,1.39,0,0,1,.5-1.25,1.5,1.5,0,0,1,1.37,0,3.55,3.55,0,0,1,1.06.63l-.21.44a3,3,0,0,0-.87-.54.86.86,0,0,0-.9,0,1.09,1.09,0,0,0-.34.92,2.18,2.18,0,0,0,.3,1.17,1.68,1.68,0,0,0,.86.69,3.2,3.2,0,0,0,.61.15v-1l-.74-.28Z" transform="translate(-23.25 -6.49)"/><path class="cls-12" d="M129,175.77l-.36-1.19-1.37-.52-.35.92-.61-.23,1.34-3.31.64.24,1.33,4.32Zm-.51-1.79-.33-1.16a2.64,2.64,0,0,0-.1-.36,2.37,2.37,0,0,1-.09-.36,4.48,4.48,0,0,1-.2.62l-.32.87Z" transform="translate(-23.25 -6.49)"/><path class="cls-9" d="M131.59,173.43a.73.73,0,0,0-.79.08,1.29,1.29,0,0,0-.3.94,2.24,2.24,0,0,0,.28,1.16,1.49,1.49,0,0,0,.8.66,1.69,1.69,0,0,0,.44.12l.45.05v.5a2.65,2.65,0,0,1-1-.19,2.4,2.4,0,0,1-1.2-1,3,3,0,0,1-.42-1.61,2,2,0,0,1,.2-1,.92.92,0,0,1,.6-.45,1.58,1.58,0,0,1,.91.1,3.26,3.26,0,0,1,1,.63l-.21.44c-.13-.11-.25-.21-.39-.31A2.29,2.29,0,0,0,131.59,173.43Z" transform="translate(-23.25 -6.49)"/><path class="cls-9" d="M134.79,174.63a.69.69,0,0,0-.79.08,1.28,1.28,0,0,0-.29.94,2.36,2.36,0,0,0,.27,1.16,1.55,1.55,0,0,0,.81.66,1.69,1.69,0,0,0,.44.12h.44v.54a2.86,2.86,0,0,1-1-.19,2.4,2.4,0,0,1-1.2-1,3,3,0,0,1-.42-1.61,1.92,1.92,0,0,1,.21-1,.91.91,0,0,1,.59-.46,1.67,1.67,0,0,1,.91.11,3.26,3.26,0,0,1,1,.63l-.21.43-.38-.3A1.66,1.66,0,0,0,134.79,174.63Z" transform="translate(-23.25 -6.49)"/><path class="cls-14" d="M137.91,177.07l1.31.49v1.91a3.19,3.19,0,0,1-.62-.08,3.61,3.61,0,0,1-.64-.19,2.54,2.54,0,0,1-1.26-1,2.93,2.93,0,0,1-.43-1.61,1.39,1.39,0,0,1,.5-1.25,1.5,1.5,0,0,1,1.37,0,3.67,3.67,0,0,1,1.06.63l-.21.44a3,3,0,0,0-.87-.54.92.92,0,0,0-.91,0,1.1,1.1,0,0,0-.33.92,2.18,2.18,0,0,0,.3,1.17,1.65,1.65,0,0,0,.86.68,2.41,2.41,0,0,0,.6.16v-1l-.74-.28Z" transform="translate(-23.25 -6.49)"/><path class="cls-14" d="M141.59,178.44l1.32.5v1.9a3.18,3.18,0,0,1-.62-.07,4.88,4.88,0,0,1-.65-.2,2.43,2.43,0,0,1-1.25-1A2.94,2.94,0,0,1,140,178a1.46,1.46,0,0,1,.5-1.25,1.5,1.5,0,0,1,1.37,0,3.55,3.55,0,0,1,1.06.63l-.2.44a3,3,0,0,0-.87-.54.92.92,0,0,0-.91,0,1.1,1.1,0,0,0-.33.92,2.08,2.08,0,0,0,.29,1.17,1.68,1.68,0,0,0,.86.69,3.2,3.2,0,0,0,.61.15v-1l-.74-.23Z" transform="translate(-23.25 -6.49)"/><path class="cls-14" d="M145.18,179.81l1.32.5v1.91a4.2,4.2,0,0,1-.62-.08,3.65,3.65,0,0,1-.64-.2,2.43,2.43,0,0,1-1.25-1,2.94,2.94,0,0,1-.44-1.61,1.38,1.38,0,0,1,.5-1.24,1.5,1.5,0,0,1,1.37,0,4,4,0,0,1,1.06.62l-.21.44a3,3,0,0,0-.87-.54.9.9,0,0,0-.9,0,1.1,1.1,0,0,0-.34.92,2.18,2.18,0,0,0,.3,1.17,1.68,1.68,0,0,0,.86.69,3.2,3.2,0,0,0,.61.15v-1l-.74-.28Z" transform="translate(-23.25 -6.49)"/><path class="cls-13" d="M150.16,179.94v2.46a1.13,1.13,0,0,1-.18.67.66.66,0,0,1-.49.3,1.69,1.69,0,0,1-.77-.12,2.15,2.15,0,0,1-1-.76,1.9,1.9,0,0,1-.37-1.17v-2.45l.58.22v2.41a1.17,1.17,0,0,0,.83,1.23c.55.21.83,0,.83-.61v-2.4Z" transform="translate(-23.25 -6.49)"/><path class="cls-14" d="M152.59,182.59l1.31.49V185a4.2,4.2,0,0,1-.62-.07,4.88,4.88,0,0,1-.65-.2,2.56,2.56,0,0,1-1.25-1,2.85,2.85,0,0,1-.43-1.61,1.38,1.38,0,0,1,.5-1.25,1.48,1.48,0,0,1,1.36,0,3.73,3.73,0,0,1,1.07.63l-.21.44a3,3,0,0,0-.87-.54.92.92,0,0,0-.91,0,1.1,1.1,0,0,0-.33.92,2.18,2.18,0,0,0,.3,1.17,1.72,1.72,0,0,0,.86.69,3.1,3.1,0,0,0,.6.15v-1l-.75-.28Z" transform="translate(-23.25 -6.49)"/><path class="cls-14" d="M156.17,183.94l1.32.5v1.9a3.18,3.18,0,0,1-.62-.07,4.75,4.75,0,0,1-.64-.2,2.43,2.43,0,0,1-1.25-1,2.94,2.94,0,0,1-.44-1.61,1.38,1.38,0,0,1,.5-1.24,1.45,1.45,0,0,1,1.37,0,3.55,3.55,0,0,1,1.06.63l-.2.44a3,3,0,0,0-.87-.54.92.92,0,0,0-.91,0,1.13,1.13,0,0,0-.34.92,2.18,2.18,0,0,0,.3,1.17,1.68,1.68,0,0,0,.86.69,3.2,3.2,0,0,0,.61.15v-1l-.74-.28Z" transform="translate(-23.25 -6.49)"/><path class="cls-13" d="M161.15,184.1v2.46a1.2,1.2,0,0,1-.17.67.68.68,0,0,1-.5.3,1.69,1.69,0,0,1-.77-.12,2.22,2.22,0,0,1-1-.76,2,2,0,0,1-.37-1.17V183l.59.22v2.41a1.17,1.17,0,0,0,.83,1.23c.56.21.83,0,.83-.61v-2.4Z" transform="translate(-23.25 -6.49)"/><path class="cls-9" d="M163.59,185.5a.7.7,0,0,0-.79.08,1.29,1.29,0,0,0-.3.94,2.13,2.13,0,0,0,.28,1.16,1.49,1.49,0,0,0,.8.66,1.69,1.69,0,0,0,.44.12h.45V189a2.37,2.37,0,0,1-.95-.19,2.23,2.23,0,0,1-1.2-1,2.91,2.91,0,0,1-.42-1.6,2,2,0,0,1,.2-1,.91.91,0,0,1,.6-.46,1.63,1.63,0,0,1,.9.11,3.05,3.05,0,0,1,1,.62l-.21.44c-.13-.1-.25-.21-.39-.3A1.46,1.46,0,0,0,163.59,185.5Z" transform="translate(-23.25 -6.49)"/><path class="cls-9" d="M166.76,186.7a.7.7,0,0,0-.79.08,1.25,1.25,0,0,0-.29.93,2.27,2.27,0,0,0,.27,1.17,1.55,1.55,0,0,0,.81.66,3.17,3.17,0,0,0,.44.12h.44v.53a2.47,2.47,0,0,1-1-.19,2.4,2.4,0,0,1-1.2-1,2.91,2.91,0,0,1-.42-1.6,1.92,1.92,0,0,1,.21-1,.89.89,0,0,1,.59-.46,1.49,1.49,0,0,1,.91.11,3.05,3.05,0,0,1,1,.62l-.21.44a3.57,3.57,0,0,0-.38-.3A1.66,1.66,0,0,0,166.76,186.7Z" transform="translate(-23.25 -6.49)"/><path class="cls-14" d="M169.88,189.13l1.31.5v1.91a4.2,4.2,0,0,1-.62-.08,3.65,3.65,0,0,1-.64-.2,2.49,2.49,0,0,1-1.26-1,2.85,2.85,0,0,1-.43-1.61,1.38,1.38,0,0,1,.5-1.24,1.5,1.5,0,0,1,1.37,0,4,4,0,0,1,1.06.62l-.21.44a3,3,0,0,0-.87-.54.92.92,0,0,0-.91,0,1.1,1.1,0,0,0-.33.92,2.18,2.18,0,0,0,.3,1.17,1.63,1.63,0,0,0,.86.69,3.1,3.1,0,0,0,.6.15v-1l-.74-.28Z" transform="translate(-23.25 -6.49)"/><path class="cls-14" d="M173.51,190.5l1.32.5v1.94a3.19,3.19,0,0,1-.62-.08,4.71,4.71,0,0,1-.64-.19,2.56,2.56,0,0,1-1.25-1,2.93,2.93,0,0,1-.44-1.6,1.46,1.46,0,0,1,.5-1.25,1.5,1.5,0,0,1,1.37,0,3.55,3.55,0,0,1,1.06.63l-.2.44a2.73,2.73,0,0,0-.87-.55.92.92,0,0,0-.91,0,1.13,1.13,0,0,0-.33.92,2,2,0,0,0,.29,1.17,1.68,1.68,0,0,0,.86.69,4.21,4.21,0,0,0,.61.16v-1l-.74-.28Z" transform="translate(-23.25 -6.49)"/><path class="cls-14" d="M177.15,191.88l1.32.49v1.91a3.19,3.19,0,0,1-.62-.08,3.61,3.61,0,0,1-.64-.19,2.56,2.56,0,0,1-1.25-1,2.94,2.94,0,0,1-.44-1.61,1.39,1.39,0,0,1,.5-1.25,1.5,1.5,0,0,1,1.37,0,3.55,3.55,0,0,1,1.06.63l-.21.44a3,3,0,0,0-.87-.54.9.9,0,0,0-.9,0,1.1,1.1,0,0,0-.34.92,2.18,2.18,0,0,0,.3,1.17,1.8,1.8,0,0,0,.86.68,2.61,2.61,0,0,0,.61.16v-1l-.74-.28Z" transform="translate(-23.25 -6.49)"/><path class="cls-12" d="M181.59,195.59l-.36-1.18-1.36-.52-.36.92-.61-.23,1.34-3.31.64.24,1.33,4.32Zm-.51-1.78-.33-1.16a2.64,2.64,0,0,0-.1-.36,2.37,2.37,0,0,1-.09-.36,4.48,4.48,0,0,1-.2.62l-.32.87Z" transform="translate(-23.25 -6.49)"/><path class="cls-13" d="M185.44,193.27v2.45a1.25,1.25,0,0,1-.17.68.77.77,0,0,1-.5.3,1.69,1.69,0,0,1-.77-.12,2.24,2.24,0,0,1-1-.77,1.9,1.9,0,0,1-.37-1.17V192.2l.59.22v2.4a1.39,1.39,0,0,0,.2.77,1.25,1.25,0,0,0,.63.46c.56.21.83,0,.83-.61v-2.39Z" transform="translate(-23.25 -6.49)"/><path class="cls-13" d="M189.16,194.67v2.46a1.21,1.21,0,0,1-.18.67.66.66,0,0,1-.49.3,1.69,1.69,0,0,1-.77-.12,2.15,2.15,0,0,1-1-.76,2,2,0,0,1-.37-1.17V193.6l.58.22v2.41a1.17,1.17,0,0,0,.83,1.23c.55.21.83,0,.83-.61v-2.4Z" transform="translate(-23.25 -6.49)"/><path class="cls-9" d="M191.59,196.07a.71.71,0,0,0-.8.08,1.28,1.28,0,0,0-.29.94,2.13,2.13,0,0,0,.28,1.16,1.49,1.49,0,0,0,.8.66,1.69,1.69,0,0,0,.44.12h.44v.53a2.31,2.31,0,0,1-1-.19,2.25,2.25,0,0,1-1.21-1,2.9,2.9,0,0,1-.41-1.6,1.82,1.82,0,0,1,.2-1,.91.91,0,0,1,.59-.46,1.67,1.67,0,0,1,.91.11,3.05,3.05,0,0,1,1,.62l-.21.44c-.12-.1-.25-.21-.38-.3A1.65,1.65,0,0,0,191.59,196.07Z" transform="translate(-23.25 -6.49)"/><path class="cls-9" d="M194.77,197.27a.7.7,0,0,0-.79.08,1.21,1.21,0,0,0-.29.93,2.27,2.27,0,0,0,.27,1.17,1.57,1.57,0,0,0,.8.66l.44.12h.45v.53a2.65,2.65,0,0,1-1-.19,2.4,2.4,0,0,1-1.2-1A2.91,2.91,0,0,1,193,198a1.92,1.92,0,0,1,.21-1,.82.82,0,0,1,.59-.46,1.49,1.49,0,0,1,.91.11,3.05,3.05,0,0,1,1,.62l-.21.44a2.88,2.88,0,0,0-.39-.3A1.58,1.58,0,0,0,194.77,197.27Z" transform="translate(-23.25 -6.49)"/><path class="cls-9" d="M198,198.46a.75.75,0,0,0-.8.08,1.28,1.28,0,0,0-.29.94,2.13,2.13,0,0,0,.28,1.16,1.51,1.51,0,0,0,.8.67,2.18,2.18,0,0,0,.44.11,3.29,3.29,0,0,0,.44.05V202a2.65,2.65,0,0,1-1-.19,2.42,2.42,0,0,1-1.21-1,3,3,0,0,1-.42-1.61,1.92,1.92,0,0,1,.21-1,.91.91,0,0,1,.59-.46,1.58,1.58,0,0,1,.91.1,3.26,3.26,0,0,1,1,.63l-.21.44c-.12-.11-.25-.21-.38-.31A2.67,2.67,0,0,0,198,198.46Z" transform="translate(-23.25 -6.49)"/><path class="cls-14" d="M201.06,200.94l1.31.5v1.9a3.18,3.18,0,0,1-.62-.07,4.75,4.75,0,0,1-.64-.2,2.43,2.43,0,0,1-1.25-1,2.86,2.86,0,0,1-.44-1.61,1.4,1.4,0,0,1,.5-1.25,1.5,1.5,0,0,1,1.37,0,3.67,3.67,0,0,1,1.06.63l-.21.44a3,3,0,0,0-.87-.54.9.9,0,0,0-.9,0,1.09,1.09,0,0,0-.34.92,2.18,2.18,0,0,0,.3,1.17,1.63,1.63,0,0,0,.86.69,3.2,3.2,0,0,0,.61.15v-1l-.74-.28Z" transform="translate(-23.25 -6.49)"/><path class="cls-12" d="M111,180l-.35-1.19-1.37-.51-.35.92-.62-.23,1.35-3.31.63.24,1.33,4.32Zm-.51-1.78-.33-1.16a3.12,3.12,0,0,0-.1-.37l-.09-.36a5,5,0,0,1-.19.63l-.33.87Z" transform="translate(-23.25 -6.49)"/><path class="cls-13" d="M114.94,177.71v2.45a1.2,1.2,0,0,1-.17.67.66.66,0,0,1-.49.3,1.46,1.46,0,0,1-.77-.12,2.15,2.15,0,0,1-1-.76,1.89,1.89,0,0,1-.36-1.17v-2.44l.59.22v2.4a1.32,1.32,0,0,0,.21.77,1.17,1.17,0,0,0,.63.46c.55.21.82,0,.83-.61v-2.4Z" transform="translate(-23.25 -6.49)"/><path class="cls-14" d="M117.31,180.34l1.32.5v1.9a3.18,3.18,0,0,1-.62-.07,4.75,4.75,0,0,1-.64-.2,2.43,2.43,0,0,1-1.25-1,2.86,2.86,0,0,1-.44-1.61,1.38,1.38,0,0,1,.5-1.24,1.45,1.45,0,0,1,1.37,0,3.55,3.55,0,0,1,1.06.63l-.21.44a3,3,0,0,0-.87-.54.9.9,0,0,0-.9,0,1.09,1.09,0,0,0-.34.92,2.18,2.18,0,0,0,.3,1.17,1.63,1.63,0,0,0,.86.69,3.2,3.2,0,0,0,.61.15v-1l-.74-.28Z" transform="translate(-23.25 -6.49)"/><path class="cls-14" d="M121,181.71l1.31.5v1.91a4.2,4.2,0,0,1-.62-.08,3.75,3.75,0,0,1-.65-.2,2.56,2.56,0,0,1-1.25-1,2.84,2.84,0,0,1-.43-1.6,1.38,1.38,0,0,1,.5-1.25,1.5,1.5,0,0,1,1.37,0,4,4,0,0,1,1.06.62l-.21.44a3,3,0,0,0-.87-.54.92.92,0,0,0-.91,0,1.1,1.1,0,0,0-.33.92,2.09,2.09,0,0,0,.3,1.17,1.63,1.63,0,0,0,.86.69,3.1,3.1,0,0,0,.6.15v-1l-.75-.27Z" transform="translate(-23.25 -6.49)"/><path class="cls-14" d="M124.59,183.09l1.32.49v1.91a3.19,3.19,0,0,1-.62-.08,4.71,4.71,0,0,1-.64-.19,2.48,2.48,0,0,1-1.25-1,2.93,2.93,0,0,1-.44-1.6,1.46,1.46,0,0,1,.5-1.25,1.5,1.5,0,0,1,1.37,0,3.55,3.55,0,0,1,1.06.63l-.2.44a2.54,2.54,0,0,0-.87-.54.88.88,0,0,0-.91,0,1.07,1.07,0,0,0-.33.91,2.14,2.14,0,0,0,.29,1.18,1.8,1.8,0,0,0,.86.68,3.22,3.22,0,0,0,.61.16v-1l-.74-.28Z" transform="translate(-23.25 -6.49)"/><path class="cls-13" d="M129.59,183.23v2.45a1.25,1.25,0,0,1-.17.68.77.77,0,0,1-.5.3,1.69,1.69,0,0,1-.77-.12,2.24,2.24,0,0,1-1-.77,2,2,0,0,1-.37-1.17v-2.44l.59.22v2.4a1.39,1.39,0,0,0,.2.77,1.24,1.24,0,0,0,.64.46c.55.21.82,0,.82-.61V183Z" transform="translate(-23.25 -6.49)"/><path class="cls-9" d="M132,184.62a.73.73,0,0,0-.79.08,1.29,1.29,0,0,0-.3.94,2.24,2.24,0,0,0,.28,1.16,1.49,1.49,0,0,0,.8.66,1.69,1.69,0,0,0,.44.12l.45,0v.53a2.65,2.65,0,0,1-1-.19,2.4,2.4,0,0,1-1.2-1,3,3,0,0,1-.42-1.61,1.92,1.92,0,0,1,.21-1,.87.87,0,0,1,.59-.45,1.58,1.58,0,0,1,.91.1,3.26,3.26,0,0,1,1,.63l-.21.44a4.08,4.08,0,0,0-.39-.31A2.39,2.39,0,0,0,132,184.62Z" transform="translate(-23.25 -6.49)"/><path class="cls-9" d="M135.17,185.82a.69.69,0,0,0-.79.08,1.28,1.28,0,0,0-.29.94,2.36,2.36,0,0,0,.27,1.16,1.55,1.55,0,0,0,.81.66,1.69,1.69,0,0,0,.44.12h.44v.54a2.86,2.86,0,0,1-1-.19,2.42,2.42,0,0,1-1.21-1,3,3,0,0,1-.42-1.61,1.92,1.92,0,0,1,.21-1,.94.94,0,0,1,.59-.46,1.67,1.67,0,0,1,.91.11,3.26,3.26,0,0,1,1,.63l-.21.43-.38-.3A1.58,1.58,0,0,0,135.17,185.82Z" transform="translate(-23.25 -6.49)"/><path class="cls-9" d="M138.35,187a.7.7,0,0,0-.79.08,1.29,1.29,0,0,0-.3.94,2.13,2.13,0,0,0,.28,1.16,1.49,1.49,0,0,0,.8.66,1.69,1.69,0,0,0,.44.12h.45v.54a2.66,2.66,0,0,1-1-.2,2.23,2.23,0,0,1-1.2-1,2.91,2.91,0,0,1-.42-1.6,2,2,0,0,1,.2-1,.91.91,0,0,1,.6-.46,1.55,1.55,0,0,1,.9.11,3.26,3.26,0,0,1,1,.63l-.21.43-.39-.3A1.65,1.65,0,0,0,138.35,187Z" transform="translate(-23.25 -6.49)"/><path class="cls-14" d="M141.46,189.46l1.32.49v1.91a3.19,3.19,0,0,1-.62-.08,4.71,4.71,0,0,1-.64-.19,2.56,2.56,0,0,1-1.25-1,2.93,2.93,0,0,1-.44-1.6,1.39,1.39,0,0,1,.5-1.25,1.5,1.5,0,0,1,1.37,0,3.55,3.55,0,0,1,1.06.63l-.2.44a2.54,2.54,0,0,0-.87-.54.88.88,0,0,0-.91,0,1.11,1.11,0,0,0-.34.91,2.23,2.23,0,0,0,.3,1.18,1.8,1.8,0,0,0,.86.68,2.61,2.61,0,0,0,.61.16v-1l-.74-.28Z" transform="translate(-23.25 -6.49)"/><path class="cls-12" d="M145.85,193.17,145.5,192l-1.37-.51-.35.92-.62-.23,1.35-3.31.63.24,1.33,4.32Zm-.51-1.78-.33-1.16a3.12,3.12,0,0,0-.1-.37l-.09-.36a5,5,0,0,1-.19.63l-.33.87Z" transform="translate(-23.25 -6.49)"/><path class="cls-13" d="M149.75,190.85v2.45a1.2,1.2,0,0,1-.17.67.68.68,0,0,1-.5.3,1.56,1.56,0,0,1-.77-.11,2.24,2.24,0,0,1-1-.77,2,2,0,0,1-.37-1.17v-2.44l.59.22v2.4a1.32,1.32,0,0,0,.21.77,1.17,1.17,0,0,0,.63.46c.55.21.82,0,.82-.61v-2.39Z" transform="translate(-23.25 -6.49)"/><path class="cls-14" d="M152.13,193.48l1.31.5v1.9a3.18,3.18,0,0,1-.62-.07,4.75,4.75,0,0,1-.64-.2,2.43,2.43,0,0,1-1.25-1,2.86,2.86,0,0,1-.44-1.61,1.38,1.38,0,0,1,.5-1.24,1.5,1.5,0,0,1,1.37,0,3.67,3.67,0,0,1,1.06.63l-.21.44a3,3,0,0,0-.87-.54.9.9,0,0,0-.9,0,1.09,1.09,0,0,0-.34.92,2.18,2.18,0,0,0,.3,1.17,1.63,1.63,0,0,0,.86.69,3.2,3.2,0,0,0,.61.15v-1l-.74-.28Z" transform="translate(-23.25 -6.49)"/><path class="cls-14" d="M155.76,194.85l1.32.5v1.91a4.2,4.2,0,0,1-.62-.08,4.84,4.84,0,0,1-.65-.19,2.56,2.56,0,0,1-1.25-1,2.84,2.84,0,0,1-.43-1.6,1.38,1.38,0,0,1,.5-1.25,1.48,1.48,0,0,1,1.36,0,3.73,3.73,0,0,1,1.07.63l-.21.43a3,3,0,0,0-.87-.54.92.92,0,0,0-.91,0,1.1,1.1,0,0,0-.33.92,2.28,2.28,0,0,0,.29,1.17,1.65,1.65,0,0,0,.87.69,3.1,3.1,0,0,0,.6.15v-1l-.74-.28Z" transform="translate(-23.25 -6.49)"/><path class="cls-14" d="M159.4,196.23l1.32.49v1.91a3.19,3.19,0,0,1-.62-.08,4.71,4.71,0,0,1-.64-.19,2.48,2.48,0,0,1-1.25-1,2.93,2.93,0,0,1-.44-1.6,1.39,1.39,0,0,1,.5-1.25,1.5,1.5,0,0,1,1.37,0,3.55,3.55,0,0,1,1.06.63l-.2.44a3,3,0,0,0-.87-.54.88.88,0,0,0-.91,0,1.11,1.11,0,0,0-.34.91,2.23,2.23,0,0,0,.3,1.18,1.8,1.8,0,0,0,.86.68,2.61,2.61,0,0,0,.61.16v-1l-.74-.28Z" transform="translate(-23.25 -6.49)"/><path class="cls-13" d="M164.38,196.37v2.45a1.25,1.25,0,0,1-.17.68.77.77,0,0,1-.5.3,1.69,1.69,0,0,1-.77-.12,2.24,2.24,0,0,1-1-.77,1.9,1.9,0,0,1-.37-1.17V195.3l.59.22v2.42a1.39,1.39,0,0,0,.2.77,1.25,1.25,0,0,0,.63.46c.56.21.83,0,.83-.61v-2.39Z" transform="translate(-23.25 -6.49)"/><path class="cls-9" d="M166.82,197.76a.75.75,0,0,0-.8.08,1.28,1.28,0,0,0-.29.94,2.13,2.13,0,0,0,.28,1.16,1.51,1.51,0,0,0,.8.67,2.18,2.18,0,0,0,.44.11,3.29,3.29,0,0,0,.44.05v.53a2.56,2.56,0,0,1-.95-.19,2.42,2.42,0,0,1-1.21-1,3,3,0,0,1-.41-1.61,2,2,0,0,1,.2-1,.92.92,0,0,1,.6-.45,1.54,1.54,0,0,1,.9.1,3.26,3.26,0,0,1,1,.63l-.22.44c-.12-.11-.25-.21-.38-.31A2.74,2.74,0,0,0,166.82,197.76Z" transform="translate(-23.25 -6.49)"/><path class="cls-9" d="M170,198.94a.73.73,0,0,0-.79.08,1.28,1.28,0,0,0-.29.94,2.25,2.25,0,0,0,.27,1.16,1.55,1.55,0,0,0,.81.66,1.69,1.69,0,0,0,.44.12l.44,0v.53a2.86,2.86,0,0,1-1-.19,2.4,2.4,0,0,1-1.2-1,3,3,0,0,1-.42-1.61,1.92,1.92,0,0,1,.21-1,.9.9,0,0,1,.59-.45,1.5,1.5,0,0,1,.91.1,3.26,3.26,0,0,1,1,.63l-.21.44c-.12-.11-.25-.21-.38-.31A2.5,2.5,0,0,0,170,198.94Z" transform="translate(-23.25 -6.49)"/><path class="cls-13" d="M174.45,200.17v2.45a1.06,1.06,0,0,1-.17.67.66.66,0,0,1-.49.3,1.56,1.56,0,0,1-.77-.11,2.17,2.17,0,0,1-1-.77,1.9,1.9,0,0,1-.37-1.17V199.1l.58.22v2.4a1.39,1.39,0,0,0,.2.77,1.25,1.25,0,0,0,.63.46c.55.21.83,0,.83-.61v-2.4Z" transform="translate(-23.25 -6.49)"/><path class="cls-12" d="M177.59,205.15l-.35-1.19-1.37-.52-.35.92-.62-.23,1.35-3.31.64.24,1.33,4.32Zm-.5-1.79-.34-1.16a1.69,1.69,0,0,0-.1-.36,2.24,2.24,0,0,1-.08-.36,4.48,4.48,0,0,1-.2.62l-.32.87Z" transform="translate(-23.25 -6.49)"/><path class="cls-14" d="M180.14,204.05l1.31.5v1.9a3.18,3.18,0,0,1-.62-.07,4.88,4.88,0,0,1-.65-.2,2.56,2.56,0,0,1-1.25-1,2.85,2.85,0,0,1-.43-1.61,1.38,1.38,0,0,1,.5-1.24,1.43,1.43,0,0,1,1.36,0,3.73,3.73,0,0,1,1.07.63l-.21.44a3,3,0,0,0-.87-.54.92.92,0,0,0-.91,0,1.1,1.1,0,0,0-.33.92,2.18,2.18,0,0,0,.3,1.17,1.63,1.63,0,0,0,.86.69,3.1,3.1,0,0,0,.6.15v-1l-.75-.28Z" transform="translate(-23.25 -6.49)"/><path class="cls-14" d="M183.77,205.42l1.32.5v1.91a4.2,4.2,0,0,1-.62-.08,3.65,3.65,0,0,1-.64-.2,2.43,2.43,0,0,1-1.25-1,2.93,2.93,0,0,1-.44-1.6,1.39,1.39,0,0,1,.5-1.25,1.5,1.5,0,0,1,1.37,0,3.55,3.55,0,0,1,1.06.63l-.2.43a3,3,0,0,0-.87-.54.92.92,0,0,0-.91,0,1.13,1.13,0,0,0-.34.92,2.09,2.09,0,0,0,.3,1.17,1.68,1.68,0,0,0,.86.69,3.2,3.2,0,0,0,.61.15v-1l-.74-.28Z" transform="translate(-23.25 -6.49)"/><path class="cls-14" d="M187.41,206.8l1.32.49v1.91a3.19,3.19,0,0,1-.62-.08,4.71,4.71,0,0,1-.64-.19,2.48,2.48,0,0,1-1.25-1,2.75,2.75,0,0,1-.44-1.6,1.39,1.39,0,0,1,.5-1.25,1.5,1.5,0,0,1,1.37,0,3.55,3.55,0,0,1,1.06.63l-.21.44a2.71,2.71,0,0,0-.87-.54.86.86,0,0,0-.9,0,1.07,1.07,0,0,0-.34.91,2.23,2.23,0,0,0,.3,1.18,1.65,1.65,0,0,0,.86.68,2.61,2.61,0,0,0,.61.16v-1l-.74-.28Z" transform="translate(-23.25 -6.49)"/><path class="cls-13" d="M192.39,206.94v2.45a1.15,1.15,0,0,1-.17.68.73.73,0,0,1-.49.3,1.69,1.69,0,0,1-.77-.12,2.17,2.17,0,0,1-1-.77,1.9,1.9,0,0,1-.37-1.17v-2.44l.58.22v2.4a1.39,1.39,0,0,0,.2.77,1.25,1.25,0,0,0,.63.46c.55.21.83,0,.83-.61v-2.39Z" transform="translate(-23.25 -6.49)"/><path class="cls-9" d="M194.83,208.33a.75.75,0,0,0-.8.08,1.28,1.28,0,0,0-.29.94,2.13,2.13,0,0,0,.28,1.16,1.51,1.51,0,0,0,.8.67,2.18,2.18,0,0,0,.44.11l.44.05v.53a2.56,2.56,0,0,1-.95-.19,2.42,2.42,0,0,1-1.21-1,3,3,0,0,1-.42-1.61,2.14,2.14,0,0,1,.21-1,.9.9,0,0,1,.59-.45,1.58,1.58,0,0,1,.91.1,3.26,3.26,0,0,1,1,.63l-.21.44c-.12-.11-.25-.21-.38-.31A2.86,2.86,0,0,0,194.83,208.33Z" transform="translate(-23.25 -6.49)"/><path class="cls-9" d="M198,209.53a.73.73,0,0,0-.79.08,1.24,1.24,0,0,0-.29.94,2.14,2.14,0,0,0,.27,1.16,1.49,1.49,0,0,0,.8.66,1.69,1.69,0,0,0,.44.12h.45V213a2.86,2.86,0,0,1-1-.19,2.4,2.4,0,0,1-1.2-1,3,3,0,0,1-.42-1.61,1.92,1.92,0,0,1,.21-1,.87.87,0,0,1,.59-.45,1.5,1.5,0,0,1,.91.1,3.26,3.26,0,0,1,1,.63l-.21.44a4.08,4.08,0,0,0-.39-.31A1.56,1.56,0,0,0,198,209.53Z" transform="translate(-23.25 -6.49)"/><path class="cls-13" d="M202.46,210.74v2.45a1.2,1.2,0,0,1-.17.67.66.66,0,0,1-.49.3A1.46,1.46,0,0,1,201,214a2.15,2.15,0,0,1-1-.76,2,2,0,0,1-.36-1.17v-2.44l.59.22v2.4a1.32,1.32,0,0,0,.21.77,1.17,1.17,0,0,0,.63.46c.55.21.83,0,.83-.61v-2.39Z" transform="translate(-23.25 -6.49)"/><polygon class="cls-15" points="132.82 189.44 115.84 196.41 126.66 200.57 126.4 236.2 167.5 251.98 172.71 204.37 132.82 189.44"/><polygon class="cls-16" points="156.9 256.94 115.8 239.37 115.84 196.41 156.94 212.19 156.9 256.94"/><polygon class="cls-17" points="156.9 256.94 172.32 249.69 172.71 204.57 156.94 212.19 156.9 256.94"/><polygon class="cls-18" points="136.11 196.82 153.8 203.61 151.42 204.73 133.25 197.76 136.11 196.82"/><g class="cls-19"><ellipse class="cls-20" cx="17.54" cy="230.69" rx="17.54" ry="10.13"/></g><path class="cls-21" d="M36.51,194.28s1.87,2.95,3.75,2.58,2.14-.76,1.34-1.27-2.9-2-2.5-2.08,1.29.06,1.19-.32-2.75-.9-2.75-.9l-1.85.9Z" transform="translate(-23.25 -6.49)"/><path class="cls-22" d="M35.29,173.3s.35-3.33-2.86-3.39c-3.4-.06-2.64,7-2.64,7s.16,6.14.77,8c.82,2.54,5.33,9.09,5.33,9.09a4,4,0,0,0,2.59-1.9s-3.56-6.19-3.87-8.54S35.36,173.86,35.29,173.3Z" transform="translate(-23.25 -6.49)"/><path class="cls-22" d="M35.89,194.08s-4.51-6.55-5.33-9.09c-.61-1.9-.77-8-.77-8s-1.22-6.85,2.63-7.16a2,2,0,0,1,2.19,1c-2.48.15-2.72,1.8-2.49,5.48.25,4-.27,5.13,0,8.55s3.84,6.73,4.39,7.54c.37.53,1.24-.12,1.79-.62l.23.4A4.08,4.08,0,0,1,35.89,194.08Z" transform="translate(-23.25 -6.49)"/><path class="cls-23" d="M35.34,234c.11,0,6-.17,4.69,2a3.27,3.27,0,0,1-2.91,1.71c-.88,0-2.49-.49-2.89-.23s-2.39,1.64-3.54.25a2.23,2.23,0,0,1-.23-1.62C30.59,235.62,34.69,233.88,35.34,234Z" transform="translate(-23.25 -6.49)"/><path class="cls-23" d="M40,236a3.27,3.27,0,0,1-2.91,1.71c-.88,0-2.49-.49-2.89-.23s-2.39,1.64-3.54.25a1.76,1.76,0,0,1-.26-.8c.79,1.18,2.75.86,3.29.47a3.06,3.06,0,0,1,2.28-.5,4.31,4.31,0,0,0,3.29-.85,1.39,1.39,0,0,0,.38-1.42.88.88,0,0,1,.49,1.14A.76.76,0,0,1,40,236Z" transform="translate(-23.25 -6.49)"/><path class="cls-24" d="M32.46,186.73s-5,7.35-1.37,17.93c.79,2.3,2.34,7.21,1.82,9.62-.62,2.89-1.53,2.08-2.18,11.65-.59,8.46-.48,6.63-.68,10,0,1,3.54,2,4.09.49,2.37-6.63,5.66-20.52,5-28.18S38,193.47,38,193.47A58,58,0,0,0,32.46,186.73Z" transform="translate(-23.25 -6.49)"/><path class="cls-23" d="M46.47,237.94c.12,0,6.2-1.35,5.2,1.19a3.55,3.55,0,0,1-2.73,2.34c-.91.19-2.66,0-3,.32s-2.2,2.17-3.62,1a2.24,2.24,0,0,1-.51-1.63C41.84,240.56,45.77,237.94,46.47,237.94Z" transform="translate(-23.25 -6.49)"/><path class="cls-23" d="M51.67,239.15a3.55,3.55,0,0,1-2.73,2.34c-.91.19-2.66,0-3,.32s-2.2,2.17-3.62.95a1.75,1.75,0,0,1-.41-.77c1,1.06,3,.35,3.5-.16a3.28,3.28,0,0,1,2.28-1A4.61,4.61,0,0,0,51,239.32a1.52,1.52,0,0,0,.16-1.56.91.91,0,0,1,.69,1.09A1,1,0,0,1,51.67,239.15Z" transform="translate(-23.25 -6.49)"/><path class="cls-13" d="M34.11,193.76s-4,4.29,3.19,15.15c0,0,3.5,7.74,3.38,10.21-.15,3-1.34,3.24-.17,12.92,1,8.41.59,8.59,1.24,9.29s4.12,0,4.23-1.47c.65-8.23,1.93-20.32,1.19-28-.85-8.79-1.48-16-1.48-16S36.76,195.47,34.11,193.76Z" transform="translate(-23.25 -6.49)"/><path class="cls-14" d="M46.27,177.51s.9-3.74-5.2-6.2-9.9-2.51-10.08,1,1.27,8.25,1.45,9.84c.14,1.26-.43,2.18-1.58,7.81-.79,3.85-1.77,7,8,8,1.7.16,7.53.77,6.88-3.33C43.72,181.94,45.43,181.66,46.27,177.51Z" transform="translate(-23.25 -6.49)"/><path class="cls-25" d="M40.59,167.19s-.87,2.6.38,4.32c.69.93-6,2.39-5.38-.35a6.39,6.39,0,0,0-2-6Z" transform="translate(-23.25 -6.49)"/><path class="cls-25" d="M40.29,169.08a11.63,11.63,0,0,1-2.61-.94l-.11.06-.63.15-.24.09s.36,2.81,3.94,2.49A6.12,6.12,0,0,1,40.29,169.08Z" transform="translate(-23.25 -6.49)"/><path class="cls-26" d="M40.65,156.48s1.09,1.77,2.56,4.77c1.29,2.65,1.51,5.7-.17,7.09-.79.65-6.38,2-8.9-4.53C32.53,159.67,35.34,154.22,40.65,156.48Z" transform="translate(-23.25 -6.49)"/><path class="cls-27" d="M41.81,156.62c.68.59,2,2.36.22,3.12-2.46,1.07-.57,4.33-1.39,5-.47.36-.45-.28-1.68-1.17-.48-.35-1.09-.12-1.21,1.27s2,3.41,1.41,3.87-4.4-.67-5.12-1.36c-1.77-1.69-4-6-.88-9.87C35.85,154.16,40.65,155.6,41.81,156.62Z" transform="translate(-23.25 -6.49)"/><path class="cls-26" d="M60.12,174.08a3.74,3.74,0,0,0,1.3-1.49,5.14,5.14,0,0,0,.63-2.33c0-.63.37-1.22-.37-1.49s-1.42,1-1.5,1.94-1.61,1.74-1.92,2.39S59.64,174.33,60.12,174.08Z" transform="translate(-23.25 -6.49)"/><path class="cls-26" d="M59.83,172.49Q60,171.23,60,170c.1-.61-.59-.07-.84.69s-.67,1.71-1,2.53C58.78,172.94,59.25,173.16,59.83,172.49Z" transform="translate(-23.25 -6.49)"/><path class="cls-14" d="M41.37,176.54a2.38,2.38,0,0,1,1.15-3.15,2.44,2.44,0,0,1,1.28-.2c1.76,0,6.81,5.59,9.68,5.43,1.42-.07,3.63-4.91,4.6-6.12.21,1.1,1.39,1.49,2.4,1.75-.94,2.4-3.26,8.82-6.12,8.92C49.45,183.35,43.42,180.94,41.37,176.54Z" transform="translate(-23.25 -6.49)"/><g class="cls-28"><polygon class="cls-3" points="148.36 208.38 138.79 204.06 138.79 193.57 148.36 197.89 148.36 208.38"/></g><g class="cls-19"><ellipse class="cls-20" cx="115.91" cy="257.28" rx="17.54" ry="10.13"/></g><path class="cls-29" d="M135.05,260c.11,0,5.87-.16,4.59,1.85a3.26,3.26,0,0,1-2.85,1.54c-.86,0-2.43-.44-2.83-.21s-2.34,1.49-3.45.23a1.83,1.83,0,0,1-.23-1.46C130.42,261.51,134.42,259.94,135.05,260Z" transform="translate(-23.25 -6.49)"/><path class="cls-30" d="M139.64,261.94a3.26,3.26,0,0,1-2.85,1.54c-.86,0-2.43-.44-2.83-.21s-2.34,1.49-3.45.23a1.54,1.54,0,0,1-.27-.72c.78,1.07,2.7.78,3.23.42a3.18,3.18,0,0,1,2.23-.45,4.46,4.46,0,0,0,3.21-.77,1.21,1.21,0,0,0,.37-1.3.8.8,0,0,1,.51,1A.76.76,0,0,1,139.64,261.94Z" transform="translate(-23.25 -6.49)"/><path class="cls-29" d="M143.33,263.79c4.13-.54,8.46.13,6.86,2.24a4.29,4.29,0,0,1-3.6,1.61c-1.09,0-3.1-.51-3.6-.27s-3,1.55-4.39.19a2.77,2.77,0,0,1-.56-2C138.22,265.08,142.52,263.94,143.33,263.79Z" transform="translate(-23.25 -6.49)"/><path class="cls-31" d="M134.65,199.2a3.29,3.29,0,0,0-2.89-3.65l-.33,0c-3.75-.21-2.75,7.27-2.75,7.27s.32,6.45,1,8.47c.95,2.69,6.06,9.75,6.06,9.75s2.19-.41,2.81-1.88c0,0-4-6.64-4.46-9.12C133.7,207.31,134.75,199.79,134.65,199.2Z" transform="translate(-23.25 -6.49)"/><path class="cls-32" d="M131.31,216.71s-3.58,6.06-.37,14.42c0,0,2.47,7.07,1.93,9.44-.66,2.83-1.62,2-2.31,11.42-.61,8.29-.58,7-.44,10,0,1,3.93,1.79,4.55-.64,1.6-6.2,5.46-19.18,4.75-26.69s-1.16-14.53-1.16-14.53S133.77,218.85,131.31,216.71Z" transform="translate(-23.25 -6.49)"/><path class="cls-33" d="M136.33,221.39s-3.61,5.38,1.27,12.5c0,0,3.66,8,3.16,10.68s-1.42,2.54-2.37,11c-.6,5.39-1,6.75-.55,10.22.15,1.29,5.1,1.41,5.38-.4,1-6.3,5.71-19.84,5-27.36S146,222,146,222,139.59,223.2,136.33,221.39Z" transform="translate(-23.25 -6.49)"/><path class="cls-13" d="M146.11,203.15s.85-4-5.82-6.38-10.79-2.3-10.87,1.42,1.64,8.69,1.88,10.37a14.69,14.69,0,0,1-.8,8.39c-1.6,3.82-2.35,7.46,8.22,8.09,1.85.11,8.72.07,7.75-4.21A53,53,0,0,1,146.11,203.15Z" transform="translate(-23.25 -6.49)"/><path class="cls-21" d="M139.92,192.51s-.7,2.83.68,4.54c.74.93-2.22,1.89-4.62.67,0,0-.21-4.82-2-6.5Z" transform="translate(-23.25 -6.49)"/><path class="cls-34" d="M139.75,194.54a11.22,11.22,0,0,1-2.67-.78l-.11.07-.53.78-.32-.45s.55,2.94,4.1,2.3A6.67,6.67,0,0,1,139.75,194.54Z" transform="translate(-23.25 -6.49)"/><path class="cls-30" d="M150.19,266a4.29,4.29,0,0,1-3.6,1.61c-1.09,0-3.1-.51-3.6-.27s-3,1.55-4.39.19a2.2,2.2,0,0,1-.47-.94c1,1.15,3.56,1,4.23.67a4.69,4.69,0,0,1,2.83-.45,6.56,6.56,0,0,0,4.07-.77,1.82,1.82,0,0,0,.68-1.74,1.07,1.07,0,0,1,.44,1.45A1.18,1.18,0,0,1,150.19,266Z" transform="translate(-23.25 -6.49)"/><path class="cls-21" d="M140,181.19a6.47,6.47,0,0,1,3.27,4.84c.52,3.36,1.58,6.27-.09,7.73s-7.9,1.1-9.94-3.2S133.77,179.24,140,181.19Z" transform="translate(-23.25 -6.49)"/><path class="cls-35" d="M136.35,193.4s.8,5.72-2,9.69c-1.59,2.25-1.63,4-1.41,5s-4.46-3.17-2.43-7.94a22.5,22.5,0,0,1,4-6.75Z" transform="translate(-23.25 -6.49)"/><path class="cls-35" d="M144,185.52a2.34,2.34,0,0,1-1.43,2.1c-1.53.62-3.34.55-3.5,1.58s-.55,3.92-1.87,4.81c-1.7,1.15-1.86-.17-2.57-1a8.9,8.9,0,0,1-1.46-9.37,5.1,5.1,0,0,1,5.48-2.84S143.83,181.51,144,185.52Z" transform="translate(-23.25 -6.49)"/><path class="cls-21" d="M137.75,191.76c.75.72,1.73.88,2.21.35a1.72,1.72,0,0,0-.48-2.26c-.75-.72-1.73-.88-2.21-.35A1.75,1.75,0,0,0,137.75,191.76Z" transform="translate(-23.25 -6.49)"/><path class="cls-36" d="M136.45,193.06s-2.29-1.44-2.68-.27c-.29.88,2.11,2,2.92,1.79S136.89,193.31,136.45,193.06Z" transform="translate(-23.25 -6.49)"/><path class="cls-21" d="M166,206.27s3.6-.83,4-2.92.12-2.5-.69-1.87-3,2.27-3,1.81.58-1.31.17-1.36-2,2.52-2,2.52l.12,2.26Z" transform="translate(-23.25 -6.49)"/><path class="cls-29" d="M145.24,199.61a3.07,3.07,0,0,0-4.19,1.15,2.61,2.61,0,0,0-.24.54c-1.44,3.5,5.71,5.4,5.71,5.4s6,2.14,8.08,2.23c2.77.11,10.93-2.09,10.93-2.09s.36-2.26-.78-3.41c0,0-7.42,1.35-9.82.79C152.32,203.61,145.81,199.74,145.24,199.61Z" transform="translate(-23.25 -6.49)"/><polyline class="cls-37" points="184.54 117.92 6.03 53.39 6.15 69.3 184.54 134.19 184.54 117.92"/><g class="cls-38"><polyline class="cls-3" points="12.15 61.39 11.22 61.05 11.38 66.08 12.32 66.42 12.15 61.39"/><path class="cls-3" d="M37.59,72.77l-.11-3.28.5.18a2,2,0,0,1,1.3,2.08c0,1.11-.39,1.49-1.29,1.17l-.4-.15m.31-4-1.38-.5.17,5,1.24.46a1.89,1.89,0,0,0,1.76,0,1.91,1.91,0,0,0,.56-1.68,3.67,3.67,0,0,0-.66-2,3.54,3.54,0,0,0-1.69-1.26" transform="translate(-23.25 -6.49)"/></g><g class="cls-39"><polyline class="cls-3" points="51.75 76.22 48.43 75.01 48.46 75.9 49.65 76.34 49.79 80.48 50.72 80.82 50.58 76.67 51.78 77.11 51.75 76.22"/><polyline class="cls-3" points="53.36 76.81 52.42 76.47 52.59 81.5 53.52 81.84 53.36 76.81"/><polyline class="cls-3" points="57.36 78.26 54.04 77.05 54.07 77.94 55.26 78.38 55.39 82.52 56.33 82.86 56.19 78.72 57.38 79.15 57.36 78.26"/><polyline class="cls-3" points="58.96 78.85 58.03 78.51 58.19 83.54 60.91 84.53 60.88 83.65 59.1 83 58.96 78.85"/><polyline class="cls-3" points="64.04 80.69 61.51 79.77 61.68 84.81 64.21 85.73 64.18 84.85 62.58 84.26 62.53 82.96 64.02 83.51 63.99 82.63 62.5 82.09 62.47 80.99 64.07 81.57 64.04 80.69"/></g><g class="cls-40"><path class="cls-3" d="M110.88,95.43a1.21,1.21,0,0,0-1.08,0,.93.93,0,0,0-.36.9,1.66,1.66,0,0,0,.14.66,2.06,2.06,0,0,0,.34.59,4.54,4.54,0,0,0,.61.63c.29.26.49.45.58.55a1.66,1.66,0,0,1,.22.3.52.52,0,0,1,.08.3c0,.17,0,.29-.14.33a.64.64,0,0,1-.47,0,3.1,3.1,0,0,1-.57-.3c-.2-.14-.46-.34-.77-.6v1a3.79,3.79,0,0,0,1.25.75,1.36,1.36,0,0,0,1.18,0,.93.93,0,0,0,.4-.92,2.08,2.08,0,0,0-.26-.91,4.38,4.38,0,0,0-.87-1,8.08,8.08,0,0,1-.6-.57,1.57,1.57,0,0,1-.19-.26.9.9,0,0,1-.07-.27.34.34,0,0,1,.14-.32.44.44,0,0,1,.39,0,2.47,2.47,0,0,1,.46.23c.2.14.4.28.59.44l.27-.72a6.36,6.36,0,0,0-.66-.5,3.61,3.61,0,0,0-.65-.33" transform="translate(-23.25 -6.49)"/><polyline class="cls-3" points="92.29 90.71 89.75 89.79 89.92 94.82 92.45 95.74 92.43 94.86 90.82 94.28 90.78 92.98 92.27 93.52 92.24 92.65 90.75 92.1 90.72 91 92.32 91.58 92.29 90.71"/><path class="cls-3" d="M118.49,102.43a1.49,1.49,0,0,1-.85-.73,3.07,3.07,0,0,1-.32-1.37,1.77,1.77,0,0,1,.24-1.17c.18-.22.45-.26.82-.12q1.11.39,1.17,2.1c0,1.13-.32,1.56-1.06,1.29m-.14-4.28a1.44,1.44,0,0,0-1.53.09,2.14,2.14,0,0,0-.48,1.72,4.1,4.1,0,0,0,.6,2.13,3.18,3.18,0,0,0,1.58,1.24h.07l.84,1.42,1.19.44-1.1-1.74a1,1,0,0,0,.78-.58,3,3,0,0,0,.23-1.4,3.93,3.93,0,0,0-.61-2.11,3,3,0,0,0-1.57-1.23" transform="translate(-23.25 -6.49)"/><path class="cls-3" d="M124.93,100.62l-.93-.34.1,3.07a1,1,0,0,1-.17.79q-.21.21-.66,0a1.29,1.29,0,0,1-.68-.51,1.83,1.83,0,0,1-.24-.94l-.1-3.08-.93-.34.11,3.25a2.64,2.64,0,0,0,.52,1.53,2.76,2.76,0,0,0,1.33,1,1.8,1.8,0,0,0,1,.13.85.85,0,0,0,.6-.41,1.68,1.68,0,0,0,.19-.91l-.11-3.25" transform="translate(-23.25 -6.49)"/><polyline class="cls-3" points="105.29 95.44 102.76 94.52 102.92 99.55 105.46 100.48 105.43 99.6 103.83 99.01 103.78 97.71 105.27 98.25 105.25 97.38 103.76 96.84 103.72 95.73 105.32 96.32 105.29 95.44"/><path class="cls-3" d="M133.36,103.68l-.84-.3.08,2.38a11.1,11.1,0,0,0,.08,1.41h0l-2-4.47-1.17-.43.16,5,.83.3-.08-2.36a9.49,9.49,0,0,0-.1-1.47h0l2,4.51,1.18.43-.16-5" transform="translate(-23.25 -6.49)"/><path class="cls-3" d="M136.33,104.69a1.63,1.63,0,0,0-1.09-.08,1.11,1.11,0,0,0-.68.64,2.85,2.85,0,0,0-.21,1.29,4.19,4.19,0,0,0,.57,2.1,2.85,2.85,0,0,0,1.49,1.2,2.72,2.72,0,0,0,1.2.18v-.89a3,3,0,0,1-1.11-.15c-.74-.26-1.12-1-1.16-2.08a1.82,1.82,0,0,1,.25-1.16.66.66,0,0,1,.8-.16,1.83,1.83,0,0,1,.49.28,5.17,5.17,0,0,1,.51.42l.27-.77a4.21,4.21,0,0,0-1.3-.82" transform="translate(-23.25 -6.49)"/><polyline class="cls-3" points="117.67 99.95 115.14 99.02 115.3 104.06 117.84 104.98 117.81 104.1 116.21 103.52 116.17 102.22 117.65 102.76 117.63 101.89 116.14 101.34 116.1 100.24 117.7 100.82 117.67 99.95"/></g><path class="cls-41" d="M59.64,102.59,33.21,92.87a1,1,0,0,1-.65-.93l-.09-6.63a1,1,0,0,1,.93-1.06,1,1,0,0,1,.42.06L60.25,94a1,1,0,0,1,.65.93l.09,6.63a1,1,0,0,1-.93,1.06A1,1,0,0,1,59.64,102.59Z" transform="translate(-23.25 -6.49)"/><path class="cls-41" d="M99.15,116.79,71.09,106.48a1,1,0,0,1-.66-.93l-.08-6.63a1,1,0,0,1,1-1,1,1,0,0,1,.35.06l28.07,10.32a1,1,0,0,1,.65.92l.09,6.63a1,1,0,0,1-1,1A1.13,1.13,0,0,1,99.15,116.79Z" transform="translate(-23.25 -6.49)"/><path class="cls-41" d="M204.46,155.67l-95.26-35a1,1,0,0,1-.65-.93l-.09-6.63a1,1,0,0,1,.93-1.06,1,1,0,0,1,.42.06l95.25,35a1,1,0,0,1,.66.93l.08,6.63a1,1,0,0,1-.94,1.06A.93.93,0,0,1,204.46,155.67Z" transform="translate(-23.25 -6.49)"/></svg>