<?xml version="1.0" encoding="UTF-8" standalone="no"?>
<svg
   width="16.309"
   height="16.309"
   viewBox="0 0 16.309 16.309"
   version="1.1"
   id="svg6"
   sodipodi:docname="question.svg"
   inkscape:version="1.1 (c4e8f9ed74, 2021-05-24)"
   xmlns:inkscape="http://www.inkscape.org/namespaces/inkscape"
   xmlns:sodipodi="http://sodipodi.sourceforge.net/DTD/sodipodi-0.dtd"
   xmlns="http://www.w3.org/2000/svg"
   xmlns:svg="http://www.w3.org/2000/svg">
  <defs
     id="defs10" />
  <sodipodi:namedview
     id="namedview8"
     pagecolor="#ffffff"
     bordercolor="#666666"
     borderopacity="1.0"
     inkscape:pageshadow="2"
     inkscape:pageopacity="0.0"
     inkscape:pagecheckerboard="0"
     showgrid="false"
     inkscape:zoom="20.234226"
     inkscape:cx="5.5351758"
     inkscape:cy="5.70815"
     inkscape:window-width="1920"
     inkscape:window-height="1001"
     inkscape:window-x="1920"
     inkscape:window-y="0"
     inkscape:window-maximized="1"
     inkscape:current-layer="text12569" />
  <g
     id="noun_Info_356153"
     transform="translate(-6 -6)">
    <g
       id="Group_196"
       data-name="Group 196"
       transform="translate(6 6)">
      <g
         id="Group_195"
         data-name="Group 195">
        <path
           id="Path_1406"
           data-name="Path 1406"
           d="m 14.154,22.309 c 7.264702,0 10.901792,-8.78249 5.765809,-13.9191024 C 14.783827,3.253285 6.0008909,6.8892979 6,14.154 c 0,4.50333 3.6506702,8.154 8.154,8.154 z m 0,-1.483 c 5.944531,0 8.920485,-7.186668 4.717577,-11.3895768 C 14.668668,5.2335149 7.482,8.2094694 7.482,14.154 c 0,3.684844 2.987156,6.672 6.672,6.672 z"
           transform="translate(-6,-6)"
           fill="#2f94d1"
           fill-rule="evenodd"
           sodipodi:nodetypes="cscccssss" />
      </g>
      <g
         aria-label="?"
         id="text12569"
         style="font-size:12px;line-height:1.25;letter-spacing:0px;word-spacing:0px;fill:#2f94d1">
        <path
           d="M 7.0031328,9.9269609 Q 6.9445391,9.7746172 6.9093828,9.5871172 6.8800859,9.3937578 6.8800859,9.2238359 q 0,-0.2695312 0.052734,-0.4921875 0.052734,-0.2226562 0.1582031,-0.4160156 0.1054688,-0.1992187 0.2636719,-0.375 Q 7.5128984,7.7589922 7.7238359,7.5832109 7.9464922,7.3957109 8.1105547,7.2375078 8.2804766,7.0734453 8.3976641,6.9152422 8.5148516,6.7511797 8.5734453,6.5812578 q 0.058594,-0.1757812 0.058594,-0.3867187 0,-0.1816407 -0.064453,-0.3339844 Q 8.5031328,5.7023516 8.3800859,5.5910234 8.2628984,5.4796953 8.0871172,5.4152422 7.9171953,5.3507891 7.7062578,5.3507891 q -0.4570312,0 -0.9492187,0.1933593 -0.4921875,0.1875 -0.9316407,0.5742188 V 4.3546953 Q 6.2765703,4.0851641 6.8097734,3.9503984 7.3429766,3.8156328 7.9113359,3.8156328 q 0.5449219,0 1.0136719,0.1230469 0.46875,0.1171875 0.8144531,0.375 0.3515621,0.2578125 0.5449221,0.6621094 0.199219,0.3984375 0.199219,0.9609375 0,0.3574218 -0.08203,0.6503906 -0.08203,0.2871094 -0.240234,0.5449219 Q 10.003133,7.3898516 9.7687578,7.6300859 9.5343828,7.8644609 9.2296953,8.1164141 9.0246172,8.2863359 8.8664141,8.4328203 8.7140703,8.5793047 8.6086016,8.7257891 q -0.099609,0.140625 -0.1523438,0.3046875 -0.052734,0.1582031 -0.052734,0.3632812 0,0.140625 0.035156,0.2871094 0.041016,0.1464844 0.1054687,0.2460937 z m 0.8554688,2.5664061 q -0.46875,0 -0.7792969,-0.28125 -0.3105469,-0.292969 -0.3105469,-0.691406 0,-0.410156 0.3105469,-0.685547 0.3105469,-0.275391 0.7792969,-0.275391 0.4628906,0 0.7675781,0.275391 0.3046875,0.269531 0.3046875,0.685547 0,0.421875 -0.2988281,0.697266 -0.3046875,0.27539 -0.7734375,0.27539 z"
           style="font-weight:bold;font-family:'Myanmar Text';-inkscape-font-specification:'Myanmar Text Bold'"
           id="path49629" />
      </g>
    </g>
  </g>
</svg>
