<?xml version="1.0" encoding="UTF-8" standalone="no"?>
<svg
   xmlns:dc="http://purl.org/dc/elements/1.1/"
   xmlns:cc="http://creativecommons.org/ns#"
   xmlns:rdf="http://www.w3.org/1999/02/22-rdf-syntax-ns#"
   xmlns:svg="http://www.w3.org/2000/svg"
   xmlns="http://www.w3.org/2000/svg"
   xmlns:sodipodi="http://sodipodi.sourceforge.net/DTD/sodipodi-0.dtd"
   xmlns:inkscape="http://www.inkscape.org/namespaces/inkscape"
   inkscape:version="1.0 (4035a4fb49, 2020-05-01)"
   sodipodi:docname="about-community.svg"
   id="svg25"
   version="1.1"
   viewBox="0 0 139.40301 139.40301"
   height="139.403"
   width="139.403">
  <metadata
     id="metadata29">
    <rdf:RDF>
      <cc:Work
         rdf:about="">
        <dc:format>image/svg+xml</dc:format>
        <dc:type
           rdf:resource="http://purl.org/dc/dcmitype/StillImage" />
        <dc:title />
      </cc:Work>
    </rdf:RDF>
  </metadata>
  <sodipodi:namedview
     inkscape:current-layer="g18"
     inkscape:window-maximized="1"
     inkscape:window-y="0"
     inkscape:window-x="1920"
     inkscape:cy="63.888202"
     inkscape:cx="83.176973"
     inkscape:zoom="3.6941094"
     showgrid="false"
     id="namedview27"
     inkscape:window-height="1006"
     inkscape:window-width="1920"
     inkscape:pageshadow="2"
     inkscape:pageopacity="0"
     guidetolerance="10"
     gridtolerance="10"
     objecttolerance="10"
     borderopacity="1"
     bordercolor="#666666"
     pagecolor="#ffffff"
     inkscape:document-rotation="0"
     inkscape:pagecheckerboard="true"
     fit-margin-top="0"
     fit-margin-left="0"
     fit-margin-right="0"
     fit-margin-bottom="0" />
  <defs
     id="defs15">
    <clipPath
       id="clip-path">
      <rect
         fill="none"
         height="92"
         width="95"
         id="Mask"
         x="0"
         y="0" />
    </clipPath>
  </defs>
  <g
     transform="translate(0.7015,0.7015)"
     data-name="Group 6"
     id="Group_6">
    <g
       id="g18"
       transform="translate(-15.7,-15.7)">
      <circle
         r="69"
         stroke-width="1.403"
         stroke-miterlimit="10"
         stroke="#ffffff"
         fill="#041227"
         cy="69"
         cx="69"
         data-name="Oval"
         id="Oval-2"
         transform="translate(15.7,15.7)"
         style="fill:#041227;fill-opacity:0;stroke:#ffffff;stroke-opacity:1" />
    </g>
    <path
       style="fill:#ffffff;fill-rule:evenodd;stroke-width:4.26719"
       id="prefix__Path_1545"
       d="m 78.864526,70.688855 a 19.398653,19.398653 0 0 1 10.032167,16.859674 v 6.187428 a 6.4007874,6.4007874 0 0 1 -6.400787,6.400783 H 56.039318 A 6.2898404,6.2898404 0 0 1 49.63853,93.735957 v -6.187428 a 19.91925,19.91925 0 0 1 9.80174,-16.859674 15.084522,15.084522 0 0 0 9.81454,3.627113 14.132939,14.132939 0 0 0 9.609716,-3.627113 z"
       class="prefix__cls-1"
       data-name="Path 1545" />
    <path
       style="fill:#ffffff;fill-rule:evenodd;stroke-width:4.26719"
       id="prefix__Path_1546"
       d="M 69.259077,47.00167 A 11.948136,11.948136 0 0 1 81.207214,58.949807 12.114557,12.114557 0 0 1 69.259077,71.115574 12.298046,12.298046 0 0 1 57.093314,58.949807 12.114557,12.114557 0 0 1 69.259077,47.00167 Z"
       class="prefix__cls-1"
       data-name="Path 1546" />
    <path
       style="fill:#ffffff;fill-rule:evenodd;stroke-width:4.26719"
       id="prefix__Path_1547"
       d="m 105.31684,61.723481 a 18.895124,18.895124 0 0 1 10.03217,16.859679 v 5.974068 a 6.4007874,6.4007874 0 0 1 -6.40079,6.400787 H 92.515272 V 87.544262 A 22.471031,22.471031 0 0 0 81.847293,68.3419 a 14.081732,14.081732 0 0 0 2.560315,-5.760709 12.242573,12.242573 0 0 1 1.493517,-0.853442 15.221072,15.221072 0 0 0 9.814537,3.413757 15.058919,15.058919 0 0 0 9.601178,-3.418025 z"
       class="prefix__cls-1"
       data-name="Path 1547" />
    <path
       style="fill:#ffffff;fill-rule:evenodd;stroke-width:4.26719"
       id="prefix__Path_1548"
       d="M 95.724202,37.822945 A 11.948136,11.948136 0 0 1 107.67233,49.771078 11.978007,11.978007 0 0 1 95.724202,61.936841 12.157229,12.157229 0 0 1 83.558436,49.771082 12.114557,12.114557 0 0 1 95.724202,37.822945 Z"
       class="prefix__cls-1"
       data-name="Path 1548" />
    <path
       style="fill:#ffffff;fill-rule:evenodd;stroke-width:4.26719"
       id="prefix__Path_1549"
       d="m 52.604229,61.723481 a 4.4634824,4.4634824 0 0 1 1.280157,0.853443 18.033152,18.033152 0 0 0 2.773675,5.760709 22.471031,22.471031 0 0 0 -10.667979,19.202362 v 3.413753 H 29.561394 a 6.4007874,6.4007874 0 0 1 -6.400787,-6.400787 v -5.974069 a 19.381584,19.381584 0 0 1 9.81454,-16.855411 16.112915,16.112915 0 0 0 9.814541,3.413758 16.112915,16.112915 0 0 0 9.814541,-3.413758 z"
       class="prefix__cls-1"
       data-name="Path 1549" />
    <path
       style="fill:#ffffff;fill-rule:evenodd;stroke-width:4.26719"
       id="prefix__Path_1550"
       d="m 42.789688,37.822945 a 11.948136,11.948136 0 0 1 11.948136,11.948133 11.948137,11.948137 0 1 1 -23.896273,0 11.948136,11.948136 0 0 1 11.948137,-11.948133 z"
       class="prefix__cls-1"
       data-name="Path 1550" />
  </g>
</svg>
