<?xml version="1.0" encoding="utf-8"?>
<!-- Generator: Adobe Illustrator 25.2.1, SVG Export Plug-In . SVG Version: 6.00 Build 0)  -->
<svg version="1.1" id="Layer_1" xmlns="http://www.w3.org/2000/svg" xmlns:xlink="http://www.w3.org/1999/xlink" x="0px" y="0px"
	 viewBox="0 0 19.6 19.5" style="enable-background:new 0 0 19.6 19.5;" xml:space="preserve">
<style type="text/css">
	.st0{fill:#F39C12;}
</style>
<g id="Group_3" transform="translate(-0.222 -0.25)">
	<path id="Shape" class="st0" d="M0.2,15.9c0,2.1,1.7,3.9,3.9,3.9h10c2.1,0,3.9-1.7,3.9-3.9V9.8c0-0.6-0.5-1.1-1.1-1.1l0,0
		c-0.6,0-1.1,0.5-1.1,1.1v6.1c0,0.9-0.7,1.7-1.7,1.7h-10c-0.9,0-1.7-0.7-1.7-1.7v-10c0-0.9,0.7-1.7,1.7-1.7h6.1
		c0.6,0,1.1-0.5,1.1-1.1c0-0.6-0.5-1.1-1.1-1.1H4.1C2,2,0.2,3.7,0.2,5.9V15.9z"/>
	<path id="Shape-2" class="st0" d="M19.8,1.4c0-0.1,0-0.2,0-0.2c0,0,0,0,0-0.1c0-0.1,0-0.1-0.1-0.1c0,0,0,0,0-0.1
		c0-0.1-0.1-0.1-0.1-0.1c-0.1-0.1-0.2-0.2-0.3-0.3c0,0-0.1,0-0.1-0.1c0,0-0.1,0-0.1,0c-0.1,0-0.1,0-0.1-0.1l-0.1,0
		c-0.1,0-0.1,0-0.2,0h-5.1c-0.6,0-1.1,0.5-1.1,1.1c0,0.6,0.5,1.1,1.1,1.1H16L8.8,9.6c-0.4,0.4-0.4,1.2,0,1.6c0.4,0.4,1.1,0.4,1.5,0
		l7.2-7.2v2.4c0,0.6,0.5,1.1,1.1,1.1l0,0c0.6,0,1.1-0.5,1.1-1.1V1.4z"/>
</g>
</svg>
