<?xml version="1.0" encoding="utf-8"?>
<!-- Generator: Adobe Illustrator 24.2.1, SVG Export Plug-In . SVG Version: 6.00 Build 0)  -->
<svg version="1.1" id="Layer_1" xmlns="http://www.w3.org/2000/svg" xmlns:xlink="http://www.w3.org/1999/xlink" x="0px" y="0px"
	 viewBox="0 0 590.1 590.1" style="enable-background:new 0 0 590.1 590.1;" xml:space="preserve">
<style type="text/css">
	.st0{fill:#041227;stroke:#FFFFFF;stroke-width:5.9392;stroke-miterlimit:10;}
	.st1{fill:none;}
	.st2{fill:#043468;}
	.st3{fill:#2F94D1;}
	.st4{fill:#D3D3D3;}
	.st5{fill:#F39C12;}
</style>
<g>
	<g transform="matrix(1, 0, 0, 1, 0, 0)">
		<circle id="Oval-2_1_" class="st0" cx="295.1" cy="295.1" r="292.1"/>
	</g>
	<g>
		<path class="st1" d="M257.8,201.6L257.8,201.6C257.8,201.5,257.8,201.5,257.8,201.6C257.8,201.5,257.9,201.5,257.8,201.6
			C257.9,201.5,257.8,201.5,257.8,201.6L257.8,201.6c-0.1,0-0.1,0.1-0.2,0.1l0,0L257.8,201.6z"/>
		<path class="st1" d="M257.4,201.8L257.4,201.8L257.4,201.8L257.4,201.8z"/>
		<path class="st1" d="M256.1,202.5L256.1,202.5L256.1,202.5L256.1,202.5L256.1,202.5L256.1,202.5
			C256.1,202.6,256.1,202.5,256.1,202.5L256.1,202.5z"/>
		<path class="st1" d="M267.3,344c-19.9,0-37.2,12.8-43.4,31.3l-6.2,18.7h99.2l-6.2-18.7C304.4,356.5,286.8,344,267.3,344z"/>
		<rect x="248.5" y="175.4" transform="matrix(0.866 -0.5 0.5 0.866 -56.7089 151.6934)" class="st1" width="12.5" height="12.5"/>
		<path class="st1" d="M246.3,179.4l10.8-6.3L246.3,179.4z"/>
		<polygon class="st1" points="330.1,394 417.2,394 417.2,394 		"/>
		<path class="st1" d="M315.3,356.5h-0.2c2.7,3.9,4.9,8.1,6.6,12.6l0,0c-0.9-2.2-1.9-4.4-2.8-6.2
			C317.8,360.6,316.6,358.5,315.3,356.5z"/>
		<path class="st1" d="M364.2,356.5h-49c1.3,2,2.5,4.2,3.6,6.3c0.9,1.8,1.9,4,2.8,6.2h60.5C381.6,368.5,377.7,356.5,364.2,356.5z"/>
		<path class="st1" d="M223.6,319.1c0-26.3,20-47.9,45.5-50.2l-11.8-20.4l-1.5-2.6c-33.4,8.1-57.2,38.3-57.2,73.3
			c0,16.9,5.6,33,15.9,46.1c0,0,0-0.1,0.1-0.1c0.8-1.7,1.7-3.4,2.8-5.2c0.3-0.4,0.5-0.9,0.8-1.3c0.8-1.2,1.6-2.4,2.6-3.7
			c0.3-0.4,0.6-0.8,0.9-1.2c0.1-0.2,0.2-0.3,0.4-0.5c0.6-0.8,1.3-1.5,2-2.2s1.3-1.5,2-2.2c0.6-0.6,1.3-1.2,1.9-1.7
			c0.9-0.8,1.7-1.6,2.6-2.4C226,336.9,223.6,328.2,223.6,319.1z"/>
		<path class="st1" d="M217.4,359.8c-1.1,1.8-2,3.5-2.8,5.2C215.4,363.3,216.4,361.5,217.4,359.8z"/>
		<path class="st1" d="M221.7,353.6c0.7-0.9,1.6-1.8,2.4-2.7c-0.7,0.7-1.4,1.4-2,2.2C221.9,353.3,221.8,353.5,221.7,353.6z"/>
		<path class="st1" d="M220.8,354.9c-0.9,1.2-1.8,2.5-2.6,3.7C219,357.3,219.9,356.1,220.8,354.9z"/>
		<path class="st1" d="M226.1,348.7c0.6-0.6,1.3-1.2,1.9-1.7C227.3,347.6,226.7,348.1,226.1,348.7z"/>
		<path class="st1" d="M256.1,202.5C256.1,202.5,256.1,202.6,256.1,202.5L256.1,202.5L256.1,202.5z"/>
		<path class="st1" d="M257.3,201.8c-0.2,0.1-0.4,0.2-0.7,0.4l0.9-0.5l0,0l0,0C257.5,201.7,257.4,201.7,257.3,201.8
			C257.5,201.8,257.4,201.8,257.3,201.8C257.4,201.8,257.4,201.8,257.3,201.8L257.3,201.8z"/>
		<path class="st1" d="M257.8,201.6L257.8,201.6C257.8,201.5,257.8,201.5,257.8,201.6L257.8,201.6z"/>
		<polygon class="st1" points="289.1,273.6 326.6,273.6 326.6,273.6 		"/>
		<path class="st2" d="M246.3,179.4l10.8-6.3l12.2-7.1l4-2.3c3-1.7,4-5.5,2.3-8.5l-12.5-21.6c-1.7-3-5.5-4-8.5-2.3l-43.3,25
			c-3,1.7-4,5.5-2.3,8.5l12.5,21.6c1.7,3,5.5,4,8.5,2.3l0,0l5.4-3.1L246.3,179.4L246.3,179.4z"/>
		<path class="st3" d="M321.7,369c1.8,4.3,3.4,8.9,4.4,12.5h66c2.2,0,4.2-1.1,5.3-3c1.1-1.8,1.2-4.1,0.3-6.1l-5.6-11.2
			c-5.3-10.6-16-17.3-27.9-17.3h-60.9c4.3,2.2,8.4,6.9,11.9,12.4"/>
		<path class="st4" d="M257.7,201.6C257.7,201.6,257.8,201.6,257.7,201.6L257.7,201.6L257.7,201.6z"/>
		<path class="st3" d="M269.1,268.8c-25.5,2.3-45.5,23.9-45.5,50.2c0,9.1,2.4,17.8,7,25.5c-0.9,0.7-1.7,1.6-2.6,2.4
			c4.1-3.8,8.7-7,13.1-9.2c-3.3-5.7-5-12-5-18.7c0-21.9,18.4-39.4,40.2-37.8l-18.9-32.8L269.1,268.8z"/>
		<path class="st4" d="M218.2,358.6c-0.3,0.4-0.6,0.8-0.8,1.3C217.6,359.4,217.9,359,218.2,358.6z"/>
		<path class="st4" d="M224,350.9c0.7-0.7,1.3-1.5,2-2.2C225.3,349.4,224.7,350.2,224,350.9z"/>
		<path class="st3" d="M214.5,365.2c0,0,0-0.1,0.1-0.1c-2.5,5.2-3.8,9.8-5,13.6c-15.2-16.3-23.5-37.3-23.5-59.6
			c0-39.3,26.3-73.7,63.2-84.5l-0.1-0.1l19.8,34.4c0,0-35.6,8.6-41.6,35.6c-4.9,22.2,3.1,40.2,3.1,40.2"/>
		<path class="st4" d="M221.7,353.6c-0.3,0.4-0.6,0.8-0.9,1.2C221.1,354.5,221.4,354.1,221.7,353.6z"/>
		<path class="st4" d="M316.9,394h13.2l-4.2-12.5h0.3c-1.1-3.6-2.7-8.2-4.4-12.5l0,0c-1.7-4.4-3.9-8.7-6.6-12.6h0.2
			c-3.5-5.5-7.7-10.2-11.9-12.4c-10.2-8.1-22.9-12.5-36-12.5c-9.2,0-18.1,2.1-26.2,6.2c-4.4,2.2-9,5.4-13.1,9.2
			c-0.6,0.6-1.3,1.1-1.9,1.7c-0.7,0.7-1.3,1.5-2,2.2c-0.8,0.9-1.6,1.8-2.4,2.7c-0.3,0.4-0.6,0.8-0.9,1.2c-0.9,1.2-1.8,2.4-2.6,3.7
			c-0.3,0.4-0.6,0.9-0.8,1.3c-1,1.7-2,3.4-2.8,5.2c-2.5,5.2-3.8,9.8-5,13.6l-5.1,15.3h13.2"/>
		<path class="st4" d="M256.1,202.5L256.1,202.5L256.1,202.5L256.1,202.5z"/>
		<path class="st4" d="M256.2,202.5L256.2,202.5L256.2,202.5L256.2,202.5z"/>
		<path class="st4" d="M256.1,202.5L256.1,202.5L256.1,202.5L256.1,202.5z"/>
		<path class="st4" d="M257.6,201.7L257.6,201.7C257.6,201.7,257.5,201.7,257.6,201.7c-0.1,0.1-0.2,0.1-0.2,0.1s0.1,0,0.1-0.1H257.6
			z"/>
		<polygon class="st4" points="278.2,175.4 274.1,177.7 279.4,174.6 		"/>
		<polygon points="324.1,264.2 338.2,256.1 334.9,258 		"/>
		<path d="M291.6,283l-10.8,6.2L291.6,283z"/>
		<path d="M256.2,202.5C256.1,202.5,256.1,202.5,256.2,202.5C256.1,202.5,256.1,202.5,256.2,202.5L256.2,202.5z"/>
		<path d="M256.2,202.5L256.2,202.5L256.2,202.5L256.2,202.5z"/>
		<path d="M256.2,202.5L256.2,202.5C256.1,202.5,256.1,202.5,256.2,202.5L256.2,202.5z"/>
		<path d="M256.1,202.5L256.1,202.5L256.1,202.5L256.1,202.5z"/>
		<polygon class="st5" points="267.9,166.9 269.3,166.1 257.1,173.1 263.3,183.9 252.5,190.2 246.3,179.4 235.5,185.6 241.7,196.4 
			274.1,177.7 		"/>
		<path d="M230,188.7l5.5-3.1L230,188.7z"/>
		<path class="st2" d="M291.6,283l-10.8,6.2l0,0l-0.9,0.5l0,0l-4.5,2.6c-3,1.7-4,5.5-2.3,8.5l12.5,21.6c1.7,3,5.6,4,8.5,2.3
			l64.9-37.5c3-1.7,4-5.5,2.3-8.5l-12.5-21.6c-1.7-3-5.5-4-8.5-2.3l-2.1,1.2l-14.1,8.1L291.6,283z"/>
		<polygon class="st2" points="280.8,289.2 280.8,289.2 280,289.7 280,289.7 		"/>
		<path class="st2" d="M280,289.7L280,289.7L280,289.7z"/>
		<path d="M257.4,201.8L257.4,201.8C257.3,201.8,257.3,201.8,257.4,201.8C257.3,201.8,257.3,201.8,257.4,201.8z"/>
		<path d="M257.4,201.8C257.3,201.8,257.3,201.8,257.4,201.8C257.3,201.8,257.3,201.8,257.4,201.8
			C257.3,201.8,257.3,201.8,257.4,201.8z"/>
		<path d="M256.2,202.5L256.2,202.5L256.2,202.5L256.2,202.5z"/>
		<path class="st2" d="M417.1,394L417.1,394H330l0,0h-13.2h-99.2h-13.2l0,0c-10.2,0.2-18.4,8.5-18.4,18.7v31.2
			c0,3.4,2.8,6.2,6.2,6.2h237.3c3.4,0,6.2-2.8,6.2-6.2v-31.2C435.9,402.4,427.5,394,417.1,394z"/>
	</g>
	<path class="st4" d="M324.1,264.2l10.8-6.2l-46.8-81.1c-1.7-3-5.5-4-8.5-2.3l-0.1,0.1l-5.3,3.1l-32.4,18.7l-5.4,3.1
		c-3,1.7-4,5.5-2.3,8.5l15.2,26.4l6.5,11.3l1.5,2.6l18.9,32.8l1.2,2l3.4,6l10.8-6.2"/>
</g>
</svg>
