<?xml version="1.0" encoding="utf-8"?>
<!-- Generator: Adobe Illustrator 24.2.1, SVG Export Plug-In . SVG Version: 6.00 Build 0)  -->
<svg version="1.1" id="Layer_1" xmlns="http://www.w3.org/2000/svg" xmlns:xlink="http://www.w3.org/1999/xlink" x="0px" y="0px"
	 viewBox="0 0 590.1 590.1" style="enable-background:new 0 0 590.1 590.1;" xml:space="preserve">
<style type="text/css">
	.st0{fill:#041227;stroke:#FFFFFF;stroke-width:5.9392;stroke-miterlimit:10;}
	.st1{fill:#EFEFEF;}
	.st2{fill:#53B64E;}
	.st3{fill:#E0E0E0;}
	.st4{fill:#F7F7F7;}
	.st5{fill:#FAC244;}
	.st6{fill:#043468;}
	.st7{fill:#D3D3D3;}
	.st8{fill:none;stroke:#D3D3D3;stroke-width:16.1548;stroke-miterlimit:10;}
	.st9{opacity:0.3;fill:#EDEEEF;enable-background:new    ;}
	.st10{fill:none;stroke:#043468;stroke-width:16.1548;stroke-miterlimit:10;}
</style>
<g>
	<g transform="matrix(1, 0, 0, 1, 0, 0)">
		<circle id="Oval-2_3_" class="st0" cx="295.1" cy="295.1" r="292.1"/>
	</g>
	<g>
		<g>
			<g>
				<path class="st1" d="M427.7,345.3l-287.3,33c-1.7,0.2-3.2-1-3.4-2.7l-19.9-173c-0.2-1.7,1-3.2,2.7-3.4l287.3-33
					c1.7-0.2,3.2,1,3.4,2.7l19.9,173C430.6,343.6,429.4,345.1,427.7,345.3z"/>
				<g>
					<path class="st2" d="M191.9,232l-40.5,4.7c-1.1,0.1-2.1-0.6-2.2-1.7l-1.7-14.5c-0.1-1.1,0.6-2.1,1.7-2.2l40.5-4.7
						c1.1-0.1,2.1,0.6,2.2,1.7l1.7,14.5C193.8,230.9,193,231.9,191.9,232z"/>
					<path class="st2" d="M256.2,224.6l-40.5,4.7c-1.1,0.1-2.1-0.6-2.2-1.7l-1.7-14.5c-0.1-1.1,0.6-2.1,1.7-2.2l40.5-4.7
						c1.1-0.1,2.1,0.6,2.2,1.7l1.7,14.5C258.1,223.5,257.3,224.5,256.2,224.6z"/>
					<path class="st2" d="M320.5,217.2l-40.5,4.7c-1.1,0.1-2.1-0.6-2.2-1.7l-1.7-14.5c-0.1-1.1,0.6-2.1,1.7-2.2l40.5-4.7
						c1.1-0.1,2.1,0.6,2.2,1.7l1.7,14.5C322.4,216.1,321.6,217.1,320.5,217.2z"/>
					<path class="st2" d="M384.8,209.8l-40.5,4.7c-1.1,0.1-2.1-0.6-2.2-1.7l-1.7-14.5c-0.1-1.1,0.6-2.1,1.7-2.2l40.5-4.7
						c1.1-0.1,2.1,0.6,2.2,1.7l1.7,14.5C386.7,208.8,385.9,209.7,384.8,209.8z"/>
					<path class="st1" d="M195.3,261.1l-40.5,4.7c-1.1,0.1-2.1-0.6-2.2-1.7l-1.7-14.5c-0.1-1.1,0.6-2.1,1.7-2.2l40.5-4.7
						c1.1-0.1,2.1,0.6,2.2,1.7l1.7,14.5C197.1,260,196.3,261,195.3,261.1z"/>
					<path class="st1" d="M259.6,253.7l-40.5,4.7c-1.1,0.1-2.1-0.6-2.2-1.7l-1.7-14.5c-0.1-1.1,0.6-2.1,1.7-2.2l40.5-4.7
						c1.1-0.1,2.1,0.6,2.2,1.7l1.7,14.5C261.4,252.6,260.7,253.6,259.6,253.7z"/>
					<path class="st1" d="M323.9,246.3l-40.5,4.7c-1.1,0.1-2.1-0.6-2.2-1.7l-1.7-14.5c-0.1-1.1,0.6-2.1,1.7-2.2l40.5-4.7
						c1.1-0.1,2.1,0.6,2.2,1.7l1.7,14.5C325.7,245.2,325,246.2,323.9,246.3z"/>
					<path class="st2" d="M388.2,238.9l-40.5,4.7c-1.1,0.1-2.1-0.6-2.2-1.7l-1.7-14.5c-0.1-1.1,0.6-2.1,1.7-2.2l40.5-4.7
						c1.1-0.1,2.1,0.6,2.2,1.7l1.7,14.5C390,237.8,389.3,238.8,388.2,238.9z"/>
					<path class="st1" d="M198.6,290.2l-40.5,4.7c-1.1,0.1-2.1-0.6-2.2-1.7l-1.7-14.5c-0.1-1.1,0.6-2.1,1.7-2.2l40.5-4.7
						c1.1-0.1,2.1,0.6,2.2,1.7l1.7,14.5C200.5,289.1,199.7,290.1,198.6,290.2z"/>
					<path class="st3" d="M262.9,282.8l-40.5,4.7c-1.1,0.1-2.1-0.6-2.2-1.7l-1.7-14.5c-0.1-1.1,0.6-2.1,1.7-2.2l40.5-4.7
						c1.1-0.1,2.1,0.6,2.2,1.7l1.7,14.5C264.8,281.7,264,282.7,262.9,282.8z"/>
					<path class="st3" d="M327.2,275.4l-40.5,4.7c-1.1,0.1-2.1-0.6-2.2-1.7l-1.7-14.5c-0.1-1.1,0.6-2.1,1.7-2.2l40.6-4.6
						c1.1-0.1,2.1,0.6,2.2,1.7l1.7,14.5C329.1,274.3,328.3,275.3,327.2,275.4z"/>
					<path class="st2" d="M391.5,268l-40.5,4.7c-1.1,0.1-2.1-0.6-2.2-1.7l-1.7-14.5c-0.1-1.1,0.6-2.1,1.7-2.2l40.5-4.7
						c1.1-0.1,2.1,0.6,2.2,1.7l1.7,14.5C393.4,266.9,392.6,267.9,391.5,268z"/>
					<path class="st2" d="M202,319.3l-40.5,4.7c-1.1,0.1-2.1-0.6-2.2-1.7l-1.7-14.5c-0.1-1.1,0.6-2.1,1.7-2.2l40.5-4.7
						c1.1-0.1,2.1,0.6,2.2,1.7l1.7,14.5C203.8,318.2,203,319.2,202,319.3z"/>
					<path class="st3" d="M266.3,311.9l-40.5,4.7c-1.1,0.1-2.1-0.6-2.2-1.7l-1.7-14.5c-0.1-1.1,0.6-2.1,1.7-2.2l40.5-4.7
						c1.1-0.1,2.1,0.6,2.2,1.7l1.7,14.5C268.1,310.8,267.3,311.8,266.3,311.9z"/>
					<path class="st3" d="M330.6,304.5l-40.5,4.7c-1.1,0.1-2.1-0.6-2.2-1.7l-1.7-14.5c-0.1-1.1,0.6-2.1,1.7-2.2l40.5-4.7
						c1.1-0.1,2.1,0.6,2.2,1.7l1.7,14.5C332.4,303.4,331.7,304.4,330.6,304.5z"/>
					<path class="st3" d="M394.9,297.1l-40.5,4.7c-1.1,0.1-2.1-0.6-2.2-1.7l-1.7-14.5c-0.1-1.1,0.6-2.1,1.7-2.2l40.5-4.7
						c1.1-0.1,2.1,0.6,2.2,1.7l1.7,14.5C396.7,296,396,297,394.9,297.1z"/>
					<path class="st2" d="M205.3,348.4l-40.5,4.7c-1.1,0.1-2.1-0.6-2.2-1.7l-1.7-14.5c-0.1-1.1,0.6-2.1,1.7-2.2l40.5-4.7
						c1.1-0.1,2.1,0.6,2.2,1.7l1.7,14.5C207.2,347.3,206.4,348.3,205.3,348.4z"/>
					<path class="st3" d="M269.6,341l-40.5,4.7c-1.1,0.1-2.1-0.6-2.2-1.7l-1.7-14.5c-0.1-1.1,0.6-2.1,1.7-2.2l40.5-4.7
						c1.1-0.1,2.1,0.6,2.2,1.7l1.7,14.5C271.5,339.9,270.7,340.9,269.6,341z"/>
					<path class="st3" d="M333.9,333.6l-40.5,4.7c-1.1,0.1-2.1-0.6-2.2-1.7l-1.7-14.5c-0.1-1.1,0.6-2.1,1.7-2.2l40.5-4.7
						c1.1-0.1,2.1,0.6,2.2,1.7l1.7,14.5C335.8,332.5,335,333.5,333.9,333.6z"/>
					<path class="st3" d="M398.2,326.2l-40.5,4.7c-1.1,0.1-2.1-0.6-2.2-1.7l-1.7-14.5c-0.1-1.1,0.6-2.1,1.7-2.2l40.5-4.7
						c1.1-0.1,2.1,0.6,2.2,1.7l1.7,14.5C400.1,325.1,399.3,326.1,398.2,326.2z"/>
				</g>
			</g>
			<g>
				<path class="st4" d="M468.9,410.4H179.8c-1.7,0-3.1-1.4-3.1-3.1V233.2c0-1.7,1.4-3.1,3.1-3.1H469c1.7,0,3.1,1.4,3.1,3.1v174.2
					C472,409.1,470.7,410.4,468.9,410.4z"/>
				<g>
					<path class="st5" d="M247.6,271h-40.8c-1.1,0-2-0.9-2-2v-14.6c0-1.1,0.9-2,2-2h40.8c1.1,0,2,0.9,2,2V269
						C249.6,270.1,248.7,271,247.6,271z"/>
					<path class="st5" d="M312.4,271h-40.8c-1.1,0-2-0.9-2-2v-14.6c0-1.1,0.9-2,2-2h40.8c1.1,0,2,0.9,2,2V269
						C314.3,270.1,313.5,271,312.4,271z"/>
					<path class="st4" d="M377.1,271h-40.8c-1.1,0-2-0.9-2-2v-14.6c0-1.1,0.9-2,2-2h40.8c1.1,0,2,0.9,2,2V269
						C379.1,270.1,378.2,271,377.1,271z"/>
					<path class="st5" d="M441.8,271h-40.7c-1.1,0-2-0.9-2-2v-14.6c0-1.1,0.9-2,2-2h40.8c1.1,0,2,0.9,2,2V269
						C443.8,270.1,442.9,271,441.8,271z"/>
					<path class="st5" d="M247.6,300.2h-40.8c-1.1,0-2-0.9-2-2v-14.6c0-1.1,0.9-2,2-2h40.8c1.1,0,2,0.9,2,2v14.6
						C249.6,299.4,248.7,300.2,247.6,300.2z"/>
					<path class="st4" d="M312.4,300.2h-40.8c-1.1,0-2-0.9-2-2v-14.6c0-1.1,0.9-2,2-2h40.8c1.1,0,2,0.9,2,2v14.6
						C314.3,299.4,313.5,300.2,312.4,300.2z"/>
					<path class="st5" d="M377.1,300.2h-40.8c-1.1,0-2-0.9-2-2v-14.6c0-1.1,0.9-2,2-2h40.8c1.1,0,2,0.9,2,2v14.6
						C379.1,299.4,378.2,300.2,377.1,300.2z"/>
					<path class="st5" d="M441.8,300.2h-40.7c-1.1,0-2-0.9-2-2v-14.6c0-1.1,0.9-2,2-2h40.8c1.1,0,2,0.9,2,2v14.6
						C443.8,299.4,442.9,300.2,441.8,300.2z"/>
					<path class="st5" d="M247.6,329.5h-40.8c-1.1,0-2-0.9-2-2v-14.6c0-1.1,0.9-2,2-2h40.8c1.1,0,2,0.9,2,2v14.6
						C249.6,328.6,248.7,329.5,247.6,329.5z"/>
					<path class="st5" d="M312.4,329.5h-40.8c-1.1,0-2-0.9-2-2v-14.6c0-1.1,0.9-2,2-2h40.8c1.1,0,2,0.9,2,2v14.6
						C314.3,328.6,313.5,329.5,312.4,329.5z"/>
					<path class="st4" d="M377.1,329.5h-40.8c-1.1,0-2-0.9-2-2v-14.6c0-1.1,0.9-2,2-2h40.8c1.1,0,2,0.9,2,2v14.6
						C379.1,328.6,378.2,329.5,377.1,329.5z"/>
					<path class="st4" d="M441.8,329.5h-40.7c-1.1,0-2-0.9-2-2v-14.6c0-1.1,0.9-2,2-2h40.8c1.1,0,2,0.9,2,2v14.6
						C443.8,328.6,442.9,329.5,441.8,329.5z"/>
					<path class="st4" d="M247.6,358.8h-40.8c-1.1,0-2-0.9-2-2v-14.6c0-1.1,0.9-2,2-2h40.8c1.1,0,2,0.9,2,2v14.6
						C249.6,357.9,248.7,358.8,247.6,358.8z"/>
					<path class="st5" d="M312.4,358.8h-40.8c-1.1,0-2-0.9-2-2v-14.6c0-1.1,0.9-2,2-2h40.8c1.1,0,2,0.9,2,2v14.6
						C314.3,357.9,313.5,358.8,312.4,358.8z"/>
					<path class="st5" d="M377.1,358.8h-40.8c-1.1,0-2-0.9-2-2v-14.6c0-1.1,0.9-2,2-2h40.8c1.1,0,2,0.9,2,2v14.6
						C379.1,357.9,378.2,358.8,377.1,358.8z"/>
					<path class="st5" d="M441.8,358.8h-40.7c-1.1,0-2-0.9-2-2v-14.6c0-1.1,0.9-2,2-2h40.8c1.1,0,2,0.9,2,2v14.6
						C443.8,357.9,442.9,358.8,441.8,358.8z"/>
					<path class="st5" d="M247.6,388.1h-40.8c-1.1,0-2-0.9-2-2v-14.6c0-1.1,0.9-2,2-2h40.8c1.1,0,2,0.9,2,2v14.6
						C249.6,387.2,248.7,388.1,247.6,388.1z"/>
					<path class="st5" d="M312.4,388.1h-40.8c-1.1,0-2-0.9-2-2v-14.6c0-1.1,0.9-2,2-2h40.8c1.1,0,2,0.9,2,2v14.6
						C314.3,387.2,313.5,388.1,312.4,388.1z"/>
					<path class="st4" d="M377.1,388.1h-40.8c-1.1,0-2-0.9-2-2v-14.6c0-1.1,0.9-2,2-2h40.8c1.1,0,2,0.9,2,2v14.6
						C379.1,387.2,378.2,388.1,377.1,388.1z"/>
					<path class="st5" d="M441.8,388.1h-40.7c-1.1,0-2-0.9-2-2v-14.6c0-1.1,0.9-2,2-2h40.8c1.1,0,2,0.9,2,2v14.6
						C443.8,387.2,442.9,388.1,441.8,388.1z"/>
				</g>
			</g>
		</g>
		<g>
			<path class="st6" d="M403.2,407.8l-15.3,17.8c-1,1.1-2.7,1.2-3.8,0.3l-45.7-39.3l18.8-21.8l45.7,39.3
				C404,405,404.2,406.7,403.2,407.8z"/>
			
				<rect x="329.3" y="366.4" transform="matrix(0.6525 -0.7578 0.7578 0.6525 -162.4338 389.6973)" class="st7" width="28.8" height="11.1"/>
			<line class="st8" x1="339.4" y1="368.4" x2="326.1" y2="356.9"/>
			<circle class="st9" cx="298.3" cy="333" r="30.6"/>
			<circle class="st10" cx="298.3" cy="333" r="38.7"/>
		</g>
	</g>
</g>
</svg>
