<?xml version="1.0" encoding="UTF-8" standalone="no"?>
<!-- Generator: Adobe Illustrator 23.0.3, SVG Export Plug-In . SVG Version: 6.00 Build 0)  -->

<svg
   xmlns:dc="http://purl.org/dc/elements/1.1/"
   xmlns:cc="http://creativecommons.org/ns#"
   xmlns:rdf="http://www.w3.org/1999/02/22-rdf-syntax-ns#"
   xmlns:svg="http://www.w3.org/2000/svg"
   xmlns="http://www.w3.org/2000/svg"
   xmlns:sodipodi="http://sodipodi.sourceforge.net/DTD/sodipodi-0.dtd"
   xmlns:inkscape="http://www.inkscape.org/namespaces/inkscape"
   version="1.1"
   id="Layer_1"
   x="0px"
   y="0px"
   viewBox="0 0 531.20002 89.817613"
   xml:space="preserve"
   sodipodi:docname="logo_eternacon.svg"
   width="531.20001"
   height="89.817612"
   inkscape:version="0.92.3 (2405546, 2018-03-11)"><metadata
   id="metadata57"><rdf:RDF><cc:Work
       rdf:about=""><dc:format>image/svg+xml</dc:format><dc:type
         rdf:resource="http://purl.org/dc/dcmitype/StillImage" /><dc:title></dc:title></cc:Work></rdf:RDF></metadata><defs
   id="defs55" /><sodipodi:namedview
   pagecolor="#ffffff"
   bordercolor="#666666"
   borderopacity="1"
   objecttolerance="10"
   gridtolerance="10"
   guidetolerance="10"
   inkscape:pageopacity="0"
   inkscape:pageshadow="2"
   inkscape:window-width="1920"
   inkscape:window-height="1001"
   id="namedview53"
   showgrid="false"
   fit-margin-top="0"
   fit-margin-left="0"
   fit-margin-right="0"
   fit-margin-bottom="0"
   inkscape:zoom="1.1485685"
   inkscape:cx="433.1976"
   inkscape:cy="61.39488"
   inkscape:window-x="-9"
   inkscape:window-y="-9"
   inkscape:window-maximized="1"
   inkscape:current-layer="g26" />
<style
   type="text/css"
   id="style2">
	.st0{fill:#D7E5F5;}
	.st1{fill:#FFFFFF;}
	.st2{fill:#DBDADA;}
	.st3{fill:#FAC244;}
	.st4{fill:#D73832;}
	.st5{fill:#53B64E;}
	.st6{fill:#2F94D1;}
</style>
<g
   id="g50"
   transform="translate(0,-2.8)">
	<g
   id="g26">
		<path
   class="st0"
   d="m 134.2,50.8 5,2.6 c -1.6,3.2 -3.5,5.8 -5.7,7.8 -2.2,2 -4.6,3.5 -7.3,4.5 -2.7,1 -5.7,1.5 -9.1,1.5 -7.5,0 -13.4,-2.5 -17.7,-7.4 C 95.2,54.9 93,49.3 93,43.1 93,37.2 94.8,32 98.4,27.5 c 4.6,-5.8 10.7,-8.7 18.3,-8.7 7.9,0 14.1,3 18.8,8.9 3.3,4.2 5,9.5 5.1,15.8 H 99.1 c 0.1,5.4 1.8,9.8 5.1,13.2 3.3,3.4 7.4,5.1 12.3,5.1 2.3,0 4.6,-0.4 6.9,-1.2 2.2,-0.8 4.1,-1.9 5.7,-3.3 1.6,-1.3 3.3,-3.5 5.1,-6.5 z m 0,-12.5 c -0.8,-3.2 -1.9,-5.7 -3.5,-7.6 -1.5,-1.9 -3.5,-3.4 -6,-4.6 -2.5,-1.2 -5.1,-1.7 -7.9,-1.7 -4.5,0 -8.4,1.5 -11.7,4.4 -2.4,2.1 -4.2,5.3 -5.4,9.5 z"
   id="path4"
   inkscape:connector-curvature="0"
   style="fill:#d7e5f5" />
		<path
   class="st0"
   d="m 157,2.8 h 5.9 v 17.1 h 9.4 V 25 h -9.4 V 66 H 157 V 25 h -8.1 v -5.1 h 8.1 z"
   id="path6"
   inkscape:connector-curvature="0"
   style="fill:#d7e5f5" />
		<path
   class="st0"
   d="m 220.1,50.8 5,2.6 c -1.6,3.2 -3.5,5.8 -5.7,7.8 -2.2,2 -4.6,3.5 -7.3,4.5 -2.7,1 -5.7,1.5 -9.1,1.5 -7.5,0 -13.4,-2.5 -17.7,-7.4 -4.3,-4.9 -6.4,-10.5 -6.4,-16.7 0,-5.9 1.8,-11.1 5.4,-15.6 4.6,-5.8 10.7,-8.7 18.3,-8.7 7.9,0 14.1,3 18.8,8.9 3.3,4.2 5,9.5 5.1,15.8 H 185 c 0.1,5.4 1.8,9.8 5.1,13.2 3.3,3.4 7.4,5.1 12.3,5.1 2.3,0 4.6,-0.4 6.9,-1.2 2.2,-0.8 4.1,-1.9 5.7,-3.3 1.6,-1.3 3.3,-3.5 5.1,-6.5 z m 0,-12.5 c -0.8,-3.2 -1.9,-5.7 -3.5,-7.6 -1.5,-1.9 -3.5,-3.4 -6,-4.6 -2.5,-1.2 -5.1,-1.7 -7.9,-1.7 -4.5,0 -8.4,1.5 -11.7,4.4 -2.4,2.1 -4.2,5.3 -5.4,9.5 z"
   id="path8"
   inkscape:connector-curvature="0"
   style="fill:#d7e5f5" />
		<path
   class="st1"
   d="m 235.5,19.9 h 6.1 v 6.7 c 1.8,-2.7 3.7,-4.6 5.7,-6 2,-1.3 4.1,-2 6.3,-2 1.6,0 3.4,0.5 5.3,1.6 l -3.1,5 c -1.2,-0.5 -2.3,-0.8 -3.1,-0.8 -2,0 -3.9,0.8 -5.7,2.4 -1.8,1.6 -3.2,4.1 -4.2,7.6 -0.7,2.6 -1.1,7.9 -1.1,15.9 v 15.6 h -6.2 z"
   id="path10"
   inkscape:connector-curvature="0"
   style="fill:#ffffff" />
		<path
   class="st1"
   d="m 265.7,19.9 h 5.9 v 8.3 c 2.4,-3.2 5,-5.5 7.9,-7.1 2.9,-1.6 6,-2.4 9.4,-2.4 3.4,0 6.5,0.9 9.2,2.6 2.7,1.8 4.6,4.1 5.9,7.1 1.3,3 1.9,7.6 1.9,13.9 V 66 H 300 V 44 c 0,-5.3 -0.2,-8.9 -0.7,-10.6 -0.7,-3.1 -2,-5.4 -4,-6.9 -2,-1.5 -4.5,-2.3 -7.6,-2.3 -3.6,0 -6.8,1.2 -9.7,3.6 -2.8,2.4 -4.7,5.3 -5.6,8.8 -0.6,2.3 -0.8,6.5 -0.8,12.6 v 16.9 h -5.9 z"
   id="path12"
   inkscape:connector-curvature="0"
   style="fill:#ffffff" />
		<path
   class="st1"
   d="M 364.6,19.9 V 66 h -5.9 v -7.9 c -2.5,3 -5.3,5.3 -8.4,6.8 -3.1,1.5 -6.5,2.3 -10.2,2.3 -6.5,0 -12.1,-2.4 -16.7,-7.1 -4.6,-4.7 -6.9,-10.5 -6.9,-17.3 0,-6.6 2.3,-12.3 7,-17 4.7,-4.7 10.3,-7.1 16.8,-7.1 3.8,0 7.2,0.8 10.3,2.4 3.1,1.6 5.8,4 8.1,7.3 v -8.5 z m -23.7,4.6 c -3.3,0 -6.4,0.8 -9.1,2.4 -2.8,1.6 -5,3.9 -6.7,6.8 -1.7,2.9 -2.5,6 -2.5,9.3 0,3.2 0.8,6.4 2.5,9.3 1.7,3 3.9,5.3 6.7,6.9 2.8,1.7 5.8,2.5 9,2.5 3.2,0 6.3,-0.8 9.2,-2.5 2.9,-1.6 5.1,-3.9 6.7,-6.7 1.6,-2.8 2.4,-5.9 2.4,-9.4 0,-5.3 -1.8,-9.8 -5.3,-13.4 -3.5,-3.4 -7.8,-5.2 -12.9,-5.2 z"
   id="path14"
   inkscape:connector-curvature="0"
   style="fill:#ffffff" />
		<path
   class="st2"
   d="m 422.7,29.5 -4.7,2.9 c -4.1,-5.4 -9.6,-8.1 -16.6,-8.1 -5.6,0 -10.3,1.8 -14,5.4 -3.7,3.6 -5.6,8 -5.6,13.2 0,3.4 0.9,6.5 2.6,9.5 1.7,3 4.1,5.3 7,6.9 3,1.6 6.3,2.5 10,2.5 6.8,0 12.3,-2.7 16.6,-8.1 l 4.7,3.1 c -2.2,3.3 -5.2,5.9 -8.9,7.7 -3.7,1.8 -8,2.7 -12.7,2.7 -7.3,0 -13.3,-2.3 -18.2,-7 -4.9,-4.7 -7.2,-10.3 -7.2,-16.9 0,-4.5 1.1,-8.6 3.4,-12.4 2.2,-3.8 5.3,-6.8 9.3,-9 3.9,-2.1 8.3,-3.2 13.2,-3.2 3.1,0 6,0.5 8.8,1.4 2.8,0.9 5.3,2.1 7.2,3.6 2.1,1.6 3.8,3.5 5.1,5.8 z"
   id="path16"
   inkscape:connector-curvature="0"
   style="fill:#dbdada" />
		<path
   class="st2"
   d="m 456,18.7 c 7.1,0 13,2.6 17.7,7.7 4.2,4.7 6.4,10.2 6.4,16.7 0,6.4 -2.2,12.1 -6.7,16.9 -4.5,4.8 -10.3,7.2 -17.3,7.2 -7.1,0 -12.9,-2.4 -17.4,-7.2 -4.5,-4.8 -6.7,-10.5 -6.7,-16.9 0,-6.4 2.1,-11.9 6.4,-16.6 4.6,-5.2 10.5,-7.8 17.6,-7.8 z m 0,5.9 c -4.9,0 -9.2,1.8 -12.7,5.5 -3.5,3.6 -5.3,8.1 -5.3,13.2 0,3.3 0.8,6.4 2.4,9.3 1.6,2.9 3.8,5.1 6.6,6.7 2.8,1.6 5.8,2.4 9.1,2.4 3.3,0 6.3,-0.8 9.1,-2.4 2.8,-1.6 4.9,-3.8 6.6,-6.7 1.6,-2.9 2.4,-6 2.4,-9.3 0,-5.2 -1.8,-9.6 -5.3,-13.2 -3.8,-3.7 -8,-5.5 -12.9,-5.5 z"
   id="path18"
   inkscape:connector-curvature="0"
   style="fill:#dbdada" />
		<path
   class="st2"
   d="m 491,19.9 h 5.9 v 8.3 c 2.4,-3.2 5,-5.5 7.9,-7.1 2.9,-1.6 6,-2.4 9.4,-2.4 3.4,0 6.5,0.9 9.2,2.6 2.7,1.8 4.6,4.1 5.9,7.1 1.3,3 1.9,7.6 1.9,13.9 V 66 h -5.9 V 44 c 0,-5.3 -0.2,-8.9 -0.7,-10.6 -0.7,-3.1 -2,-5.4 -4,-6.9 -2,-1.5 -4.5,-2.3 -7.6,-2.3 -3.6,0 -6.8,1.2 -9.7,3.6 -2.8,2.4 -4.7,5.3 -5.6,8.8 -0.6,2.3 -0.8,6.5 -0.8,12.6 V 66.1 H 491 Z"
   id="path20"
   inkscape:connector-curvature="0"
   style="fill:#dbdada" />
		
		
	</g>
	<g
   id="g48">
		<path
   class="st4"
   d="m 24.1,34.5 c -3.5,0 -6.6,1.1 -9.2,3.1 -0.2,0.2 -2.8,-2.8 -2.8,-2.8 0.4,-0.9 0.7,-2 0.7,-3.1 0,-3.5 -2.8,-6.4 -6.4,-6.4 -3.6,0 -6.4,2.8 -6.4,6.4 0,3.6 2.8,6.4 6.4,6.4 0.9,0 1.8,-0.2 2.4,-0.4 l 2.8,2.8 c -2.2,2.6 -3.5,6.1 -3.5,9.9 0,8.5 7,15.6 15.6,15.6 8.6,0 15.6,-7 15.6,-15.6 0,-8.6 -6.6,-15.9 -15.2,-15.9 z M 2.7,31.6 c 0,-2 1.8,-3.7 3.7,-3.7 2,0 3.7,1.8 3.7,3.7 0,2 -1.8,3.7 -3.7,3.7 -1.9,0 -3.7,-1.5 -3.7,-3.7 z m 21.4,29.2 c -5.9,0 -10.5,-4.8 -10.5,-10.5 0,-5.7 4.8,-10.5 10.5,-10.5 5.7,0 10.5,4.8 10.5,10.5 0,5.7 -4.5,10.5 -10.5,10.5 z"
   id="path28"
   inkscape:connector-curvature="0"
   style="fill:#d73832" />
		<circle
   class="st5"
   cx="24.1"
   cy="50.099998"
   r="5.9000001"
   id="circle30"
   style="fill:#53b64e" />
		<path
   class="st5"
   d="m 77.7,59.2 c -1.5,0 -3.1,0.7 -3.9,1.5 v 0 l -2.6,-1.5 v 0 c 0.9,-1.8 1.3,-3.9 1.3,-6.1 0,-7.9 -6.4,-14.2 -14.2,-14.2 -7.8,0 -14.2,6.4 -14.2,14.2 0,7.8 6.4,14.2 14.2,14.2 4.4,0 8.1,-2 10.7,-5 v 0 l 2.6,1.5 0.2,-0.4 c -0.2,0.4 -0.2,1.1 -0.2,1.8 0,3.3 2.6,6.1 6.1,6.1 3.5,0 6.1,-2.6 6.1,-6.1 -0.1,-3.5 -2.7,-6 -6.1,-6 z M 58.1,63 c -5.3,0 -9.6,-4.4 -9.6,-9.6 0,-5.2 4.4,-9.6 9.6,-9.6 5.2,0 9.6,4.4 9.6,9.6 0,5.2 -4.1,9.6 -9.6,9.6 z m 19.6,6.1 c -2,0 -3.7,-1.5 -3.7,-3.7 0,-2 1.5,-3.7 3.7,-3.7 2.2,0 3.7,1.5 3.7,3.7 0,1.9 -1.8,3.7 -3.7,3.7 z"
   id="path32"
   inkscape:connector-curvature="0"
   style="fill:#53b64e" />
		<circle
   class="st4"
   cx="58.099998"
   cy="53.099998"
   r="5.3000002"
   id="circle34"
   style="fill:#d73832" />
		<g
   id="g40">
			<circle
   class="st6"
   cx="40.5"
   cy="73.900002"
   r="3.5"
   id="circle36"
   style="fill:#2f94d1" />
			<path
   class="st3"
   d="m 31.3,77.6 c 0.9,2 2.2,3.7 3.9,4.6 0.2,0 -1.1,2.4 -1.1,2.4 -0.7,0 -1.3,0 -2,0.2 -2,0.9 -3.1,3.1 -2.2,5.3 0.9,2 3.1,3.1 5.3,2.2 2,-0.9 3.1,-3.1 2.2,-5.3 -0.2,-0.4 -0.4,-0.9 -0.9,-1.3 l 1.1,-2.4 c 2.2,0.7 4.4,0.7 6.6,-0.2 5,-2 7.4,-7.9 5.5,-12.9 -2,-5 -7.9,-7.4 -12.9,-5.5 -5.1,2 -7.5,7.9 -5.5,12.9 z m 3.5,13.2 c -1.3,0.4 -2.6,0 -3.1,-1.3 -0.4,-1.3 0,-2.6 1.3,-3.1 1.3,-0.4 2.6,0 3.1,1.3 0.4,1.1 -0.2,2.6 -1.3,3.1 z M 46.6,71.3 c 1.3,3.5 -0.2,7.4 -3.7,8.8 -3.5,1.4 -7.4,-0.2 -8.8,-3.7 -1.4,-3.5 0.2,-7.4 3.7,-8.8 3.5,-1.4 7.5,0.2 8.8,3.7 z"
   id="path38"
   inkscape:connector-curvature="0"
   style="fill:#fac244" />
		</g>
		<g
   id="g46">
			<circle
   class="st3"
   cx="44.700001"
   cy="26.799999"
   r="4.4000001"
   id="circle42"
   style="fill:#fac244" />
			<path
   class="st6"
   d="m 56.2,24.6 c -0.7,-2.6 -2,-4.8 -3.7,-6.4 -0.2,0 1.8,-2.6 1.8,-2.6 0.7,0.2 1.5,0.2 2.4,0 2.6,-0.7 4.2,-3.1 3.7,-5.7 -0.7,-2.6 -3.1,-4.2 -5.7,-3.7 -2.6,0.5 -4.2,3.1 -3.7,5.7 0.2,0.7 0.4,1.3 0.9,1.8 l -1.8,2.6 c -2.4,-1.1 -5,-1.5 -7.9,-1.1 -6.4,1.3 -10.5,7.7 -9.2,14 1.3,6.4 7.7,10.5 14,9.2 6.7,-1.1 10.6,-7.2 9.2,-13.8 z M 55,8.4 c 1.5,-0.4 3.1,0.7 3.3,2.2 0.4,1.5 -0.7,3.1 -2.2,3.3 C 54.6,14.3 53,13.2 52.8,11.7 52.3,10.2 53.4,8.6 55,8.4 Z M 36.8,29 c -0.9,-4.4 1.8,-8.8 6.1,-9.6 4.4,-0.9 8.8,1.8 9.6,6.1 0.8,4.3 -1.8,8.8 -6.1,9.6 C 42,36 37.7,33.2 36.8,29 Z"
   id="path44"
   inkscape:connector-curvature="0"
   style="fill:#2f94d1" />
		</g>
	</g>
</g>
</svg>