<?xml version="1.0" encoding="utf-8"?>
<!-- Generator: Adobe Illustrator 24.2.1, SVG Export Plug-In . SVG Version: 6.00 Build 0)  -->
<svg version="1.1" id="Layer_1" xmlns="http://www.w3.org/2000/svg" xmlns:xlink="http://www.w3.org/1999/xlink" x="0px" y="0px"
	 viewBox="0 0 590.1 590.1" style="enable-background:new 0 0 590.1 590.1;" xml:space="preserve">
<style type="text/css">
	.st0{fill:#041227;stroke:#FFFFFF;stroke-width:5.9392;stroke-miterlimit:10;}
	.st1{fill:#043468;stroke:#545454;stroke-width:9.5973;stroke-miterlimit:10;}
	.st2{fill:none;stroke:#E0E0E0;stroke-width:4.1397;stroke-miterlimit:10;}
	.st3{fill:#2F94D1;}
	.st4{fill:#F39C12;}
	.st5{fill:#D73832;}
	.st6{fill:#53B64E;}
	.st7{fill:#FFFFFF;}
	.st8{fill:#545454;}
</style>
<g>
	<g transform="matrix(1, 0, 0, 1, 0, 0)">
		<circle id="Oval-2" class="st0" cx="295.1" cy="295.1" r="292.1"/>
	</g>
	<g>
		<path class="st1" d="M481.3,416.3H115.5c-2.5,0-4.4-2-4.4-4.4V176.2c0-2.5,2-4.4,4.4-4.4h365.8c2.5,0,4.4,2,4.4,4.4v235.7
			C485.8,414.3,483.8,416.3,481.3,416.3z"/>
		<g>
			<g>
				<g>
					<path class="st2" d="M281.1,225.1V293l0,0c-11.1,6.1-18.7,18-18.7,31.6c0,19.9,16.1,36,36,36s36-16.1,36-36
						c0-13.1-7-24.6-17.5-30.9l0.4-0.6v-68"/>
					<circle class="st3" cx="281.1" cy="226.5" r="12.8"/>
					<circle class="st4" cx="281.1" cy="259.8" r="12.8"/>
					<circle class="st5" cx="281.1" cy="293" r="12.8"/>
					<circle class="st4" cx="260.1" cy="321.1" r="12.8"/>
					<circle class="st4" cx="298.4" cy="361.5" r="12.8"/>
					<circle class="st4" cx="336.8" cy="321.1" r="12.8"/>
					<circle class="st4" cx="326.4" cy="348.6" r="12.8"/>
					<circle class="st4" cx="271.3" cy="348.6" r="12.8"/>
					<circle class="st4" cx="317.3" cy="226.5" r="12.8"/>
					<circle class="st3" cx="317.3" cy="259.8" r="12.8"/>
					<circle class="st6" cx="317.3" cy="293" r="12.8"/>
				</g>
			</g>
		</g>
		<g>
			<g>
				<g>
					<path class="st7" d="M386.4,288.9c-0.2-0.5-0.4-1-0.7-1.4c-3.4-6.3-11.3-8.6-17.5-5.2c-6.3,3.4-8.6,11.3-5.2,17.5
						c1.4,2.6,3.5,4.5,6.2,5.7l1.8-4.2c-1.7-0.8-3.1-2-4-3.7c-2.2-4.1-0.7-9.2,3.4-11.4s9.2-0.7,11.4,3.4c0.2,0.3,0.3,0.6,0.4,0.9
						L386.4,288.9z"/>
					<path class="st7" d="M405.2,292.5c-1.9,1-2.6,3.4-1.6,5.2l-1.3,0.7l-2-3.7c-1-1.9-3.4-2.6-5.2-1.6c-1.9,1-2.6,3.4-1.6,5.2
						l2,3.7l-1.3,0.7l-3.8-7c-1-1.9-3.4-2.6-5.2-1.6c-1.9,1-2.6,3.4-1.6,5.2l3.8,7l-1.3,0.7l-8.3-15.4c-1-1.9-3.4-2.6-5.2-1.6
						c-1.9,1-2.6,3.4-1.6,5.2l16.9,28.4l-1.3,0.7l-4.4-8.2c-1-1.9-3.4-2.6-5.2-1.6c-1.9,1-2.6,3.4-1.6,5.2l6.8,12.5
						c4.1,7.5,13.5,10.4,21.1,6.3l11.9-6.4c7.5-4.1,10.4-13.5,6.3-21.1l-10.9-17.3C409.4,292.1,407,291.4,405.2,292.5z"/>
				</g>
			</g>
		</g>
	</g>
</g>
<circle class="st8" cx="454.1" cy="281.1" r="14"/>
</svg>
