<svg xmlns="http://www.w3.org/2000/svg" width="20.431" height="20.028" viewBox="0 0 20.431 20.028">
  <g id="Group_175" data-name="Group 175" transform="translate(0 -0.001)">
    <path id="Path_1396" data-name="Path 1396" d="M20.087,9.5h-.9l-.258.946a2.039,2.039,0,0,1-1.913,1.5,1.428,1.428,0,0,1-1.182-.559,1.529,1.529,0,0,1-.236-1.332l.15-.559h-2.9l-.258.946a2.064,2.064,0,0,1-1.934,1.5,1.457,1.457,0,0,1-1.182-.559,1.529,1.529,0,0,1-.236-1.332l.15-.559H8.439a3.5,3.5,0,0,0-3.245,2.557L2.53,21.878a2.325,2.325,0,0,0,.365,2.106,2.293,2.293,0,0,0,1.848.881H6.054v.58a2.779,2.779,0,0,0,2.772,2.772H20.087a2.779,2.779,0,0,0,2.772-2.772V12.272A2.779,2.779,0,0,0,20.087,9.5ZM4.765,23.189a.626.626,0,0,1-.516-.215.66.66,0,0,1-.064-.645L6.376,14.12H19.743L17.659,21.9a1.856,1.856,0,0,1-1.633,1.311H4.765Zm16.418,2.256a1.1,1.1,0,0,1-1.1,1.1H8.848a1.1,1.1,0,0,1-1.1-1.1v-.58h8.274a3.5,3.5,0,0,0,3.245-2.557l1.913-7.113Z" transform="translate(-2.428 -8.189)" fill="#fff"/>
    <path id="Path_1397" data-name="Path 1397" d="M38.157,6.387a1.259,1.259,0,0,0,1.16-.924l.3-1.139a.687.687,0,0,0-.666-.924,1.259,1.259,0,0,0-1.16.924l-.3,1.139A.693.693,0,0,0,38.157,6.387Z" transform="translate(-29.932 -3.4)" fill="#fff"/>
    <path id="Path_1398" data-name="Path 1398" d="M67.679,6.387a1.259,1.259,0,0,0,1.16-.924l.3-1.139a.687.687,0,0,0-.666-.924,1.259,1.259,0,0,0-1.16.924l-.322,1.139A.7.7,0,0,0,67.679,6.387Z" transform="translate(-53.093 -3.4)" fill="#fff"/>
    <path id="Path_1399" data-name="Path 1399" d="M40.267,54.5h-2a.373.373,0,0,0-.322.236L37.559,56.2a.173.173,0,0,0,.172.236h2a.373.373,0,0,0,.322-.236l.387-1.461A.173.173,0,0,0,40.267,54.5Z" transform="translate(-30.001 -43.519)" fill="#fff"/>
    <path id="Path_1400" data-name="Path 1400" d="M23.867,54.5h-2a.373.373,0,0,0-.322.236L21.159,56.2a.173.173,0,0,0,.172.236h2a.373.373,0,0,0,.322-.236l.387-1.461A.166.166,0,0,0,23.867,54.5Z" transform="translate(-17.125 -43.519)" fill="#fff"/>
    <path id="Path_1401" data-name="Path 1401" d="M56.667,54.5h-2a.373.373,0,0,0-.322.236L53.959,56.2a.173.173,0,0,0,.172.236h2a.373.373,0,0,0,.322-.236l.387-1.461A.173.173,0,0,0,56.667,54.5Z" transform="translate(-42.876 -43.519)" fill="#fff"/>
    <path id="Path_1402" data-name="Path 1402" d="M44.067,40.2h-2a.373.373,0,0,0-.322.236L41.359,41.9a.173.173,0,0,0,.172.236h2a.373.373,0,0,0,.322-.236l.387-1.461A.166.166,0,0,0,44.067,40.2Z" transform="translate(-32.984 -32.292)" fill="#fff"/>
    <path id="Path_1403" data-name="Path 1403" d="M27.767,40.2h-2a.373.373,0,0,0-.322.236L25.059,41.9a.173.173,0,0,0,.172.236h2a.373.373,0,0,0,.322-.236l.387-1.461A.173.173,0,0,0,27.767,40.2Z" transform="translate(-20.187 -32.292)" fill="#fff"/>
    <path id="Path_1404" data-name="Path 1404" d="M58.024,42.234h2A.373.373,0,0,0,60.345,42l.387-1.461a.173.173,0,0,0-.172-.236h-2a.373.373,0,0,0-.322.236L57.852,42A.171.171,0,0,0,58.024,42.234Z" transform="translate(-45.931 -32.37)" fill="#fff"/>
  </g>
</svg>
