<svg xmlns="http://www.w3.org/2000/svg" width="13.107" height="11.841" viewBox="0 0 13.107 11.841">
    <defs>
        <style>
            .prefix__cls-1{fill:#fff}
        </style>
    </defs>
    <g id="prefix__noun_chemical_bond_2108403" data-name="noun_chemical bond_2108403" transform="translate(-.989 -4.1)">
        <path id="prefix__Path_1601" d="M6.217 43.587A1.873 1.873 0 0 1 5.872 43l-1.9 1.094a1.657 1.657 0 0 0-2.147-.405 1.675 1.675 0 1 0 1.681 2.9 1.649 1.649 0 0 0 .77-1.884z" class="prefix__cls-1" data-name="Path 1601" transform="translate(0 -30.889)"/>
        <path id="prefix__Path_1602" d="M26.62 47.584a1.634 1.634 0 0 1-.932-.284l-.688.405a2.4 2.4 0 0 0 3.241 0l-.689-.405a1.634 1.634 0 0 1-.932.284z" class="prefix__cls-1" data-name="Path 1602" transform="translate(-19.075 -34.342)"/>
        <path id="prefix__Path_1603" d="M36.7 29.81a1.7 1.7 0 0 1 .932 1.5v.1l.689.405a2.041 2.041 0 0 0 .061-.506A2.446 2.446 0 0 0 36.7 29z" class="prefix__cls-1" data-name="Path 1603" transform="translate(-28.385 -19.782)"/>
        <path id="prefix__Path_1604" d="M27.976 34.2a1.276 1.276 0 1 0 1.276 1.276 1.271 1.271 0 0 0-1.276-1.276z" class="prefix__cls-1" data-name="Path 1604" transform="translate(-20.431 -23.916)"/>
        <path id="prefix__Path_1605" d="M21.849 31.41v-.1a1.7 1.7 0 0 1 .932-1.5V29a2.446 2.446 0 0 0-1.681 2.309 2.041 2.041 0 0 0 .061.506z" class="prefix__cls-1" data-name="Path 1605" transform="translate(-15.985 -19.782)"/>
        <path id="prefix__Path_1606" d="M26.037 7.422v2.39a1.784 1.784 0 0 1 .344-.041 2 2 0 0 1 .344.041v-2.39a1.681 1.681 0 1 0-.689 0z" class="prefix__cls-1" data-name="Path 1606" transform="translate(-18.836)"/>
        <path id="prefix__Path_1607" d="M43.516 43.689a1.68 1.68 0 0 0-2.147.405L39.444 43a1.554 1.554 0 0 1-.344.587l1.945 1.134a1.675 1.675 0 1 0 2.471-1.033z" class="prefix__cls-1" data-name="Path 1607" transform="translate(-30.246 -30.889)"/>
    </g>
</svg>
