<svg xmlns="http://www.w3.org/2000/svg" width="19.296" height="17" viewBox="0 0 19.296 17">
  <path id="Shape" d="M15.4,17a1.171,1.171,0,0,1-.652-.219L10.708,14.07a3.244,3.244,0,0,0-1.49-.453H1.44A1.442,1.442,0,0,1,0,12.177V1.44A1.442,1.442,0,0,1,1.44,0H17.856A1.442,1.442,0,0,1,19.3,1.44V12.177a1.442,1.442,0,0,1-1.44,1.44H16.737a.469.469,0,0,0-.47.475l.02,1.86a1.074,1.074,0,0,1-.284.8A.833.833,0,0,1,15.4,17ZM14.173,5.479a1.14,1.14,0,1,0,1.14,1.14A1.141,1.141,0,0,0,14.173,5.479Zm-4.525,0a1.14,1.14,0,1,0,1.14,1.14A1.141,1.141,0,0,0,9.648,5.479Zm-4.525,0a1.14,1.14,0,1,0,1.14,1.14A1.141,1.141,0,0,0,5.122,5.479Z" fill="#2f94d1"/>
</svg>
