<svg xmlns="http://www.w3.org/2000/svg" width="12.6" height="12.6" viewBox="0 0 12.6 12.6">
  <g id="Group_231" data-name="Group 231" transform="translate(0 -2.8)">
    <circle id="Oval" cx="6.3" cy="6.3" r="6.3" transform="translate(0 2.8)" fill="#fff"/>
    <path id="_" data-name="$" d="M2.726-2.455a1.7,1.7,0,0,1-.618,1.372,3.069,3.069,0,0,1-1.729.62v1.1H-.357V-.44A5.972,5.972,0,0,1-2.656-.9V-2.32a6.188,6.188,0,0,0,1.125.408A6.02,6.02,0,0,0-.357-1.7V-3.368l-.36-.14a4.017,4.017,0,0,1-1.507-.91,1.75,1.75,0,0,1-.443-1.217,1.587,1.587,0,0,1,.61-1.281,3.1,3.1,0,0,1,1.7-.61v-.822H.379v.8A6.1,6.1,0,0,1,2.6-7.052L2.1-5.8A5.806,5.806,0,0,0,.379-6.214V-4.63a8.261,8.261,0,0,1,1.49.7,2.039,2.039,0,0,1,.65.65A1.612,1.612,0,0,1,2.726-2.455Zm-1.617.081a.483.483,0,0,0-.183-.381,2.4,2.4,0,0,0-.548-.322V-1.74Q1.109-1.864,1.109-2.374ZM-1.05-5.634a.51.51,0,0,0,.164.389,1.945,1.945,0,0,0,.529.314V-6.193Q-1.05-6.091-1.05-5.634Z" transform="translate(6.3 13)" fill="#043468"/>
  </g>
</svg>
