<svg xmlns="http://www.w3.org/2000/svg" id="prefix__noun_group_2916393" width="21.605" height="14.604" viewBox="0 0 21.605 14.604">
    <defs>
        <style>
            .prefix__cls-1{fill:#fff;fill-rule:evenodd}
        </style>
    </defs>
    <path id="prefix__Path_1545" d="M130.852 154a4.546 4.546 0 0 1 2.351 3.951v1.45a1.5 1.5 0 0 1-1.5 1.5h-6.2a1.474 1.474 0 0 1-1.5-1.5v-1.45A4.668 4.668 0 0 1 126.3 154a3.535 3.535 0 0 0 2.3.85 3.312 3.312 0 0 0 2.252-.85z" class="prefix__cls-1" data-name="Path 1545" transform="translate(-117.798 -146.298)"/>
    <path id="prefix__Path_1546" d="M161.851 43a2.8 2.8 0 0 1 2.8 2.8 2.839 2.839 0 0 1-2.8 2.851A2.882 2.882 0 0 1 159 45.8a2.839 2.839 0 0 1 2.851-2.8z" class="prefix__cls-1" data-name="Path 1546" transform="translate(-151.048 -40.849)"/>
    <path id="prefix__Path_1547" d="M280.5 112a4.428 4.428 0 0 1 2.351 3.951v1.4a1.5 1.5 0 0 1-1.5 1.5H277.5v-.8a5.266 5.266 0 0 0-2.5-4.5 3.3 3.3 0 0 0 .6-1.35 2.869 2.869 0 0 1 .35-.2 3.567 3.567 0 0 0 2.3.8 3.529 3.529 0 0 0 2.25-.801z" class="prefix__cls-1" data-name="Path 1547" transform="translate(-261.247 -106.399)"/>
    <path id="prefix__Path_1548" d="M285.851 0a2.8 2.8 0 0 1 2.8 2.8 2.807 2.807 0 0 1-2.8 2.851A2.849 2.849 0 0 1 283 2.8a2.839 2.839 0 0 1 2.851-2.8z" class="prefix__cls-1" data-name="Path 1548" transform="translate(-268.846)"/>
    <path id="prefix__Path_1549" d="M6.9 112a1.046 1.046 0 0 1 .3.2 4.226 4.226 0 0 0 .65 1.35 5.266 5.266 0 0 0-2.5 4.5v.8H1.5a1.5 1.5 0 0 1-1.5-1.5v-1.4A4.542 4.542 0 0 1 2.3 112a3.776 3.776 0 0 0 2.3.8 3.776 3.776 0 0 0 2.3-.8z" class="prefix__cls-1" data-name="Path 1549" transform="translate(0 -106.399)"/>
    <path id="prefix__Path_1550" d="M38.8 0a2.8 2.8 0 0 1 2.8 2.8 2.8 2.8 0 1 1-5.6 0A2.8 2.8 0 0 1 38.8 0z" class="prefix__cls-1" data-name="Path 1550" transform="translate(-34.2)"/>
</svg>
