<svg xmlns="http://www.w3.org/2000/svg" width="16.309" height="16.309" viewBox="0 0 16.309 16.309">
  <g id="noun_Info_356153" transform="translate(-6 -6)">
    <g id="Group_196" data-name="Group 196" transform="translate(6 6)">
      <g id="Group_195" data-name="Group 195">
        <path id="Path_1406" data-name="Path 1406" d="M14.154,22.309A8.154,8.154,0,1,0,6,14.154a8.154,8.154,0,0,0,8.154,8.154Zm0-1.483a6.672,6.672,0,1,0-6.672-6.672,6.672,6.672,0,0,0,6.672,6.672Zm1.3-10.19a1.078,1.078,0,0,1-.318.785,1.03,1.03,0,0,1-.765.325,1.041,1.041,0,0,1-.769-.325,1.075,1.075,0,0,1-.321-.785,1.086,1.086,0,0,1,.321-.788,1.062,1.062,0,0,1,1.533,0,1.09,1.09,0,0,1,.318.788Zm-.106,7.312q-.477.229-.762.35a1.686,1.686,0,0,1-.661.12,1.173,1.173,0,0,1-.9-.343A1.226,1.226,0,0,1,12.7,17.2a3.737,3.737,0,0,1,.024-.42q.024-.214.077-.484l.4-1.714q.053-.246.09-.467a2.449,2.449,0,0,0,.036-.4.713.713,0,0,0-.111-.458.549.549,0,0,0-.426-.13.935.935,0,0,0-.317.059c-.108.039-.172-.417-.172-.417q.391-.194.748-.331a1.884,1.884,0,0,1,.677-.138,1.145,1.145,0,0,1,.886.338,1.244,1.244,0,0,1,.311.877q0,.112-.021.393a3.149,3.149,0,0,1-.08.517l-.4,1.707q-.048.206-.087.47a2.933,2.933,0,0,0-.039.4.652.652,0,0,0,.125.464.61.61,0,0,0,.434.123,1.046,1.046,0,0,0,.328-.062c.122-.041.159.42.159.42Z" transform="translate(-6 -6)" fill="#2f94d1" fill-rule="evenodd"/>
      </g>
    </g>
  </g>
</svg>
