<?xml version="1.0" encoding="utf-8"?>
<!-- Generator: Adobe Illustrator 23.0.2, SVG Export Plug-In . SVG Version: 6.00 Build 0)  -->
<svg version="1.1" id="Layer_2_1_" xmlns="http://www.w3.org/2000/svg" xmlns:xlink="http://www.w3.org/1999/xlink" x="0px" y="0px"
	 viewBox="0 0 102 102" style="enable-background:new 0 0 102 102;" xml:space="preserve">
<style type="text/css">
	.st0{enable-background:new    ;}
	.st1{fill:#D8E6F5;}
	.st2{fill:#FFFFFF;}
	.st3{fill:#D73832;}
	.st4{fill:#53B64E;}
	.st5{fill:#2F94D1;}
	.st6{fill:#FAC244;}
</style>
<g>
	<g>
		<path class="st3" d="M27.6,34.7c-3.5,0-6.6,1.1-9.2,3.1C18.2,38,15.6,35,15.6,35c0.4-0.9,0.7-2,0.7-3.1c0-3.5-2.8-6.4-6.4-6.4
			s-6.4,2.8-6.4,6.4s2.8,6.4,6.4,6.4c0.9,0,1.8-0.2,2.4-0.4l2.8,2.8c-2.2,2.6-3.5,6.1-3.5,9.9c0,8.5,7,15.6,15.6,15.6
			s15.6-7,15.6-15.6S36.2,34.7,27.6,34.7z M6.2,31.8c0-2,1.8-3.7,3.7-3.7c2,0,3.7,1.8,3.7,3.7c0,2-1.8,3.7-3.7,3.7S6.2,34,6.2,31.8z
			 M27.6,61c-5.9,0-10.5-4.8-10.5-10.5S21.9,40,27.6,40s10.5,4.8,10.5,10.5S33.6,61,27.6,61z"/>
		<circle class="st4" cx="27.6" cy="50.3" r="5.9"/>
		<path class="st4" d="M81.2,59.4c-1.5,0-3.1,0.7-3.9,1.5l0,0l-2.6-1.5l0,0c0.9-1.8,1.3-3.9,1.3-6.1c0-7.9-6.4-14.2-14.2-14.2
			s-14.2,6.4-14.2,14.2S54,67.5,61.8,67.5c4.4,0,8.1-2,10.7-5l0,0l2.6,1.5l0.2-0.4c-0.2,0.4-0.2,1.1-0.2,1.8c0,3.3,2.6,6.1,6.1,6.1
			s6.1-2.6,6.1-6.1C87.2,61.9,84.6,59.4,81.2,59.4z M61.6,63.2c-5.3,0-9.6-4.4-9.6-9.6s4.4-9.6,9.6-9.6s9.6,4.4,9.6,9.6
			S67.1,63.2,61.6,63.2z M81.2,69.3c-2,0-3.7-1.5-3.7-3.7c0-2,1.5-3.7,3.7-3.7s3.7,1.5,3.7,3.7C84.9,67.5,83.1,69.3,81.2,69.3z"/>
		<circle class="st3" cx="61.6" cy="53.3" r="5.3"/>
		<g>
			<circle class="st5" cx="44" cy="74.1" r="3.5"/>
			<path class="st6" d="M34.8,77.8c0.9,2,2.2,3.7,3.9,4.6c0.2,0-1.1,2.4-1.1,2.4c-0.7,0-1.3,0-2,0.2c-2,0.9-3.1,3.1-2.2,5.3
				c0.9,2,3.1,3.1,5.3,2.2c2-0.9,3.1-3.1,2.2-5.3c-0.2-0.4-0.4-0.9-0.9-1.3l1.1-2.4c2.2,0.7,4.4,0.7,6.6-0.2c5-2,7.4-7.9,5.5-12.9
				c-2-5-7.9-7.4-12.9-5.5C35.2,66.9,32.8,72.8,34.8,77.8z M38.3,91c-1.3,0.4-2.6,0-3.1-1.3c-0.4-1.3,0-2.6,1.3-3.1
				c1.3-0.4,2.6,0,3.1,1.3C40,89,39.4,90.5,38.3,91z M50.1,71.5c1.3,3.5-0.2,7.4-3.7,8.8s-7.4-0.2-8.8-3.7s0.2-7.4,3.7-8.8
				S48.8,68,50.1,71.5z"/>
		</g>
		<g>
			<circle class="st6" cx="48.2" cy="27" r="4.4"/>
			<path class="st5" d="M59.7,24.8c-0.7-2.6-2-4.8-3.7-6.4c-0.2,0,1.8-2.6,1.8-2.6c0.7,0.2,1.5,0.2,2.4,0c2.6-0.7,4.2-3.1,3.7-5.7
				c-0.7-2.6-3.1-4.2-5.7-3.7s-4.2,3.1-3.7,5.7c0.2,0.7,0.4,1.3,0.9,1.8l-1.8,2.6c-2.4-1.1-5-1.5-7.9-1.1c-6.4,1.3-10.5,7.7-9.2,14
				c1.3,6.4,7.7,10.5,14,9.2C57.2,37.5,61.1,31.4,59.7,24.8z M58.5,8.6c1.5-0.4,3.1,0.7,3.3,2.2c0.4,1.5-0.7,3.1-2.2,3.3
				c-1.5,0.4-3.1-0.7-3.3-2.2C55.8,10.4,56.9,8.8,58.5,8.6z M40.3,29.2c-0.9-4.4,1.8-8.8,6.1-9.6c4.4-0.9,8.8,1.8,9.6,6.1
				s-1.8,8.8-6.1,9.6C45.5,36.2,41.2,33.4,40.3,29.2z"/>
		</g>
	</g>
</g>
</svg>
