<?xml version="1.0" encoding="utf-8"?>
<!-- Generator: Adobe Illustrator 23.0.2, SVG Export Plug-In . SVG Version: 6.00 Build 0)  -->
<svg version="1.1" id="Layer_2_1_" xmlns="http://www.w3.org/2000/svg" xmlns:xlink="http://www.w3.org/1999/xlink" x="0px" y="0px"
	 viewBox="0 0 100 100" style="enable-background:new 0 0 100 100;" xml:space="preserve">
<style type="text/css">
	.st0{fill:#D73832;}
	.st1{fill:#53B64E;}
	.st2{fill:#2F94D1;}
	.st3{fill:#FAC244;}
</style>
<g>
	<path class="st0" d="M32.2,35.1c-3.5,0-6.6,1.1-9.2,3.1c-0.2,0.2-2.8-2.8-2.8-2.8c0.4-0.9,0.7-2,0.7-3.1c0-3.5-2.8-6.4-6.4-6.4
		s-6.4,2.8-6.4,6.4s2.8,6.4,6.4,6.4c0.9,0,1.8-0.2,2.4-0.4l2.8,2.8c-2.2,2.6-3.5,6.1-3.5,9.9c0,8.5,7,15.6,15.6,15.6
		s15.6-7,15.6-15.6S40.8,35.1,32.2,35.1z M10.8,32.2c0-2,1.8-3.7,3.7-3.7c2,0,3.7,1.8,3.7,3.7c0,2-1.8,3.7-3.7,3.7
		S10.8,34.4,10.8,32.2z M32.2,61.4c-5.9,0-10.5-4.8-10.5-10.5s4.8-10.5,10.5-10.5s10.5,4.8,10.5,10.5S38.2,61.4,32.2,61.4z"/>
	<circle class="st1" cx="32.2" cy="50.7" r="5.9"/>
	<path class="st1" d="M85.8,59.8c-1.5,0-3.1,0.7-3.9,1.5l0,0l-2.6-1.5l0,0c0.9-1.8,1.3-3.9,1.3-6.1c0-7.9-6.4-14.2-14.2-14.2
		s-14.2,6.4-14.2,14.2s6.4,14.2,14.2,14.2c4.4,0,8.1-2,10.7-5l0,0l2.6,1.5l0.2-0.4c-0.2,0.4-0.2,1.1-0.2,1.8c0,3.3,2.6,6.1,6.1,6.1
		s6.1-2.6,6.1-6.1C91.8,62.3,89.2,59.8,85.8,59.8z M66.2,63.6c-5.3,0-9.6-4.4-9.6-9.6s4.4-9.6,9.6-9.6s9.6,4.4,9.6,9.6
		S71.7,63.6,66.2,63.6z M85.8,69.7c-2,0-3.7-1.5-3.7-3.7c0-2,1.5-3.7,3.7-3.7s3.7,1.5,3.7,3.7C89.5,67.9,87.7,69.7,85.8,69.7z"/>
	<circle class="st0" cx="66.2" cy="53.7" r="5.3"/>
	<g>
		<circle class="st2" cx="48.6" cy="74.5" r="3.5"/>
		<path class="st3" d="M39.4,78.2c0.9,2,2.2,3.7,3.9,4.6c0.2,0-1.1,2.4-1.1,2.4c-0.7,0-1.3,0-2,0.2c-2,0.9-3.1,3.1-2.2,5.3
			c0.9,2,3.1,3.1,5.3,2.2c2-0.9,3.1-3.1,2.2-5.3c-0.2-0.4-0.4-0.9-0.9-1.3l1.1-2.4c2.2,0.7,4.4,0.7,6.6-0.2c5-2,7.4-7.9,5.5-12.9
			c-2-5-7.9-7.4-12.9-5.5C39.8,67.3,37.4,73.2,39.4,78.2z M42.9,91.4c-1.3,0.4-2.6,0-3.1-1.3c-0.4-1.3,0-2.6,1.3-3.1
			c1.3-0.4,2.6,0,3.1,1.3C44.6,89.4,44,90.9,42.9,91.4z M54.7,71.9c1.3,3.5-0.2,7.4-3.7,8.8s-7.4-0.2-8.8-3.7s0.2-7.4,3.7-8.8
			S53.4,68.4,54.7,71.9z"/>
	</g>
	<g>
		<circle class="st3" cx="52.8" cy="27.4" r="4.4"/>
		<path class="st2" d="M64.3,25.2c-0.7-2.6-2-4.8-3.7-6.4c-0.2,0,1.8-2.6,1.8-2.6c0.7,0.2,1.5,0.2,2.4,0c2.6-0.7,4.2-3.1,3.7-5.7
			c-0.7-2.6-3.1-4.2-5.7-3.7s-4.2,3.1-3.7,5.7c0.2,0.7,0.4,1.3,0.9,1.8l-1.8,2.6c-2.4-1.1-5-1.5-7.9-1.1c-6.4,1.3-10.5,7.7-9.2,14
			c1.3,6.4,7.7,10.5,14,9.2C61.8,37.9,65.7,31.8,64.3,25.2z M63.1,9c1.5-0.4,3.1,0.7,3.3,2.2c0.4,1.5-0.7,3.1-2.2,3.3
			c-1.5,0.4-3.1-0.7-3.3-2.2C60.4,10.8,61.5,9.2,63.1,9z M44.9,29.6C44,25.2,46.7,20.8,51,20c4.4-0.9,8.8,1.8,9.6,6.1
			s-1.8,8.8-6.1,9.6C50.1,36.6,45.8,33.8,44.9,29.6z"/>
	</g>
</g>
</svg>
