<?xml version="1.0" encoding="utf-8"?>
<!-- Generator: Adobe Illustrator 23.0.2, SVG Export Plug-In . SVG Version: 6.00 Build 0)  -->
<svg version="1.1" id="Layer_2_1_" xmlns="http://www.w3.org/2000/svg" xmlns:xlink="http://www.w3.org/1999/xlink" x="0px" y="0px"
	 viewBox="0 0 379 102" style="enable-background:new 0 0 379 102;" xml:space="preserve">
<style type="text/css">
	.st0{enable-background:new    ;}
	.st1{fill:#D8E6F5;}
	.st2{fill:#FFFFFF;}
	.st3{fill:#D73832;}
	.st4{fill:#53B64E;}
	.st5{fill:#2F94D1;}
	.st6{fill:#FAC244;}
</style>
<g>
	<g class="st0">
		<path class="st1" d="M138.5,50.4l5,2.6c-1.6,3.2-3.5,5.8-5.7,7.8s-4.6,3.5-7.3,4.5s-5.7,1.5-9.1,1.5c-7.5,0-13.4-2.5-17.7-7.4
			c-4.2-4.9-6.4-10.5-6.4-16.7c0-5.9,1.8-11.1,5.4-15.6c4.6-5.8,10.7-8.7,18.3-8.7c7.9,0,14.1,3,18.8,8.9c3.3,4.2,5,9.5,5.1,15.8
			h-41.5c0.1,5.4,1.8,9.8,5.1,13.2c3.3,3.4,7.4,5.1,12.3,5.1c2.3,0,4.6-0.4,6.9-1.2c2.2-0.8,4.1-1.9,5.7-3.3S136.7,53.4,138.5,50.4z
			 M138.5,38c-0.8-3.2-1.9-5.7-3.5-7.6c-1.5-1.9-3.5-3.4-6-4.6s-5.1-1.7-7.9-1.7c-4.5,0-8.4,1.5-11.7,4.4c-2.4,2.1-4.2,5.3-5.4,9.5
			H138.5z"/>
		<path class="st1" d="M161.2,2.5h5.9v17.1h9.4v5.1h-9.4v41h-5.9v-41h-8.1v-5.1h8.1V2.5z"/>
		<path class="st1" d="M224.3,50.4l5,2.6c-1.6,3.2-3.5,5.8-5.7,7.8s-4.6,3.5-7.3,4.5s-5.7,1.5-9.1,1.5c-7.5,0-13.4-2.5-17.7-7.4
			c-4.2-4.9-6.4-10.5-6.4-16.7c0-5.9,1.8-11.1,5.4-15.6c4.6-5.8,10.7-8.7,18.3-8.7c7.9,0,14.1,3,18.8,8.9c3.3,4.2,5,9.5,5.1,15.8
			h-41.5c0.1,5.4,1.8,9.8,5.1,13.2s7.4,5.1,12.3,5.1c2.3,0,4.6-0.4,6.9-1.2c2.2-0.8,4.1-1.9,5.7-3.3S222.5,53.4,224.3,50.4z
			 M224.3,38c-0.8-3.2-1.9-5.7-3.5-7.6c-1.5-1.9-3.5-3.4-6-4.6s-5.1-1.7-7.9-1.7c-4.5,0-8.4,1.5-11.7,4.4c-2.4,2.1-4.2,5.3-5.4,9.5
			H224.3z"/>
	</g>
	<g class="st0">
		<path class="st2" d="M239.7,19.6h6.1v6.7c1.8-2.7,3.7-4.6,5.7-6s4.1-2,6.3-2c1.6,0,3.4,0.5,5.3,1.6l-3.1,5
			c-1.2-0.5-2.3-0.8-3.1-0.8c-2,0-3.9,0.8-5.7,2.4s-3.2,4.1-4.2,7.6c-0.7,2.6-1.1,7.9-1.1,15.9v15.6h-6.1L239.7,19.6L239.7,19.6z"/>
		<path class="st2" d="M269.9,19.6h5.9v8.3c2.4-3.2,5-5.5,7.9-7.1s6-2.4,9.4-2.4s6.5,0.9,9.2,2.6c2.7,1.8,4.6,4.1,5.9,7.1
			s1.9,7.6,1.9,13.9v23.7h-5.9v-22c0-5.3-0.2-8.9-0.7-10.6c-0.7-3.1-2-5.3-4-6.9s-4.5-2.3-7.6-2.3c-3.6,0-6.8,1.2-9.6,3.6
			c-2.8,2.4-4.7,5.3-5.6,8.8c-0.6,2.3-0.8,6.5-0.8,12.5v16.9H270L269.9,19.6L269.9,19.6z"/>
		<path class="st2" d="M368.8,19.6v46.1h-5.9v-7.9c-2.5,3-5.3,5.3-8.4,6.8c-3.1,1.5-6.5,2.3-10.2,2.3c-6.5,0-12.1-2.4-16.7-7.1
			s-6.9-10.5-6.9-17.3c0-6.6,2.3-12.3,7-17s10.3-7.1,16.8-7.1c3.8,0,7.2,0.8,10.3,2.4s5.8,4,8.1,7.2v-8.5L368.8,19.6L368.8,19.6z
			 M345.1,24.1c-3.3,0-6.4,0.8-9.1,2.4c-2.8,1.6-5,3.9-6.7,6.8s-2.5,6-2.5,9.3c0,3.2,0.8,6.4,2.5,9.3c1.7,3,3.9,5.3,6.7,6.9
			c2.8,1.7,5.8,2.5,9,2.5s6.3-0.8,9.2-2.5c2.9-1.6,5.1-3.9,6.7-6.6c1.6-2.8,2.3-5.9,2.3-9.4c0-5.3-1.8-9.8-5.3-13.4
			C354.5,25.9,350.2,24.1,345.1,24.1z"/>
	</g>
	<g class="st0">
		<path class="st2" d="M98.5,98.4l1.1-0.7c0.8,1.4,1.7,2.2,2.7,2.2c0.4,0,0.8-0.1,1.2-0.3c0.4-0.2,0.7-0.5,0.9-0.8
			c0.2-0.3,0.3-0.7,0.3-1.1s-0.1-0.9-0.4-1.3c-0.4-0.6-1.2-1.3-2.2-2.1c-1.1-0.8-1.8-1.4-2-1.8c-0.5-0.6-0.7-1.3-0.7-2
			c0-0.6,0.1-1.1,0.4-1.5c0.3-0.5,0.7-0.8,1.1-1.1c0.5-0.3,1-0.4,1.6-0.4s1.2,0.2,1.7,0.5s1.1,0.9,1.7,1.7l-1.1,0.8
			c-0.5-0.6-0.9-1.1-1.3-1.3c-0.3-0.2-0.7-0.3-1.1-0.3c-0.5,0-1,0.2-1.3,0.5s-0.5,0.7-0.5,1.2c0,0.3,0.1,0.6,0.2,0.8
			c0.1,0.3,0.3,0.6,0.6,0.9c0.2,0.2,0.7,0.6,1.7,1.3c1.1,0.8,1.9,1.6,2.3,2.2c0.4,0.7,0.6,1.3,0.6,2c0,0.9-0.4,1.8-1.1,2.5
			s-1.6,1-2.6,1c-0.8,0-1.5-0.2-2.2-0.6C99.6,100.1,99,99.4,98.5,98.4z"/>
		<path class="st2" d="M113.2,91c1.5,0,2.7,0.5,3.7,1.6c0.9,1,1.3,2.1,1.3,3.5c0,1.3-0.5,2.5-1.4,3.5s-2.1,1.5-3.6,1.5
			s-2.7-0.5-3.6-1.5s-1.4-2.2-1.4-3.5s0.4-2.5,1.3-3.5C110.5,91.5,111.8,91,113.2,91z M113.2,92.2c-1,0-1.9,0.4-2.7,1.1
			c-0.7,0.8-1.1,1.7-1.1,2.8c0,0.7,0.2,1.3,0.5,1.9s0.8,1.1,1.4,1.4s1.2,0.5,1.9,0.5c0.7,0,1.3-0.2,1.9-0.5s1-0.8,1.4-1.4
			s0.5-1.3,0.5-1.9c0-1.1-0.4-2-1.1-2.8C115.1,92.6,114.3,92.2,113.2,92.2z"/>
		<path class="st2" d="M120.4,87.5h1.2v13.4h-1.2V87.5z"/>
		<path class="st2" d="M123.3,91.2h1.3l3.2,7l3.2-7h1.3l-4.4,9.6h-0.2L123.3,91.2z"/>
		<path class="st2" d="M142.4,97.7l1,0.5c-0.3,0.7-0.7,1.2-1.2,1.6c-0.4,0.4-1,0.7-1.5,0.9s-1.2,0.3-1.9,0.3c-1.6,0-2.8-0.5-3.7-1.5
			s-1.3-2.2-1.3-3.5c0-1.2,0.4-2.3,1.1-3.3c1-1.2,2.2-1.8,3.8-1.8s3,0.6,3.9,1.9c0.7,0.9,1.1,2,1.1,3.3H135c0,1.1,0.4,2,1.1,2.8
			c0.7,0.7,1.5,1.1,2.6,1.1c0.5,0,1-0.1,1.4-0.3c0.5-0.2,0.9-0.4,1.2-0.7C141.6,98.7,142,98.3,142.4,97.7z M142.4,95.1
			c-0.2-0.7-0.4-1.2-0.7-1.6s-0.7-0.7-1.3-1s-1.1-0.4-1.6-0.4c-0.9,0-1.8,0.3-2.4,0.9c-0.5,0.4-0.9,1.1-1.1,2L142.4,95.1L142.4,95.1
			z"/>
		<path class="st2" d="M151.3,87.8h2.6c1.5,0,2.5,0.1,3,0.2c0.7,0.2,1.4,0.6,1.8,1.1c0.5,0.6,0.7,1.3,0.7,2.1c0,0.9-0.2,1.6-0.7,2.1
			c-0.5,0.6-1.1,0.9-1.9,1.1c-0.6,0.1-1.7,0.2-3.3,0.2h-0.9v6.1h-1.3L151.3,87.8L151.3,87.8z M152.6,89.1v4.4h2.2
			c0.9,0,1.5-0.1,2-0.2c0.4-0.2,0.7-0.4,1-0.8s0.4-0.8,0.4-1.2c0-0.4-0.1-0.8-0.4-1.2s-0.5-0.6-0.9-0.8s-1-0.2-1.9-0.2
			C155,89.1,152.6,89.1,152.6,89.1z"/>
		<path class="st2" d="M161.6,91.2h1.2v4.5c0,1.1,0.1,1.9,0.2,2.3c0.2,0.6,0.5,1.1,1,1.4s1.1,0.5,1.8,0.5s1.3-0.2,1.8-0.5
			s0.8-0.8,1-1.3c0.1-0.4,0.2-1.2,0.2-2.4v-4.5h1.3V96c0,1.3-0.2,2.3-0.5,3s-0.8,1.2-1.4,1.6c-0.6,0.4-1.4,0.6-2.3,0.6
			c-0.9,0-1.7-0.2-2.4-0.6c-0.6-0.4-1.1-0.9-1.4-1.6c-0.3-0.7-0.5-1.7-0.5-3.1L161.6,91.2L161.6,91.2z"/>
		<path class="st2" d="M172,91.2h7.1l-5.5,8.5h5.3v1.1h-7.4l5.5-8.5h-5L172,91.2L172,91.2z"/>
		<path class="st2" d="M179.7,91.2h7.1l-5.5,8.5h5.3v1.1h-7.4l5.5-8.5h-4.9v-1.1H179.7z"/>
		<path class="st2" d="M188.1,87.5h1.2v13.4h-1.2V87.5z"/>
		<path class="st2" d="M200,97.7l1,0.5c-0.3,0.7-0.7,1.2-1.2,1.6c-0.4,0.4-1,0.7-1.5,0.9s-1.2,0.3-1.9,0.3c-1.6,0-2.8-0.5-3.7-1.5
			s-1.3-2.2-1.3-3.5c0-1.2,0.4-2.3,1.1-3.3c1-1.2,2.2-1.8,3.8-1.8s3,0.6,3.9,1.9c0.7,0.9,1.1,2,1.1,3.3h-8.7c0,1.1,0.4,2,1.1,2.8
			s1.5,1.1,2.6,1.1c0.5,0,1-0.1,1.4-0.3c0.5-0.2,0.9-0.4,1.2-0.7C199.3,98.7,199.6,98.3,200,97.7z M200,95.1
			c-0.2-0.7-0.4-1.2-0.7-1.6s-0.7-0.7-1.3-1s-1.1-0.4-1.6-0.4c-0.9,0-1.8,0.3-2.4,0.9c-0.5,0.4-0.9,1.1-1.1,2L200,95.1L200,95.1z"/>
		<path class="st2" d="M208.5,92.3l-0.8,0.8c-0.7-0.6-1.3-1-1.9-1c-0.4,0-0.7,0.1-1,0.4s-0.4,0.6-0.4,0.9s0.1,0.6,0.4,0.9
			c0.2,0.3,0.7,0.6,1.5,1c0.9,0.5,1.5,0.9,1.9,1.4c0.3,0.4,0.5,1,0.5,1.5c0,0.8-0.3,1.5-0.8,2c-0.6,0.5-1.3,0.8-2.1,0.8
			c-0.6,0-1.1-0.1-1.6-0.4s-0.9-0.6-1.3-1l0.8-0.9c0.6,0.7,1.3,1.1,2,1.1c0.5,0,0.9-0.2,1.3-0.5c0.3-0.3,0.5-0.7,0.5-1.1
			s-0.1-0.7-0.3-0.9c-0.2-0.3-0.8-0.6-1.6-1c-0.9-0.4-1.5-0.9-1.8-1.3s-0.5-0.9-0.5-1.5c0-0.7,0.2-1.3,0.7-1.8s1.1-0.7,1.9-0.7
			C206.7,91,207.6,91.4,208.5,92.3z"/>
		<path class="st2" d="M212.1,98.9c0.3,0,0.6,0.1,0.8,0.3c0.2,0.2,0.3,0.5,0.3,0.8s-0.1,0.6-0.3,0.8s-0.5,0.3-0.8,0.3
			s-0.6-0.1-0.8-0.3c-0.2-0.2-0.3-0.5-0.3-0.8s0.1-0.6,0.3-0.8S211.8,98.9,212.1,98.9z"/>
		<path class="st2" d="M223.8,87.8h1.3v13h-1.3V87.8z"/>
		<path class="st2" d="M227.9,91.2h1.2v1.7c0.5-0.7,1-1.2,1.6-1.5s1.3-0.5,2-0.5s1.4,0.2,1.9,0.5s1,0.9,1.2,1.5
			c0.3,0.6,0.4,1.6,0.4,2.9v5H235v-4.6c0-1.1,0-1.9-0.1-2.2c-0.1-0.6-0.4-1.1-0.8-1.4c-0.4-0.3-0.9-0.5-1.6-0.5
			c-0.8,0-1.4,0.2-2,0.7s-1,1.1-1.2,1.8c-0.1,0.5-0.2,1.4-0.2,2.6v3.5h-1.2V91.2z"/>
		<path class="st2" d="M238,91.2h1.3l3.2,7l3.2-7h1.3l-4.4,9.6h-0.2L238,91.2z"/>
		<path class="st2" d="M257.1,97.7l1,0.5c-0.3,0.7-0.7,1.2-1.2,1.6c-0.4,0.4-1,0.7-1.5,0.9s-1.2,0.3-1.9,0.3c-1.6,0-2.8-0.5-3.7-1.5
			s-1.3-2.2-1.3-3.5c0-1.2,0.4-2.3,1.1-3.3c1-1.2,2.2-1.8,3.8-1.8s3,0.6,3.9,1.9c0.7,0.9,1.1,2,1.1,3.3h-8.7c0,1.1,0.4,2,1.1,2.8
			c0.7,0.7,1.5,1.1,2.6,1.1c0.5,0,1-0.1,1.4-0.3c0.5-0.2,0.9-0.4,1.2-0.7C256.3,98.7,256.7,98.3,257.1,97.7z M257.1,95.1
			c-0.2-0.7-0.4-1.2-0.7-1.6s-0.7-0.7-1.3-1s-1.1-0.4-1.6-0.4c-0.9,0-1.8,0.3-2.4,0.9c-0.5,0.4-0.9,1.1-1.1,2L257.1,95.1L257.1,95.1
			z"/>
		<path class="st2" d="M260.8,91.2h1.2v1.7c0.5-0.7,1-1.2,1.6-1.5s1.3-0.5,2-0.5s1.4,0.2,1.9,0.5c0.6,0.4,1,0.9,1.2,1.5
			s0.4,1.6,0.4,2.9v5h-1.2v-4.6c0-1.1,0-1.9-0.1-2.2c-0.1-0.6-0.4-1.1-0.8-1.4s-0.9-0.5-1.6-0.5c-0.8,0-1.4,0.2-2,0.7
			s-1,1.1-1.2,1.8c-0.1,0.5-0.2,1.4-0.2,2.6v3.5h-1.2L260.8,91.2L260.8,91.2z"/>
		<path class="st2" d="M272.9,87.6h1.2v3.6h2v1.1h-2v8.6h-1.2v-8.6h-1.7v-1.1h1.7V87.6z"/>
		<path class="st2" d="M282.6,100.9l1.9-13h0.2l5.3,10.7l5.2-10.7h0.2l1.9,13H296l-1.3-9.3l-4.6,9.3h-0.3l-4.7-9.4l-1.3,9.4H282.6z"
			/>
		<path class="st2" d="M307.8,97.7l1,0.5c-0.3,0.7-0.7,1.2-1.2,1.6c-0.4,0.4-1,0.7-1.5,0.9s-1.2,0.3-1.9,0.3c-1.6,0-2.8-0.5-3.7-1.5
			s-1.3-2.2-1.3-3.5c0-1.2,0.4-2.3,1.1-3.3c1-1.2,2.2-1.8,3.8-1.8c1.6,0,3,0.6,3.9,1.9c0.7,0.9,1.1,2,1.1,3.3h-8.7
			c0,1.1,0.4,2,1.1,2.8c0.7,0.7,1.5,1.1,2.6,1.1c0.5,0,1-0.1,1.4-0.3c0.5-0.2,0.9-0.4,1.2-0.7S307.4,98.3,307.8,97.7z M307.8,95.1
			c-0.2-0.7-0.4-1.2-0.7-1.6s-0.7-0.7-1.3-1s-1.1-0.4-1.6-0.4c-0.9,0-1.8,0.3-2.4,0.9c-0.5,0.4-0.9,1.1-1.1,2L307.8,95.1L307.8,95.1
			z"/>
		<path class="st2" d="M321.1,87.5v13.4h-1.2v-1.7c-0.5,0.6-1.1,1.1-1.7,1.4s-1.4,0.5-2.1,0.5c-1.4,0-2.5-0.5-3.5-1.5
			s-1.4-2.2-1.4-3.6s0.5-2.6,1.5-3.6s2.1-1.5,3.5-1.5c0.8,0,1.5,0.2,2.1,0.5s1.2,0.8,1.7,1.5v-5.5L321.1,87.5L321.1,87.5z
			 M316.1,92.2c-0.7,0-1.3,0.2-1.9,0.5s-1,0.8-1.4,1.4c-0.3,0.6-0.5,1.3-0.5,1.9c0,0.7,0.2,1.3,0.5,1.9s0.8,1.1,1.4,1.4
			s1.2,0.5,1.9,0.5c0.7,0,1.3-0.2,1.9-0.5s1.1-0.8,1.4-1.4s0.5-1.2,0.5-2c0-1.1-0.4-2-1.1-2.8C318.1,92.5,317.2,92.2,316.1,92.2z"/>
		<path class="st2" d="M324.3,87.3c0.3,0,0.5,0.1,0.7,0.3c0.2,0.2,0.3,0.4,0.3,0.7c0,0.3-0.1,0.5-0.3,0.7c-0.2,0.2-0.4,0.3-0.7,0.3
			c-0.3,0-0.5-0.1-0.7-0.3c-0.2-0.2-0.3-0.4-0.3-0.7c0-0.3,0.1-0.5,0.3-0.7C323.8,87.4,324.1,87.3,324.3,87.3z M323.7,91.2h1.2v9.6
			h-1.2V91.2z"/>
		<path class="st2" d="M336.9,93.2l-1,0.6c-0.8-1.1-2-1.7-3.5-1.7c-1.2,0-2.1,0.4-2.9,1.1c-0.8,0.8-1.2,1.7-1.2,2.8
			c0,0.7,0.2,1.4,0.5,2c0.4,0.6,0.8,1.1,1.5,1.4c0.6,0.3,1.3,0.5,2.1,0.5c1.4,0,2.6-0.6,3.5-1.7l1,0.6c-0.5,0.7-1.1,1.2-1.9,1.6
			s-1.7,0.6-2.7,0.6c-1.5,0-2.8-0.5-3.8-1.5S327,97.4,327,96c0-0.9,0.2-1.8,0.7-2.6c0.5-0.8,1.1-1.4,1.9-1.9
			c0.8-0.4,1.7-0.7,2.8-0.7c0.6,0,1.3,0.1,1.8,0.3s1.1,0.4,1.5,0.8C336.3,92.3,336.6,92.7,336.9,93.2z"/>
		<path class="st2" d="M339.7,87.3c0.3,0,0.5,0.1,0.7,0.3c0.2,0.2,0.3,0.4,0.3,0.7c0,0.3-0.1,0.5-0.3,0.7c-0.2,0.2-0.4,0.3-0.7,0.3
			c-0.3,0-0.5-0.1-0.7-0.3c-0.2-0.2-0.3-0.4-0.3-0.7c0-0.3,0.1-0.5,0.3-0.7C339.2,87.4,339.4,87.3,339.7,87.3z M339.1,91.2h1.2v9.6
			h-1.2V91.2z"/>
		<path class="st2" d="M342.9,91.2h1.2v1.7c0.5-0.7,1-1.2,1.6-1.5s1.3-0.5,2-0.5s1.4,0.2,1.9,0.5s1,0.9,1.2,1.5
			c0.3,0.6,0.4,1.6,0.4,2.9v5H350v-4.6c0-1.1,0-1.9-0.1-2.2c-0.1-0.6-0.4-1.1-0.8-1.4s-0.9-0.5-1.6-0.5c-0.8,0-1.4,0.2-2,0.7
			s-1,1.1-1.2,1.8c-0.1,0.5-0.2,1.4-0.2,2.6v3.5h-1.2L342.9,91.2L342.9,91.2z"/>
		<path class="st2" d="M362.1,97.7l1,0.5c-0.3,0.7-0.7,1.2-1.2,1.6c-0.4,0.4-1,0.7-1.5,0.9s-1.2,0.3-1.9,0.3c-1.6,0-2.8-0.5-3.7-1.5
			s-1.3-2.2-1.3-3.5c0-1.2,0.4-2.3,1.1-3.3c1-1.2,2.2-1.8,3.8-1.8c1.6,0,3,0.6,3.9,1.9c0.7,0.9,1.1,2,1.1,3.3h-8.7
			c0,1.1,0.4,2,1.1,2.8s1.5,1.1,2.6,1.1c0.5,0,1-0.1,1.4-0.3c0.5-0.2,0.9-0.4,1.2-0.7C361.4,98.7,361.7,98.3,362.1,97.7z
			 M362.1,95.1c-0.2-0.7-0.4-1.2-0.7-1.6s-0.7-0.7-1.3-1s-1.1-0.4-1.6-0.4c-0.9,0-1.8,0.3-2.4,0.9c-0.5,0.4-0.9,1.1-1.1,2
			L362.1,95.1L362.1,95.1z"/>
		<path class="st2" d="M367.1,98.9c0.3,0,0.6,0.1,0.8,0.3c0.2,0.2,0.3,0.5,0.3,0.8s-0.1,0.6-0.3,0.8c-0.2,0.2-0.5,0.3-0.8,0.3
			s-0.6-0.1-0.8-0.3s-0.3-0.5-0.3-0.8s0.1-0.6,0.3-0.8C366.6,99,366.8,98.9,367.1,98.9z"/>
	</g>
	<g>
		<path class="st3" d="M27.6,34.7c-3.5,0-6.6,1.1-9.2,3.1C18.2,38,15.6,35,15.6,35c0.4-0.9,0.7-2,0.7-3.1c0-3.5-2.8-6.4-6.4-6.4
			s-6.4,2.8-6.4,6.4s2.8,6.4,6.4,6.4c0.9,0,1.8-0.2,2.4-0.4l2.8,2.8c-2.2,2.6-3.5,6.1-3.5,9.9c0,8.5,7,15.6,15.6,15.6
			s15.6-7,15.6-15.6S36.2,34.7,27.6,34.7z M6.2,31.8c0-2,1.8-3.7,3.7-3.7c2,0,3.7,1.8,3.7,3.7c0,2-1.8,3.7-3.7,3.7S6.2,34,6.2,31.8z
			 M27.6,61c-5.9,0-10.5-4.8-10.5-10.5S21.9,40,27.6,40s10.5,4.8,10.5,10.5S33.6,61,27.6,61z"/>
		<circle class="st4" cx="27.6" cy="50.3" r="5.9"/>
		<path class="st4" d="M81.2,59.4c-1.5,0-3.1,0.7-3.9,1.5l0,0l-2.6-1.5l0,0c0.9-1.8,1.3-3.9,1.3-6.1c0-7.9-6.4-14.2-14.2-14.2
			s-14.2,6.4-14.2,14.2S54,67.5,61.8,67.5c4.4,0,8.1-2,10.7-5l0,0l2.6,1.5l0.2-0.4c-0.2,0.4-0.2,1.1-0.2,1.8c0,3.3,2.6,6.1,6.1,6.1
			s6.1-2.6,6.1-6.1C87.2,61.9,84.6,59.4,81.2,59.4z M61.6,63.2c-5.3,0-9.6-4.4-9.6-9.6s4.4-9.6,9.6-9.6s9.6,4.4,9.6,9.6
			S67.1,63.2,61.6,63.2z M81.2,69.3c-2,0-3.7-1.5-3.7-3.7c0-2,1.5-3.7,3.7-3.7s3.7,1.5,3.7,3.7C84.9,67.5,83.1,69.3,81.2,69.3z"/>
		<circle class="st3" cx="61.6" cy="53.3" r="5.3"/>
		<g>
			<circle class="st5" cx="44" cy="74.1" r="3.5"/>
			<path class="st6" d="M34.8,77.8c0.9,2,2.2,3.7,3.9,4.6c0.2,0-1.1,2.4-1.1,2.4c-0.7,0-1.3,0-2,0.2c-2,0.9-3.1,3.1-2.2,5.3
				c0.9,2,3.1,3.1,5.3,2.2c2-0.9,3.1-3.1,2.2-5.3c-0.2-0.4-0.4-0.9-0.9-1.3l1.1-2.4c2.2,0.7,4.4,0.7,6.6-0.2c5-2,7.4-7.9,5.5-12.9
				c-2-5-7.9-7.4-12.9-5.5C35.2,66.9,32.8,72.8,34.8,77.8z M38.3,91c-1.3,0.4-2.6,0-3.1-1.3c-0.4-1.3,0-2.6,1.3-3.1
				c1.3-0.4,2.6,0,3.1,1.3C40,89,39.4,90.5,38.3,91z M50.1,71.5c1.3,3.5-0.2,7.4-3.7,8.8s-7.4-0.2-8.8-3.7s0.2-7.4,3.7-8.8
				S48.8,68,50.1,71.5z"/>
		</g>
		<g>
			<circle class="st6" cx="48.2" cy="27" r="4.4"/>
			<path class="st5" d="M59.7,24.8c-0.7-2.6-2-4.8-3.7-6.4c-0.2,0,1.8-2.6,1.8-2.6c0.7,0.2,1.5,0.2,2.4,0c2.6-0.7,4.2-3.1,3.7-5.7
				c-0.7-2.6-3.1-4.2-5.7-3.7s-4.2,3.1-3.7,5.7c0.2,0.7,0.4,1.3,0.9,1.8l-1.8,2.6c-2.4-1.1-5-1.5-7.9-1.1c-6.4,1.3-10.5,7.7-9.2,14
				c1.3,6.4,7.7,10.5,14,9.2C57.2,37.5,61.1,31.4,59.7,24.8z M58.5,8.6c1.5-0.4,3.1,0.7,3.3,2.2c0.4,1.5-0.7,3.1-2.2,3.3
				c-1.5,0.4-3.1-0.7-3.3-2.2C55.8,10.4,56.9,8.8,58.5,8.6z M40.3,29.2c-0.9-4.4,1.8-8.8,6.1-9.6c4.4-0.9,8.8,1.8,9.6,6.1
				s-1.8,8.8-6.1,9.6C45.5,36.2,41.2,33.4,40.3,29.2z"/>
		</g>
	</g>
</g>
</svg>
