<?xml version="1.0" encoding="utf-8"?>
<!-- Generator: Adobe Illustrator 24.2.1, SVG Export Plug-In . SVG Version: 6.00 Build 0)  -->
<svg version="1.1" id="Layer_1" xmlns="http://www.w3.org/2000/svg" xmlns:xlink="http://www.w3.org/1999/xlink" x="0px" y="0px"
	 viewBox="0 0 100 100" style="enable-background:new 0 0 100 100;" xml:space="preserve">
<style type="text/css">
	.st0{fill:#FFFFFF;}
</style>
<path class="st0" d="M28.2,92.8c-1.9,0-3.8-0.6-5.4-1.8c-2.9-2.1-4.3-5.5-3.7-9l3-17.9c0.2-1-0.2-2.1-0.9-2.8l-13-12.6
	c-2.5-2.5-3.4-6.1-2.3-9.4s3.9-5.8,7.4-6.3l17.9-2.6c1-0.2,1.9-0.8,2.4-1.8l8-16.3c1.6-3.2,4.7-5.1,8.2-5.1c0,0,0,0,0,0
	c3.5,0,6.7,2,8.2,5.1l8,16.2c0.5,0.9,1.4,1.6,2.4,1.7l17.9,2.6c3.5,0.5,6.3,2.9,7.4,6.3s0.2,7-2.3,9.4l-13,12.7
	c-0.8,0.7-1.1,1.8-0.9,2.8l3.1,17.9c0.6,3.5-0.8,6.9-3.6,9c-2.9,2.1-6.6,2.3-9.7,0.7l-16-8.4c-0.9-0.5-2-0.5-3,0l-16,8.4
	C31.2,92.4,29.7,92.8,28.2,92.8z M50,13.2C50,13.2,50,13.2,50,13.2c-1.2,0-2.3,0.7-2.9,1.8l-8,16.3c-1.3,2.7-3.9,4.6-6.9,5
	l-17.9,2.6c-1.2,0.2-2.2,1-2.6,2.2c-0.4,1.2-0.1,2.4,0.8,3.3l13,12.6c2.2,2.1,3.2,5.2,2.7,8.1l-3,17.9c-0.2,1.2,0.3,2.4,1.3,3.1
	c1,0.7,2.3,0.8,3.4,0.2l16-8.4c2.7-1.4,5.9-1.4,8.6,0l16,8.4c1.1,0.6,2.4,0.5,3.4-0.2s1.5-1.9,1.3-3.1l-3.1-17.9
	c-0.5-3,0.5-6,2.6-8.1l13-12.7c0.9-0.9,1.2-2.1,0.8-3.3c-0.4-1.2-1.4-2-2.6-2.2l-17.9-2.6c-3-0.4-5.6-2.3-6.9-5l-8-16.2
	C52.3,13.9,51.2,13.2,50,13.2z"/>
</svg>
