<?xml version="1.0" encoding="utf-8"?>
<!-- Generator: Adobe Illustrator 24.2.1, SVG Export Plug-In . SVG Version: 6.00 Build 0)  -->
<svg version="1.1" id="Layer_1" xmlns="http://www.w3.org/2000/svg" xmlns:xlink="http://www.w3.org/1999/xlink" x="0px" y="0px"
	 viewBox="0 0 100 100" style="enable-background:new 0 0 100 100;" xml:space="preserve">
<style type="text/css">
	.st0{fill:#FFFFFF;}
</style>
<g>
	<path class="st0" d="M84,27.5c7-2.9,16-7.8,6.1-17.6C80.3,0,75.4,9,72.5,16c-2.9,7-7.8,2.9-11.9-1.2C56.5,10.7,50,0,50,0
		s-6.6,10.6-10.7,14.8c-4.1,4.1-9,8.2-11.9,1.2C24.6,9,19.7,0,9.8,9.8C0,19.7,9,24.6,16,27.4c7,2.9,2.9,7.8-1.2,11.9
		C10.6,43.4,0,50,0,50l25,25l25,25c0,0,10.7-6.6,14.8-10.7s8.2-9,1.2-11.9c-7-2.9-16-7.8-6.1-17.6C69.7,50,74.6,59,77.5,66
		c2.9,7,7.8,2.9,11.9-1.2C93.4,60.7,100,50,100,50s-10.7-6.6-14.8-10.7C81.1,35.3,77,30.3,84,27.5z"/>
</g>
</svg>
