<svg xmlns="http://www.w3.org/2000/svg" width="22" height="30.442" viewBox="0 0 22 30.442">
    <path id="prefix__noun_Lock_1768436" d="M216.7 87.941a.513.513 0 0 0 0-.073 2.79 2.79 0 0 0-2.473-2.736 5.264 5.264 0 0 0-.662-.017h-.475v-3.544a12.793 12.793 0 0 0-.153-2.414 7.211 7.211 0 0 0-2.528-4.193 7.787 7.787 0 0 0-2.459-1.352 7.167 7.167 0 0 0-2.538-.34 7.293 7.293 0 0 0-4.092 1.446 8.127 8.127 0 0 0-1.706 1.758 7.227 7.227 0 0 0-.954 1.942 8.583 8.583 0 0 0-.343 2.688v4.009H197.506a2.8 2.8 0 0 0-2.382 1.3 5.049 5.049 0 0 0-.416 2.8v11.575a2.923 2.923 0 0 0 .746 2.032 2.819 2.819 0 0 0 2.1.884h16.108a3.478 3.478 0 0 0 1.117-.139 2.808 2.808 0 0 0 1.921-2.642V87.941zm-8.76 6.391a2.314 2.314 0 0 1-1.193 1.932v1.873a1.04 1.04 0 1 1-2.081 0V96.25a2.227 2.227 0 0 1-.884-.829 2.272 2.272 0 0 1 .236-2.608 2.225 2.225 0 0 1 2.417-.645 2.272 2.272 0 0 1 1.5 2.07v.042a.089.089 0 0 1 .002.053zm2.379-12.2v2.982h-9.224v-4.1a9.845 9.845 0 0 1 .031-1.014 6.064 6.064 0 0 1 .319-1.155 6.171 6.171 0 0 1 .6-1.023c-.035.042-.066.083-.1.125l.218-.281c-.038.052-.08.1-.118.156a6.09 6.09 0 0 1 .832-.832c-.052.038-.1.076-.156.118l.281-.218c-.042.031-.083.066-.125.1a4.624 4.624 0 0 1 3.447-.922 6.381 6.381 0 0 1 1.186.323 6.173 6.173 0 0 1 1.023.6l-.121-.1.281.218c-.052-.038-.1-.08-.156-.118a6.344 6.344 0 0 1 .836.836c-.038-.052-.076-.1-.118-.156l.218.281c-.031-.042-.066-.083-.1-.125a4.592 4.592 0 0 1 .915 2.173c.07.7.028 1.429.028 2.133z" transform="translate(-194.7 -73.264)" style="fill:#e4e4e4"/>
</svg>
