<?xml version="1.0" encoding="utf-8"?>
<!-- Generator: Adobe Illustrator 24.2.1, SVG Export Plug-In . SVG Version: 6.00 Build 0)  -->
<svg version="1.1" id="Layer_1" xmlns="http://www.w3.org/2000/svg" xmlns:xlink="http://www.w3.org/1999/xlink" x="0px" y="0px"
	 viewBox="0 0 100 100" style="enable-background:new 0 0 100 100;" xml:space="preserve">
<style type="text/css">
	.st0{fill:#FFFFFF;}
</style>
<path class="st0" d="M50,1C23,1,1,23,1,50c0,27,22,49,49,49c27,0,49-22,49-49C99,23,77,1,50,1z M33.4,10.3
	c-2.2,2.8-4.2,6.2-5.9,10.1c-2.1-0.7-4.2-1.5-6.2-2.4C24.8,14.7,28.9,12.1,33.4,10.3z M16.9,22.4c2.8,1.4,5.6,2.5,8.5,3.5
	c-2,6.3-3.2,13.4-3.4,21.1H7C7.7,37.7,11.3,29.2,16.9,22.4z M7,53H22c0.3,7.7,1.5,14.8,3.4,21.1c-2.9,1-5.7,2.2-8.5,3.5
	C11.3,70.8,7.7,62.3,7,53z M21.3,82.1c2-0.9,4.1-1.7,6.2-2.4c1.7,3.9,3.6,7.3,5.9,10.1C28.9,87.9,24.8,85.3,21.3,82.1z M47,92.7
	c-5.4-1.5-10.3-6.9-13.7-14.8c4.5-1.1,9.1-1.8,13.7-2V92.7z M47,70c-5.4,0.2-10.7,1-15.9,2.3c-1.8-5.7-3-12.3-3.2-19.3H47V70z
	 M47,47H27.9c0.3-7,1.4-13.6,3.2-19.3C36.3,29,41.7,29.8,47,30V47z M47,24.1c-4.6-0.2-9.2-0.8-13.7-2C36.8,14.3,41.6,8.8,47,7.3
	V24.1z M93,47H78c-0.3-7.7-1.5-14.8-3.4-21.1c2.9-1,5.7-2.2,8.5-3.5C88.7,29.2,92.3,37.7,93,47z M78.7,17.9c-2,0.9-4.1,1.7-6.2,2.4
	c-1.7-3.9-3.6-7.3-5.9-10.1C71.1,12.1,75.2,14.7,78.7,17.9z M53,7.3c5.4,1.5,10.3,6.9,13.7,14.8c-4.5,1.1-9.1,1.8-13.7,2V7.3z
	 M53,30c5.4-0.2,10.7-1,15.9-2.3c1.8,5.7,3,12.3,3.2,19.3H53V30z M53,53h19.1c-0.3,7-1.4,13.6-3.2,19.3C63.6,71,58.3,70.2,53,70V53z
	 M53,92.7V75.9c4.6,0.2,9.2,0.8,13.7,2C63.2,85.7,58.4,91.2,53,92.7z M66.6,89.7c2.2-2.8,4.2-6.2,5.9-10.1c2.1,0.7,4.2,1.5,6.2,2.4
	C75.2,85.3,71.1,87.9,66.6,89.7z M83.1,77.6c-2.8-1.4-5.6-2.5-8.5-3.5c2-6.3,3.2-13.4,3.4-21.1H93C92.3,62.3,88.7,70.8,83.1,77.6z"
	/>
</svg>
