<svg xmlns="http://www.w3.org/2000/svg" width="10.51" height="10.511" viewBox="0 0 10.51 10.511">
  <path id="Shape" d="M5.255,10.51A5.255,5.255,0,1,1,10.51,5.255,5.261,5.261,0,0,1,5.255,10.51ZM2.9,5.858a1.82,1.82,0,0,0-1.179,1.6c0,.033,0,.065.006.1l0,.023H6.561l0-.022V7.546c0-.031.005-.061.005-.091A1.862,1.862,0,0,0,5.3,5.816a1.542,1.542,0,0,1-2.4.042Zm2.774-.721a2.047,2.047,0,0,1-.143.34,2.731,2.731,0,0,1,.941.688,2.157,2.157,0,0,1,.28.4h2.02l.017-.2c0-.036.006-.071.007-.107A1.791,1.791,0,0,0,7.646,4.7a1.646,1.646,0,0,1-.269.321,1.378,1.378,0,0,1-.929.375,1.342,1.342,0,0,1-.777-.254h0ZM4.081,2.814a1.433,1.433,0,0,0-1.291,1.54A1.433,1.433,0,0,0,4.081,5.893,1.433,1.433,0,0,0,5.372,4.354,1.433,1.433,0,0,0,4.081,2.814Zm2.367-.539a1.121,1.121,0,0,0-1.029.891,2.1,2.1,0,0,1,.357,1.188,1.942,1.942,0,0,1-.013.224.983.983,0,0,0,.685.293,1.206,1.206,0,0,0,1.083-1.3A1.207,1.207,0,0,0,6.448,2.275Z" transform="translate(0 0.001)" fill="#fff"/>
</svg>
